<svg width="85" height="65" viewBox="0 0 85 65" fill="none" xmlns="http://www.w3.org/2000/svg">
<path d="M68.2566 51.1388H5.36221C3.38711 51.1388 1.78235 49.5251 1.78235 47.539V5.83032C1.78235 3.8442 3.38711 2.23047 5.36221 2.23047H68.2566C70.2317 2.23047 71.8365 3.8442 71.8365 5.83032V47.5079C71.8674 49.4941 70.2317 51.1388 68.2566 51.1388Z" stroke="#858685" stroke-width="3" stroke-miterlimit="10"/>
<path d="M68.2566 51.1388H5.36221C3.38711 51.1388 1.78235 49.5251 1.78235 47.539V5.83032C1.78235 3.8442 3.38711 2.23047 5.36221 2.23047H68.2566C70.2317 2.23047 71.8365 3.8442 71.8365 5.83032V47.5079C71.8674 49.4941 70.2317 51.1388 68.2566 51.1388Z" fill="white"/>
<mask id="mask0_1_2531" style="mask-type:luminance" maskUnits="userSpaceOnUse" x="1" y="2" width="71" height="50">
<path d="M68.2566 51.1388H5.36221C3.38711 51.1388 1.78235 49.5251 1.78235 47.539V5.83032C1.78235 3.8442 3.38711 2.23047 5.36221 2.23047H68.2566C70.2317 2.23047 71.8365 3.8442 71.8365 5.83032V47.5079C71.8674 49.4941 70.2317 51.1388 68.2566 51.1388Z" fill="white"/>
</mask>
<g mask="url(#mask0_1_2531)">
<path d="M28.2685 85.6478H11.2951C6.66594 85.6478 2.90092 81.8617 2.90092 77.2067L0 43.4736C0 38.8186 9.19654 35.1877 13.8257 35.1877H25.6762C30.3054 35.1877 39.5019 38.8186 39.5019 43.4736L36.601 77.2067C36.6627 81.8617 32.8977 85.6478 28.2685 85.6478Z" fill="#FF2200" stroke="#020202" stroke-miterlimit="10" stroke-linecap="round" stroke-linejoin="round"/>
</g>
<path d="M13.538 28.856L13.5381 28.856L13.5323 28.849C12.2371 27.2801 11.3152 25.1022 11.0185 23.1071C10.7576 21.2079 10.5714 19.2282 10.721 17.4118C10.8707 15.5936 11.353 13.9904 12.3832 12.7984L12.3834 12.7981C13.6691 11.3085 15.8735 10.4888 19.0411 10.4888H19.288C22.4556 10.4888 24.6601 11.3085 25.9458 12.7981L25.946 12.7984C26.9765 13.9908 27.4585 15.5866 27.6082 17.4003C27.7578 19.2128 27.5716 21.1925 27.3105 23.1079C27.0141 25.132 26.093 27.279 24.7969 28.849L24.7968 28.8489L24.7912 28.856C23.7301 30.1898 21.9149 31.7086 19.288 31.7086H19.0411C16.4143 31.7086 14.5991 30.1898 13.538 28.856Z" fill="#BFBEBE" stroke="black"/>
<path d="M41.2534 11.5713H64.2139" stroke="black" stroke-width="2" stroke-linejoin="round"/>
<path d="M41.3459 20.1987H60.3871" stroke="black" stroke-width="2" stroke-linejoin="round"/>
<path d="M41.3459 27.9258H60.3871" stroke="black" stroke-width="2" stroke-linejoin="round"/>
<ellipse cx="67.7187" cy="47" rx="16.7187" ry="18" fill="#F7F7F7"/>
<path d="M81.3645 47C81.3645 55.0435 75.3166 61.5 67.9323 61.5C60.548 61.5 54.5 55.0435 54.5 47C54.5 38.9565 60.548 32.5 67.9323 32.5C75.3166 32.5 81.3645 38.9565 81.3645 47Z" fill="white" stroke="black"/>
<path d="M60 47.0318L66.4688 53.9964C66.9492 54.5135 67.7997 54.3837 68.1039 53.7468L74.1928 41" stroke="#FF2200" stroke-width="3" stroke-linecap="round"/>
</svg>
