<svg width="128" height="66" viewBox="0 0 128 66" fill="none" xmlns="http://www.w3.org/2000/svg">
<path fill-rule="evenodd" clip-rule="evenodd" d="M83.9829 3.14463V56.9199C83.9829 57.3457 83.6786 57.6733 83.2831 57.6733H61.5575C61.162 57.6733 60.8577 57.3457 60.8577 56.9199C60.8577 51.3836 56.6892 46.8956 51.547 46.8956C46.4048 46.8956 42.2362 51.3836 42.2362 56.9199C42.2362 57.3457 41.932 57.6733 41.5364 57.6733H26.232C25.8364 57.6733 25.5321 57.3457 25.5321 56.9199V1.75346C25.5321 1.32759 25.8364 1 26.232 1H82.3041L83.9829 3.14463Z" fill="#F2F2F2" stroke="black"/>
<ellipse cx="7.54596" cy="8.12427" rx="7.54596" ry="8.12427" transform="matrix(-1 0 0 1 59.0312 49.0901)" fill="#D9D9D9" stroke="black"/>
<ellipse cx="3.92512" cy="4.22593" rx="3.92512" ry="4.22593" transform="matrix(-1 0 0 1 55.4092 52.9883)" fill="white" stroke="black"/>
<ellipse cx="7.54596" cy="8.12427" rx="7.54596" ry="8.12427" transform="matrix(-1 0 0 1 114.716 49.0901)" fill="#D9D9D9" stroke="black"/>
<ellipse cx="3.92512" cy="4.22593" rx="3.92512" ry="4.22593" transform="matrix(-1 0 0 1 111.094 52.9883)" fill="white" stroke="black"/>
<path fill-rule="evenodd" clip-rule="evenodd" d="M116.48 56.9198C116.48 51.3835 112.311 46.8955 107.169 46.8955C102.027 46.8955 97.8584 51.3835 97.8584 56.9198C97.8584 57.3457 97.5542 57.6733 97.1586 57.6733H88.9128C88.0609 57.6733 87.361 56.9198 87.361 56.0025V21.802C87.361 21.3106 87.7262 20.9175 88.1826 20.9175H97.9193C98.5583 20.9175 99.1668 21.1468 99.6537 21.6054L113.954 34.3487C113.985 34.3815 113.985 34.3815 114.015 34.4143L123.539 41.392C124.908 42.1782 125.76 43.7506 125.76 45.4213V48.9266C125.76 49.4179 126.125 49.8111 126.582 49.8111C127.038 49.8111 127.403 50.2042 127.403 50.6956V54.8887C127.403 56.2646 126.491 57.4112 125.273 57.6405C125.213 57.6405 125.152 57.6405 125.121 57.6405H117.241C116.784 57.6733 116.48 57.3457 116.48 56.9198Z" fill="#FF2200"/>
<path d="M125.273 57.6405C126.491 57.4112 127.403 56.2646 127.403 54.8887V50.6956C127.403 50.2042 127.038 49.8111 126.582 49.8111C126.125 49.8111 125.76 49.4179 125.76 48.9266V45.4213C125.76 43.7506 124.908 42.1782 123.539 41.392L114.015 34.4143C113.985 34.3815 113.985 34.3815 113.954 34.3487L99.6537 21.6054C99.1668 21.1468 98.5583 20.9175 97.9193 20.9175H88.1826C87.7262 20.9175 87.361 21.3106 87.361 21.802V56.0025C87.361 56.9198 88.0609 57.6733 88.9128 57.6733H97.1586C97.5542 57.6733 97.8584 57.3457 97.8584 56.9198C97.8584 51.3835 102.027 46.8955 107.169 46.8955C112.311 46.8955 116.48 51.3835 116.48 56.9198C116.48 57.3457 116.784 57.6733 117.241 57.6405H125.121M125.273 57.6405C125.213 57.6405 125.152 57.6405 125.121 57.6405M125.273 57.6405H125.121" stroke="black"/>
<path d="M127.403 50.6955C127.403 50.2041 126.582 49.811 126.582 49.811L113.844 49.9305C115.475 51.7361 116.48 54.2016 116.48 56.9198C116.48 57.3456 116.784 57.6732 117.241 57.6405H125.121H125.273C126.491 57.4112 127.403 56.2646 127.403 54.8887V50.6955Z" fill="#D9D9D9"/>
<path d="M125.273 57.6405C126.491 57.4112 127.403 56.2646 127.403 54.8887V50.6955C127.403 50.2041 126.582 49.811 126.582 49.811L113.844 49.9305C115.475 51.7361 116.48 54.2016 116.48 56.9198C116.48 57.3456 116.784 57.6732 117.241 57.6405H125.121M125.273 57.6405C125.213 57.6405 125.152 57.6405 125.121 57.6405M125.273 57.6405H125.121" stroke="black"/>
<path fill-rule="evenodd" clip-rule="evenodd" d="M124.135 46.781V46.0806C124.135 45.0301 124.135 44.4285 122.777 43.4981L120.349 41.8785C119.155 41.2116 119.155 41.9223 119.155 42.5789V46.387C119.155 47.3938 119.205 48.1817 120.151 48.1817H123.637C124.134 48.1817 124.135 47.5689 124.135 46.781Z" fill="white" stroke="black"/>
<path fill-rule="evenodd" clip-rule="evenodd" d="M91.622 23.7676H97.1902C97.5554 23.7676 97.9205 23.8986 98.2248 24.1607L109.483 34.1522C109.939 34.5126 109.696 35.2988 109.118 35.2988H91.5916C90.6484 35.2988 89.8877 34.4798 89.9181 33.4643C89.9485 31.3022 89.9485 27.7642 89.9181 25.6021C89.9181 24.5866 90.6788 23.7676 91.622 23.7676Z" fill="white" stroke="black"/>
<ellipse cx="16.7187" cy="23" rx="16.7187" ry="18" fill="#F7F7F7"/>
<path d="M30.3645 23C30.3645 31.0435 24.3166 37.5 16.9323 37.5C9.54795 37.5 3.5 31.0435 3.5 23C3.5 14.9565 9.54795 8.5 16.9323 8.5C24.3166 8.5 30.3645 14.9565 30.3645 23Z" fill="white" stroke="black"/>
<path d="M9 23.0318L15.4688 29.9964C15.9492 30.5135 16.7997 30.3837 17.1039 29.7468L23.1928 17" stroke="#FF2200" stroke-width="3" stroke-linecap="round"/>
<path d="M39.0698 24.038C36.5483 23.7719 34.2983 25.559 34.0268 28.0306C33.7552 30.5022 35.5785 32.7076 38.1 32.9737C40.6215 33.2399 42.8714 31.4528 43.143 28.9812C43.1818 28.677 43.1818 28.3728 43.143 28.0686C42.9102 25.9392 41.2034 24.2662 39.0698 24.038ZM38.9146 30.8824C37.5569 31.0725 36.3543 30.1219 36.1604 28.8291C35.9664 27.4982 36.9362 26.3195 38.2551 26.1294C39.6129 25.9392 40.8154 26.8898 41.0094 28.1827C41.2034 29.4755 40.2336 30.7303 38.9146 30.8824ZM45.5869 24.2281C45.005 24.2281 44.5007 24.6844 44.5007 25.2928C44.5007 25.3689 44.5007 25.4449 44.5395 25.521C44.6559 26.0153 45.1214 26.3575 45.6257 26.3575H48.6127L43.9576 32.3653C43.8412 32.4794 43.88 32.6695 44.0352 32.7836C44.074 32.8216 44.1516 32.8597 44.2292 32.8597H51.5221C52.0264 32.8597 52.4919 32.5174 52.6083 32.0231C52.7247 31.4528 52.3755 30.8824 51.7936 30.7683C51.7161 30.7683 51.6385 30.7303 51.5609 30.7303H47.9144L52.5307 24.7225C52.6471 24.5704 52.6083 24.4183 52.4531 24.3042C52.4143 24.2662 52.3367 24.2281 52.2591 24.2281H45.5869ZM74.6811 24.2281C74.1768 24.3422 73.8276 24.7985 73.8276 25.2928V28.7911L68.0476 24.2662C67.9312 24.1521 67.7372 24.1901 67.6209 24.3042C67.5821 24.3422 67.5433 24.4183 67.5433 24.4943V31.7189C67.5433 32.2133 67.8924 32.6695 68.3967 32.7836C68.9786 32.8977 69.5605 32.5555 69.6769 31.9851C69.6769 31.9091 69.7157 31.833 69.7157 31.757V28.2207L75.4957 32.7456C75.6121 32.8597 75.806 32.8216 75.9224 32.7076C75.9612 32.6695 76 32.5935 76 32.5174V25.2548C76 24.6844 75.5345 24.1901 74.9138 24.1901C74.8362 24.2281 74.7586 24.2281 74.6811 24.2281ZM59.6297 26.1294C62.0736 26.1294 63.8968 27.3842 63.8968 28.5249C63.8968 29.6656 62.0736 30.9204 59.6297 30.9204C57.1858 30.9204 55.3625 29.6656 55.3625 28.5249C55.3625 27.3842 57.1858 26.1294 59.6297 26.1294ZM59.6297 24C56.0996 24 53.229 26.0153 53.229 28.4869C53.229 30.9584 56.0996 32.9737 59.6297 32.9737C63.1598 32.9737 66.0304 30.9584 66.0304 28.4869C66.0304 26.0153 63.1598 24 59.6297 24Z" fill="#676767"/>
</svg>
