<svg width="128" height="66" viewBox="0 0 128 66" fill="none" xmlns="http://www.w3.org/2000/svg">
<g id="Gazel+daw">
<g id="Gazele">
<path id="Shape" fill-rule="evenodd" clip-rule="evenodd" d="M83.9829 3.14463V56.9199C83.9829 57.3457 83.6786 57.6733 83.2831 57.6733H61.5575C61.162 57.6733 60.8577 57.3457 60.8577 56.9199C60.8577 51.3836 56.6892 46.8956 51.547 46.8956C46.4048 46.8956 42.2362 51.3836 42.2362 56.9199C42.2362 57.3457 41.932 57.6733 41.5364 57.6733H26.232C25.8364 57.6733 25.5321 57.3457 25.5321 56.9199V1.75346C25.5321 1.32759 25.8364 1 26.232 1H82.3041L83.9829 3.14463Z" fill="#F2F2F2" stroke="black"/>
<g id="Group 339">
<g id="g43">
<g id="g32">
<path id="path12" d="M45.769 31.1938V24.5549H49.6929V25.3873H46.5816V27.4285H49.3758V28.2608H46.5816V30.3416H49.9109V31.1739H45.769V31.1938Z" fill="#676767"/>
<path id="path14" d="M54.0328 31.1938L52.6853 29.43L51.3377 31.1938H50.3864L52.2295 28.8355L50.2874 26.3979H51.3575L52.6853 28.2211L54.0328 26.3979H55.0832L53.2401 28.8355L54.9841 31.1938H54.0328Z" fill="#676767"/>
<path id="path16" d="M56.292 30.4803V33.7502H55.4795V28.8553C55.4795 27.6068 56.4307 26.2791 57.917 26.2791C59.4232 26.2791 60.5527 27.2303 60.5527 28.7959C60.5527 30.3218 59.4033 31.3721 58.0954 31.3721C57.4612 31.3721 56.6091 31.0947 56.292 30.4803ZM59.7006 28.7959C59.7006 27.7257 59.007 27.0916 57.7783 27.151C57.1838 27.1708 56.2722 27.6068 56.3515 29.1328C56.3713 29.6282 56.8865 30.5596 58.0161 30.5596C58.9872 30.5596 59.7006 30.0047 59.7006 28.7959Z" fill="#676767"/>
<path id="path18" d="M61.2463 31.194V26.3982H62.0589V26.9134C62.4552 26.4576 63.0695 26.2991 63.7235 26.2991V27.171C63.6244 27.1512 62.6534 27.0323 62.0589 28.3006V31.2138H61.2463V31.194Z" fill="#676767"/>
<path id="path20" d="M63.9414 28.7959C63.9414 27.4086 64.9323 26.2791 66.2997 26.2791C68.004 26.2791 68.6381 27.4086 68.6381 28.8553V29.2517H64.8332C64.8926 30.1633 65.7052 30.6389 66.4582 30.6191C67.0131 30.5992 67.3896 30.4407 67.786 30.0444L68.321 30.5992C67.8256 31.0749 67.1915 31.3919 66.4186 31.3919C64.9719 31.3721 63.9414 30.302 63.9414 28.7959ZM66.2402 27.0916C65.4673 27.0916 64.8728 27.7654 64.8332 28.4986H67.786C67.786 27.7852 67.2707 27.0916 66.2402 27.0916Z" fill="#676767"/>
<path id="path22" d="M69.0544 30.5201L69.649 29.985C69.6291 29.985 69.9462 30.3021 69.9859 30.3219C70.1246 30.4408 70.2633 30.5201 70.4417 30.5597C70.9569 30.6985 71.8883 30.6588 71.9676 29.9454C72.0072 29.549 71.71 29.3311 71.3731 29.1923C70.9371 29.0338 70.4615 28.9743 70.0255 28.7762C69.5301 28.5582 69.213 28.1816 69.213 27.6268C69.213 26.1801 71.274 25.9423 72.2054 26.6161C72.245 26.6557 72.7008 27.0719 72.681 27.0719L72.0865 27.5475C71.7892 27.1908 71.5118 27.0124 70.8776 27.0124C70.5606 27.0124 70.1246 27.1511 70.0453 27.488C69.9264 27.9637 70.4615 28.142 70.8182 28.2411C71.2938 28.36 71.8091 28.4393 72.2252 28.6969C72.7999 29.0536 72.9387 29.8265 72.7207 30.421C72.4829 31.075 71.7694 31.3326 71.1353 31.3524C70.3822 31.3921 69.7282 31.1543 69.1932 30.6192C69.1535 30.6192 69.0544 30.5201 69.0544 30.5201Z" fill="#676767"/>
<path id="path24" d="M73.2358 30.5201L73.8304 29.985C73.8105 29.985 74.1276 30.3021 74.1673 30.3219C74.306 30.4408 74.4447 30.5201 74.6231 30.5597C75.1383 30.6985 76.0697 30.6588 76.149 29.9454C76.1886 29.549 75.8914 29.3311 75.5545 29.1923C75.1185 29.0338 74.6429 28.9743 74.2069 28.7762C73.7115 28.5582 73.3944 28.1816 73.3944 27.6268C73.3944 26.1801 75.4554 25.9423 76.3868 26.6161C76.4264 26.6557 76.8822 27.0719 76.8624 27.0719L76.2679 27.5475C75.9706 27.1908 75.6932 27.0124 75.059 27.0124C74.742 27.0124 74.306 27.1511 74.2267 27.488C74.1078 27.9637 74.6429 28.142 74.9996 28.2411C75.4752 28.36 75.9905 28.4393 76.4066 28.6969C76.9813 29.0536 77.12 29.8265 76.9021 30.421C76.6642 31.075 75.9508 31.3326 75.3167 31.3524C74.5636 31.3921 73.9096 31.1543 73.3746 30.6192C73.3349 30.6192 73.2358 30.5201 73.2358 30.5201Z" fill="#676767"/>
</g>
<g id="g41">
<path id="path34" d="M40.1078 31.1991L39.5133 29.6137H36.3029L35.7083 31.1991H34.8562L37.4325 24.5603H38.3639L40.9203 31.1991H40.1078ZM37.8684 25.5115L36.6596 28.8012H39.1764L37.8684 25.5115Z" fill="#676767"/>
<path id="path36" d="M41.4556 31.1991V24.5603H42.2879V31.1991H41.4556Z" fill="#676767"/>
<path id="path38" d="M43.5361 31.1994V26.5027H44.3685V31.1994H43.5361Z" fill="#676767"/>
<path id="XMLID_1_" d="M45.1615 24.9765V24.8973C44.5273 24.8774 44.012 24.3622 43.9922 23.728H43.8733C43.8535 24.3622 43.3383 24.8774 42.7041 24.8973V24.9765C43.3383 24.9963 43.8535 25.5116 43.8733 26.1457H43.9922C44.012 25.5116 44.5273 24.9963 45.1615 24.9765Z" fill="#676767"/>
</g>
</g>
</g>
<g id="Group">
<ellipse id="Oval" cx="7.54596" cy="8.12427" rx="7.54596" ry="8.12427" transform="matrix(-1 0 0 1 59.031 49.0901)" fill="#D9D9D9" stroke="black"/>
<ellipse id="Oval_2" cx="3.92512" cy="4.22593" rx="3.92512" ry="4.22593" transform="matrix(-1 0 0 1 55.4089 52.9883)" fill="white" stroke="black"/>
</g>
<g id="Group_2">
<ellipse id="Oval_3" cx="7.54596" cy="8.12427" rx="7.54596" ry="8.12427" transform="matrix(-1 0 0 1 114.716 49.0901)" fill="#D9D9D9" stroke="black"/>
<ellipse id="Oval_4" cx="3.92512" cy="4.22593" rx="3.92512" ry="4.22593" transform="matrix(-1 0 0 1 111.094 52.9883)" fill="white" stroke="black"/>
</g>
<g id="Shape_2">
<path fill-rule="evenodd" clip-rule="evenodd" d="M116.48 56.9198C116.48 51.3835 112.311 46.8955 107.169 46.8955C102.027 46.8955 97.8582 51.3835 97.8582 56.9198C97.8582 57.3457 97.5539 57.6733 97.1584 57.6733H88.9126C88.0606 57.6733 87.3608 56.9198 87.3608 56.0025V21.802C87.3608 21.3106 87.7259 20.9175 88.1823 20.9175H97.9191C98.558 20.9175 99.1666 21.1468 99.6534 21.6054L113.954 34.3487C113.985 34.3815 113.985 34.3815 114.015 34.4143L123.539 41.392C124.908 42.1782 125.76 43.7506 125.76 45.4213V48.9266C125.76 49.4179 126.125 49.8111 126.582 49.8111C127.038 49.8111 127.403 50.2042 127.403 50.6956V54.8887C127.403 56.2646 126.49 57.4112 125.273 57.6405C125.212 57.6405 125.151 57.6405 125.121 57.6405H117.24C116.784 57.6733 116.48 57.3457 116.48 56.9198Z" fill="#FF2200"/>
<path d="M125.273 57.6405C126.49 57.4112 127.403 56.2646 127.403 54.8887V50.6956C127.403 50.2042 127.038 49.8111 126.582 49.8111C126.125 49.8111 125.76 49.4179 125.76 48.9266V45.4213C125.76 43.7506 124.908 42.1782 123.539 41.392L114.015 34.4143C113.985 34.3815 113.985 34.3815 113.954 34.3487L99.6534 21.6054C99.1666 21.1468 98.558 20.9175 97.9191 20.9175H88.1823C87.7259 20.9175 87.3608 21.3106 87.3608 21.802V56.0025C87.3608 56.9198 88.0606 57.6733 88.9126 57.6733H97.1584C97.5539 57.6733 97.8582 57.3457 97.8582 56.9198C97.8582 51.3835 102.027 46.8955 107.169 46.8955C112.311 46.8955 116.48 51.3835 116.48 56.9198C116.48 57.3457 116.784 57.6733 117.24 57.6405H125.121M125.273 57.6405C125.212 57.6405 125.151 57.6405 125.121 57.6405M125.273 57.6405H125.121" stroke="black"/>
</g>
<g id="Shape_3">
<path d="M127.403 50.6955C127.403 50.2041 126.582 49.811 126.582 49.811L113.843 49.9305C115.475 51.7361 116.48 54.2016 116.48 56.9198C116.48 57.3456 116.784 57.6732 117.24 57.6405H125.121H125.273C126.49 57.4112 127.403 56.2646 127.403 54.8887V50.6955Z" fill="#D9D9D9"/>
<path d="M125.273 57.6405C126.49 57.4112 127.403 56.2646 127.403 54.8887V50.6955C127.403 50.2041 126.582 49.811 126.582 49.811L113.843 49.9305C115.475 51.7361 116.48 54.2016 116.48 56.9198C116.48 57.3456 116.784 57.6732 117.24 57.6405H125.121M125.273 57.6405C125.212 57.6405 125.151 57.6405 125.121 57.6405M125.273 57.6405H125.121" stroke="black"/>
</g>
<path id="Shape_4" fill-rule="evenodd" clip-rule="evenodd" d="M124.135 46.781V46.0806C124.135 45.0301 124.135 44.4285 122.777 43.4981L120.349 41.8785C119.155 41.2116 119.155 41.9223 119.155 42.5789V46.387C119.155 47.3938 119.204 48.1817 120.151 48.1817H123.637C124.134 48.1817 124.135 47.5689 124.135 46.781Z" fill="white" stroke="black"/>
<path id="Shape_5" fill-rule="evenodd" clip-rule="evenodd" d="M91.6218 23.7676H97.19C97.5551 23.7676 97.9202 23.8986 98.2245 24.1607L109.483 34.1522C109.939 34.5126 109.696 35.2988 109.117 35.2988H91.5914C90.6481 35.2988 89.8874 34.4798 89.9179 33.4643C89.9483 31.3022 89.9483 27.7642 89.9179 25.6021C89.9179 24.5866 90.6785 23.7676 91.6218 23.7676Z" fill="white" stroke="black"/>
</g>
<g id="daw">
<ellipse id="Ellipse 31" cx="16.7187" cy="23" rx="16.7187" ry="18" fill="#F7F7F7"/>
<path id="Ellipse 32" d="M30.3645 23C30.3645 31.0435 24.3166 37.5 16.9323 37.5C9.54795 37.5 3.5 31.0435 3.5 23C3.5 14.9565 9.54795 8.5 16.9323 8.5C24.3166 8.5 30.3645 14.9565 30.3645 23Z" fill="white" stroke="black"/>
<path id="Vector 2" d="M9 23.0318L15.4688 29.9964C15.9492 30.5135 16.7997 30.3837 17.1039 29.7468L23.1928 17" stroke="#FF2200" stroke-width="3" stroke-linecap="round"/>
</g>
</g>
</svg>
