<svg width="67" height="55" viewBox="0 0 67 55" fill="none" xmlns="http://www.w3.org/2000/svg">
<path fill-rule="evenodd" clip-rule="evenodd" d="M13 10.0775V4.66768C13 2.65046 14.5953 1 16.5452 1H62.4548C64.4047 1 66 2.65046 66 4.66768V35.5679C66 37.5851 64.4047 39.2356 62.4548 39.2356H13" fill="white"/>
<path d="M13 10.0775V4.66768C13 2.65046 14.5953 1 16.5452 1H62.4548C64.4047 1 66 2.65046 66 4.66768V35.5679C66 37.5851 64.4047 39.2356 62.4548 39.2356H13L13 10.0775Z" stroke="black"/>
<ellipse cx="15.0742" cy="39.3122" rx="14.0742" ry="14.5442" fill="white" stroke="black"/>
<path d="M11.623 46.5386V32.0859H16.757C18.7929 32.0859 20.3862 33.8239 20.3862 35.8363C20.3862 37.8487 18.7044 39.5867 16.757 39.5867" stroke="#FF1D00" stroke-width="2"/>
<path d="M16.7571 39.5867H9.67578" stroke="#FF1D00" stroke-width="2"/>
<path d="M16.7571 42.7039H9.67578" stroke="#FF1D00" stroke-width="2"/>
<rect x="13" y="7.54248" width="53" height="10.0395" fill="#D9D9D9" stroke="black"/>
<path d="M46.4922 31.9177H60.3008" stroke="black"/>
<path d="M43.4827 31.9177H39.8535" stroke="black"/>
</svg>
