<svg width="128" height="66" viewBox="0 0 128 66" fill="none" xmlns="http://www.w3.org/2000/svg">
<path fill-rule="evenodd" clip-rule="evenodd" d="M83.9829 3.14463V56.9199C83.9829 57.3457 83.6786 57.6733 83.2831 57.6733H61.5575C61.162 57.6733 60.8577 57.3457 60.8577 56.9199C60.8577 51.3836 56.6892 46.8956 51.547 46.8956C46.4048 46.8956 42.2362 51.3836 42.2362 56.9199C42.2362 57.3457 41.932 57.6733 41.5364 57.6733H26.232C25.8364 57.6733 25.5321 57.3457 25.5321 56.9199V1.75346C25.5321 1.32759 25.8364 1 26.232 1H82.3041L83.9829 3.14463Z" fill="#F2F2F2" stroke="black"/>
<ellipse cx="7.54596" cy="8.12427" rx="7.54596" ry="8.12427" transform="matrix(-1 0 0 1 59.031 49.0901)" fill="#D9D9D9" stroke="black"/>
<ellipse cx="3.92512" cy="4.22593" rx="3.92512" ry="4.22593" transform="matrix(-1 0 0 1 55.4089 52.9883)" fill="white" stroke="black"/>
<ellipse cx="7.54596" cy="8.12427" rx="7.54596" ry="8.12427" transform="matrix(-1 0 0 1 114.716 49.0901)" fill="#D9D9D9" stroke="black"/>
<ellipse cx="3.92512" cy="4.22593" rx="3.92512" ry="4.22593" transform="matrix(-1 0 0 1 111.094 52.9883)" fill="white" stroke="black"/>
<path fill-rule="evenodd" clip-rule="evenodd" d="M116.48 56.9198C116.48 51.3835 112.311 46.8955 107.169 46.8955C102.027 46.8955 97.8583 51.3835 97.8583 56.9198C97.8583 57.3457 97.5541 57.6733 97.1585 57.6733H88.9127C88.0607 57.6733 87.3609 56.9198 87.3609 56.0025V21.802C87.3609 21.3106 87.726 20.9175 88.1825 20.9175H97.9192C98.5582 20.9175 99.1667 21.1468 99.6535 21.6054L113.954 34.3487C113.985 34.3815 113.985 34.3815 114.015 34.4143L123.539 41.392C124.908 42.1782 125.76 43.7506 125.76 45.4213V48.9266C125.76 49.4179 126.125 49.8111 126.582 49.8111C127.038 49.8111 127.403 50.2042 127.403 50.6956V54.8887C127.403 56.2646 126.49 57.4112 125.273 57.6405C125.212 57.6405 125.152 57.6405 125.121 57.6405H117.24C116.784 57.6733 116.48 57.3457 116.48 56.9198Z" fill="#FF2200"/>
<path d="M125.273 57.6405C126.49 57.4112 127.403 56.2646 127.403 54.8887V50.6956C127.403 50.2042 127.038 49.8111 126.582 49.8111C126.125 49.8111 125.76 49.4179 125.76 48.9266V45.4213C125.76 43.7506 124.908 42.1782 123.539 41.392L114.015 34.4143C113.985 34.3815 113.985 34.3815 113.954 34.3487L99.6535 21.6054C99.1667 21.1468 98.5582 20.9175 97.9192 20.9175H88.1825C87.726 20.9175 87.3609 21.3106 87.3609 21.802V56.0025C87.3609 56.9198 88.0607 57.6733 88.9127 57.6733H97.1585C97.5541 57.6733 97.8583 57.3457 97.8583 56.9198C97.8583 51.3835 102.027 46.8955 107.169 46.8955C112.311 46.8955 116.48 51.3835 116.48 56.9198C116.48 57.3457 116.784 57.6733 117.24 57.6405H125.121M125.273 57.6405C125.212 57.6405 125.152 57.6405 125.121 57.6405M125.273 57.6405H125.121" stroke="black"/>
<path d="M127.403 50.6955C127.403 50.2041 126.582 49.811 126.582 49.811L113.843 49.9305C115.475 51.7361 116.48 54.2016 116.48 56.9198C116.48 57.3456 116.784 57.6732 117.24 57.6405H125.121H125.273C126.49 57.4112 127.403 56.2646 127.403 54.8887V50.6955Z" fill="#D9D9D9"/>
<path d="M125.273 57.6405C126.49 57.4112 127.403 56.2646 127.403 54.8887V50.6955C127.403 50.2041 126.582 49.811 126.582 49.811L113.843 49.9305C115.475 51.7361 116.48 54.2016 116.48 56.9198C116.48 57.3456 116.784 57.6732 117.24 57.6405H125.121M125.273 57.6405C125.212 57.6405 125.152 57.6405 125.121 57.6405M125.273 57.6405H125.121" stroke="black"/>
<path fill-rule="evenodd" clip-rule="evenodd" d="M124.135 46.781V46.0806C124.135 45.0301 124.135 44.4285 122.777 43.4981L120.349 41.8785C119.155 41.2116 119.155 41.9223 119.155 42.5789V46.387C119.155 47.3938 119.205 48.1817 120.151 48.1817H123.637C124.134 48.1817 124.135 47.5689 124.135 46.781Z" fill="white" stroke="black"/>
<path fill-rule="evenodd" clip-rule="evenodd" d="M91.6219 23.7676H97.1901C97.5552 23.7676 97.9204 23.8986 98.2246 24.1607L109.483 34.1522C109.939 34.5126 109.696 35.2988 109.118 35.2988H91.5915C90.6482 35.2988 89.8876 34.4798 89.918 33.4643C89.9484 31.3022 89.9484 27.7642 89.918 25.6021C89.918 24.5866 90.6787 23.7676 91.6219 23.7676Z" fill="white" stroke="black"/>
<ellipse cx="16.7187" cy="23" rx="16.7187" ry="18" fill="#F7F7F7"/>
<path d="M30.3645 23C30.3645 31.0435 24.3166 37.5 16.9323 37.5C9.54795 37.5 3.5 31.0435 3.5 23C3.5 14.9565 9.54795 8.5 16.9323 8.5C24.3166 8.5 30.3645 14.9565 30.3645 23Z" fill="white" stroke="black"/>
<path d="M9 23.0318L15.4688 29.9964C15.9492 30.5135 16.7997 30.3837 17.1039 29.7468L23.1928 17" stroke="#FF2200" stroke-width="3" stroke-linecap="round"/>
<path fill-rule="evenodd" clip-rule="evenodd" d="M74 35.1341V17.9009C74 12.4357 69.5608 7.99658 64.0956 7.99658H46.9044C41.4392 7.99658 37 12.4357 37 17.9009V35.1341C37 40.5993 41.4392 45.0385 46.9044 45.0385H64.0956C69.5608 45.0385 74 40.5993 74 35.1341Z" fill="white"/>
<path fill-rule="evenodd" clip-rule="evenodd" d="M48.056 32.6006H45.7527L42.3186 20.4348H44.4125L46.9672 29.9413L49.7312 20.4348H51.5738L54.3169 29.9413L56.8715 20.4348H58.9655L55.5314 32.6006H53.2281L50.6525 23.7223L48.056 32.6006ZM66.9643 26.2769C68.0322 26.8422 68.6604 27.8473 68.6604 29.1037C68.6604 30.0878 68.3045 30.9254 67.5925 31.5955C66.8806 32.2655 66.0221 32.5796 64.996 32.5796H59.7821V20.4138H64.6191C65.6033 20.4138 66.4618 20.7489 67.1318 21.377C67.8228 22.0262 68.1788 22.8219 68.1788 23.7641C68.1998 24.853 67.781 25.6696 66.9643 26.2769ZM64.6401 22.3193H61.8132V25.523H64.6401C65.5195 25.523 66.2105 24.832 66.2105 23.9316C66.2105 23.0103 65.5404 22.3193 64.6401 22.3193ZM61.8132 30.716H65.017C65.9383 30.716 66.6712 29.9622 66.6712 29.0199C66.6712 28.0567 65.9383 27.3238 65.017 27.3238H61.8132V30.716Z" fill="black"/>
<path fill-rule="evenodd" clip-rule="evenodd" d="M48.056 32.6006H45.7527L42.3186 20.4348H44.4125L46.9672 29.9413L49.7312 20.4348H51.5738L54.3169 29.9413L56.8715 20.4348H58.9655L55.5314 32.6006H53.2281L50.6525 23.7223L48.056 32.6006ZM66.9643 26.2769C68.0322 26.8422 68.6604 27.8473 68.6604 29.1037C68.6604 30.0878 68.3045 30.9254 67.5925 31.5955C66.8806 32.2655 66.0221 32.5796 64.996 32.5796H59.7821V20.4138H64.6191C65.6033 20.4138 66.4618 20.7489 67.1318 21.377C67.8228 22.0262 68.1788 22.8219 68.1788 23.7641C68.1998 24.853 67.781 25.6696 66.9643 26.2769ZM64.6401 22.3193H61.8132V25.523H64.6401C65.5195 25.523 66.2105 24.832 66.2105 23.9316C66.2105 23.0103 65.5404 22.3193 64.6401 22.3193ZM61.8132 30.716H65.017C65.9383 30.716 66.6712 29.9622 66.6712 29.0199C66.6712 28.0567 65.9383 27.3238 65.017 27.3238H61.8132V30.716Z" fill="#67686B"/>
</svg>
