<svg width="133" height="87" viewBox="0 0 133 87" fill="none" xmlns="http://www.w3.org/2000/svg">
<g clip-path="url(#clip0_1101_287)">
<path d="M49.1053 48.9243H34.9609V51.7028H49.1053V48.9243Z" fill="#D9D9D9" stroke="black" stroke-linejoin="round"/>
<path d="M115.377 58.0091C119.036 58.0091 122.002 55.0473 122.002 51.3937C122.002 47.7401 119.036 44.7783 115.377 44.7783C111.719 44.7783 108.752 47.7401 108.752 51.3937C108.752 55.0473 111.719 58.0091 115.377 58.0091Z" fill="#D9D9D9" stroke="black"/>
<path d="M115.377 54.8887C117.311 54.8887 118.878 53.3239 118.878 51.3936C118.878 49.4633 117.311 47.8984 115.377 47.8984C113.444 47.8984 111.877 49.4633 111.877 51.3936C111.877 53.3239 113.444 54.8887 115.377 54.8887Z" fill="white" stroke="black"/>
<path d="M60.655 58.0091C64.3139 58.0091 67.28 55.0473 67.28 51.3937C67.28 47.7401 64.3139 44.7783 60.655 44.7783C56.9961 44.7783 54.03 47.7401 54.03 51.3937C54.03 55.0473 56.9961 58.0091 60.655 58.0091Z" fill="#D9D9D9" stroke="black"/>
<path d="M60.655 54.8887C62.5881 54.8887 64.1552 53.3239 64.1552 51.3936C64.1552 49.4633 62.5881 47.8984 60.655 47.8984C58.7219 47.8984 57.1548 49.4633 57.1548 51.3936C57.1548 53.3239 58.7219 54.8887 60.655 54.8887Z" fill="white" stroke="black"/>
<path d="M131.609 42.5953V41.7243H132.569V30.5002C132.569 30.5002 132.205 30.2797 131.443 29.6843C131.255 26.6523 130.692 23.5982 130.273 21.6246C129.986 20.2794 129.754 19.4415 129.754 19.4415H131.134V17.7656L128.329 15.8802L104.667 13.3223V54.1723H106.621V48.9241C106.621 45.4951 109.426 42.6946 112.86 42.6946H117.74C121.174 42.6946 123.979 45.4951 123.979 48.9241V54.1723H130.118L132.183 52.8602L133 50.9417V43.8523L131.609 42.5953Z" fill="white" stroke="black" stroke-linejoin="round"/>
<path d="M126.618 19.4525C126.618 19.4525 126.839 20.2905 127.137 21.6356C127.567 23.6092 128.131 26.6633 128.307 29.6954H114.66V19.0005L126.618 19.4525Z" fill="white" stroke="black" stroke-linejoin="round"/>
<path d="M123.99 48.9243V54.1725H124.178H130.118L132.183 52.8605L133 50.942V48.9243H123.99Z" fill="#D9D9D9" stroke="black"/>
<path d="M79.3043 46.333H91.9139C92.3997 46.333 92.8082 46.7299 92.8082 47.2261V53.4445C92.8082 53.9297 92.4107 54.3376 91.9139 54.3376H79.3043C78.8185 54.3376 78.4099 53.9407 78.4099 53.4445V47.2261C78.4099 46.7299 78.8074 46.333 79.3043 46.333Z" fill="#D9D9D9"/>
<path d="M91.914 46.8843C92.1017 46.8843 92.2562 47.0387 92.2562 47.2261V53.4446C92.2562 53.632 92.1017 53.7864 91.914 53.7864H79.3044C79.1167 53.7864 78.9621 53.632 78.9621 53.4446V47.2261C78.9621 47.0387 79.1167 46.8843 79.3044 46.8843H91.914ZM91.914 45.7817H79.3044C78.5094 45.7817 77.8579 46.4212 77.8579 47.2261V53.4446C77.8579 54.2384 78.4983 54.8889 79.3044 54.8889H91.914C92.709 54.8889 93.3604 54.2494 93.3604 53.4446V47.2261C93.3604 46.4323 92.72 45.7817 91.914 45.7817Z" fill="black"/>
<path d="M69.3338 53.8087V48.9243C69.3338 45.4953 66.5292 42.6948 63.0953 42.6948H58.2149C54.7809 42.6948 51.9763 45.4953 51.9763 48.9243V53.8087" stroke="black" stroke-linejoin="round"/>
<path fill-rule="evenodd" clip-rule="evenodd" d="M99.3671 1.05078H27.6846C27.276 1.05078 27 1.3154 27 1.71232V45.5723C27 45.9692 27.276 46.2339 27.6846 46.2339H52.5946C53.6104 44.15 55.7415 42.6946 58.2148 42.6946H63.0952C65.5575 42.6946 67.6996 44.15 68.7154 46.2339H100.339C100.747 46.2339 101.023 45.9692 101.023 45.5723V2.90309L99.3781 1.05078H99.3671Z" fill="#FF1D00" stroke="black" stroke-linejoin="round"/>
<path d="M75.8482 48.9243H71.542V51.7028H75.8482V48.9243Z" fill="#D9D9D9" stroke="black" stroke-linejoin="round"/>
<path d="M102.393 48.9243H95.4805V51.7028H102.393V48.9243Z" fill="#D9D9D9" stroke="black" stroke-linejoin="round"/>
<path d="M80.8595 75.2091V70.016C80.8595 69.0017 80.3957 68.0535 79.6007 67.436L61.0618 53.0035C60.5428 52.5955 59.8914 52.375 59.2289 52.375H50.3403V77.8773C50.3403 78.6381 50.9587 79.2555 51.7205 79.2555H57.926C58.0585 74.8232 61.6912 71.273 66.163 71.273C69.1443 71.273 71.7501 72.8496 73.1966 75.2091C73.9253 76.3888 74.356 77.7781 74.4001 79.2555H79.6228C80.981 79.2555 82.0851 78.153 82.0851 76.7968V75.2201H80.8595V75.2091Z" fill="white" stroke="black" stroke-linejoin="round"/>
<path d="M53.4982 55.5283H59.1295L67.6095 62.0996L67.0463 62.8714H53.4982V55.5283ZM53.4982 54.4258C53.2001 54.4258 52.924 54.5471 52.7143 54.7455C52.5045 54.955 52.394 55.2307 52.394 55.5283V62.8714C52.394 63.4778 52.8909 63.974 53.4982 63.974H67.0463C67.3997 63.974 67.7309 63.8086 67.9407 63.5219L68.5038 62.7501C68.8572 62.265 68.7578 61.5925 68.294 61.2286L59.814 54.6573C59.6153 54.503 59.3834 54.4258 59.1405 54.4258H53.5093H53.4982Z" fill="black"/>
<path d="M77.8673 72.3092H74.6321V66.7412L77.2931 68.7368C78.0108 69.1779 78.4415 69.9497 78.4415 70.501V71.7469C78.4415 72.0666 78.1875 72.3202 77.8673 72.3202V72.3092Z" stroke="black" stroke-linejoin="round"/>
<path d="M73.1856 75.1982C73.9144 76.378 74.345 77.7672 74.3891 79.2447H79.6119C80.97 79.2447 82.0742 78.1421 82.0742 76.7859V75.2093H73.1746L73.1856 75.1982Z" fill="#D9D9D9" stroke="black"/>
<path d="M66.1632 86.0361C69.6452 86.0361 72.468 83.2175 72.468 79.7405C72.468 76.2635 69.6452 73.4448 66.1632 73.4448C62.6811 73.4448 59.8584 76.2635 59.8584 79.7405C59.8584 83.2175 62.6811 86.0361 66.1632 86.0361Z" fill="#D9D9D9" stroke="black"/>
<path d="M66.1631 83.0593C67.9987 83.0593 69.4867 81.5735 69.4867 79.7406C69.4867 77.9077 67.9987 76.4219 66.1631 76.4219C64.3276 76.4219 62.8396 77.9077 62.8396 79.7406C62.8396 81.5735 64.3276 83.0593 66.1631 83.0593Z" fill="white" stroke="black"/>
<path fill-rule="evenodd" clip-rule="evenodd" d="M15.7579 76.874H2.58521V79.1453H15.2721C15.3273 78.3515 15.4929 77.5907 15.7579 76.874Z" fill="#D9D9D9" stroke="black" stroke-linejoin="round"/>
<path fill-rule="evenodd" clip-rule="evenodd" d="M31.3599 76.874C31.6249 77.5907 31.7905 78.3515 31.8457 79.1453H47.558V76.874H31.3599Z" fill="#D9D9D9" stroke="black" stroke-linejoin="round"/>
<path fill-rule="evenodd" clip-rule="evenodd" d="M46.6415 37.8101H2.56312C2.23187 37.8101 2 38.0306 2 38.3503V74.1285C2 74.4483 2.22083 74.6688 2.56312 74.6688H16.9946C18.5183 72.7062 20.8923 71.4383 23.5644 71.4383C26.2365 71.4383 28.6104 72.7062 30.1342 74.6688H47.4254C47.7567 74.6688 47.9885 74.4483 47.9885 74.1285V39.3206L46.6415 37.8101Z" fill="#FF1D00" stroke="black" stroke-linejoin="round"/>
<path d="M23.5643 86.0361C27.0464 86.0361 29.8691 83.2175 29.8691 79.7405C29.8691 76.2635 27.0464 73.4448 23.5643 73.4448C20.0823 73.4448 17.2595 76.2635 17.2595 79.7405C17.2595 83.2175 20.0823 86.0361 23.5643 86.0361Z" fill="#D9D9D9" stroke="black"/>
<path d="M23.5643 83.0593C25.3998 83.0593 26.8878 81.5735 26.8878 79.7406C26.8878 77.9077 25.3998 76.4219 23.5643 76.4219C21.7287 76.4219 20.2407 77.9077 20.2407 79.7406C20.2407 81.5735 21.7287 83.0593 23.5643 83.0593Z" fill="white" stroke="black"/>
<path d="M56.3708 18.5484C57.2873 18.5484 58.1154 18.7579 58.8552 19.1879C59.595 19.6179 60.1691 20.2133 60.5887 20.9961C60.9973 21.7789 61.2071 22.672 61.2071 23.6974C61.2071 25.4835 60.666 26.8507 59.595 27.8099C58.5239 28.7692 56.8898 29.2433 54.7146 29.2433C52.8485 29.2433 51.3248 28.9566 50.1433 28.3833V24.844C50.7727 25.1307 51.4904 25.3733 52.2964 25.5607C53.0914 25.7481 53.7871 25.8474 54.3612 25.8474C55.1673 25.8474 55.7856 25.682 56.2052 25.3402C56.6248 24.9984 56.8456 24.5022 56.8456 23.8407C56.8456 23.2343 56.6248 22.7492 56.1941 22.4074C55.7525 22.0656 55.09 21.8892 54.2066 21.8892C53.5331 21.8892 52.7933 22.0215 52.0094 22.2751L50.4194 21.4922L51.0156 13.0576H60.136V16.652H54.6925L54.4937 18.7579C55.0679 18.6476 55.4654 18.5925 55.7083 18.5815C55.9512 18.5704 56.1721 18.5594 56.3708 18.5594V18.5484Z" fill="white"/>
<path d="M75.2079 19.8165H71.1225V29.0119H66.8493V19.8165H62.7639V16.6411H75.1968V19.8165H75.2079Z" fill="white"/>
<path d="M23.0233 63.6324H18.6398V55.1757C18.6398 54.1504 18.6618 53.2132 18.706 52.3532C18.441 52.6839 18.0987 53.0257 17.7012 53.3786L15.8904 54.878L13.6489 52.1216L19.1366 47.6562H23.0343V63.6214L23.0233 63.6324Z" fill="white"/>
<path d="M38.8238 54.4259H34.7384V63.6213H30.4653V54.4259H26.3799V51.2505H38.8128V54.4259H38.8238Z" fill="white"/>
</g>
<defs>
<clipPath id="clip0_1101_287">
<rect width="133" height="86" fill="white" transform="translate(0 0.110352)"/>
</clipPath>
</defs>
</svg>
