<svg width="128" height="66" viewBox="0 0 128 66" fill="none" xmlns="http://www.w3.org/2000/svg">
<path fill-rule="evenodd" clip-rule="evenodd" d="M83.9829 3.14463V56.9199C83.9829 57.3457 83.6786 57.6733 83.2831 57.6733H61.5575C61.162 57.6733 60.8577 57.3457 60.8577 56.9199C60.8577 51.3836 56.6892 46.8956 51.547 46.8956C46.4048 46.8956 42.2362 51.3836 42.2362 56.9199C42.2362 57.3457 41.932 57.6733 41.5364 57.6733H26.232C25.8364 57.6733 25.5321 57.3457 25.5321 56.9199V1.75346C25.5321 1.32759 25.8364 1 26.232 1H82.3041L83.9829 3.14463Z" fill="#F2F2F2" stroke="black"/>
<ellipse cx="7.54596" cy="8.12427" rx="7.54596" ry="8.12427" transform="matrix(-1 0 0 1 59.031 49.0898)" fill="#D9D9D9" stroke="black"/>
<ellipse cx="3.92512" cy="4.22593" rx="3.92512" ry="4.22593" transform="matrix(-1 0 0 1 55.4089 52.9883)" fill="white" stroke="black"/>
<ellipse cx="7.54596" cy="8.12427" rx="7.54596" ry="8.12427" transform="matrix(-1 0 0 1 114.716 49.0898)" fill="#D9D9D9" stroke="black"/>
<ellipse cx="3.92512" cy="4.22593" rx="3.92512" ry="4.22593" transform="matrix(-1 0 0 1 111.094 52.9883)" fill="white" stroke="black"/>
<path fill-rule="evenodd" clip-rule="evenodd" d="M116.48 56.9198C116.48 51.3835 112.311 46.8955 107.169 46.8955C102.027 46.8955 97.8583 51.3835 97.8583 56.9198C97.8583 57.3457 97.5541 57.6733 97.1585 57.6733H88.9127C88.0607 57.6733 87.3609 56.9198 87.3609 56.0025V21.802C87.3609 21.3106 87.726 20.9175 88.1825 20.9175H97.9192C98.5582 20.9175 99.1667 21.1468 99.6535 21.6054L113.954 34.3487C113.985 34.3815 113.985 34.3815 114.015 34.4143L123.539 41.392C124.908 42.1782 125.76 43.7506 125.76 45.4213V48.9266C125.76 49.4179 126.125 49.8111 126.582 49.8111C127.038 49.8111 127.403 50.2042 127.403 50.6956V54.8887C127.403 56.2646 126.49 57.4112 125.273 57.6405C125.212 57.6405 125.152 57.6405 125.121 57.6405H117.24C116.784 57.6733 116.48 57.3457 116.48 56.9198Z" fill="#FF2200"/>
<path d="M125.273 57.6405C126.49 57.4112 127.403 56.2646 127.403 54.8887V50.6956C127.403 50.2042 127.038 49.8111 126.582 49.8111C126.125 49.8111 125.76 49.4179 125.76 48.9266V45.4213C125.76 43.7506 124.908 42.1782 123.539 41.392L114.015 34.4143C113.985 34.3815 113.985 34.3815 113.954 34.3487L99.6535 21.6054C99.1667 21.1468 98.5582 20.9175 97.9192 20.9175H88.1825C87.726 20.9175 87.3609 21.3106 87.3609 21.802V56.0025C87.3609 56.9198 88.0607 57.6733 88.9127 57.6733H97.1585C97.5541 57.6733 97.8583 57.3457 97.8583 56.9198C97.8583 51.3835 102.027 46.8955 107.169 46.8955C112.311 46.8955 116.48 51.3835 116.48 56.9198C116.48 57.3457 116.784 57.6733 117.24 57.6405H125.121M125.273 57.6405C125.212 57.6405 125.152 57.6405 125.121 57.6405M125.273 57.6405H125.121" stroke="black"/>
<path d="M127.403 50.6955C127.403 50.2041 126.582 49.811 126.582 49.811L113.843 49.9305C115.475 51.7361 116.48 54.2016 116.48 56.9198C116.48 57.3456 116.784 57.6732 117.24 57.6405H125.121H125.273C126.49 57.4112 127.403 56.2646 127.403 54.8887V50.6955Z" fill="#D9D9D9"/>
<path d="M125.273 57.6405C126.49 57.4112 127.403 56.2646 127.403 54.8887V50.6955C127.403 50.2041 126.582 49.811 126.582 49.811L113.843 49.9305C115.475 51.7361 116.48 54.2016 116.48 56.9198C116.48 57.3456 116.784 57.6732 117.24 57.6405H125.121M125.273 57.6405C125.212 57.6405 125.152 57.6405 125.121 57.6405M125.273 57.6405H125.121" stroke="black"/>
<path fill-rule="evenodd" clip-rule="evenodd" d="M124.135 46.781V46.0806C124.135 45.0301 124.135 44.4285 122.777 43.4981L120.349 41.8785C119.155 41.2116 119.155 41.9223 119.155 42.5789V46.387C119.155 47.3938 119.205 48.1817 120.151 48.1817H123.637C124.134 48.1817 124.135 47.5689 124.135 46.781Z" fill="white" stroke="black"/>
<path fill-rule="evenodd" clip-rule="evenodd" d="M91.6219 23.7676H97.1901C97.5552 23.7676 97.9204 23.8986 98.2246 24.1607L109.483 34.1522C109.939 34.5126 109.696 35.2988 109.118 35.2988H91.5915C90.6482 35.2988 89.8876 34.4798 89.918 33.4643C89.9484 31.3022 89.9484 27.7642 89.918 25.6021C89.918 24.5866 90.6787 23.7676 91.6219 23.7676Z" fill="white" stroke="black"/>
<ellipse cx="16.7187" cy="23" rx="16.7187" ry="18" fill="#F7F7F7"/>
<path d="M30.3645 23C30.3645 31.0435 24.3166 37.5 16.9323 37.5C9.54795 37.5 3.5 31.0435 3.5 23C3.5 14.9565 9.54795 8.5 16.9323 8.5C24.3166 8.5 30.3645 14.9565 30.3645 23Z" fill="white" stroke="black"/>
<path d="M9 23.0318L15.4688 29.9964C15.9492 30.5135 16.7997 30.3837 17.1039 29.7468L23.1928 17" stroke="#FF2200" stroke-width="3" stroke-linecap="round"/>
<path d="M55.5002 24.9996C60.2058 24.9996 64 21.2054 64 16.4998C64 11.7942 60.2058 8 55.5002 8C50.7945 8 47.0003 11.7942 47.0003 16.4998C46.958 21.2054 50.8157 24.9996 55.5002 24.9996Z" fill="url(#paint0_linear_1_232)"/>
<mask id="mask0_1_232" style="mask-type:luminance" maskUnits="userSpaceOnUse" x="47" y="8" width="17" height="17">
<path d="M55.5002 24.9996C60.2058 24.9996 64 21.2054 64 16.4998C64 11.7942 60.2058 8 55.5002 8C50.7945 8 47.0003 11.7942 47.0003 16.4998C46.958 21.2054 50.8157 24.9996 55.5002 24.9996Z" fill="white"/>
</mask>
<g mask="url(#mask0_1_232)">
<path d="M51.3247 12.6633L43.8423 22.4561L45.8348 24.7241L51.3883 17.3689L50.8159 21.3962L53.9318 22.4772L57.726 16.415C57.5564 17.5385 57.2809 20.1456 59.7609 20.9511C63.6611 22.1381 67.0737 15.122 68.6422 11.561L66.3742 10.374C64.6149 14.0622 61.9017 18.132 60.8207 17.8564C59.7397 17.5808 60.7147 14.1258 61.3294 11.9002V11.8366L57.8744 10.6496L53.7411 17.3901L54.3134 13.7019L51.3247 12.6633Z" fill="#676767"/>
</g>
<path d="M38.2904 38.1014H39.6628L41.5809 31.2151V38.1014H43.1248V29H41.0039L39.0858 35.6753L37.1676 29H35V38.1014H36.3255V31.2151L38.2904 38.1014ZM49.5809 33.5959C49.5809 31.9836 48.7544 31.3808 47.039 31.3808C45.963 31.3808 45.1209 31.6973 44.6218 31.9836V33.2644C45.0429 32.9479 45.9942 32.6164 46.8363 32.6164C47.6316 32.6164 47.9591 32.9027 47.9591 33.5808V33.9425H47.7096C45.2456 33.9425 44.1228 34.7411 44.1228 36.0822C44.1228 37.4233 44.9493 38.1767 46.2125 38.1767C47.1637 38.1767 47.5848 37.8904 47.8811 37.574H47.9591C47.9591 37.7397 48.037 37.9808 48.0838 38.1014H49.6745C49.6277 37.574 49.5965 37.0164 49.5965 36.489C49.5809 36.489 49.5809 33.5959 49.5809 33.5959ZM47.9591 36.5342C47.7563 36.8205 47.3821 37.0616 46.7895 37.0616C46.1189 37.0616 45.7914 36.6548 45.7914 36.0973C45.7914 35.3288 46.3372 35.0575 47.7563 35.0575H48.0058V36.5493H47.9591V36.5342ZM52.3723 31.5014H50.8752V40H52.4971V37.3479C52.9181 37.9507 53.4951 38.237 54.2125 38.237C55.8031 38.237 56.8791 37.0315 56.8791 34.8164C56.8791 32.6014 55.8343 31.3959 54.2905 31.3959C53.5419 31.3959 52.9181 31.7123 52.4503 32.3603C52.4659 32.3452 52.3723 31.5014 52.3723 31.5014ZM53.7602 37.0164C52.9337 37.0164 52.4659 36.3384 52.4659 34.8466C52.4659 33.3096 52.9181 32.6315 53.8382 32.6315C54.7115 32.6315 55.1637 33.3096 55.1637 34.8014C55.1637 36.3384 54.7115 37.0164 53.7602 37.0164ZM61.9162 38.1014H63.7563L61.1676 34.5603L63.46 31.5014H61.8382L59.5458 34.5603V31.5014H57.924V38.1014H59.5458V34.8767L61.9162 38.1014ZM69.1676 37.6644V36.3836C68.6686 36.7 67.8421 36.9863 67.0468 36.9863C65.8772 36.9863 65.425 36.4589 65.3314 35.3288H69.1988V34.4849C69.1988 32.1945 68.154 31.3507 66.5322 31.3507C64.5673 31.3507 63.616 32.7973 63.616 34.8164C63.616 37.1069 64.7856 38.237 66.8285 38.237C67.9669 38.2219 68.7154 37.9808 69.1676 37.6644ZM66.5478 32.6315C67.3431 32.6315 67.5926 33.2795 67.5926 34.0781V34.1986H65.3314C65.3782 33.1589 65.7992 32.6315 66.5478 32.6315ZM75 32.7521V31.5014H69.5887V32.7521H71.5068V38.1014H73.1287V32.7521H75Z" fill="#676767"/>
<defs>
<linearGradient id="paint0_linear_1_232" x1="57.2232" y1="4.66929" x2="55.5" y2="24.9996" gradientUnits="userSpaceOnUse">
<stop stop-color="#BDBBBB" stop-opacity="0.99"/>
<stop offset="1" stop-color="#D9D9D9"/>
</linearGradient>
</defs>
</svg>
