<svg width="48" height="49" viewBox="0 0 48 49" fill="none" xmlns="http://www.w3.org/2000/svg">
<g clip-path="url(#clip0_1100_2290)">
<path d="M43.5 43.7405L41 46.2398V41.2412H46L43.5 43.7405Z" fill="#AEAEAE"/>
<path d="M2 41.0546C2 43.7861 2.00148 43.7509 2.00061 46.0532H40.9999C40.9999 46.0532 42.5236 44.53 43.4999 43.5539C44.4762 42.5779 45.9999 41.0546 45.9999 41.0546V16.0618H2V41.0546Z" fill="white"/>
<path d="M40.9999 46.0532H2.00061C2.00148 43.7509 2 43.7861 2 41.0546V16.0618H45.9999V41.0546M40.9999 46.0532C40.9999 46.0532 42.5236 44.53 43.4999 43.5539C44.4762 42.5779 45.9999 41.0546 45.9999 41.0546M40.9999 46.0532C40.9999 44.1011 40.9999 41.0546 40.9999 41.0546H45.9999" stroke="#231F20"/>
<path d="M46.0006 6.0647H2.00055C1.99937 8.61263 2.00057 8.33179 2.00057 11.0633V16.0618H46.0006V11.0633C46.0006 8.33179 46.0006 8.11066 46.0006 6.0647Z" fill="#D9D9D9" stroke="#231F20"/>
<path d="M13.4065 24.809C14.4634 23.9075 16.0081 23.1699 17.878 23.1699C21.2927 23.1699 22.6748 25.5466 22.6748 27.7594C22.6748 30.7098 13 39.2332 13 39.2332H23" stroke="#FF1D00" stroke-width="2"/>
<path d="M36 34.6089H24L33.6338 24V32.9052V34.6089V40.5" stroke="#FF1D00" stroke-width="2"/>
<rect x="10" y="1.08301" width="3" height="10.0395" fill="white" stroke="#231F20"/>
<rect x="35" y="1.08301" width="3" height="10.0395" fill="white" stroke="#231F20"/>
</g>
<defs>
<clipPath id="clip0_1100_2290">
<rect width="48" height="47.9863" fill="white" transform="translate(0 0.0664062)"/>
</clipPath>
</defs>
</svg>
