<svg width="79" height="79" viewBox="0 0 79 79" fill="none" xmlns="http://www.w3.org/2000/svg">
<g id="Logo Alfa">
<path id="Path" d="M55.5011 0.5H23.507C10.5408 0.5 0 10.9228 0 23.7299V55.3528C0 68.1583 10.5408 78.5827 23.507 78.5827H55.4995C68.4543 78.5827 79 68.1583 79 55.3528V23.7299C79.0016 10.9228 68.4559 0.5 55.5011 0.5Z" fill="#FF2200"/>
<path id="Shape" fill-rule="evenodd" clip-rule="evenodd" d="M64.4105 50.4851L64.4399 50.1371H70.0094V52.6212C70.0094 56.7146 69.54 59.2035 68.3892 61.2092C67.0901 63.4693 64.5605 64.8757 61.7831 64.8757C59.1148 64.8757 56.6341 63.5901 54.9781 61.3461C53.9545 59.9559 53.0987 58.0984 52.2495 55.3808C50.2268 58.1339 48.0867 60.2539 45.7412 61.7843C42.1113 64.1572 38.1962 65.3622 34.0936 65.3622C27.0523 65.3622 21.6767 63.1149 17.1814 58.2901C12.8718 53.6732 10.686 47.5451 10.686 40.0848C10.686 33.3865 12.9875 27.3632 17.3443 22.6689C21.7224 17.9456 27.2625 15.5518 33.8116 15.5518C38.5564 15.5518 42.4862 17.0644 45.8276 20.1687C47.7444 21.952 49.4705 24.4893 50.5511 26.772C50.6082 26.8896 50.6636 27.012 50.7174 27.1361C51.798 22.0584 52.996 16.4764 52.996 16.4764H65.9655C65.9655 16.4764 59.1311 40.2814 56.9161 47.7127C57.6984 49.8407 58.471 51.0151 59.33 51.993C60.0455 52.8113 60.9225 53.2108 62.0129 53.2108C63.4391 53.2108 64.2981 51.8399 64.4105 50.4851ZM35.2784 59.2455C38.1699 59.2455 40.737 57.7441 42.7027 54.8992C44.6358 52.1058 46.2267 47.2568 47.8533 39.2359C46.5575 33.3027 44.7483 28.6873 42.6082 25.894C40.6115 23.2907 38.315 22.0824 35.3729 22.0824C32.0674 22.0824 29.616 23.5226 27.6601 26.6076C25.5786 29.8939 24.5224 34.4964 24.5224 40.2878C24.5224 46.6044 25.5183 51.442 27.4857 54.6704C29.3617 57.7538 31.9093 59.2455 35.2784 59.2455Z" fill="white"/>
</g>
</svg>
