<svg width="84" height="73" viewBox="0 0 84 73" fill="none" xmlns="http://www.w3.org/2000/svg">
<path d="M80.2812 33.0085H61.4736C60.3695 33.0085 59.4938 33.8842 59.4938 34.9883V45.0393C63.1488 47.3617 65.6996 51.2831 66.2326 55.7756H80.2431C81.3472 55.7756 82.2228 54.9 82.2228 53.7959V34.9883C82.2609 33.8842 81.3853 33.0085 80.2812 33.0085Z" fill="white"/>
<path d="M7.22086 46.2955V5.36804C7.22086 2.58878 9.46711 0.342529 12.2464 0.342529H32.6149C36.384 0.342529 39.6582 3.04564 40.3435 6.73863L48.7194 43.3259L48.3387 43.402C47.9579 43.4782 47.6153 43.5924 47.2726 43.6685L46.8919 43.7827L38.4399 7.15742C37.9069 4.30202 35.4322 2.2842 32.5768 2.2842H12.2464C10.5331 2.2842 9.12446 3.69287 9.12446 5.40611V46.3336H7.22086V46.2955Z" fill="white"/>
<path d="M32.5769 0.761441C36.1556 0.761441 39.2776 3.31227 39.9248 6.85297L48.2245 43.0976C47.8438 43.1737 47.463 43.2879 47.1204 43.4021L38.8207 7.0814C38.2496 4.07371 35.6226 1.9036 32.5769 1.9036H12.2464C10.3428 1.9036 8.74378 3.46456 8.74378 5.40623V45.953H7.60162V5.36816C7.60162 2.81733 9.69558 0.723369 12.2464 0.723369H32.5769M32.5769 0H12.2464C9.27679 0 6.84018 2.43661 6.84018 5.40623V45.953V46.7144H7.60162H8.74378H9.50522V45.953V5.36816C9.50522 3.88335 10.7235 2.62697 12.2464 2.62697H32.615C35.28 2.62697 37.6024 4.53057 38.0973 7.19562L46.4351 43.4783L46.6255 44.2778L47.425 44.0494C47.7676 43.9351 48.1103 43.859 48.491 43.7828L49.2524 43.6306L49.0621 42.8691L40.7624 6.66261C39.9629 2.81733 36.5364 0 32.5769 0Z" fill="white"/>
<path d="M12.5 71C18.5751 71 23.5 66.0751 23.5 60C23.5 53.9249 18.5751 49 12.5 49C6.42487 49 1.5 53.9249 1.5 60C1.5 66.0751 6.42487 71 12.5 71Z" fill="#D9D9D9" stroke="black" stroke-width="2"/>
<path d="M73.4663 33.0085H68.2885V45.915H73.4663V33.0085Z" fill="#D9D9D9" stroke="black"/>
<path d="M12.5 64C14.7091 64 16.5 62.2091 16.5 60C16.5 57.7909 14.7091 56 12.5 56C10.2909 56 8.5 57.7909 8.5 60C8.5 62.2091 10.2909 64 12.5 64Z" fill="white" stroke="black"/>
<path d="M51.5368 71.0538C59.0075 71.0538 65.0637 64.9976 65.0637 57.5269C65.0637 50.0562 59.0075 44 51.5368 44C44.0661 44 38.0099 50.0562 38.0099 57.5269C38.0099 64.9976 44.0661 71.0538 51.5368 71.0538Z" fill="#D9D9D9" stroke="black" stroke-width="2"/>
<path d="M51.5367 62.682C54.3839 62.682 56.6919 60.3739 56.6919 57.5268C56.6919 54.6796 54.3839 52.3716 51.5367 52.3716C48.6896 52.3716 46.3815 54.6796 46.3815 57.5268C46.3815 60.3739 48.6896 62.682 51.5367 62.682Z" fill="white" stroke="black"/>
<path d="M13.5029 19.4927C13.7694 19.4927 13.9597 19.683 13.9597 19.9495L15.1019 37.3865C15.1019 37.653 14.9115 37.8434 14.645 37.8434H13.2744C13.0079 37.8434 12.8176 37.653 12.8176 37.3865L11.6754 19.9495C11.6754 19.683 11.8658 19.4927 12.1323 19.4927H13.5029Z" fill="black"/>
<path d="M29.3027 37.3868C29.3027 37.6533 29.1123 37.8436 28.8458 37.8436H13.2743C13.0078 37.8436 12.8175 37.6533 12.8175 37.3868V36.0162C12.8175 35.7497 13.0078 35.5593 13.2743 35.5593H28.8458C29.1123 35.5593 29.3027 35.7497 29.3027 36.0162V37.3868Z" fill="black"/>
<path d="M36.6887 55.9661C36.9933 52.9965 38.2116 50.2934 40.001 48.1233C36.4222 45.2678 33.3384 42.717 29.7215 39.9758H7.4113C5.54577 39.9758 4.02289 41.4987 4.02289 43.3642V50.3695C6.11685 48.7324 8.78189 47.7425 11.6373 47.7425C18.4522 47.7425 23.9726 53.263 23.9726 60.0779C23.9726 60.687 23.9346 61.2962 23.8584 61.8673H37.2217C36.6887 60.0017 36.4603 58.022 36.6887 55.9661Z" fill="#FF1D00" stroke="black" stroke-width="2"/>
<path d="M56.0293 43.4402V2.09396C56.0293 1.67517 55.6867 1.33252 55.2679 1.33252H54.5064C54.0876 1.33252 53.745 1.67517 53.745 2.09396V42.9072C54.5064 43.0214 55.2679 43.2118 56.0293 43.4402Z" fill="#D9D9D9"/>
<path d="M79.9386 59.5447H66.1565C66.0423 60.3442 65.89 61.1056 65.6616 61.829H79.9386C80.2051 61.829 80.3955 61.6386 80.3955 61.3721V60.0015C80.3955 59.7731 80.2051 59.5447 79.9386 59.5447Z" fill="#D9D9D9"/>
<path d="M80.2812 33.0085H61.4736C60.3695 33.0085 59.4938 33.8842 59.4938 34.9883V45.1155C63.0726 47.4378 65.6234 51.2831 66.1564 55.7376H80.2431C81.3472 55.7376 82.2228 54.8619 82.2228 53.7578V34.9883C82.2609 33.8842 81.3853 33.0085 80.2812 33.0085Z" stroke="black" stroke-width="2"/>
</svg>
