<svg width="140" height="80" viewBox="0 0 140 80" fill="none" xmlns="http://www.w3.org/2000/svg">
<path fill-rule="evenodd" clip-rule="evenodd" d="M90.8252 11.3333V69.8405C90.8252 70.3039 90.4907 70.6603 90.0558 70.6603H66.17C65.7351 70.6603 65.4006 70.3039 65.4006 69.8405C65.4006 63.8171 60.8176 58.9341 55.1641 58.9341C49.5106 58.9341 44.9276 63.8171 44.9276 69.8405C44.9276 70.3039 44.593 70.6603 44.1582 70.6603H27.332C26.8971 70.6603 26.5626 70.3039 26.5626 69.8405V9.81976C26.5626 9.35642 26.8971 9 27.332 9H88.9795L90.8252 11.3333Z" fill="#F2F2F2" stroke="black"/>
<path d="M35.7446 44L34.5415 40.0796H34.5107C34.554 40.8771 34.5757 41.4092 34.5757 41.6758V44H33.6289V39.0029H35.0713L36.2539 42.8242H36.2744L37.5288 39.0029H38.9712V44H37.9834V41.6348C37.9834 41.5231 37.9845 41.3944 37.9868 41.2485C37.9914 41.1027 38.0073 40.7153 38.0347 40.0864H38.0039L36.7153 44H35.7446ZM42.7771 44L42.5755 43.4805H42.5481C42.3727 43.7015 42.1915 43.8553 42.0047 43.9419C41.8201 44.0262 41.5786 44.0684 41.2801 44.0684C40.9132 44.0684 40.6238 43.9635 40.4119 43.7539C40.2023 43.5443 40.0975 43.2458 40.0975 42.8584C40.0975 42.4528 40.2387 42.1543 40.5213 41.9629C40.8061 41.7692 41.2345 41.6621 41.8064 41.6416L42.4695 41.6211V41.4536C42.4695 41.0662 42.2713 40.8726 41.8748 40.8726C41.5695 40.8726 41.2106 40.9648 40.7981 41.1494L40.4529 40.4453C40.8927 40.2152 41.3803 40.1001 41.9158 40.1001C42.4285 40.1001 42.8216 40.2118 43.095 40.4351C43.3685 40.6584 43.5052 40.9979 43.5052 41.4536V44H42.7771ZM42.4695 42.2295L42.0662 42.2432C41.7632 42.2523 41.5376 42.307 41.3895 42.4072C41.2413 42.5075 41.1673 42.6602 41.1673 42.8652C41.1673 43.1592 41.3359 43.3062 41.6731 43.3062C41.9147 43.3062 42.1072 43.2367 42.2508 43.0977C42.3966 42.9587 42.4695 42.7741 42.4695 42.5439V42.2295ZM46.8805 44.0684C46.4316 44.0684 46.0795 43.9054 45.8243 43.5796H45.7696C45.8061 43.8986 45.8243 44.0832 45.8243 44.1333V45.6816H44.7818V40.1787H45.6295L45.7765 40.6743H45.8243C46.0681 40.2961 46.4293 40.1069 46.9078 40.1069C47.359 40.1069 47.7122 40.2812 47.9674 40.6299C48.2226 40.9785 48.3502 41.4627 48.3502 42.0825C48.3502 42.4904 48.2898 42.8447 48.169 43.1455C48.0506 43.4463 47.8808 43.6753 47.6598 43.8325C47.4387 43.9897 47.179 44.0684 46.8805 44.0684ZM46.5729 40.9409C46.3154 40.9409 46.1274 41.0207 46.0089 41.1802C45.8904 41.3374 45.8289 41.5983 45.8243 41.9629V42.0757C45.8243 42.4858 45.8847 42.7798 46.0055 42.9575C46.1285 43.1353 46.3222 43.2241 46.5865 43.2241C47.0536 43.2241 47.2872 42.839 47.2872 42.0688C47.2872 41.6929 47.2291 41.4115 47.1129 41.2246C46.999 41.0355 46.8189 40.9409 46.5729 40.9409ZM51.9169 40.1787H53.0653L51.5512 42.0107L53.1986 44H52.016L50.454 42.062V44H49.4115V40.1787H50.454V42.0347L51.9169 40.1787ZM55.528 40.8486C55.307 40.8486 55.1338 40.9193 55.0085 41.0605C54.8832 41.1995 54.8114 41.3978 54.7932 41.6553H56.2561C56.2515 41.3978 56.1843 41.1995 56.0544 41.0605C55.9245 40.9193 55.7491 40.8486 55.528 40.8486ZM55.675 44.0684C55.0598 44.0684 54.579 43.8986 54.2326 43.5591C53.8863 43.2196 53.7131 42.7388 53.7131 42.1167C53.7131 41.4764 53.8726 40.9819 54.1916 40.6333C54.5129 40.2824 54.9561 40.1069 55.5212 40.1069C56.0612 40.1069 56.4816 40.2607 56.7824 40.5684C57.0832 40.876 57.2336 41.3009 57.2336 41.8433V42.3491H54.7692C54.7806 42.6453 54.8684 42.8766 55.0324 43.043C55.1965 43.2093 55.4266 43.2925 55.7229 43.2925C55.953 43.2925 56.1706 43.2686 56.3757 43.2207C56.5808 43.1729 56.795 43.0965 57.0183 42.9917V43.7983C56.836 43.8895 56.6411 43.9567 56.4338 44C56.2264 44.0456 55.9735 44.0684 55.675 44.0684ZM61.4429 40.1787V40.9614H60.1919V44H59.1494V40.9614H57.895V40.1787H61.4429ZM65.8299 40.1787V44H64.784V40.9614H63.3997V44H62.3572V40.1787H65.8299ZM70.545 44H69.5025V40.9614H68.5421C68.4692 41.8159 68.3803 42.4539 68.2755 42.8755C68.1707 43.2948 68.0305 43.599 67.8551 43.7881C67.6819 43.9749 67.454 44.0684 67.1715 44.0684C66.9299 44.0684 66.7317 44.0319 66.5768 43.959V43.125C66.6884 43.1706 66.8001 43.1934 66.9117 43.1934C67.0416 43.1934 67.1498 43.0999 67.2364 42.9131C67.3253 42.7262 67.4039 42.4152 67.4723 41.98C67.5429 41.5425 67.6033 40.9421 67.6534 40.1787H70.545V44ZM73.4247 40.8486C73.2037 40.8486 73.0305 40.9193 72.9052 41.0605C72.7798 41.1995 72.7081 41.3978 72.6898 41.6553H74.1527C74.1482 41.3978 74.081 41.1995 73.9511 41.0605C73.8212 40.9193 73.6457 40.8486 73.4247 40.8486ZM73.5717 44.0684C72.9564 44.0684 72.4756 43.8986 72.1293 43.5591C71.7829 43.2196 71.6098 42.7388 71.6098 42.1167C71.6098 41.4764 71.7693 40.9819 72.0883 40.6333C72.4096 40.2824 72.8528 40.1069 73.4179 40.1069C73.9579 40.1069 74.3783 40.2607 74.6791 40.5684C74.9799 40.876 75.1303 41.3009 75.1303 41.8433V42.3491H72.6659C72.6773 42.6453 72.765 42.8766 72.9291 43.043C73.0932 43.2093 73.3233 43.2925 73.6195 43.2925C73.8497 43.2925 74.0673 43.2686 74.2724 43.2207C74.4774 43.1729 74.6916 43.0965 74.9149 42.9917V43.7983C74.7326 43.8895 74.5378 43.9567 74.3305 44C74.1231 44.0456 73.8702 44.0684 73.5717 44.0684ZM77.1862 40.1787V41.6895C77.1862 41.849 77.16 42.2386 77.1076 42.8584L78.8713 40.1787H80.1257V44H79.1174V42.4756C79.1174 42.2044 79.1402 41.8216 79.1857 41.3271L77.4289 44H76.1779V40.1787H77.1862ZM79.8181 38.5347C79.7748 38.9608 79.6141 39.2718 79.3361 39.4678C79.0581 39.6615 78.6571 39.7583 78.133 39.7583C77.593 39.7583 77.1931 39.6649 76.9333 39.478C76.6758 39.2912 76.5311 38.9767 76.4992 38.5347H77.4323C77.4483 38.7694 77.5064 38.9346 77.6066 39.0303C77.7092 39.1237 77.8915 39.1704 78.1535 39.1704C78.3837 39.1704 78.5546 39.1191 78.6662 39.0166C78.7801 38.9118 78.8496 38.7511 78.8747 38.5347H79.8181ZM82.9746 44.0684C81.7852 44.0684 81.1904 43.4155 81.1904 42.1099C81.1904 41.4604 81.3522 40.9648 81.6758 40.623C81.9993 40.279 82.4631 40.1069 83.0669 40.1069C83.509 40.1069 83.9054 40.1935 84.2563 40.3667L83.9487 41.1733C83.7847 41.1073 83.632 41.0537 83.4907 41.0127C83.3494 40.9694 83.2082 40.9478 83.0669 40.9478C82.5246 40.9478 82.2534 41.3328 82.2534 42.103C82.2534 42.8504 82.5246 43.2241 83.0669 43.2241C83.2674 43.2241 83.4531 43.1979 83.624 43.1455C83.7949 43.0908 83.9658 43.0065 84.1367 42.8926V43.7847C83.9681 43.8918 83.7972 43.9658 83.624 44.0068C83.4531 44.0479 83.2367 44.0684 82.9746 44.0684Z" fill="#7E7E7E"/>
<ellipse cx="8.29627" cy="8.83916" rx="8.29627" ry="8.83916" transform="matrix(-1 0 0 1 63.3921 61.3215)" fill="#D9D9D9" stroke="black"/>
<ellipse cx="4.3154" cy="4.59779" rx="4.3154" ry="4.59779" transform="matrix(-1 0 0 1 59.4099 65.5623)" fill="white" stroke="black"/>
<ellipse cx="8.29627" cy="8.83916" rx="8.29627" ry="8.83916" transform="matrix(-1 0 0 1 124.614 61.3215)" fill="#D9D9D9" stroke="black"/>
<ellipse cx="4.3154" cy="4.59779" rx="4.3154" ry="4.59779" transform="matrix(-1 0 0 1 120.632 65.5623)" fill="white" stroke="black"/>
<path fill-rule="evenodd" clip-rule="evenodd" d="M126.553 69.8402C126.553 63.8168 121.97 58.9339 116.316 58.9339C110.663 58.9339 106.08 63.8168 106.08 69.8402C106.08 70.3036 105.745 70.66 105.311 70.66H96.2448C95.3082 70.66 94.5387 69.8402 94.5387 68.8423V31.6322C94.5387 31.0976 94.9402 30.6699 95.442 30.6699H106.147C106.849 30.6699 107.518 30.9194 108.054 31.4184L123.776 45.2831C123.81 45.3187 123.81 45.3187 123.843 45.3543L134.314 52.946C135.819 53.8014 136.756 55.5122 136.756 57.33V61.1436C136.756 61.6783 137.157 62.106 137.659 62.106C138.161 62.106 138.562 62.5337 138.562 63.0683V67.6304C138.562 69.1274 137.559 70.3749 136.221 70.6244C136.154 70.6244 136.087 70.6244 136.054 70.6244H127.389C126.888 70.66 126.553 70.3036 126.553 69.8402Z" fill="#FF2200"/>
<path d="M136.221 70.6244C137.559 70.3749 138.562 69.1274 138.562 67.6304V63.0683C138.562 62.5337 138.161 62.106 137.659 62.106C137.157 62.106 136.756 61.6783 136.756 61.1436V57.33C136.756 55.5122 135.819 53.8014 134.314 52.946L123.843 45.3543C123.81 45.3187 123.81 45.3187 123.776 45.2831L108.054 31.4184C107.518 30.9194 106.849 30.6699 106.147 30.6699H95.442C94.9402 30.6699 94.5387 31.0976 94.5387 31.6322V68.8423C94.5387 69.8402 95.3082 70.66 96.2448 70.66H105.311C105.745 70.66 106.08 70.3036 106.08 69.8402C106.08 63.8168 110.663 58.9339 116.316 58.9339C121.97 58.9339 126.553 63.8168 126.553 69.8402C126.553 70.3036 126.888 70.66 127.389 70.6244H136.054M136.221 70.6244C136.154 70.6244 136.087 70.6244 136.054 70.6244M136.221 70.6244H136.054" stroke="black"/>
<path d="M138.562 63.0683C138.562 62.5337 137.659 62.106 137.659 62.106L123.654 62.2359C125.448 64.2005 126.553 66.8829 126.553 69.8402C126.553 70.3036 126.888 70.66 127.389 70.6243H136.054H136.221C137.559 70.3749 138.562 69.1274 138.562 67.6304V63.0683Z" fill="#D9D9D9"/>
<path d="M136.221 70.6243C137.559 70.3748 138.562 69.1274 138.562 67.6304V63.0683C138.562 62.5337 137.659 62.106 137.659 62.106L123.654 62.2359C125.448 64.2005 126.553 66.8829 126.553 69.8402C126.553 70.3036 126.888 70.66 127.389 70.6243H136.054M136.221 70.6243C136.154 70.6243 136.087 70.6243 136.054 70.6243M136.221 70.6243H136.054" stroke="black"/>
<path fill-rule="evenodd" clip-rule="evenodd" d="M133.97 58.8091V58.0472C133.97 56.9042 133.97 56.2497 132.477 55.2374L129.807 53.4753C128.495 52.7497 128.495 53.5229 128.495 54.2373V58.3805C128.495 59.4759 128.549 60.3331 129.59 60.3331H133.422C133.969 60.3331 133.97 59.6664 133.97 58.8091Z" fill="white" stroke="black" stroke-width="1.5"/>
<path fill-rule="evenodd" clip-rule="evenodd" d="M99.2236 33.771H105.345C105.747 33.771 106.148 33.9136 106.483 34.1987L118.86 45.0694C119.362 45.4615 119.094 46.3169 118.459 46.3169H99.1901C98.1531 46.3169 97.3168 45.4259 97.3502 44.321C97.3837 41.9686 97.3837 38.1193 97.3502 35.7669C97.3502 34.662 98.1865 33.771 99.2236 33.771Z" fill="white" stroke="black" stroke-width="1.5"/>
<circle cx="20" cy="20" r="20" fill="#F7F7F7"/>
<path d="M20 37C29.3888 37 37 29.3888 37 20C37 10.6112 29.3888 3 20 3C10.6112 3 3 10.6112 3 20C3 29.3888 10.6112 37 20 37Z" fill="white" stroke="black" stroke-width="2"/>
<path d="M11 19.8571L18.4165 27.9094C18.8968 28.4309 19.7523 28.3007 20.0558 27.66L27 13" stroke="#FF2200" stroke-width="3" stroke-linecap="round"/>
</svg>
