<svg width="73" height="85" viewBox="0 0 73 85" fill="none" xmlns="http://www.w3.org/2000/svg">
<path d="M36.5 84.2638C16.6833 84.2638 0.551758 68.1433 0.551758 48.3155C0.551758 28.4876 16.6833 12.3672 36.5 12.3672C56.3168 12.3672 72.4483 28.4876 72.4483 48.3155C72.4483 68.1433 56.3279 84.2638 36.5 84.2638Z" fill="#D9D9D9"/>
<path d="M36.5 12.9188C56.0189 12.9188 71.8966 28.7965 71.8966 48.3154C71.8966 67.8343 56.0189 83.712 36.5 83.712C16.9811 83.712 1.10339 67.8343 1.10339 48.3154C1.10339 28.7965 16.9811 12.9188 36.5 12.9188ZM36.5 11.8154C16.3411 11.8154 0 28.1566 0 48.3154C0 68.4743 16.3411 84.8154 36.5 84.8154C56.6588 84.8154 73 68.4743 73 48.3154C73 28.1566 56.6588 11.8154 36.5 11.8154Z" fill="black"/>
<path d="M36.5001 78.6583C53.2581 78.6583 66.8432 65.0733 66.8432 48.3153C66.8432 31.5572 53.2581 17.9722 36.5001 17.9722C19.742 17.9722 6.15698 31.5572 6.15698 48.3153C6.15698 65.0733 19.742 78.6583 36.5001 78.6583Z" fill="white" stroke="black" stroke-linecap="round" stroke-linejoin="round"/>
<path d="M36.4999 25.2104C40.6817 25.2104 44.7863 26.3911 48.3612 28.6199C51.9362 30.8487 54.8602 34.0486 56.7911 37.8773C58.7331 41.695 59.6158 45.9982 59.362 50.3014C59.0972 54.6046 57.7069 58.7534 55.3236 62.2952C52.9403 65.8371 49.6632 68.6397 45.8455 70.4051C42.0278 72.1595 37.8129 72.8105 33.6642 72.2809C29.5154 71.7512 25.5874 70.052 22.3103 67.3818C19.0333 64.7116 16.5176 61.1587 15.05 57.1203L36.4999 48.845V25.2104Z" fill="#FF1D00" stroke="black" stroke-linejoin="round"/>
<path d="M44.8385 1.38672H28.1615C27.52 1.38672 27 1.86512 27 2.45527V5.31817C27 5.90831 27.52 6.38672 28.1615 6.38672H44.8385C45.48 6.38672 46 5.90831 46 5.31817V2.45527C46 1.86512 45.48 1.38672 44.8385 1.38672Z" fill="white" stroke="black" stroke-linecap="round" stroke-linejoin="round"/>
<path d="M12.4684 12.1243C12.336 12.1243 12.2146 12.0471 12.1594 11.9367L10.4712 8.68174C10.4271 8.6045 10.4161 8.5052 10.4492 8.41693C10.4823 8.32865 10.5374 8.25142 10.6257 8.20728L19.177 3.77167C19.177 3.77167 19.2763 3.72754 19.3314 3.72754C19.4638 3.72754 19.5852 3.80478 19.6404 3.91511L21.3286 7.1701C21.3727 7.24734 21.3837 7.34664 21.3506 7.43491C21.3175 7.52318 21.2624 7.60042 21.1741 7.64456L12.6228 12.0802C12.6228 12.0802 12.5235 12.1243 12.4684 12.1243Z" fill="#D9D9D9"/>
<path d="M19.2431 4.3566L20.7437 7.2585L12.5566 11.5065L11.056 8.60463L19.2431 4.3566ZM19.3314 3.18701C19.188 3.18701 19.0556 3.22011 18.9231 3.28632L10.3719 7.72192C9.93056 7.95363 9.75402 8.49429 9.98573 8.93565L11.6739 12.1906C11.8394 12.4996 12.1484 12.6761 12.4794 12.6761C12.6228 12.6761 12.7552 12.643 12.8876 12.5768L21.4389 8.14121C21.8802 7.9095 22.0568 7.36884 21.8251 6.92749L20.1369 3.6725C19.9714 3.36355 19.6624 3.18701 19.3314 3.18701Z" fill="black"/>
<path d="M60.0794 11.9256C60.0243 11.9256 59.9691 11.9145 59.9139 11.8814L51.3958 7.37962C51.2303 7.29135 51.1641 7.0817 51.2524 6.90516L52.9626 3.66121C53.0288 3.55087 53.1392 3.47363 53.2716 3.47363C53.3267 3.47363 53.3819 3.48467 53.4371 3.51777L61.9552 8.01958C62.0324 8.06371 62.0986 8.14095 62.1207 8.22922C62.1428 8.31749 62.1428 8.4168 62.0986 8.49404L60.3774 11.738C60.3112 11.8483 60.2008 11.9256 60.0684 11.9256H60.0794Z" fill="#D9D9D9"/>
<path d="M53.3707 4.10269L61.5247 8.41693L60.002 11.3078L51.848 6.99356L53.3707 4.10269ZM53.2934 2.93311C52.9734 2.93311 52.6535 3.10965 52.499 3.40756L50.7777 6.65151C50.546 7.09287 50.7115 7.63353 51.1529 7.86524L59.671 12.367C59.8034 12.4333 59.9468 12.4664 60.0903 12.4664C60.4103 12.4664 60.7302 12.2898 60.8957 11.9919L62.617 8.74794C62.8487 8.30659 62.6832 7.76593 62.2419 7.53422L53.7237 3.03241C53.5913 2.96621 53.4479 2.93311 53.3045 2.93311H53.2934Z" fill="black"/>
</svg>
