<svg width="54" height="66" viewBox="0 0 54 66" fill="none" xmlns="http://www.w3.org/2000/svg">
<path d="M13.4535 28.5H13.9535V28C13.9535 21.1499 14.6581 15.3679 16.6222 11.367C17.5806 9.41466 18.8023 7.96418 20.3272 6.98942C21.8459 6.01866 23.8318 5.41304 26.5 5.41304C29.1683 5.41304 31.1541 6.01866 32.6728 6.98942C34.1977 7.96418 35.4194 9.41466 36.3778 11.367C38.3419 15.3679 39.0465 21.1499 39.0465 28V28.5H39.5465H43.5H44V28C44 21.0187 43.3169 14.2791 40.8314 9.21618C39.5651 6.63667 37.7964 4.41955 35.3562 2.85971C32.9096 1.29586 29.9556 0.5 26.5 0.5C23.0444 0.5 20.0904 1.29586 17.6438 2.85971C15.2036 4.41955 13.4349 6.63667 12.1686 9.21618C9.68313 14.2791 9 21.0187 9 28V28.5H9.5H13.4535Z" fill="#FF2200" stroke="black"/>
<path d="M47.7052 64.7331H5.78989C2.86842 64.7331 0.5 62.3615 0.5 59.4361V30.0002C0.5 27.0748 2.86842 24.7031 5.78989 24.7031H47.7052C50.6266 24.7031 52.9951 27.0748 52.9951 30.0002V59.4361C52.9951 62.3615 50.6266 64.7331 47.7052 64.7331Z" fill="#FBF9F9" stroke="#231F20" stroke-miterlimit="10"/>
<mask id="path-3-outside-1_1_2249" maskUnits="userSpaceOnUse" x="20.4731" y="35.5" width="13" height="18" fill="black">
<rect fill="white" x="20.4731" y="35.5" width="13" height="18"/>
<path fill-rule="evenodd" clip-rule="evenodd" d="M29.0002 45.8893C30.5102 45.0221 31.5272 43.3933 31.5272 41.527C31.5272 38.7507 29.2765 36.5 26.5002 36.5C23.7238 36.5 21.4731 38.7507 21.4731 41.527C21.4731 43.3933 22.4901 45.0221 24.0002 45.8893V49.0676C24.0002 50.4483 25.1195 51.5676 26.5002 51.5676C27.8809 51.5676 29.0002 50.4483 29.0002 49.0676V45.8893Z"/>
</mask>
<path fill-rule="evenodd" clip-rule="evenodd" d="M29.0002 45.8893C30.5102 45.0221 31.5272 43.3933 31.5272 41.527C31.5272 38.7507 29.2765 36.5 26.5002 36.5C23.7238 36.5 21.4731 38.7507 21.4731 41.527C21.4731 43.3933 22.4901 45.0221 24.0002 45.8893V49.0676C24.0002 50.4483 25.1195 51.5676 26.5002 51.5676C27.8809 51.5676 29.0002 50.4483 29.0002 49.0676V45.8893Z" fill="black"/>
<path d="M29.0002 45.8893L28.5021 45.0222L28.0002 45.3105V45.8893H29.0002ZM24.0002 45.8893H25.0002V45.3105L24.4982 45.0222L24.0002 45.8893ZM24.0002 49.0676H25.0002H24.0002ZM30.5272 41.527C30.5272 43.0208 29.7144 44.3259 28.5021 45.0222L29.4982 46.7565C31.306 45.7182 32.5272 43.7658 32.5272 41.527H30.5272ZM26.5002 37.5C28.7242 37.5 30.5272 39.303 30.5272 41.527H32.5272C32.5272 38.1984 29.8288 35.5 26.5002 35.5V37.5ZM22.4731 41.527C22.4731 39.303 24.2761 37.5 26.5002 37.5V35.5C23.1715 35.5 20.4731 38.1984 20.4731 41.527H22.4731ZM24.4982 45.0222C23.286 44.3259 22.4731 43.0208 22.4731 41.527H20.4731C20.4731 43.7658 21.6943 45.7182 23.5021 46.7565L24.4982 45.0222ZM25.0002 49.0676V45.8893H23.0002V49.0676H25.0002ZM26.5002 50.5676C25.6717 50.5676 25.0002 49.896 25.0002 49.0676H23.0002C23.0002 51.0006 24.5672 52.5676 26.5002 52.5676V50.5676ZM28.0002 49.0676C28.0002 49.896 27.3286 50.5676 26.5002 50.5676V52.5676C28.4332 52.5676 30.0002 51.0006 30.0002 49.0676H28.0002ZM28.0002 45.8893V49.0676H30.0002V45.8893H28.0002Z" fill="#979797" mask="url(#path-3-outside-1_1_2249)"/>
</svg>
