<svg width="195" height="92" viewBox="0 0 195 92" fill="none" xmlns="http://www.w3.org/2000/svg">
<path d="M19 6C19 3.23858 21.2386 1 24 1H138C140.761 1 143 3.23858 143 6V77H19V6Z" fill="white" stroke="black"/>
<path d="M28 37C28 34.2386 30.2386 32 33 32H73C75.7614 32 78 34.2386 78 37V77H28V37Z" fill="#D9D9D9" stroke="black"/>
<path d="M82 37C82 34.2386 84.2386 32 87 32H127C129.761 32 132 34.2386 132 37V77H82V37Z" fill="#D9D9D9" stroke="black"/>
<path d="M19 6.35C19 6.02501 19 5.86252 19.0076 5.72525C19.1476 3.18001 21.18 1.14763 23.7252 1.00755C23.8625 1 24.025 1 24.35 1H137.65C137.975 1 138.137 1 138.275 1.00755C140.82 1.14763 142.852 3.18001 142.992 5.72525C143 5.86252 143 6.02501 143 6.35V9H19V6.35Z" fill="#FF2200" stroke="black"/>
<path d="M39.3828 24H37.5664V16.9453H35.2402V15.4336H41.709V16.9453H39.3828V24ZM44.3105 20.7129C44.3105 21.3613 44.416 21.8516 44.627 22.1836C44.8418 22.5156 45.1895 22.6816 45.6699 22.6816C46.1465 22.6816 46.4883 22.5176 46.6953 22.1895C46.9062 21.8574 47.0117 21.3652 47.0117 20.7129C47.0117 20.0645 46.9062 19.5781 46.6953 19.2539C46.4844 18.9297 46.1387 18.7676 45.6582 18.7676C45.1816 18.7676 44.8379 18.9297 44.627 19.2539C44.416 19.5742 44.3105 20.0605 44.3105 20.7129ZM48.8398 20.7129C48.8398 21.7793 48.5586 22.6133 47.9961 23.2148C47.4336 23.8164 46.6504 24.1172 45.6465 24.1172C45.0176 24.1172 44.4629 23.9805 43.9824 23.707C43.502 23.4297 43.1328 23.0332 42.875 22.5176C42.6172 22.002 42.4883 21.4004 42.4883 20.7129C42.4883 19.6426 42.7676 18.8105 43.3262 18.2168C43.8848 17.623 44.6699 17.3262 45.6816 17.3262C46.3105 17.3262 46.8652 17.4629 47.3457 17.7363C47.8262 18.0098 48.1953 18.4023 48.4531 18.9141C48.7109 19.4258 48.8398 20.0254 48.8398 20.7129ZM53.9141 24.1172C53.1445 24.1172 52.541 23.8379 52.1035 23.2793H52.0098C52.0723 23.8262 52.1035 24.1426 52.1035 24.2285V26.8828H50.3164V17.4492H51.7695L52.0215 18.2988H52.1035C52.5215 17.6504 53.1406 17.3262 53.9609 17.3262C54.7344 17.3262 55.3398 17.625 55.7773 18.2227C56.2148 18.8203 56.4336 19.6504 56.4336 20.7129C56.4336 21.4121 56.3301 22.0195 56.123 22.5352C55.9199 23.0508 55.6289 23.4434 55.25 23.7129C54.8711 23.9824 54.4258 24.1172 53.9141 24.1172ZM53.3867 18.7559C52.9453 18.7559 52.623 18.8926 52.4199 19.166C52.2168 19.4355 52.1113 19.8828 52.1035 20.5078V20.7012C52.1035 21.4043 52.207 21.9082 52.4141 22.2129C52.625 22.5176 52.957 22.6699 53.4102 22.6699C54.2109 22.6699 54.6113 22.0098 54.6113 20.6895C54.6113 20.0449 54.5117 19.5625 54.3125 19.2422C54.1172 18.918 53.8086 18.7559 53.3867 18.7559ZM62.4336 17.4492V18.791H59.6973V24H57.9102V17.4492H62.4336ZM65.0762 20.7129C65.0762 21.3613 65.1816 21.8516 65.3926 22.1836C65.6074 22.5156 65.9551 22.6816 66.4355 22.6816C66.9121 22.6816 67.2539 22.5176 67.4609 22.1895C67.6719 21.8574 67.7773 21.3652 67.7773 20.7129C67.7773 20.0645 67.6719 19.5781 67.4609 19.2539C67.25 18.9297 66.9043 18.7676 66.4238 18.7676C65.9473 18.7676 65.6035 18.9297 65.3926 19.2539C65.1816 19.5742 65.0762 20.0605 65.0762 20.7129ZM69.6055 20.7129C69.6055 21.7793 69.3242 22.6133 68.7617 23.2148C68.1992 23.8164 67.416 24.1172 66.4121 24.1172C65.7832 24.1172 65.2285 23.9805 64.748 23.707C64.2676 23.4297 63.8984 23.0332 63.6406 22.5176C63.3828 22.002 63.2539 21.4004 63.2539 20.7129C63.2539 19.6426 63.5332 18.8105 64.0918 18.2168C64.6504 17.623 65.4355 17.3262 66.4473 17.3262C67.0762 17.3262 67.6309 17.4629 68.1113 17.7363C68.5918 18.0098 68.9609 18.4023 69.2188 18.9141C69.4766 19.4258 69.6055 20.0254 69.6055 20.7129ZM77.1289 19.166C77.1289 19.5176 77.0176 19.8184 76.7949 20.0684C76.5762 20.3145 76.252 20.4727 75.8223 20.543V20.5898C76.2871 20.6445 76.6543 20.8047 76.9238 21.0703C77.1973 21.332 77.334 21.6562 77.334 22.043C77.334 22.6797 77.084 23.166 76.584 23.502C76.084 23.834 75.3691 24 74.4395 24H71.082V17.4492H74.4395C75.3379 17.4492 76.0098 17.5957 76.4551 17.8887C76.9043 18.1777 77.1289 18.6035 77.1289 19.166ZM75.4824 21.9492C75.4824 21.6914 75.3828 21.5059 75.1836 21.3926C74.9844 21.2754 74.6855 21.2168 74.2871 21.2168H72.8691V22.7637H74.3223C74.7012 22.7637 74.9883 22.6934 75.1836 22.5527C75.3828 22.4082 75.4824 22.207 75.4824 21.9492ZM75.3184 19.3066C75.3184 18.9082 75.002 18.709 74.3691 18.709H72.8691V20.0039H74.1641C74.543 20.0039 74.8301 19.9492 75.0254 19.8398C75.2207 19.7305 75.3184 19.5527 75.3184 19.3066ZM80.5449 19.9805H81.4062C82.4062 19.9805 83.1465 20.1406 83.627 20.4609C84.1074 20.7812 84.3477 21.2656 84.3477 21.9141C84.3477 22.6055 84.1074 23.127 83.627 23.4785C83.1465 23.8262 82.4277 24 81.4707 24H78.7578V17.4492H80.5449V19.9805ZM82.5605 21.9375C82.5605 21.6836 82.459 21.5 82.2559 21.3867C82.0527 21.2734 81.75 21.2168 81.3477 21.2168H80.5449V22.7637H81.3711C82.1641 22.7637 82.5605 22.4883 82.5605 21.9375ZM87.084 24H85.2969V17.4492H87.084V24ZM91.6777 18.5977C91.2988 18.5977 91.002 18.7188 90.7871 18.9609C90.5723 19.1992 90.4492 19.5391 90.418 19.9805H92.9258C92.918 19.5391 92.8027 19.1992 92.5801 18.9609C92.3574 18.7188 92.0566 18.5977 91.6777 18.5977ZM91.9297 24.1172C90.875 24.1172 90.0508 23.8262 89.457 23.2441C88.8633 22.6621 88.5664 21.8379 88.5664 20.7715C88.5664 19.6738 88.8398 18.8262 89.3867 18.2285C89.9375 17.627 90.6973 17.3262 91.666 17.3262C92.5918 17.3262 93.3125 17.5898 93.8281 18.1172C94.3438 18.6445 94.6016 19.373 94.6016 20.3027V21.1699H90.377C90.3965 21.6777 90.5469 22.0742 90.8281 22.3594C91.1094 22.6445 91.5039 22.7871 92.0117 22.7871C92.4062 22.7871 92.7793 22.7461 93.1309 22.6641C93.4824 22.582 93.8496 22.4512 94.2324 22.2715V23.6543C93.9199 23.8105 93.5859 23.9258 93.2305 24C92.875 24.0781 92.4414 24.1172 91.9297 24.1172ZM101.832 24.1172C99.793 24.1172 98.7734 22.998 98.7734 20.7598C98.7734 19.6465 99.0508 18.7969 99.6055 18.2109C100.16 17.6211 100.955 17.3262 101.99 17.3262C102.748 17.3262 103.428 17.4746 104.029 17.7715L103.502 19.1543C103.221 19.041 102.959 18.9492 102.717 18.8789C102.475 18.8047 102.232 18.7676 101.99 18.7676C101.061 18.7676 100.596 19.4277 100.596 20.748C100.596 22.0293 101.061 22.6699 101.99 22.6699C102.334 22.6699 102.652 22.625 102.945 22.5352C103.238 22.4414 103.531 22.2969 103.824 22.1016V23.6309C103.535 23.8145 103.242 23.9414 102.945 24.0117C102.652 24.082 102.281 24.1172 101.832 24.1172ZM108.061 18.5977C107.682 18.5977 107.385 18.7188 107.17 18.9609C106.955 19.1992 106.832 19.5391 106.801 19.9805H109.309C109.301 19.5391 109.186 19.1992 108.963 18.9609C108.74 18.7188 108.439 18.5977 108.061 18.5977ZM108.312 24.1172C107.258 24.1172 106.434 23.8262 105.84 23.2441C105.246 22.6621 104.949 21.8379 104.949 20.7715C104.949 19.6738 105.223 18.8262 105.77 18.2285C106.32 17.627 107.08 17.3262 108.049 17.3262C108.975 17.3262 109.695 17.5898 110.211 18.1172C110.727 18.6445 110.984 19.373 110.984 20.3027V21.1699H106.76C106.779 21.6777 106.93 22.0742 107.211 22.3594C107.492 22.6445 107.887 22.7871 108.395 22.7871C108.789 22.7871 109.162 22.7461 109.514 22.6641C109.865 22.582 110.232 22.4512 110.615 22.2715V23.6543C110.303 23.8105 109.969 23.9258 109.613 24C109.258 24.0781 108.824 24.1172 108.312 24.1172ZM117.857 17.4492V18.791H115.713V24H113.926V18.791H111.775V17.4492H117.857ZM120.811 17.4492V20.0391C120.811 20.3125 120.766 20.9805 120.676 22.043L123.699 17.4492H125.85V24H124.121V21.3867C124.121 20.9219 124.16 20.2656 124.238 19.418L121.227 24H119.082V17.4492H120.811Z" fill="#808080"/>
<path fill-rule="evenodd" clip-rule="evenodd" d="M151.055 39.6446V80.2471C151.055 80.673 150.751 81.0006 150.355 81.0006H130.615C130.22 81.0006 129.976 80.6687 129.915 80.2471C129.09 74.5006 125.09 71.8967 120.604 71.8967C116.59 71.8967 112.09 74.0006 111.294 80.2471C111.294 80.673 110.989 81.0006 110.594 81.0006L95 81.0004C94.6045 81.0004 93 79.753 93 79.3271L93 38.2533C93 38.2533 93.3042 37.4998 93.6998 37.4998L149.376 37.5L151.055 39.6446Z" fill="#F2F2F2" stroke="black"/>
<ellipse cx="7.54596" cy="8.12427" rx="7.54596" ry="8.12427" transform="matrix(-1 0 0 1 128.104 74.0911)" fill="#D9D9D9" stroke="black"/>
<ellipse cx="3.92512" cy="4.22593" rx="3.92512" ry="4.22593" transform="matrix(-1 0 0 1 124.482 77.9893)" fill="white" stroke="black"/>
<ellipse cx="7.54596" cy="8.12427" rx="7.54596" ry="8.12427" transform="matrix(-1 0 0 1 181.789 74.0911)" fill="#D9D9D9" stroke="black"/>
<ellipse cx="3.92512" cy="4.22593" rx="3.92512" ry="4.22593" transform="matrix(-1 0 0 1 178.167 77.9893)" fill="white" stroke="black"/>
<path fill-rule="evenodd" clip-rule="evenodd" d="M183.552 81.9208C183.552 76.3845 179.384 71.8965 174.241 71.8965C169.099 71.8965 164.931 76.3845 164.931 81.9208C164.931 82.3466 164.626 82.6742 164.231 82.6742H155.985C155.133 82.6742 154.433 81.9208 154.433 81.0035V46.803C154.433 46.3116 154.798 45.9185 155.255 45.9185H164.992C165.631 45.9185 166.239 46.1478 166.726 46.6064L181.027 59.3497C181.057 59.3825 181.057 59.3825 181.088 59.4152L190.611 66.3929C191.981 67.1791 192.833 68.7516 192.833 70.4223V73.9275C192.833 74.4189 193.198 74.812 193.654 74.812C194.11 74.812 194.476 75.2051 194.476 75.6965V79.8897C194.476 81.2656 193.563 82.4122 192.346 82.6415C192.285 82.6415 192.224 82.6415 192.194 82.6415H184.313C183.856 82.6742 183.552 82.3466 183.552 81.9208Z" fill="#FF2200"/>
<path d="M192.346 82.6415C193.563 82.4122 194.476 81.2656 194.476 79.8897V75.6965C194.476 75.2051 194.11 74.812 193.654 74.812C193.198 74.812 192.833 74.4189 192.833 73.9275V70.4223C192.833 68.7516 191.981 67.1791 190.611 66.3929L181.088 59.4152C181.057 59.3825 181.057 59.3825 181.027 59.3497L166.726 46.6064C166.239 46.1478 165.631 45.9185 164.992 45.9185H155.255C154.798 45.9185 154.433 46.3116 154.433 46.803V81.0035C154.433 81.9208 155.133 82.6742 155.985 82.6742H164.231C164.626 82.6742 164.931 82.3466 164.931 81.9208C164.931 76.3845 169.099 71.8965 174.241 71.8965C179.384 71.8965 183.552 76.3845 183.552 81.9208C183.552 82.3466 183.856 82.6742 184.313 82.6415H192.194M192.346 82.6415C192.285 82.6415 192.224 82.6415 192.194 82.6415M192.346 82.6415H192.194" stroke="black"/>
<path d="M194.476 75.6965C194.476 75.2051 193.654 74.812 193.654 74.812L180.916 74.9314C182.547 76.7371 183.552 79.2026 183.552 81.9208C183.552 82.3466 183.856 82.6742 184.313 82.6414H192.194H192.346C193.563 82.4121 194.476 81.2656 194.476 79.8897V75.6965Z" fill="#D9D9D9"/>
<path d="M192.346 82.6415C193.563 82.4121 194.476 81.2656 194.476 79.8897V75.6965C194.476 75.2051 193.654 74.812 193.654 74.812L180.916 74.9314C182.547 76.7371 183.552 79.2026 183.552 81.9208C183.552 82.3466 183.856 82.6742 184.313 82.6415H192.194M192.346 82.6415C192.285 82.6415 192.224 82.6415 192.194 82.6415M192.346 82.6415H192.194" stroke="black"/>
<path fill-rule="evenodd" clip-rule="evenodd" d="M191.208 71.7819V71.0816C191.208 70.0311 191.208 69.4295 189.849 68.499L187.421 66.8795C186.228 66.2126 186.228 66.9232 186.228 67.5798V71.388C186.228 72.3947 186.277 73.1826 187.224 73.1826H190.709C191.207 73.1826 191.208 72.5698 191.208 71.7819Z" fill="white" stroke="black"/>
<path fill-rule="evenodd" clip-rule="evenodd" d="M158.694 48.7686H164.262C164.628 48.7686 164.993 48.8996 165.297 49.1617L176.555 59.1532C177.012 59.5136 176.768 60.2998 176.19 60.2998H158.664C157.721 60.2998 156.96 59.4808 156.99 58.4653C157.021 56.3032 157.021 52.7652 156.99 50.6031C156.99 49.5875 157.751 48.7686 158.694 48.7686Z" fill="white" stroke="black"/>
<ellipse cx="94.7187" cy="45" rx="16.7187" ry="18" fill="#F7F7F7"/>
<path d="M108.365 45C108.365 53.0435 102.317 59.5 94.9323 59.5C87.548 59.5 81.5 53.0435 81.5 45C81.5 36.9565 87.548 30.5 94.9323 30.5C102.317 30.5 108.365 36.9565 108.365 45Z" fill="white" stroke="black"/>
<path d="M87 45.0318L93.4688 51.9964C93.9492 52.5135 94.7997 52.3837 95.1039 51.7468L101.193 39" stroke="#FF2200" stroke-width="3" stroke-linecap="round"/>
<path d="M31.9559 72.9669L32.1975 72.8944C32.3058 72.8697 32.4135 72.8405 32.5114 72.814C32.5255 72.8101 32.5395 72.8063 32.5532 72.8026C32.6718 72.7706 32.7807 72.7421 32.8923 72.7198L33.1508 72.6681L33.6548 72.5673L33.5401 72.0662L27.8567 47.2401C27.3429 44.4994 24.9144 42.5 22.1207 42.5H8.29421C6.13146 42.5 4.38281 44.2487 4.38281 46.4114V74.1936V74.2195V74.7195H4.88281H6.17501H6.67501V74.2195V46.4372C6.67501 45.5504 7.40738 44.818 8.29421 44.818H22.0949C23.7945 44.818 25.2661 46.0183 25.5833 47.7178L25.5853 47.7282L25.5877 47.7385L31.325 72.6004L31.445 73.1201L31.9559 72.9669Z" fill="#D9D9D9" stroke="black"/>
<path d="M8.46699 90.9633C12.5909 90.9633 15.934 87.6202 15.934 83.4963C15.934 79.3724 12.5909 76.0293 8.46699 76.0293C4.34308 76.0293 1 79.3724 1 83.4963C1 87.6202 4.34308 90.9633 8.46699 90.9633Z" fill="#D9D9D9" stroke="black" stroke-width="2"/>
<path d="M8.46673 86.2118C9.96633 86.2118 11.182 84.9961 11.182 83.4965C11.182 81.9969 9.96633 80.7812 8.46673 80.7812C6.96713 80.7812 5.75146 81.9969 5.75146 83.4965C5.75146 84.9961 6.96713 86.2118 8.46673 86.2118Z" fill="white" stroke="black"/>
<path d="M34.9655 91.0001C40.0367 91.0001 44.1478 86.889 44.1478 81.8178C44.1478 76.7466 40.0367 72.6355 34.9655 72.6355C29.8943 72.6355 25.7832 76.7466 25.7832 81.8178C25.7832 86.889 29.8943 91.0001 34.9655 91.0001Z" fill="#D9D9D9" stroke="black" stroke-width="2"/>
<path d="M34.9658 85.317C36.8984 85.317 38.4652 83.7502 38.4652 81.8176C38.4652 79.8849 36.8984 78.3181 34.9658 78.3181C33.0331 78.3181 31.4663 79.8849 31.4663 81.8176C31.4663 83.7502 33.0331 85.317 34.9658 85.317Z" fill="white" stroke="black"/>
<mask id="path-25-outside-1_109_2450" maskUnits="userSpaceOnUse" x="7.4668" y="54.6653" width="14" height="15" fill="black">
<rect fill="white" x="7.4668" y="54.6653" width="14" height="15"/>
<path fill-rule="evenodd" clip-rule="evenodd" d="M10.0174 55.9754C10.0174 55.7945 9.88821 55.6653 9.70731 55.6653H8.77692C8.59602 55.6653 8.4668 55.7945 8.4668 55.9754L9.24212 67.8119C9.24212 67.9928 9.37133 68.1221 9.55224 68.1221H10.4826C10.4866 68.1221 10.4905 68.122 10.4944 68.1219H20.1227C20.3036 68.1219 20.4328 67.9927 20.4328 67.8118V66.8814C20.4328 66.7005 20.3036 66.5712 20.1227 66.5712H10.7115L10.0174 55.9754Z"/>
</mask>
<path fill-rule="evenodd" clip-rule="evenodd" d="M10.0174 55.9754C10.0174 55.7945 9.88821 55.6653 9.70731 55.6653H8.77692C8.59602 55.6653 8.4668 55.7945 8.4668 55.9754L9.24212 67.8119C9.24212 67.9928 9.37133 68.1221 9.55224 68.1221H10.4826C10.4866 68.1221 10.4905 68.122 10.4944 68.1219H20.1227C20.3036 68.1219 20.4328 67.9927 20.4328 67.8118V66.8814C20.4328 66.7005 20.3036 66.5712 20.1227 66.5712H10.7115L10.0174 55.9754Z" fill="#D9D9D9"/>
<path d="M10.0174 55.9754H9.01743V56.0081L9.01957 56.0408L10.0174 55.9754ZM8.4668 55.9754H7.4668V56.0081L7.46894 56.0408L8.4668 55.9754ZM9.24212 67.8119H10.2421V67.7792L10.24 67.7466L9.24212 67.8119ZM10.4944 68.1219V67.1219H10.4788L10.4631 67.1224L10.4944 68.1219ZM10.7115 66.5712L9.71362 66.6366L9.77484 67.5712H10.7115V66.5712ZM9.70731 56.6653C9.55316 56.6653 9.36982 56.6063 9.22311 56.4596C9.07639 56.3129 9.01743 56.1296 9.01743 55.9754H11.0174C11.0174 55.2422 10.4405 54.6653 9.70731 54.6653V56.6653ZM8.77692 56.6653H9.70731V54.6653H8.77692V56.6653ZM9.4668 55.9754C9.4668 56.1296 9.40784 56.3129 9.26113 56.4596C9.11441 56.6063 8.93107 56.6653 8.77692 56.6653V54.6653C8.04373 54.6653 7.4668 55.2422 7.4668 55.9754H9.4668ZM10.24 67.7466L9.46466 55.91L7.46894 56.0408L8.24425 67.8773L10.24 67.7466ZM9.55224 67.1221C9.70639 67.1221 9.88973 67.181 10.0364 67.3277C10.1832 67.4744 10.2421 67.6578 10.2421 67.8119H8.24212C8.24212 68.5451 8.81905 69.1221 9.55224 69.1221V67.1221ZM10.4826 67.1221H9.55224V69.1221H10.4826V67.1221ZM10.4631 67.1224C10.4696 67.1222 10.4761 67.1221 10.4826 67.1221V69.1221C10.497 69.1221 10.5114 69.1218 10.5257 69.1214L10.4631 67.1224ZM20.1227 67.1219H10.4944V69.1219H20.1227V67.1219ZM19.4328 67.8118C19.4328 67.6576 19.4917 67.4743 19.6385 67.3275C19.7852 67.1808 19.9685 67.1219 20.1227 67.1219V69.1219C20.8558 69.1219 21.4328 68.545 21.4328 67.8118H19.4328ZM19.4328 66.8814V67.8118H21.4328V66.8814H19.4328ZM20.1227 67.5712C19.9685 67.5712 19.7852 67.5123 19.6385 67.3656C19.4917 67.2189 19.4328 67.0355 19.4328 66.8814H21.4328C21.4328 66.1482 20.8558 65.5712 20.1227 65.5712V67.5712ZM10.7115 67.5712H20.1227V65.5712H10.7115V67.5712ZM9.01957 56.0408L9.71362 66.6366L11.7093 66.5059L11.0153 55.91L9.01957 56.0408Z" fill="black" mask="url(#path-25-outside-1_109_2450)"/>
<path d="M24.8865 80.7583C25.0933 78.7424 25.9203 76.9075 27.1349 75.4344C24.7056 73.4961 22.6122 71.7646 20.1571 69.9038H5.01251C3.74616 69.9038 2.7124 70.9376 2.7124 72.2039V76.9592C4.13382 75.8479 5.9429 75.176 7.88119 75.176C12.5073 75.176 16.2546 78.9233 16.2546 83.5494C16.2546 83.9629 16.2288 84.3764 16.1771 84.7641H25.2483C24.8865 83.4977 24.7314 82.1538 24.8865 80.7583Z" fill="#FF1D00" stroke="black" stroke-width="2"/>
<path d="M37.8718 72.7344L38.5155 72.9275V72.2555V44.189C38.5155 43.6286 38.059 43.1721 37.4986 43.1721H36.9817C36.4213 43.1721 35.9648 43.6286 35.9648 44.189V71.8937V72.3243L36.3907 72.3882C36.8762 72.461 37.3686 72.5835 37.8718 72.7344Z" fill="#D9D9D9" stroke="black"/>
<path d="M44.8902 82.6875H44.4565L44.3952 83.1168C44.32 83.6429 44.2216 84.131 44.0774 84.5876L43.872 85.2381H44.5542H54.2457C54.7027 85.2381 55.0558 84.8851 55.0558 84.428V83.4976C55.0558 83.0937 54.7293 82.6875 54.2457 82.6875H44.8902Z" fill="#D9D9D9" stroke="black"/>
</svg>
