<svg width="77" height="92" viewBox="0 0 77 92" fill="none" xmlns="http://www.w3.org/2000/svg">
<g id="Picto_Movers">
<g id="Mover Color">
<g id="Vector">
<path d="M39.1 55.5001L50.5 39.5001L39.6 23.1001H31.5C31.5 26.3001 28.9 28.9001 25.7 28.9001C22.5 28.9001 19.9 26.3001 19.9 23.1001H11.8L1 39.4001L12.4 55.4001" fill="#F2F2F2"/>
<path d="M39.1 55.5001L50.5 39.5001L39.6 23.1001H31.5C31.5 26.3001 28.9 28.9001 25.7 28.9001C22.5 28.9001 19.9 26.3001 19.9 23.1001H11.8L1 39.4001L12.4 55.4001" stroke="black" stroke-width="1.5826" stroke-miterlimit="10" stroke-linecap="round" stroke-linejoin="round"/>
</g>
<path id="Vector_2" d="M17.6001 9C17.6001 9.3 17.8001 9.5 18.1001 9.5H33.9001C34.2001 9.5 34.4001 9.3 34.4001 9V5.6C34.4001 3.3 32.6001 1.5 30.3001 1.5H25.9001H21.5001C19.4001 1.5 17.6001 3.3 17.6001 5.4V9Z" fill="#D9D9D9" stroke="black" stroke-width="2" stroke-miterlimit="10" stroke-linecap="round" stroke-linejoin="round"/>
<path id="Vector_3" d="M42.7998 90.6998C42.9998 90.6998 43.0998 90.5998 43.1998 90.3998C43.2998 90.1998 43.2998 90.0998 43.1998 89.8998L40.5998 85.4998C40.4998 85.2998 40.2998 85.2998 40.1998 85.2998H33.7998C33.4998 85.2998 33.2998 85.4998 33.2998 85.7998V90.1998C33.2998 90.4998 33.4998 90.6998 33.7998 90.6998H42.7998Z" fill="#D9D9D9" stroke="black" stroke-width="1.5826" stroke-miterlimit="10" stroke-linecap="round" stroke-linejoin="round"/>
<path id="Vector_4" d="M17.6 90.6998C17.9 90.6998 18.1 90.4998 18.1 90.1998V85.7998C18.1 85.4998 17.9 85.2998 17.6 85.2998H11.2C11 85.2998 10.9 85.3998 10.8 85.4998L8.2 89.8998C8.1 90.0998 8.1 90.1998 8.2 90.3998C8.3 90.5998 8.5 90.6998 8.6 90.6998H17.6Z" fill="#D9D9D9" stroke="black" stroke-width="1.5826" stroke-miterlimit="10" stroke-linecap="round" stroke-linejoin="round"/>
<path id="Vector_5" d="M29.2998 35.2998H39.6998V85.3998H33.8998L29.2998 63.9998L29.1998 63.4998C28.5998 60.9998 26.5998 60.5998 25.6998 60.5998C24.7998 60.5998 22.7998 60.9998 22.1998 63.4998V63.9998L17.5998 85.3998H11.7998V35.2998H22.1998H29.2998Z" fill="#D9D9D9" stroke="black" stroke-width="2" stroke-miterlimit="10" stroke-linecap="round" stroke-linejoin="round"/>
<path id="Vector_6" d="M14.5999 32.3999L8.8999 38.0999" stroke="black" stroke-width="2" stroke-miterlimit="10" stroke-linecap="round"/>
<path id="Vector_7" d="M42.5999 38.0999L36.8999 32.3999" stroke="black" stroke-width="2" stroke-miterlimit="10" stroke-linecap="round"/>
<path id="Vector_8" d="M32.5001 42.3999H19.1001V50.8999H32.5001V42.3999Z" fill="#F2F2F2" stroke="black" stroke-width="2" stroke-miterlimit="10" stroke-linecap="round" stroke-linejoin="round"/>
<path id="Vector_9" d="M17.6001 9.5V13.4C17.6001 17.8 21.4001 21.3 26.0001 21.3C30.6001 21.3 34.4001 17.8 34.4001 13.4V9.5H17.6001Z" fill="white" stroke="black" stroke-width="1.5826" stroke-miterlimit="10" stroke-linecap="round" stroke-linejoin="round"/>
<path id="Vector_10" d="M32.2002 9.2002H39.2002" stroke="#D9D9D9" stroke-width="2" stroke-miterlimit="10" stroke-linecap="round" stroke-linejoin="round"/>
</g>
<g id="Mover Grey">
<g id="Vector_11">
<path d="M64.1 55.5001L75.5 39.5001L64.6 23.1001H56.5C56.5 26.3001 53.9 28.9001 50.7 28.9001C47.5 28.9001 44.9 26.3001 44.9 23.1001H36.8L26 39.4001L37.4 55.4001" fill="#F2F2F2"/>
<path d="M64.1 55.5001L75.5 39.5001L64.6 23.1001H56.5C56.5 26.3001 53.9 28.9001 50.7 28.9001C47.5 28.9001 44.9 26.3001 44.9 23.1001H36.8L26 39.4001L37.4 55.4001" stroke="black" stroke-width="1.5826" stroke-miterlimit="10" stroke-linecap="round" stroke-linejoin="round"/>
</g>
<path id="Vector_12" d="M42.6001 9C42.6001 9.3 42.8001 9.5 43.1001 9.5H58.9001C59.2001 9.5 59.4001 9.3 59.4001 9V5.6C59.4001 3.3 57.6001 1.5 55.3001 1.5H50.9001H46.5001C44.4001 1.5 42.6001 3.3 42.6001 5.4V9Z" fill="#FF2200" stroke="black" stroke-width="2" stroke-miterlimit="10" stroke-linecap="round" stroke-linejoin="round"/>
<path id="Vector_13" d="M67.7998 90.6998C67.9998 90.6998 68.0998 90.5998 68.1998 90.3998C68.2998 90.1998 68.2998 90.0998 68.1998 89.8998L65.5998 85.4998C65.4998 85.2998 65.2998 85.2998 65.1998 85.2998H58.7998C58.4998 85.2998 58.2998 85.4998 58.2998 85.7998V90.1998C58.2998 90.4998 58.4998 90.6998 58.7998 90.6998H67.7998Z" fill="#D9D9D9" stroke="black" stroke-width="1.5826" stroke-miterlimit="10" stroke-linecap="round" stroke-linejoin="round"/>
<path id="Vector_14" d="M42.6 90.6998C42.9 90.6998 43.1 90.4998 43.1 90.1998V85.7998C43.1 85.4998 42.9 85.2998 42.6 85.2998H36.2C36 85.2998 35.9 85.3998 35.8 85.4998L33.2 89.8998C33.1 90.0998 33.1 90.1998 33.2 90.3998C33.3 90.5998 33.5 90.6998 33.6 90.6998H42.6Z" fill="#D9D9D9" stroke="black" stroke-width="1.5826" stroke-miterlimit="10" stroke-linecap="round" stroke-linejoin="round"/>
<path id="Vector_15" d="M54.2998 35.2998H64.6998V85.3998H58.8998L54.2998 63.9998L54.1998 63.4998C53.5998 60.9998 51.5998 60.5998 50.6998 60.5998C49.7998 60.5998 47.7998 60.9998 47.1998 63.4998V63.9998L42.5998 85.3998H36.7998V35.2998H47.1998H54.2998Z" fill="#FF2200" stroke="black" stroke-width="2" stroke-miterlimit="10" stroke-linecap="round" stroke-linejoin="round"/>
<path id="Vector_16" d="M39.5999 32.3999L33.8999 38.0999" stroke="black" stroke-width="2" stroke-miterlimit="10" stroke-linecap="round"/>
<path id="Vector_17" d="M67.5999 38.0999L61.8999 32.3999" stroke="black" stroke-width="2" stroke-miterlimit="10" stroke-linecap="round"/>
<path id="Vector_18" d="M57.5001 42.3999H44.1001V50.8999H57.5001V42.3999Z" fill="#FF2200" stroke="black" stroke-width="2" stroke-miterlimit="10" stroke-linecap="round" stroke-linejoin="round"/>
<path id="Vector_19" d="M42.6001 9.5V13.4C42.6001 17.8 46.4001 21.3 51.0001 21.3C55.6001 21.3 59.4001 17.8 59.4001 13.4V9.5H42.6001Z" fill="white" stroke="black" stroke-width="1.5826" stroke-miterlimit="10" stroke-linecap="round" stroke-linejoin="round"/>
<path id="Vector_20" d="M57.2002 9.2002H64.2002" stroke="#FF2200" stroke-width="2" stroke-miterlimit="10" stroke-linecap="round" stroke-linejoin="round"/>
</g>
</g>
</svg>
