<svg width="181" height="79" viewBox="0 0 181 79" fill="none" xmlns="http://www.w3.org/2000/svg">
<path fill-rule="evenodd" clip-rule="evenodd" d="M136.555 3.1448V46.7467C136.555 47.1726 136.251 47.5002 135.855 47.5002H116.115C115.72 47.5002 115.476 47.1683 115.415 46.7467C114.59 41.0002 110.59 38.3962 106.104 38.3962C102.09 38.3962 97.5897 40.5002 96.7937 46.7467C96.7937 47.1726 96.4895 47.5002 96.0939 47.5002L80.5 47.5C80.1045 47.5 78.5 46.2525 78.5 45.8267L78.5 1.75346C78.5 1.32759 78.8042 1 79.1998 1L134.876 1.00017L136.555 3.1448Z" fill="#F2F2F2" stroke="black"/>
<ellipse cx="7.54596" cy="8.12427" rx="7.54596" ry="8.12427" transform="matrix(-1 0 0 1 113.604 40.5906)" fill="#D9D9D9" stroke="black"/>
<ellipse cx="3.92512" cy="4.22593" rx="3.92512" ry="4.22593" transform="matrix(-1 0 0 1 109.982 44.4888)" fill="white" stroke="black"/>
<ellipse cx="7.54596" cy="8.12427" rx="7.54596" ry="8.12427" transform="matrix(-1 0 0 1 167.289 40.5906)" fill="#D9D9D9" stroke="black"/>
<ellipse cx="3.92512" cy="4.22593" rx="3.92512" ry="4.22593" transform="matrix(-1 0 0 1 163.667 44.4888)" fill="white" stroke="black"/>
<path fill-rule="evenodd" clip-rule="evenodd" d="M169.052 48.4205C169.052 42.8842 164.884 38.3962 159.741 38.3962C154.599 38.3962 150.431 42.8842 150.431 48.4205C150.431 48.8464 150.126 49.174 149.731 49.174H141.485C140.633 49.174 139.933 48.4205 139.933 47.5033V13.3027C139.933 12.8113 140.298 12.4182 140.755 12.4182H150.492C151.131 12.4182 151.739 12.6475 152.226 13.1062L166.527 25.8495C166.557 25.8822 166.557 25.8822 166.588 25.915L176.111 32.8927C177.481 33.6789 178.333 35.2513 178.333 36.9221V40.4273C178.333 40.9187 178.698 41.3118 179.154 41.3118C179.61 41.3118 179.976 41.7049 179.976 42.1963V46.3895C179.976 47.7653 179.063 48.9119 177.846 49.1412C177.785 49.1412 177.724 49.1412 177.694 49.1412H169.813C169.356 49.174 169.052 48.8464 169.052 48.4205Z" fill="#FF2200"/>
<path d="M177.846 49.1412C179.063 48.9119 179.976 47.7653 179.976 46.3895V42.1963C179.976 41.7049 179.61 41.3118 179.154 41.3118C178.698 41.3118 178.333 40.9187 178.333 40.4273V36.9221C178.333 35.2513 177.481 33.6789 176.111 32.8927L166.588 25.915C166.557 25.8822 166.557 25.8822 166.527 25.8495L152.226 13.1062C151.739 12.6475 151.131 12.4182 150.492 12.4182H140.755C140.298 12.4182 139.933 12.8113 139.933 13.3027V47.5033C139.933 48.4205 140.633 49.174 141.485 49.174H149.731C150.126 49.174 150.431 48.8464 150.431 48.4205C150.431 42.8842 154.599 38.3962 159.741 38.3962C164.884 38.3962 169.052 42.8842 169.052 48.4205C169.052 48.8464 169.356 49.174 169.813 49.1412H177.694M177.846 49.1412C177.785 49.1412 177.724 49.1412 177.694 49.1412M177.846 49.1412H177.694" stroke="black"/>
<path d="M179.976 42.196C179.976 41.7046 179.154 41.3115 179.154 41.3115L166.416 41.431C168.047 43.2366 169.052 45.7021 169.052 48.4203C169.052 48.8461 169.356 49.1737 169.813 49.141H177.694H177.846C179.063 48.9116 179.976 47.7651 179.976 46.3892V42.196Z" fill="#D9D9D9"/>
<path d="M177.846 49.141C179.063 48.9116 179.976 47.7651 179.976 46.3892V42.196C179.976 41.7046 179.154 41.3115 179.154 41.3115L166.416 41.431C168.047 43.2366 169.052 45.7021 169.052 48.4203C169.052 48.8461 169.356 49.1737 169.813 49.141H177.694M177.846 49.141C177.785 49.141 177.724 49.141 177.694 49.141M177.846 49.141H177.694" stroke="black"/>
<path fill-rule="evenodd" clip-rule="evenodd" d="M176.708 38.2815V37.5811C176.708 36.5306 176.708 35.929 175.349 34.9986L172.921 33.379C171.728 32.7121 171.728 33.4228 171.728 34.0793V37.8875C171.728 38.8943 171.777 39.6822 172.724 39.6822H176.209C176.707 39.6822 176.708 39.0693 176.708 38.2815Z" fill="white" stroke="black"/>
<path fill-rule="evenodd" clip-rule="evenodd" d="M144.194 15.2681H149.762C150.128 15.2681 150.493 15.3991 150.797 15.6612L162.055 25.6527C162.512 26.0131 162.268 26.7993 161.69 26.7993H144.164C143.221 26.7993 142.46 25.9803 142.49 24.9648C142.521 22.8027 142.521 19.2647 142.49 17.1026C142.49 16.087 143.251 15.2681 144.194 15.2681Z" fill="white" stroke="black"/>
<path d="M47.7052 44.2321H5.78989C2.86842 44.2321 0.5 41.8605 0.5 38.9351V17.3566C0.5 14.4312 2.86842 12.0596 5.78989 12.0596H47.7052C50.6266 12.0596 52.995 14.4312 52.995 17.3566V38.9351C52.995 41.8605 50.6266 44.2321 47.7052 44.2321Z" fill="#E5E4E5" stroke="#231F20" stroke-miterlimit="10"/>
<path d="M21.5682 10.6532V8.34488C21.5682 7.45355 21.2417 6.5921 20.65 5.92403C19.8494 5.01863 18.6977 4.5 17.4898 4.5H5.78989C2.86842 4.5 0.5 6.87163 0.5 9.79705V17.3339H52.995V12.7682C52.995 11.6008 52.0487 10.6532 50.883 10.6532H21.5682Z" fill="#FF2200" stroke="#231F20" stroke-miterlimit="10"/>
<circle cx="129.5" cy="69.5" r="8.5" fill="white" stroke="black"/>
<circle cx="129.5" cy="69.4999" r="3.68182" fill="#ED2D24"/>
<circle cx="27.5" cy="69.5" r="8.5" fill="white" stroke="black"/>
<circle cx="27.5002" cy="69.4999" r="3.68182" fill="#ED2D24"/>
<path d="M43.7929 69.7929C43.4024 70.1834 43.4024 70.8166 43.7929 71.2071L50.1569 77.5711C50.5474 77.9616 51.1805 77.9616 51.5711 77.5711C51.9616 77.1805 51.9616 76.5474 51.5711 76.1569L45.9142 70.5L51.5711 64.8431C51.9616 64.4526 51.9616 63.8195 51.5711 63.4289C51.1805 63.0384 50.5474 63.0384 50.1569 63.4289L43.7929 69.7929ZM116.207 71.2071C116.598 70.8166 116.598 70.1834 116.207 69.7929L109.843 63.4289C109.453 63.0384 108.819 63.0384 108.429 63.4289C108.038 63.8195 108.038 64.4526 108.429 64.8432L114.086 70.5L108.429 76.1569C108.038 76.5474 108.038 77.1805 108.429 77.5711C108.819 77.9616 109.453 77.9616 109.843 77.5711L116.207 71.2071ZM44.5 71.5L46.4722 71.5L46.4722 69.5L44.5 69.5L44.5 71.5ZM50.4167 71.5L54.3611 71.5L54.3611 69.5L50.4167 69.5L50.4167 71.5ZM58.3056 71.5L62.25 71.5L62.25 69.5L58.3056 69.5L58.3056 71.5ZM66.1944 71.5L70.1389 71.5L70.1389 69.5L66.1944 69.5L66.1944 71.5ZM74.0833 71.5L78.0278 71.5L78.0278 69.5L74.0833 69.5L74.0833 71.5ZM81.9722 71.5L85.9167 71.5L85.9167 69.5L81.9722 69.5L81.9722 71.5ZM89.8611 71.5L93.8055 71.5L93.8055 69.5L89.8611 69.5L89.8611 71.5ZM97.75 71.5L101.694 71.5L101.694 69.5L97.75 69.5L97.75 71.5ZM105.639 71.5L109.583 71.5L109.583 69.5L105.639 69.5L105.639 71.5ZM113.528 71.5L115.5 71.5L115.5 69.5L113.528 69.5L113.528 71.5Z" fill="#EE2E24"/>
</svg>
