<svg width="128" height="66" viewBox="0 0 128 66" fill="none" xmlns="http://www.w3.org/2000/svg">
<path fill-rule="evenodd" clip-rule="evenodd" d="M83.9829 3.14463V56.9199C83.9829 57.3457 83.6786 57.6733 83.2831 57.6733H61.5575C61.162 57.6733 60.8577 57.3457 60.8577 56.9199C60.8577 51.3836 56.6892 46.8956 51.547 46.8956C46.4048 46.8956 42.2362 51.3836 42.2362 56.9199C42.2362 57.3457 41.932 57.6733 41.5364 57.6733H26.232C25.8364 57.6733 25.5321 57.3457 25.5321 56.9199V1.75346C25.5321 1.32759 25.8364 1 26.232 1H82.3041L83.9829 3.14463Z" fill="#F2F2F2" stroke="black"/>
<ellipse cx="7.54596" cy="8.12427" rx="7.54596" ry="8.12427" transform="matrix(-1 0 0 1 59.031 49.0898)" fill="#D9D9D9" stroke="black"/>
<ellipse cx="3.92512" cy="4.22593" rx="3.92512" ry="4.22593" transform="matrix(-1 0 0 1 55.4089 52.9883)" fill="white" stroke="black"/>
<ellipse cx="7.54596" cy="8.12427" rx="7.54596" ry="8.12427" transform="matrix(-1 0 0 1 114.716 49.0898)" fill="#D9D9D9" stroke="black"/>
<ellipse cx="3.92512" cy="4.22593" rx="3.92512" ry="4.22593" transform="matrix(-1 0 0 1 111.094 52.9883)" fill="white" stroke="black"/>
<path fill-rule="evenodd" clip-rule="evenodd" d="M116.48 56.9198C116.48 51.3835 112.311 46.8955 107.169 46.8955C102.027 46.8955 97.8583 51.3835 97.8583 56.9198C97.8583 57.3457 97.5541 57.6733 97.1585 57.6733H88.9127C88.0607 57.6733 87.3609 56.9198 87.3609 56.0025V21.802C87.3609 21.3106 87.726 20.9175 88.1825 20.9175H97.9192C98.5582 20.9175 99.1667 21.1468 99.6535 21.6054L113.954 34.3487C113.985 34.3815 113.985 34.3815 114.015 34.4143L123.539 41.392C124.908 42.1782 125.76 43.7506 125.76 45.4213V48.9266C125.76 49.4179 126.125 49.8111 126.582 49.8111C127.038 49.8111 127.403 50.2042 127.403 50.6956V54.8887C127.403 56.2646 126.49 57.4112 125.273 57.6405C125.212 57.6405 125.152 57.6405 125.121 57.6405H117.24C116.784 57.6733 116.48 57.3457 116.48 56.9198Z" fill="#FF2200"/>
<path d="M125.273 57.6405C126.49 57.4112 127.403 56.2646 127.403 54.8887V50.6956C127.403 50.2042 127.038 49.8111 126.582 49.8111C126.125 49.8111 125.76 49.4179 125.76 48.9266V45.4213C125.76 43.7506 124.908 42.1782 123.539 41.392L114.015 34.4143C113.985 34.3815 113.985 34.3815 113.954 34.3487L99.6535 21.6054C99.1667 21.1468 98.5582 20.9175 97.9192 20.9175H88.1825C87.726 20.9175 87.3609 21.3106 87.3609 21.802V56.0025C87.3609 56.9198 88.0607 57.6733 88.9127 57.6733H97.1585C97.5541 57.6733 97.8583 57.3457 97.8583 56.9198C97.8583 51.3835 102.027 46.8955 107.169 46.8955C112.311 46.8955 116.48 51.3835 116.48 56.9198C116.48 57.3457 116.784 57.6733 117.24 57.6405H125.121M125.273 57.6405C125.212 57.6405 125.152 57.6405 125.121 57.6405M125.273 57.6405H125.121" stroke="black"/>
<path d="M127.403 50.6955C127.403 50.2041 126.582 49.811 126.582 49.811L113.843 49.9305C115.475 51.7361 116.48 54.2016 116.48 56.9198C116.48 57.3456 116.784 57.6732 117.24 57.6405H125.121H125.273C126.49 57.4112 127.403 56.2646 127.403 54.8887V50.6955Z" fill="#D9D9D9"/>
<path d="M125.273 57.6405C126.49 57.4112 127.403 56.2646 127.403 54.8887V50.6955C127.403 50.2041 126.582 49.811 126.582 49.811L113.843 49.9305C115.475 51.7361 116.48 54.2016 116.48 56.9198C116.48 57.3456 116.784 57.6732 117.24 57.6405H125.121M125.273 57.6405C125.212 57.6405 125.152 57.6405 125.121 57.6405M125.273 57.6405H125.121" stroke="black"/>
<path fill-rule="evenodd" clip-rule="evenodd" d="M124.135 46.781V46.0806C124.135 45.0301 124.135 44.4285 122.777 43.4981L120.349 41.8785C119.155 41.2116 119.155 41.9223 119.155 42.5789V46.387C119.155 47.3938 119.205 48.1817 120.151 48.1817H123.637C124.134 48.1817 124.135 47.5689 124.135 46.781Z" fill="white" stroke="black"/>
<path fill-rule="evenodd" clip-rule="evenodd" d="M91.6219 23.7676H97.1901C97.5552 23.7676 97.9204 23.8986 98.2246 24.1607L109.483 34.1522C109.939 34.5126 109.696 35.2988 109.118 35.2988H91.5915C90.6482 35.2988 89.8876 34.4798 89.918 33.4643C89.9484 31.3022 89.9484 27.7642 89.918 25.6021C89.918 24.5866 90.6787 23.7676 91.6219 23.7676Z" fill="white" stroke="black"/>
<ellipse cx="16.7187" cy="23" rx="16.7187" ry="18" fill="#F7F7F7"/>
<path d="M30.3645 23C30.3645 31.0435 24.3166 37.5 16.9323 37.5C9.54795 37.5 3.5 31.0435 3.5 23C3.5 14.9565 9.54795 8.5 16.9323 8.5C24.3166 8.5 30.3645 14.9565 30.3645 23Z" fill="white" stroke="black"/>
<path d="M9 23.0318L15.4688 29.9964C15.9492 30.5135 16.7997 30.3837 17.1039 29.7468L23.1928 17" stroke="#FF2200" stroke-width="3" stroke-linecap="round"/>
<path d="M74 26.6142C74 28.7642 72.4269 30.1113 69.8954 30.1113H68.0073V32.8717H65.9265V23.1283H69.8933C72.4247 23.1283 73.9978 24.4643 73.9978 26.6142H74ZM71.9171 26.6187C71.9171 25.4132 71.1841 24.7496 69.8517 24.7496H68.0073V28.4899H69.8517C71.1841 28.4899 71.9171 27.8264 71.9171 26.6209V26.6187ZM61.8132 24.7496L63.9902 23.1283H56.7022V32.8717H63.9902V31.2504H58.7829V28.7554H63.2244V27.134H58.7829V24.7496H61.8132ZM48.6725 24.7496V26.9261H51.2039C53.5035 26.9261 54.7681 27.9502 54.7681 29.8104C54.7681 31.6706 53.3722 32.8717 50.9348 32.8717H46.5918V23.1283H54.8884L52.7114 24.7496H48.6725ZM48.6725 28.5474V31.2482H50.8407C52.1251 31.2482 52.7749 30.8169 52.7749 29.8967C52.7749 28.9766 52.1601 28.5452 50.8407 28.5452H48.6725V28.5474ZM43.0233 30.7616C42.4894 31.058 41.868 31.2172 41.227 31.2172C39.3519 31.2172 37.991 29.8635 37.991 28.0011C37.991 26.1387 39.3519 24.785 41.227 24.785C41.9359 24.785 42.5725 24.9863 43.1195 25.3844L44.6117 24.2741L44.5132 24.1856C43.6403 23.4092 42.4785 23 41.146 23C39.7042 23 38.3936 23.491 37.4594 24.3846C36.5185 25.2849 36 26.5479 36 27.9458C36 29.3437 36.5164 30.6333 37.4528 31.5578C38.3936 32.4868 39.6998 32.9978 41.1329 32.9978C42.566 32.9978 43.9422 32.4691 44.8283 31.507C44.1435 30.996 43.4827 30.505 43.4827 30.505L43.0211 30.7593L43.0233 30.7616Z" fill="url(#paint0_linear_1_232)"/>
<defs>
<linearGradient id="paint0_linear_1_232" x1="51.4468" y1="42.4979" x2="56.039" y2="23.1572" gradientUnits="userSpaceOnUse">
<stop stop-color="#F2F2F2"/>
<stop offset="0.03" stop-color="#E7E7E7"/>
<stop offset="0.17" stop-color="#C0C0C0"/>
<stop offset="0.32" stop-color="#A0A0A0"/>
<stop offset="0.47" stop-color="#868686"/>
<stop offset="0.62" stop-color="#757575"/>
<stop offset="0.78" stop-color="#6A6A6A"/>
<stop offset="0.97" stop-color="#676767"/>
</linearGradient>
</defs>
</svg>
