<svg width="43" height="43" viewBox="0 0 43 43" fill="none" xmlns="http://www.w3.org/2000/svg">
<path d="M30.2095 0.0212402H12.795C5.73741 0.0212402 0 5.69443 0 12.6654V29.8778C0 36.8479 5.73741 42.522 12.795 42.522H30.2086C37.2599 42.522 43 36.8479 43 29.8778V12.6654C43.0009 5.69443 37.2608 0.0212402 30.2095 0.0212402Z" fill="#FF2200"/>
<path fill-rule="evenodd" clip-rule="evenodd" d="M35.0588 26.6843L35.0748 26.4949H38.1063V27.847C38.1063 30.075 37.8508 31.4298 37.2245 32.5214C36.5174 33.7516 35.1405 34.5171 33.6287 34.5171C32.1764 34.5171 30.8261 33.8174 29.9247 32.596C29.3676 31.8392 28.9018 30.8282 28.4396 29.349C27.3386 30.8475 26.1737 32.0015 24.8971 32.8345C22.9213 34.126 20.7903 34.7819 18.5572 34.7819C14.7246 34.7819 11.7987 33.5587 9.35183 30.9326C7.00612 28.4195 5.81641 25.084 5.81641 21.0234C5.81641 17.3775 7.06911 14.0989 9.44055 11.5438C11.8235 8.97291 14.8391 7.66992 18.4038 7.66992C20.9864 7.66992 23.1253 8.49328 24.9441 10.183C25.9874 11.1536 26.9269 12.5346 27.5151 13.7771C27.5462 13.8411 27.5763 13.9078 27.6056 13.9753C28.1938 11.2115 28.8459 8.17323 28.8459 8.17323H35.9052C35.9052 8.17323 32.1853 21.1303 30.9796 25.1752C31.4054 26.3335 31.826 26.9728 32.2935 27.505C32.683 27.9504 33.1603 28.1679 33.7538 28.1679C34.5301 28.1679 34.9976 27.4217 35.0588 26.6843ZM19.2022 31.4525C20.776 31.4525 22.1733 30.6353 23.2433 29.0868C24.2955 27.5663 25.1613 24.927 26.0468 20.5612C25.3414 17.3317 24.3567 14.8196 23.1918 13.2991C22.105 11.8821 20.855 11.2245 19.2536 11.2245C17.4544 11.2245 16.1201 12.0084 15.0555 13.6876C13.9225 15.4763 13.3477 17.9815 13.3477 21.1337C13.3477 24.5719 13.8897 27.205 14.9605 28.9622C15.9817 30.6405 17.3684 31.4525 19.2022 31.4525Z" fill="white"/>
</svg>
