<svg width="128" height="66" viewBox="0 0 128 66" fill="none" xmlns="http://www.w3.org/2000/svg">
<path fill-rule="evenodd" clip-rule="evenodd" d="M83.9829 3.14463V56.9199C83.9829 57.3457 83.6786 57.6733 83.2831 57.6733H61.5575C61.162 57.6733 60.8577 57.3457 60.8577 56.9199C60.8577 51.3836 56.6892 46.8956 51.547 46.8956C46.4048 46.8956 42.2362 51.3836 42.2362 56.9199C42.2362 57.3457 41.932 57.6733 41.5364 57.6733H26.232C25.8364 57.6733 25.5321 57.3457 25.5321 56.9199V1.75346C25.5321 1.32759 25.8364 1 26.232 1H82.3041L83.9829 3.14463Z" fill="#F2F2F2" stroke="black"/>
<ellipse cx="7.54596" cy="8.12427" rx="7.54596" ry="8.12427" transform="matrix(-1 0 0 1 59.0312 49.0901)" fill="#D9D9D9" stroke="black"/>
<ellipse cx="3.92512" cy="4.22593" rx="3.92512" ry="4.22593" transform="matrix(-1 0 0 1 55.4092 52.9883)" fill="white" stroke="black"/>
<ellipse cx="7.54596" cy="8.12427" rx="7.54596" ry="8.12427" transform="matrix(-1 0 0 1 114.716 49.0901)" fill="#D9D9D9" stroke="black"/>
<ellipse cx="3.92512" cy="4.22593" rx="3.92512" ry="4.22593" transform="matrix(-1 0 0 1 111.094 52.9883)" fill="white" stroke="black"/>
<path fill-rule="evenodd" clip-rule="evenodd" d="M116.48 56.9198C116.48 51.3835 112.311 46.8955 107.169 46.8955C102.027 46.8955 97.8584 51.3835 97.8584 56.9198C97.8584 57.3457 97.5542 57.6733 97.1586 57.6733H88.9128C88.0609 57.6733 87.361 56.9198 87.361 56.0025V21.802C87.361 21.3106 87.7262 20.9175 88.1826 20.9175H97.9193C98.5583 20.9175 99.1668 21.1468 99.6537 21.6054L113.954 34.3487C113.985 34.3815 113.985 34.3815 114.015 34.4143L123.539 41.392C124.908 42.1782 125.76 43.7506 125.76 45.4213V48.9266C125.76 49.4179 126.125 49.8111 126.582 49.8111C127.038 49.8111 127.403 50.2042 127.403 50.6956V54.8887C127.403 56.2646 126.491 57.4112 125.273 57.6405C125.213 57.6405 125.152 57.6405 125.121 57.6405H117.241C116.784 57.6733 116.48 57.3457 116.48 56.9198Z" fill="#FF2200"/>
<path d="M125.273 57.6405C126.491 57.4112 127.403 56.2646 127.403 54.8887V50.6956C127.403 50.2042 127.038 49.8111 126.582 49.8111C126.125 49.8111 125.76 49.4179 125.76 48.9266V45.4213C125.76 43.7506 124.908 42.1782 123.539 41.392L114.015 34.4143C113.985 34.3815 113.985 34.3815 113.954 34.3487L99.6537 21.6054C99.1668 21.1468 98.5583 20.9175 97.9193 20.9175H88.1826C87.7262 20.9175 87.361 21.3106 87.361 21.802V56.0025C87.361 56.9198 88.0609 57.6733 88.9128 57.6733H97.1586C97.5542 57.6733 97.8584 57.3457 97.8584 56.9198C97.8584 51.3835 102.027 46.8955 107.169 46.8955C112.311 46.8955 116.48 51.3835 116.48 56.9198C116.48 57.3457 116.784 57.6733 117.241 57.6405H125.121M125.273 57.6405C125.213 57.6405 125.152 57.6405 125.121 57.6405M125.273 57.6405H125.121" stroke="black"/>
<path d="M127.403 50.6955C127.403 50.2041 126.582 49.811 126.582 49.811L113.844 49.9305C115.475 51.7361 116.48 54.2016 116.48 56.9198C116.48 57.3456 116.784 57.6732 117.241 57.6405H125.121H125.273C126.491 57.4112 127.403 56.2646 127.403 54.8887V50.6955Z" fill="#D9D9D9"/>
<path d="M125.273 57.6405C126.491 57.4112 127.403 56.2646 127.403 54.8887V50.6955C127.403 50.2041 126.582 49.811 126.582 49.811L113.844 49.9305C115.475 51.7361 116.48 54.2016 116.48 56.9198C116.48 57.3456 116.784 57.6732 117.241 57.6405H125.121M125.273 57.6405C125.213 57.6405 125.152 57.6405 125.121 57.6405M125.273 57.6405H125.121" stroke="black"/>
<path fill-rule="evenodd" clip-rule="evenodd" d="M124.135 46.781V46.0806C124.135 45.0301 124.135 44.4285 122.777 43.4981L120.349 41.8785C119.155 41.2116 119.155 41.9223 119.155 42.5789V46.387C119.155 47.3938 119.205 48.1817 120.151 48.1817H123.637C124.134 48.1817 124.135 47.5689 124.135 46.781Z" fill="white" stroke="black"/>
<path fill-rule="evenodd" clip-rule="evenodd" d="M91.622 23.7676H97.1902C97.5554 23.7676 97.9205 23.8986 98.2248 24.1607L109.483 34.1522C109.939 34.5126 109.696 35.2988 109.118 35.2988H91.5916C90.6484 35.2988 89.8877 34.4798 89.9181 33.4643C89.9485 31.3022 89.9485 27.7642 89.9181 25.6021C89.9181 24.5866 90.6788 23.7676 91.622 23.7676Z" fill="white" stroke="black"/>
<ellipse cx="16.7187" cy="23" rx="16.7187" ry="18" fill="#F7F7F7"/>
<path d="M30.3645 23C30.3645 31.0435 24.3166 37.5 16.9323 37.5C9.54795 37.5 3.5 31.0435 3.5 23C3.5 14.9565 9.54795 8.5 16.9323 8.5C24.3166 8.5 30.3645 14.9565 30.3645 23Z" fill="white" stroke="black"/>
<path d="M9 23.0318L15.4688 29.9964C15.9492 30.5135 16.7997 30.3837 17.1039 29.7468L23.1928 17" stroke="#FF2200" stroke-width="3" stroke-linecap="round"/>
<path d="M70.9324 29.8698C70.725 30.0139 70.5881 30.0661 70.4181 30.0661C70.136 30.0661 69.6859 29.8071 69.6859 29.1135C69.6859 28.6977 69.8809 28.47 70.2625 28.2736C70.5072 28.1357 70.7126 28.002 70.9387 27.8892V29.8698H70.9324ZM73.2554 29.8886C73.1185 29.9387 72.9858 29.9888 72.8427 29.9888C72.6477 29.9888 72.4486 29.8322 72.4486 29.2639V27.2269C72.4486 26.5333 72.3366 26.0027 71.8098 25.5995C71.4779 25.353 71.115 25.2401 70.6068 25.2401C69.912 25.3655 69.0409 25.7959 68.5721 26.1176C68.29 26.3265 68.1469 26.4895 68.1469 26.7109C68.1469 27.0327 68.5846 27.3293 68.904 27.3293C69.1612 27.3293 69.3292 27.229 69.4183 26.9136C69.5179 26.5292 69.6258 26.2325 69.7751 26.0612C69.8871 25.917 70.0198 25.8397 70.1816 25.8397C70.6317 25.8397 70.9262 26.268 70.9262 27.0515V27.4233C70.6441 27.6699 69.6983 27.9665 68.9786 28.236C68.3398 28.47 68.0453 28.7792 68.0453 29.4227C68.0453 30.1852 68.6592 31 69.6983 31C69.9306 31 70.5052 30.5905 70.9698 30.2876C71.032 30.4317 71.1129 30.5968 71.2892 30.7409C71.4447 30.8851 71.7019 31 72.0338 31L73.3674 30.3001L73.2554 29.8906V29.8886ZM65.1478 29.8572C64.8781 30.0285 64.6977 30.0536 64.4716 30.0536C63.9075 30.0536 63.0384 29.4728 63.026 27.954C63.026 26.08 63.9718 25.7583 64.2663 25.7583C64.623 25.7583 64.9549 25.9672 65.1498 26.4017V29.8572H65.1478ZM66.7199 29.289V22.169C66.0936 22.3529 65.1167 22.5159 64.3347 22.6099V22.9943C65.0793 23.082 65.154 23.1447 65.154 23.807V25.3007C64.8844 25.2631 64.7475 25.238 64.6521 25.238C62.7418 25.238 61.2962 26.6065 61.2962 28.2841C61.2962 30.1205 62.7543 30.9833 63.7955 30.9833C63.9386 30.9833 64.1149 30.9457 64.4218 30.7618L65.154 30.2834V30.9958C66.1247 30.7117 67.2696 30.5675 67.5641 30.5174V30.1205L67.2945 30.0954C66.7801 30.039 66.7179 29.9888 66.7179 29.289H66.7199ZM57.7412 30.507C56.9717 30.507 56.4946 29.3078 56.4946 27.7952C56.4946 26.3767 56.982 25.7206 57.4964 25.7206C58.2659 25.7206 58.6994 26.6733 58.6994 28.3823C58.6994 30.1978 58.212 30.507 57.7412 30.507ZM57.6603 25.2401C56.3017 25.2401 54.7482 26.2492 54.7482 28.236C54.7482 29.5794 55.694 30.9854 57.6167 30.9854C59.0499 30.9854 60.4603 30.0014 60.4603 28.0146C60.4479 26.5333 59.3714 25.2401 57.6624 25.2401H57.6603ZM53.566 29.6044V27.2269C53.566 25.9714 52.9894 25.2401 51.9254 25.2401C51.5562 25.2401 51.2244 25.3968 50.9547 25.5869C50.6602 25.7959 50.3657 25.9839 50.0712 26.2179C49.8513 25.6496 49.3514 25.2401 48.6753 25.2401C48.3185 25.2401 47.9867 25.3843 47.6113 25.6371C47.3416 25.7938 47.1093 25.9714 46.8418 26.1677V25.2151C46.0847 25.424 45.2634 25.5995 44.6868 25.681V26.0403C45.2509 26.128 45.3132 26.2492 45.3132 26.9554V29.548C45.3132 30.3231 45.2385 30.3607 44.5437 30.4505V30.8475H47.4246V30.4505C46.9621 30.3753 46.8729 30.3127 46.8729 29.6107V26.6023C47.2172 26.3432 47.5242 26.2053 47.8187 26.2053C48.2688 26.2053 48.6649 26.4769 48.6649 27.3648V29.6107C48.6649 30.3356 48.6151 30.3607 48.0385 30.4505V30.8475H50.8697V30.4505C50.318 30.3753 50.2309 30.3127 50.2309 29.6107V27.1204C50.2309 26.9366 50.206 26.7611 50.1935 26.6294C50.6 26.2952 50.9008 26.22 51.1518 26.22C51.5458 26.22 52.0229 26.4163 52.0229 27.4317V29.5501C52.0229 30.3252 51.9233 30.3753 51.3841 30.4526V30.8496H54.2774V30.4526C53.6199 30.3524 53.5702 30.3147 53.5702 29.6065L53.566 29.6044ZM42.2746 27.7827C41.8619 28.6351 40.4784 30.1978 39.9952 30.1978C39.8251 30.1978 39.6633 29.9387 39.6633 29.3851C39.6633 28.1608 40.1507 26.7109 40.9845 26.0925C41.1919 25.9358 41.5362 25.8335 41.8557 25.8335C42.1751 25.8335 42.5069 25.9212 42.6749 26.0048C42.594 26.4017 42.4115 27.2917 42.2746 27.7827ZM42.8388 30.0536C42.7641 30.0536 42.7268 29.9533 42.8139 29.523C43.096 27.9582 43.4652 26.2805 43.6601 25.5117L43.6228 25.4616C43.4859 25.4616 43.3283 25.424 43.1603 25.3864C42.9031 25.3362 42.6583 25.2986 42.4032 25.2986C41.6337 25.2986 40.7377 25.7269 40.1238 26.2513C39.2278 27.0013 38.6532 28.3447 38.6532 29.594C38.6532 30.578 39.0473 30.9875 39.3605 30.9875C39.6924 30.9875 40.0927 30.766 40.4992 30.4317C41.026 30.0035 41.6005 29.4101 42.0776 28.7291H42.1025L41.8577 29.9032C41.6876 30.8057 41.8453 30.9875 42.0776 30.9875C42.3845 30.9875 43.2038 30.5341 43.8675 29.7068L43.7244 29.4101C43.3677 29.7695 42.9425 30.0536 42.8408 30.0536H42.8388ZM38.2239 22.0625C38.0683 22.0625 37.3652 22.3842 36.4153 22.4908L36.3655 22.7874L36.6974 22.8C37.2615 22.8 37.3362 22.8877 37.2117 23.4184C36.7949 25.4553 36.3634 27.4735 35.9382 29.4979C35.6811 30.7096 35.876 30.9916 36.1083 30.9916C36.49 30.9916 37.3549 30.4359 37.9937 29.6734L37.8112 29.4018C37.4669 29.7611 36.9649 30.0829 36.8343 30.0829C36.7596 30.0829 36.7098 30.0076 36.7845 29.6546C37.2968 27.2144 37.7966 24.8181 38.3048 22.4406C38.3421 22.169 38.3297 22.0625 38.2239 22.0625Z" fill="url(#paint0_linear_1_2207)"/>
<defs>
<linearGradient id="paint0_linear_1_2207" x1="54.5159" y1="30.133" x2="55.1409" y2="23.8246" gradientUnits="userSpaceOnUse">
<stop stop-color="#B6B6B6"/>
<stop offset="0.99" stop-color="#545454"/>
</linearGradient>
</defs>
</svg>
