<svg width="98" height="79" viewBox="0 0 98 79" fill="none" xmlns="http://www.w3.org/2000/svg">
<path d="M94.2181 53H27.7815C25.6951 53 24 51.2513 24 49.099V3.90102C24 1.74873 25.6951 0 27.7815 0H94.2181C96.3044 0 97.9995 1.74873 97.9995 3.90102V49.0654C98.0321 51.2176 96.3044 53 94.2181 53Z" fill="white"/>
<mask id="mask0_1013_824" style="mask-type:luminance" maskUnits="userSpaceOnUse" x="24" y="0" width="74" height="53">
<path d="M94.2181 53H27.7815C25.6951 53 24 51.2513 24 49.099V3.90102C24 1.74873 25.6951 0 27.7815 0H94.2181C96.3044 0 97.9995 1.74873 97.9995 3.90102V49.0654C98.0321 51.2176 96.3044 53 94.2181 53Z" fill="white"/>
</mask>
<g mask="url(#mask0_1013_824)">
<path d="M49.2224 27.2765L49.9724 28.0265C50.3838 28.0265 50.7595 27.8373 51.0414 27.6416C51.3408 27.4339 51.6263 27.1553 51.873 26.845C52.3522 26.242 52.7806 25.3951 52.7806 24.5323C52.7806 24.0809 52.6619 23.6804 52.4267 23.3498C52.1957 23.0253 51.8881 22.8181 51.5884 22.686C51.0142 22.4329 50.3621 22.4102 49.9724 22.4102L49.2224 23.1602V27.2765Z" fill="#D9D9D9" stroke="black" stroke-width="1.5" stroke-linejoin="bevel"/>
<path d="M34.6436 23.1475L33.8936 22.3975C33.5039 22.3975 32.8518 22.4202 32.2776 22.6733C31.978 22.8054 31.6703 23.0126 31.4393 23.3371C31.2041 23.6677 31.0854 24.0682 31.0854 24.5196C31.0854 25.3824 31.5138 26.2293 31.993 26.8323C32.2397 27.1426 32.5252 27.4212 32.8246 27.629C33.1065 27.8246 33.4822 28.0138 33.8936 28.0138L34.6436 27.2638V23.1475Z" fill="#D9D9D9" stroke="black" stroke-width="1.5" stroke-linejoin="bevel"/>
<path d="M49.8319 25.6249L49.8566 25.4361L49.8686 20.73V20.7281C49.8686 17.8992 48.9858 15.9378 47.4568 14.7079C45.9591 13.5032 43.9686 13.1055 41.9571 13.1055C40.0035 13.1055 38.0025 13.3579 36.4836 14.491C34.9171 15.6596 34.0285 17.6313 34.0095 20.6753L34.0094 20.6753L34.0095 20.6856L34.0456 25.4399L34.0698 25.6233C34.7595 28.2699 35.8936 30.6174 37.1664 32.3196C37.8024 33.1703 38.4873 33.8789 39.1873 34.3812C39.8805 34.8786 40.6422 35.2113 41.4155 35.2113H42.4506C43.2234 35.2113 43.9864 34.8789 44.6816 34.382C45.3838 33.8802 46.072 33.172 46.7119 32.3214C47.9923 30.6195 49.1359 28.2721 49.8319 25.6249Z" fill="#D9D9D9" stroke="black" stroke-width="1.5" stroke-linejoin="bevel"/>
<path d="M50.1454 35.5164L49.1579 35.9252C48.4647 37.6348 47.6722 39.0094 46.6094 39.9579C45.57 40.8854 44.2208 41.451 42.3063 41.451C40.3918 41.451 39.0426 40.8854 38.0033 39.9579C36.9404 39.0094 36.1479 37.6348 35.4547 35.9252L34.4672 35.5164L27.1613 38.6097L26.7165 39.1626L24.1287 53.0162L24.116 53.1539V70.2211L24.866 70.9711H42.3063H59.7467L60.4967 70.2211V53.1539L60.4839 53.0162L57.8961 39.1626L57.4513 38.6097L50.1454 35.5164Z" fill="#FF0A00" stroke="black" stroke-width="1.5" stroke-linejoin="bevel"/>
</g>
<path d="M66.9695 12.3096H92.31" stroke="black" stroke-width="2" stroke-linejoin="round"/>
<path d="M67.0713 21.8311H88.0862" stroke="black" stroke-width="2" stroke-linejoin="round"/>
<path d="M67.0713 30.3594H88.0862" stroke="black" stroke-width="2" stroke-linejoin="round"/>
<circle cx="20" cy="59" r="20" fill="#F7F7F7"/>
<circle cx="20" cy="59" r="17" fill="white" stroke="black" stroke-width="2"/>
<path d="M11 57.8571L18.4165 65.9094C18.8968 66.4309 19.7523 66.3007 20.0558 65.66L27 51" stroke="#FF2200" stroke-width="3" stroke-linecap="round"/>
</svg>
