<svg width="128" height="66" viewBox="0 0 128 66" fill="none" xmlns="http://www.w3.org/2000/svg">
<path fill-rule="evenodd" clip-rule="evenodd" d="M83.9829 3.14463V56.9199C83.9829 57.3457 83.6786 57.6733 83.2831 57.6733H61.5575C61.162 57.6733 60.8577 57.3457 60.8577 56.9199C60.8577 51.3836 56.6892 46.8956 51.547 46.8956C46.4048 46.8956 42.2362 51.3836 42.2362 56.9199C42.2362 57.3457 41.932 57.6733 41.5364 57.6733H26.232C25.8364 57.6733 25.5321 57.3457 25.5321 56.9199V1.75346C25.5321 1.32759 25.8364 1 26.232 1H82.3041L83.9829 3.14463Z" fill="#F2F2F2" stroke="black"/>
<ellipse cx="7.54596" cy="8.12427" rx="7.54596" ry="8.12427" transform="matrix(-1 0 0 1 59.0312 49.0901)" fill="#D9D9D9" stroke="black"/>
<ellipse cx="3.92512" cy="4.22593" rx="3.92512" ry="4.22593" transform="matrix(-1 0 0 1 55.4092 52.9883)" fill="white" stroke="black"/>
<ellipse cx="7.54596" cy="8.12427" rx="7.54596" ry="8.12427" transform="matrix(-1 0 0 1 114.716 49.0901)" fill="#D9D9D9" stroke="black"/>
<ellipse cx="3.92512" cy="4.22593" rx="3.92512" ry="4.22593" transform="matrix(-1 0 0 1 111.094 52.9883)" fill="white" stroke="black"/>
<path fill-rule="evenodd" clip-rule="evenodd" d="M116.48 56.9198C116.48 51.3835 112.311 46.8955 107.169 46.8955C102.027 46.8955 97.8584 51.3835 97.8584 56.9198C97.8584 57.3457 97.5542 57.6733 97.1586 57.6733H88.9128C88.0609 57.6733 87.361 56.9198 87.361 56.0025V21.802C87.361 21.3106 87.7262 20.9175 88.1826 20.9175H97.9193C98.5583 20.9175 99.1668 21.1468 99.6537 21.6054L113.954 34.3487C113.985 34.3815 113.985 34.3815 114.015 34.4143L123.539 41.392C124.908 42.1782 125.76 43.7506 125.76 45.4213V48.9266C125.76 49.4179 126.125 49.8111 126.582 49.8111C127.038 49.8111 127.403 50.2042 127.403 50.6956V54.8887C127.403 56.2646 126.491 57.4112 125.273 57.6405C125.213 57.6405 125.152 57.6405 125.121 57.6405H117.241C116.784 57.6733 116.48 57.3457 116.48 56.9198Z" fill="#FF2200"/>
<path d="M125.273 57.6405C126.491 57.4112 127.403 56.2646 127.403 54.8887V50.6956C127.403 50.2042 127.038 49.8111 126.582 49.8111C126.125 49.8111 125.76 49.4179 125.76 48.9266V45.4213C125.76 43.7506 124.908 42.1782 123.539 41.392L114.015 34.4143C113.985 34.3815 113.985 34.3815 113.954 34.3487L99.6537 21.6054C99.1668 21.1468 98.5583 20.9175 97.9193 20.9175H88.1826C87.7262 20.9175 87.361 21.3106 87.361 21.802V56.0025C87.361 56.9198 88.0609 57.6733 88.9128 57.6733H97.1586C97.5542 57.6733 97.8584 57.3457 97.8584 56.9198C97.8584 51.3835 102.027 46.8955 107.169 46.8955C112.311 46.8955 116.48 51.3835 116.48 56.9198C116.48 57.3457 116.784 57.6733 117.241 57.6405H125.121M125.273 57.6405C125.213 57.6405 125.152 57.6405 125.121 57.6405M125.273 57.6405H125.121" stroke="black"/>
<path d="M127.403 50.6955C127.403 50.2041 126.582 49.811 126.582 49.811L113.844 49.9305C115.475 51.7361 116.48 54.2016 116.48 56.9198C116.48 57.3456 116.784 57.6732 117.241 57.6405H125.121H125.273C126.491 57.4112 127.403 56.2646 127.403 54.8887V50.6955Z" fill="#D9D9D9"/>
<path d="M125.273 57.6405C126.491 57.4112 127.403 56.2646 127.403 54.8887V50.6955C127.403 50.2041 126.582 49.811 126.582 49.811L113.844 49.9305C115.475 51.7361 116.48 54.2016 116.48 56.9198C116.48 57.3456 116.784 57.6732 117.241 57.6405H125.121M125.273 57.6405C125.213 57.6405 125.152 57.6405 125.121 57.6405M125.273 57.6405H125.121" stroke="black"/>
<path fill-rule="evenodd" clip-rule="evenodd" d="M124.135 46.781V46.0806C124.135 45.0301 124.135 44.4285 122.777 43.4981L120.349 41.8785C119.155 41.2116 119.155 41.9223 119.155 42.5789V46.387C119.155 47.3938 119.205 48.1817 120.151 48.1817H123.637C124.134 48.1817 124.135 47.5689 124.135 46.781Z" fill="white" stroke="black"/>
<path fill-rule="evenodd" clip-rule="evenodd" d="M91.622 23.7676H97.1902C97.5554 23.7676 97.9205 23.8986 98.2248 24.1607L109.483 34.1522C109.939 34.5126 109.696 35.2988 109.118 35.2988H91.5916C90.6484 35.2988 89.8877 34.4798 89.9181 33.4643C89.9485 31.3022 89.9485 27.7642 89.9181 25.6021C89.9181 24.5866 90.6788 23.7676 91.622 23.7676Z" fill="white" stroke="black"/>
<ellipse cx="16.7187" cy="23" rx="16.7187" ry="18" fill="#F7F7F7"/>
<path d="M30.3645 23C30.3645 31.0435 24.3166 37.5 16.9323 37.5C9.54795 37.5 3.5 31.0435 3.5 23C3.5 14.9565 9.54795 8.5 16.9323 8.5C24.3166 8.5 30.3645 14.9565 30.3645 23Z" fill="white" stroke="black"/>
<path d="M9 23.0318L15.4688 29.9964C15.9492 30.5135 16.7997 30.3837 17.1039 29.7468L23.1928 17" stroke="#FF2200" stroke-width="3" stroke-linecap="round"/>
<g clip-path="url(#clip0_1_2207)">
<path d="M52.7767 24.2259C52.4374 24.1587 51.9501 24.0362 51.3228 23.811C50.6974 23.5858 50.2437 23.3704 49.9399 23.2064C49.6222 23.0345 49.4506 22.6769 49.5118 22.3154C49.5709 21.9637 49.6893 21.4619 49.9182 20.8316C50.147 20.2014 50.3798 19.741 50.5613 19.4308C50.7467 19.1147 51.1077 18.9468 51.4628 19.0179C51.8022 19.0851 52.2894 19.2076 52.9168 19.4308C53.5441 19.6561 53.9979 19.8714 54.3017 20.0374C54.6193 20.2093 54.7909 20.5669 54.7298 20.9284C54.6706 21.2801 54.5542 21.7819 54.3234 22.4142C54.0945 23.0444 53.8617 23.5048 53.6822 23.815C53.4968 24.1311 53.1358 24.299 52.7807 24.2279L52.7767 24.2259Z" fill="url(#paint0_linear_1_2207)"/>
<path d="M43.9838 22.4219C44.2147 23.0501 44.4494 23.5085 44.6309 23.8167C44.8183 24.1328 45.1793 24.2968 45.5344 24.2257C45.8738 24.1565 46.3591 24.0321 46.9825 23.8049C47.6078 23.5777 48.0596 23.3584 48.3614 23.1924C48.6791 23.0185 48.8467 22.6609 48.7856 22.2994C48.7244 21.9477 48.6061 21.4478 48.3733 20.8195C48.1425 20.1913 47.9077 19.7329 47.7262 19.4247C47.5408 19.1086 47.1778 18.9446 46.8246 19.0157C46.4853 19.0849 46 19.2093 45.3747 19.4365C44.7513 19.6637 44.2995 19.8811 43.9957 20.047C43.6781 20.2209 43.5104 20.5785 43.5715 20.9401C43.6327 21.2917 43.7511 21.7916 43.9838 22.4199V22.4219Z" fill="url(#paint1_linear_1_2207)"/>
<path opacity="0.8" d="M60.2517 20.8195C60.0209 20.1913 59.7861 19.7329 59.6046 19.4247C59.4192 19.1086 59.0562 18.9446 58.7031 19.0157C58.3637 19.0849 57.8784 19.2093 57.2531 19.4365C56.6297 19.6637 56.1779 19.8811 55.8741 20.047C55.5565 20.2209 55.3888 20.5785 55.45 20.9401C55.5111 21.2917 55.6295 21.7916 55.8623 22.4199C56.0931 23.0482 56.3278 23.5065 56.5093 23.8147C56.6967 24.1309 57.0578 24.2948 57.4129 24.2237C57.7522 24.1546 58.2375 24.0301 58.8609 23.8029C59.4863 23.5757 59.938 23.3564 60.2399 23.1904C60.5575 23.0166 60.7252 22.6589 60.664 22.2974C60.6028 21.9457 60.4845 21.4458 60.2517 20.8176V20.8195Z" fill="url(#paint2_linear_1_2207)"/>
<path d="M51.4175 29.096C51.453 29.0466 51.7015 28.7917 52.1592 28.3234C52.319 28.1654 52.4591 28.0034 52.5834 27.8433V27.8019C52.5518 27.8019 52.5045 27.8098 52.4394 27.8157C52.3723 27.8256 52.3249 27.8315 52.2894 27.8315C52.2539 27.8315 52.2026 27.8256 52.1355 27.8157C52.0724 27.8098 52.0251 27.8019 51.9915 27.8019C51.8377 27.9816 51.6128 28.2405 51.3208 28.5842C51.09 28.847 50.8651 29.0881 50.654 29.3093C50.6244 29.3192 50.6047 29.3172 50.5909 29.3034V27.8019C50.4153 27.8256 50.2555 27.8354 50.1115 27.8354C50.0523 27.8354 49.9951 27.8354 49.9399 27.8354C49.8886 27.8335 49.786 27.8216 49.6341 27.8038V31.2139C49.6341 31.2139 49.713 31.208 49.8412 31.1962C49.9694 31.1843 50.0582 31.1784 50.1115 31.1784C50.1213 31.1784 50.1924 31.1823 50.3186 31.1962C50.4508 31.208 50.5396 31.2139 50.5889 31.2139V29.5761C50.6303 29.6077 50.6658 29.6432 50.6935 29.6748C50.723 29.7084 50.7526 29.7499 50.7842 29.8033C50.9164 30.0028 51.0564 30.2379 51.2162 30.5126C51.3385 30.724 51.4668 30.9571 51.6009 31.2139C51.6581 31.2139 51.7489 31.208 51.8673 31.1962C51.9836 31.1843 52.0704 31.1784 52.1316 31.1784C52.1395 31.1784 52.2164 31.1823 52.3604 31.1962C52.5064 31.208 52.6051 31.2139 52.6603 31.2139V31.1626C52.4433 30.7635 52.2164 30.3742 51.9797 29.989L51.4175 29.096ZM55.6747 27.8019C55.4005 28.2622 55.1677 28.6376 54.9803 28.928C54.7278 29.3093 54.4851 29.6511 54.2523 29.9455V27.8019C54.2129 27.8019 54.1537 27.8058 54.0728 27.8216C54.0057 27.8256 53.9071 27.8256 53.773 27.8256C53.7157 27.8256 53.6585 27.8216 53.5934 27.8196C53.5283 27.8157 53.4277 27.8098 53.2955 27.7999V31.212C53.3172 31.212 53.3646 31.2041 53.4277 31.1942C53.4948 31.1803 53.5717 31.1764 53.6546 31.1764C53.7059 31.1764 53.771 31.1803 53.8499 31.1942C53.9268 31.2041 53.9781 31.212 54.0018 31.212C54.207 30.8405 54.42 30.4829 54.6469 30.1391C54.8955 29.7539 55.1559 29.3903 55.4222 29.0426V31.2139C55.582 31.1962 55.6806 31.1863 55.7221 31.1843C55.7655 31.1803 55.8246 31.1803 55.9036 31.1803C55.9154 31.1803 55.9864 31.1843 56.1146 31.1981C56.2448 31.21 56.3316 31.2159 56.3829 31.2159V27.8078L56.0357 27.8256L55.6747 27.8078V27.8019ZM48.0006 28.0429C48.2078 28.0429 48.3735 28.118 48.5017 28.2622C48.6181 28.3926 48.6911 28.5625 48.7187 28.7719H48.8785L49.1448 28.0429C48.9791 27.9303 48.7937 27.8552 48.5865 27.8038C48.3774 27.7544 48.1683 27.7327 47.9533 27.7327C47.3969 27.7327 46.9531 27.8987 46.6216 28.2306C46.2882 28.5605 46.1225 29.009 46.1225 29.5682C46.1225 30.1273 46.2922 30.5323 46.6335 30.8366C46.957 31.131 47.395 31.2732 47.9473 31.2732C48.0914 31.2732 48.263 31.2475 48.4603 31.1981C48.6556 31.1527 48.7937 31.0816 48.8785 30.9966L49.0521 30.5797L48.9337 30.4809C48.8509 30.5857 48.7424 30.6667 48.6102 30.7299C48.478 30.7872 48.3439 30.8188 48.2018 30.8188C47.8349 30.8188 47.5686 30.7002 47.4009 30.4592C47.2352 30.2201 47.1484 29.8803 47.1484 29.4397C47.1484 29.094 47.2076 28.7937 47.3299 28.5348C47.4818 28.2069 47.7067 28.0409 47.9986 28.0409L48.0006 28.0429ZM59.5414 27.8038C59.2691 28.2662 59.0343 28.6435 58.843 28.932C58.5924 29.3153 58.3518 29.6551 58.115 29.9495V27.8019C58.0776 27.8019 58.0184 27.8098 57.9355 27.8256C57.8724 27.8295 57.7698 27.8315 57.6356 27.8315C57.5804 27.8315 57.5193 27.8295 57.4542 27.8196C57.391 27.8177 57.2904 27.8098 57.1582 27.7999V31.212C57.1799 31.212 57.2253 31.206 57.2924 31.1922C57.3614 31.1803 57.4364 31.1764 57.5193 31.1764C57.5705 31.1764 57.6356 31.1823 57.7146 31.1922C57.7935 31.206 57.8428 31.212 57.8665 31.212C58.0697 30.8425 58.2867 30.4829 58.5076 30.1391C58.7621 29.7578 59.0205 29.3903 59.2928 29.0406V31.212C59.4467 31.1922 59.5492 31.1843 59.5907 31.1823C59.6321 31.1784 59.6933 31.1764 59.7702 31.1764C59.784 31.1764 59.853 31.1823 59.9833 31.1922C60.1095 31.206 60.1983 31.212 60.2515 31.212V27.8019L59.9024 27.8256L59.5414 27.8019V27.8038ZM42.319 30.7358C42.1809 30.7911 42.0369 30.8188 41.8929 30.8188C41.7075 30.8188 41.5437 30.7872 41.4076 30.7161C41.2813 30.6528 41.1748 30.56 41.092 30.4375C40.9322 30.2122 40.8552 29.9001 40.8552 29.503H42.9168C42.9168 28.9557 42.8122 28.5329 42.5972 28.2405C42.3526 27.9026 41.9718 27.7327 41.4589 27.7327H41.4076C40.9282 27.7426 40.5494 27.8987 40.2654 28.197C39.9734 28.5072 39.8254 28.9162 39.8254 29.4239C39.8254 30.0068 39.9833 30.4612 40.3048 30.7852C40.5771 31.0677 40.944 31.2238 41.4076 31.2653C41.4826 31.2693 41.5615 31.2752 41.6404 31.2752C42.0073 31.2752 42.3368 31.1705 42.6347 30.9591L42.7826 30.5639L42.7096 30.5027C42.5893 30.6015 42.4591 30.6805 42.319 30.7378V30.7358ZM40.9677 28.4637C41.0643 28.2069 41.2123 28.0686 41.4096 28.0468C41.4273 28.0449 41.4471 28.0449 41.4648 28.0449C41.6483 28.0449 41.7844 28.1851 41.8712 28.4657C41.9324 28.6613 41.9619 28.8984 41.9619 29.1691H40.8572C40.8572 28.8984 40.8947 28.6613 40.9677 28.4657V28.4637ZM46.1087 27.8038H43.0194C43.0194 27.8038 43.0253 27.8394 43.0332 27.8987C43.047 27.9579 43.0509 28.0034 43.0509 28.037C43.0509 28.0468 43.047 28.0824 43.0332 28.1417C43.0233 28.2049 43.0194 28.2484 43.0194 28.276C43.1535 28.2662 43.2975 28.2503 43.4534 28.2286C43.5619 28.2207 43.769 28.2128 44.0787 28.2128V31.2139C44.0886 31.2139 44.1557 31.208 44.2898 31.1962C44.4181 31.1863 44.5108 31.1784 44.5581 31.1784C44.5739 31.1784 44.6429 31.1863 44.7712 31.1962C44.8955 31.208 44.9862 31.2139 45.0375 31.2139V28.2128C45.3196 28.2128 45.5248 28.2207 45.6491 28.2326C45.7753 28.2444 45.9312 28.2602 46.1087 28.276C46.1087 28.2681 46.1028 28.2345 46.089 28.1753C46.0811 28.118 46.0732 28.0706 46.0732 28.037C46.0732 28.0271 46.0811 27.9935 46.089 27.9323C46.1028 27.8789 46.1087 27.8335 46.1087 27.8038ZM39.5453 31.046C39.5512 31.0006 39.5571 30.9452 39.563 30.8761C39.5709 30.803 39.5788 30.7378 39.5887 30.6706H39.2514C38.9554 29.9337 38.6773 29.2185 38.4109 28.5269C38.1091 27.7465 37.8428 27.0214 37.6041 26.3635C37.5745 26.3635 37.5252 26.3675 37.4601 26.3754C37.393 26.3853 37.3437 26.3892 37.3042 26.3892C37.2707 26.3892 37.2233 26.3833 37.1582 26.3754C37.0951 26.3675 37.0438 26.3635 37.0123 26.3635C37.0004 26.3932 36.9925 26.4208 36.9787 26.4505C36.7992 26.9562 36.6295 27.4126 36.4678 27.8216C36.3159 28.2168 36.1245 28.6909 35.8897 29.2461C35.6964 29.7203 35.4952 30.1964 35.292 30.6706H35C35.0059 30.7022 35.0099 30.7556 35.0217 30.8247C35.0296 30.8939 35.0336 30.9709 35.0336 31.046C35.0336 31.129 35.0316 31.1981 35.0257 31.2554C35.0197 31.3127 35.0099 31.368 34.998 31.4253H35.1006C35.1914 31.3127 35.3314 31.2416 35.5248 31.2159C35.7161 31.1883 35.9706 31.1764 36.2902 31.1764H38.3419C38.6102 31.1764 38.845 31.1902 39.0482 31.2199C39.2553 31.2534 39.3993 31.3206 39.4802 31.4234H39.5867C39.5769 31.3858 39.567 31.3246 39.5571 31.2416C39.5453 31.1527 39.5453 31.0875 39.5453 31.042V31.046ZM37.5212 30.6884C37.3338 30.6943 37.1563 30.6963 36.9827 30.6963H36.9373C36.815 30.6963 36.6315 30.6943 36.3889 30.6864C36.1462 30.6785 35.9805 30.6726 35.8897 30.6667C36.0416 30.2142 36.2212 29.7183 36.4323 29.1789C36.6019 28.7364 36.7854 28.2681 36.9807 27.7742L37.0142 27.6952C37.1937 28.195 37.3772 28.6988 37.5666 29.2046C37.752 29.7124 37.9237 30.2024 38.0756 30.6667C37.9099 30.6726 37.7244 30.6805 37.5193 30.6864L37.5212 30.6884ZM74.6883 28.2503C74.4476 27.9026 74.0906 27.7307 73.623 27.7307C73.5165 27.7307 73.4179 27.7426 73.3251 27.7722C73.2206 27.8019 73.1279 27.8493 73.0411 27.9145C72.8832 28.037 72.757 28.2029 72.6761 28.4163V27.8019C72.6248 27.8019 72.5479 27.8019 72.4473 27.8137C72.3447 27.8256 72.2677 27.8295 72.2184 27.8295C72.2026 27.8295 72.1375 27.8275 72.0152 27.8137C71.8929 27.8038 71.8061 27.8019 71.7548 27.8019V33C71.9304 32.9763 72.0902 32.9664 72.2342 32.9664C72.3782 32.9664 72.536 32.9763 72.7096 33V30.7635C72.8083 30.9196 72.9306 31.044 73.0706 31.1369C73.1436 31.1843 73.2285 31.2199 73.3251 31.2416C73.4119 31.2614 73.5066 31.2712 73.6092 31.2712C73.9959 31.2712 74.3214 31.127 74.5778 30.8287C74.86 30.4987 75 30.0384 75 29.4417C75 28.9478 74.8955 28.5507 74.6883 28.2503ZM73.8104 30.4355C73.7 30.6627 73.5382 30.7931 73.3251 30.8168H73.3192C73.0588 30.8168 72.8773 30.6607 72.7767 30.3446C72.7096 30.1451 72.6761 29.8823 72.6761 29.5563C72.6761 29.2303 72.7096 28.928 72.7866 28.6988C72.897 28.3709 73.0746 28.199 73.3251 28.1832H73.3606C73.5836 28.1832 73.7394 28.2997 73.8341 28.5329C73.9268 28.764 73.9762 29.094 73.9762 29.5227C73.9762 29.9021 73.9229 30.2083 73.8124 30.4355H73.8104ZM70.3088 27.8019C70.0345 28.2642 69.8037 28.6415 69.6124 28.93C69.3579 29.3133 69.1172 29.6511 68.8844 29.9475V27.7999C68.8469 27.7999 68.7877 27.8078 68.7029 27.8236C68.6398 27.8275 68.5412 27.8295 68.405 27.8295C68.3498 27.8295 68.2906 27.8275 68.2255 27.8177C68.1604 27.8157 68.0598 27.8078 67.9276 27.7979V31.21C67.9493 31.21 67.9947 31.2041 68.0598 31.1902C68.1328 31.1784 68.2018 31.1744 68.2867 31.1744C68.338 31.1744 68.4031 31.1803 68.482 31.1902C68.5589 31.2041 68.6102 31.21 68.6339 31.21C68.839 30.8405 69.0521 30.4809 69.277 30.1372C69.5295 29.7539 69.7879 29.3864 70.0602 29.0387V31.21C70.218 31.1902 70.3167 31.1823 70.3581 31.1803C70.3975 31.1764 70.4607 31.1744 70.5396 31.1744C70.5514 31.1744 70.6244 31.1803 70.7487 31.1902C70.8749 31.2041 70.9657 31.21 71.017 31.21V27.7999L70.6698 27.8177L70.3068 27.7999L70.3088 27.8019ZM66.5842 27.794C66.5427 27.794 66.4796 27.7979 66.3928 27.8098C66.3119 27.8256 66.2508 27.8315 66.2074 27.8315C66.162 27.8315 66.0969 27.8256 66.014 27.8098C65.9292 27.7979 65.868 27.794 65.8266 27.794C65.5386 28.5724 65.2506 29.3488 64.9704 30.1253L64.13 27.794C64.1142 27.794 64.061 27.7979 63.9663 27.8098C63.8716 27.8256 63.8025 27.8315 63.7631 27.8315C63.7197 27.8315 63.6566 27.8256 63.5737 27.8098C63.4908 27.7979 63.4257 27.794 63.3863 27.794C63.2502 28.3689 63.1062 28.9438 62.9543 29.5168C62.8023 30.0897 62.6524 30.6548 62.4985 31.208H63.045C63.0963 30.8544 63.1614 30.4493 63.2462 29.9949C63.3251 29.5405 63.4021 29.1374 63.479 28.7877L64.3293 31.208C64.3687 31.208 64.4319 31.2021 64.5206 31.1902C64.6094 31.1803 64.6765 31.1744 64.7238 31.1744C64.7712 31.1744 64.8323 31.1784 64.9172 31.1902C65.002 31.2021 65.0651 31.208 65.1066 31.208C65.1736 30.9334 65.2723 30.6192 65.3946 30.2557C65.5248 29.8941 65.7082 29.4061 65.9529 28.7877L66.3691 31.208C66.4244 31.208 66.5131 31.2021 66.6236 31.1902C66.74 31.1803 66.8268 31.1744 66.884 31.1744C66.9452 31.1744 67.03 31.1784 67.1405 31.1902C67.2529 31.2021 67.3358 31.208 67.391 31.208C67.2194 30.6548 67.0675 30.0878 66.9314 29.503C66.8327 29.0446 66.7144 28.4756 66.5861 27.792L66.5842 27.794ZM58.6852 27.4838C58.9436 27.4838 59.1941 27.4304 59.4447 27.3257C59.6913 27.221 59.9122 27.0689 60.1095 26.8713L59.8905 26.5631C59.5039 26.9207 59.1073 27.1005 58.6911 27.1005C58.4879 27.1005 58.2906 27.055 58.0973 26.9641C57.9 26.8752 57.7126 26.7409 57.5291 26.5631L57.3003 26.8812C57.5035 27.0847 57.7205 27.2368 57.9552 27.3336C58.1861 27.4344 58.4307 27.4818 58.6871 27.4818L58.6852 27.4838Z" fill="url(#paint3_linear_1_2207)"/>
<path opacity="0.8" d="M64.6527 24.2258C65.0078 24.2949 65.3688 24.129 65.5543 23.8128C65.7338 23.5046 65.9666 23.0443 66.1954 22.4121C66.4243 21.7818 66.5426 21.28 66.6018 20.9263C66.663 20.5647 66.4914 20.2071 66.1737 20.0353C65.8699 19.8713 65.4162 19.6539 64.7888 19.4287C64.1635 19.2035 63.6742 19.081 63.3349 19.0158C62.9798 18.9466 62.6188 19.1126 62.4334 19.4287C62.2538 19.7369 62.021 20.1973 61.7902 20.8295C61.5614 21.4598 61.445 21.9616 61.3838 22.3133C61.3227 22.6748 61.4943 23.0324 61.8119 23.2043C62.1157 23.3683 62.5695 23.5837 63.1948 23.8089C63.8222 24.0341 64.3095 24.1566 64.6488 24.2238L64.6527 24.2258Z" fill="url(#paint4_linear_1_2207)"/>
</g>
<defs>
<linearGradient id="paint0_linear_1_2207" x1="52.1178" y1="24.2417" x2="52.1178" y2="19.0001" gradientUnits="userSpaceOnUse">
<stop offset="0.18" stop-color="#D9DADC"/>
<stop offset="0.99" stop-color="#AFB1B4"/>
</linearGradient>
<linearGradient id="paint1_linear_1_2207" x1="47.1225" y1="23.8385" x2="45.0676" y2="19.0179" gradientUnits="userSpaceOnUse">
<stop stop-color="#A7A9AC"/>
<stop offset="1" stop-color="#676767"/>
</linearGradient>
<linearGradient id="paint2_linear_1_2207" x1="58.9082" y1="23.9254" x2="57.4366" y2="19.9497" gradientUnits="userSpaceOnUse">
<stop stop-color="#C0C1C2"/>
<stop offset="1" stop-color="#7C7C7C"/>
</linearGradient>
<linearGradient id="paint3_linear_1_2207" x1="54.8363" y1="32.8656" x2="55.2379" y2="26.1127" gradientUnits="userSpaceOnUse">
<stop stop-color="#DCDDDE"/>
<stop offset="0.18" stop-color="#D8D9DA"/>
<stop offset="0.36" stop-color="#CCCDCE"/>
<stop offset="0.54" stop-color="#B8B9BB"/>
<stop offset="0.71" stop-color="#9D9E9F"/>
<stop offset="0.89" stop-color="#7A7B7D"/>
<stop offset="1" stop-color="#5F6062"/>
</linearGradient>
<linearGradient id="paint4_linear_1_2207" x1="62.9226" y1="24.125" x2="64.9894" y2="19.3104" gradientUnits="userSpaceOnUse">
<stop stop-color="#D1D3D4"/>
<stop offset="0.99" stop-color="#7C7C7C"/>
</linearGradient>
<clipPath id="clip0_1_2207">
<rect width="40" height="14" fill="white" transform="translate(35 19)"/>
</clipPath>
</defs>
</svg>
