<?xml version="1.0" encoding="UTF-8"?>
<svg width="10px" height="11px" viewBox="0 0 10 11" version="1.1" xmlns="http://www.w3.org/2000/svg" xmlns:xlink="http://www.w3.org/1999/xlink">
    <!-- Generator: Sketch 51.2 (57519) - http://www.bohemiancoding.com/sketch -->
    <title>single-folded-content</title>
    <desc>Created with Sketch.</desc>
    <defs></defs>
    <g id="Final" stroke="none" stroke-width="1" fill="none" fill-rule="evenodd">
        <g id="Card_take_ordered" transform="translate(-249.000000, -428.000000)" fill="#111111" fill-rule="nonzero">
            <g id="Group-15" transform="translate(249.000000, 423.000000)">
                <g id="single-folded-content" transform="translate(0.000000, 5.000000)">
                    <path d="M6.36363636,0 L0.454545455,0 C0.203636364,0 0,0.205333333 0,0.458333333 L0,10.5416667 C0,10.7946667 0.203636364,11 0.454545455,11 L9.54545455,11 C9.79636364,11 10,10.7946667 10,10.5416667 L10,3.66666667 L6.81818182,3.66666667 C6.56727273,3.66666667 6.36363636,3.46133333 6.36363636,3.20833333 L6.36363636,0 Z M1.81818182,7.79166667 L8.18181818,7.79166667 L8.18181818,8.70833333 L1.81818182,8.70833333 L1.81818182,7.79166667 Z M1.81818182,5.5 L8.18181818,5.5 L8.18181818,6.41666667 L1.81818182,6.41666667 L1.81818182,5.5 Z M4.54545455,4.125 L1.81818182,4.125 L1.81818182,3.20833333 L4.54545455,3.20833333 L4.54545455,4.125 Z" id="Shape"></path>
                    <polygon id="Shape" points="9.73363636 2.75 7.27272727 2.75 7.27272727 0.268583333"></polygon>
                </g>
            </g>
        </g>
    </g>
</svg>