<svg width="17" height="17" viewBox="0 0 17 17" fill="none" xmlns="http://www.w3.org/2000/svg">
<path d="M8.5 17C13.1944 17 17 13.1944 17 8.5C17 3.80558 13.1944 0 8.5 0C3.80558 0 0 3.80558 0 8.5C0 13.1944 3.80558 17 8.5 17Z" fill="black"/>
<path d="M12.039 6.37475L13.3645 5.054C13.4234 4.99507 13.4234 4.90666 13.3645 4.84773L12.1121 3.59535C12.0532 3.53641 11.9647 3.53641 11.9058 3.59535L10.6027 4.89697L12.039 6.37475Z" fill="white"/>
<path d="M10.0199 5.48132L4.62727 10.8739L3.97898 12.7893C3.93478 12.9072 4.05265 13.0103 4.17052 12.9809L6.08593 12.3326L11.4785 6.93998L10.0199 5.48132Z" fill="white"/>
</svg>