<?xml version="1.0" encoding="UTF-8"?>
<svg width="19px" height="18px" viewBox="0 0 19 18" version="1.1" xmlns="http://www.w3.org/2000/svg" xmlns:xlink="http://www.w3.org/1999/xlink">
    <!-- Generator: Sketch 48.1 (47250) - http://www.bohemiancoding.com/sketch -->
    <title>Shape</title>
    <desc>Created with Sketch.</desc>
    <defs></defs>
    <g id="1.18-Look-order" stroke="none" stroke-width="1" fill="none" fill-rule="evenodd" transform="translate(-609.000000, -1402.000000)" opacity="0.900000036">
        <g id="form" transform="translate(49.000000, 178.000000)" fill="#000000" fill-rule="nonzero">
            <g id="1" transform="translate(0.000000, 1098.000000)">
                <g id="Group-21" transform="translate(458.000000, 32.000000)">
                    <g id="4" transform="translate(102.000000, 92.000000)">
                        <path d="M18.0392305,8.2 L12.5392305,7.4 L10.0392305,2.4 C9.93923048,2.1 9.63923048,2 9.33923048,2 C9.03923048,2 8.83923048,2.2 8.63923048,2.4 L6.13923048,7.4 L0.639230485,8.2 C0.339230485,8.2 0.139230485,8.4 0.0392304845,8.7 C-0.0607695155,9 0.0392304845,9.3 0.239230485,9.5 L4.23923048,13.4 L3.33923048,18.9 C3.33923048,19.2 3.43923048,19.5 3.63923048,19.6 C3.73923048,19.7 3.93923048,19.7 4.03923048,19.7 C4.13923048,19.7 4.23923048,19.7 4.33923048,19.6 L9.23923048,17 L14.1392305,19.6 C14.4392305,19.7 14.7392305,19.7 14.9392305,19.5 C15.1392305,19.3 15.2392305,19 15.2392305,18.8 L14.3392305,13.3 L18.3392305,9.4 C18.5392305,9.2 18.6392305,8.9 18.5392305,8.6 C18.4392305,8.3 18.3392305,8.2 18.0392305,8.2 Z M13.1392305,12.5 C12.9392305,12.7 12.8392305,12.9 12.9392305,13.2 L13.6392305,17.6 L9.73923048,15.5 C9.63923048,15.4 9.53923048,15.4 9.43923048,15.4 L9.43923048,4.4 L9.43923048,4.4 L11.4392305,8.4 C11.5392305,8.6 11.7392305,8.8 12.0392305,8.8 L16.4392305,9.4 L13.1392305,12.5 Z" id="Shape"></path>
                    </g>
                </g>
            </g>
        </g>
    </g>
</svg>