<?xml version="1.0" encoding="UTF-8"?>
<svg width="13px" height="13px" viewBox="0 0 13 13" version="1.1" xmlns="http://www.w3.org/2000/svg" xmlns:xlink="http://www.w3.org/1999/xlink">
    <!-- Generator: Sketch 52.3 (67297) - http://www.bohemiancoding.com/sketch -->
    <title>square-download</title>
    <desc>Created with Sketch.</desc>
    <g id="Final" stroke="none" stroke-width="1" fill="none" fill-rule="evenodd">
        <g id="Orders_Customer_Services_checking" transform="translate(-68.000000, -978.000000)" fill="#111111">
            <g id="Group-32" transform="translate(68.000000, 975.000000)">
                <g id="square-download" transform="translate(0.000000, 3.000000)">
                    <path d="M6.5,9.75 C6.74375,9.75 6.90625,9.66875 7.06875,9.50625 L11.7,4.875 L10.5625,3.7375 L7.3125,6.9875 L7.3125,0 L5.6875,0 L5.6875,6.9875 L2.4375,3.7375 L1.3,4.875 L5.93125,9.50625 C6.09375,9.66875 6.25625,9.75 6.5,9.75 Z" id="Path"></path>
                    <path d="M11.375,11.375 L1.625,11.375 L1.625,8.9375 L0,8.9375 L0,12.1875 C0,12.675 0.325,13 0.8125,13 L12.1875,13 C12.675,13 13,12.675 13,12.1875 L13,8.9375 L11.375,8.9375 L11.375,11.375 Z" id="Path"></path>
                </g>
            </g>
        </g>
    </g>
</svg>