<?xml version="1.0" encoding="utf-8" ?>
<svg xmlns="http://www.w3.org/2000/svg" xmlns:xlink="http://www.w3.org/1999/xlink" width="20" height="17">
	<defs>
		<clipPath id="clip_0">
			<path d="M18 0L2 0Q1.89749 0 1.79657 0.00932124Q1.69564 0.0186425 1.59713 0.037209Q1.49861 0.0557754 1.4033 0.0834357Q1.30799 0.111096 1.21667 0.147624Q1.12535 0.184153 1.03876 0.229252Q0.95217 0.27435 0.871019 0.327651Q0.789868 0.380953 0.714818 0.442021Q0.639767 0.50309 0.571429 0.571429Q0.50309 0.639767 0.442021 0.714818Q0.380953 0.789868 0.327651 0.871019Q0.27435 0.95217 0.229252 1.03876Q0.184153 1.12535 0.147624 1.21667Q0.111096 1.30799 0.0834357 1.4033Q0.0557754 1.49861 0.037209 1.59713Q0.0186425 1.69564 0.00932124 1.79657Q0 1.89749 0 2L0 12Q0 12.1025 0.00932124 12.2034Q0.0186425 12.3044 0.037209 12.4029Q0.0557754 12.5014 0.0834357 12.5967Q0.111096 12.692 0.147624 12.7833Q0.184153 12.8747 0.229252 12.9612Q0.27435 13.0478 0.327651 13.129Q0.380953 13.2101 0.442021 13.2852Q0.50309 13.3602 0.571429 13.4286Q0.639767 13.4969 0.714818 13.558Q0.789868 13.6191 0.871019 13.6724Q0.95217 13.7257 1.03876 13.7708Q1.12535 13.8159 1.21667 13.8524Q1.30799 13.8889 1.4033 13.9166Q1.49861 13.9442 1.59713 13.9628Q1.69564 13.9814 1.79657 13.9907Q1.89749 14 2 14L4.87369 14L4.3807 16.122Q4.33382 16.3238 4.35683 16.4681Q4.37983 16.6124 4.46975 16.6807Q4.55966 16.749 4.70487 16.7323Q4.85007 16.7157 5.03182 16.6163L9.81712 14L18 14Q18.1025 14 18.2034 13.9907Q18.3044 13.9814 18.4029 13.9628Q18.5014 13.9442 18.5967 13.9166Q18.692 13.8889 18.7833 13.8524Q18.8747 13.8159 18.9612 13.7708Q19.0478 13.7257 19.129 13.6724Q19.2101 13.6191 19.2852 13.558Q19.3602 13.4969 19.4286 13.4286Q19.4969 13.3602 19.558 13.2852Q19.619 13.2101 19.6723 13.129Q19.7257 13.0478 19.7708 12.9612Q19.8158 12.8747 19.8524 12.7833Q19.8889 12.692 19.9166 12.5967Q19.9442 12.5014 19.9628 12.4029Q19.9814 12.3044 19.9907 12.2034Q20 12.1025 20 12L20 2Q20 1.89749 19.9907 1.79657Q19.9814 1.69564 19.9628 1.59713Q19.9442 1.49861 19.9166 1.4033Q19.8889 1.30799 19.8524 1.21667Q19.8158 1.12535 19.7708 1.03876Q19.7257 0.95217 19.6723 0.871019Q19.619 0.789868 19.558 0.714818Q19.4969 0.639767 19.4286 0.571429Q19.3602 0.50309 19.2852 0.442021Q19.2101 0.380953 19.129 0.327651Q19.0478 0.27435 18.9612 0.229252Q18.8747 0.184153 18.7833 0.147624Q18.692 0.111096 18.5967 0.0834357Q18.5014 0.0557754 18.4029 0.037209Q18.3044 0.0186425 18.2034 0.00932124Q18.1025 0 18 0Z" clip-rule="evenodd"/>
		</clipPath>
	</defs>
	<g clip-path="url(#clip_0)">
		<path fill="none" stroke="rgb(128,128,128)" stroke-width="2" stroke-miterlimit="4" d="M2 0L18 0Q18.1025 0 18.2034 0.00932124Q18.3044 0.0186425 18.4029 0.037209Q18.5014 0.0557754 18.5967 0.0834357Q18.692 0.111096 18.7833 0.147624Q18.8747 0.184153 18.9612 0.229252Q19.0478 0.27435 19.129 0.327651Q19.2101 0.380953 19.2852 0.442021Q19.3602 0.50309 19.4286 0.571429Q19.4969 0.639767 19.558 0.714818Q19.619 0.789868 19.6723 0.871019Q19.7257 0.95217 19.7708 1.03876Q19.8158 1.12535 19.8524 1.21667Q19.8889 1.30799 19.9166 1.4033Q19.9442 1.49861 19.9628 1.59713Q19.9814 1.69564 19.9907 1.79657Q20 1.89749 20 2L20 12Q20 12.1025 19.9907 12.2034Q19.9814 12.3044 19.9628 12.4029Q19.9442 12.5014 19.9166 12.5967Q19.8889 12.692 19.8524 12.7833Q19.8158 12.8747 19.7708 12.9612Q19.7257 13.0478 19.6723 13.129Q19.619 13.2101 19.558 13.2852Q19.4969 13.3602 19.4286 13.4286Q19.3602 13.4969 19.2852 13.558Q19.2101 13.6191 19.129 13.6724Q19.0478 13.7257 18.9612 13.7708Q18.8747 13.8159 18.7833 13.8524Q18.692 13.8889 18.5967 13.9166Q18.5014 13.9442 18.4029 13.9628Q18.3044 13.9814 18.2034 13.9907Q18.1025 14 18 14L9.81712 14L5.03182 16.6163Q4.98685 16.6409 4.94363 16.6606Q4.9004 16.6803 4.85928 16.6949Q4.81816 16.7095 4.77948 16.7188Q4.7408 16.7282 4.70487 16.7323Q4.66894 16.7365 4.63605 16.7353Q4.60317 16.7341 4.5736 16.7276Q4.54403 16.7211 4.51801 16.7093Q4.492 16.6976 4.46975 16.6807Q4.4475 16.6638 4.4292 16.6419Q4.4109 16.62 4.3967 16.5933Q4.3825 16.5665 4.37251 16.5352Q4.36252 16.5038 4.35683 16.4681Q4.35114 16.4324 4.34979 16.3926Q4.34844 16.3528 4.35144 16.3093Q4.35444 16.2658 4.36177 16.2189Q4.3691 16.1719 4.3807 16.122L4.87369 14L2 14Q1.89749 14 1.79657 13.9907Q1.69564 13.9814 1.59713 13.9628Q1.49861 13.9442 1.4033 13.9166Q1.30799 13.8889 1.21667 13.8524Q1.12535 13.8159 1.03876 13.7708Q0.95217 13.7257 0.871019 13.6724Q0.789868 13.6191 0.714818 13.558Q0.639767 13.4969 0.571429 13.4286Q0.50309 13.3602 0.442021 13.2852Q0.380953 13.2101 0.327651 13.129Q0.27435 13.0478 0.229252 12.9612Q0.184153 12.8747 0.147624 12.7833Q0.111096 12.692 0.0834357 12.5967Q0.0557754 12.5014 0.037209 12.4029Q0.0186425 12.3044 0.00932124 12.2034Q0 12.1025 0 12L0 2Q0 1.89749 0.00932124 1.79657Q0.0186425 1.69564 0.037209 1.59713Q0.0557754 1.49861 0.0834357 1.4033Q0.111096 1.30799 0.147624 1.21667Q0.184153 1.12535 0.229252 1.03876Q0.27435 0.95217 0.327651 0.871019Q0.380953 0.789868 0.442021 0.714818Q0.50309 0.639767 0.571429 0.571429Q0.639767 0.50309 0.714818 0.442021Q0.789868 0.380953 0.871019 0.327651Q0.95217 0.27435 1.03876 0.229252Q1.12535 0.184153 1.21667 0.147624Q1.30799 0.111096 1.4033 0.0834357Q1.49861 0.0557754 1.59713 0.037209Q1.69564 0.0186425 1.79657 0.00932124Q1.89749 0 2 0Z"/>
	</g>
	<defs>
		<clipPath id="clip_1">
			<path d="M73 -358L-823 -358Q-823.205 -358 -823.407 -357.981Q-823.609 -357.963 -823.806 -357.926Q-824.003 -357.888 -824.193 -357.833Q-824.384 -357.778 -824.567 -357.705Q-824.749 -357.632 -824.923 -357.542Q-825.096 -357.451 -825.258 -357.345Q-825.42 -357.238 -825.57 -357.116Q-825.721 -356.994 -825.857 -356.857Q-825.994 -356.72 -826.116 -356.57Q-826.238 -356.42 -826.345 -356.258Q-826.451 -356.096 -826.542 -355.923Q-826.632 -355.749 -826.705 -355.567Q-826.778 -355.384 -826.833 -355.193Q-826.889 -355.003 -826.926 -354.806Q-826.963 -354.609 -826.981 -354.407Q-827 -354.205 -827 -354L-827 468Q-827 468.205 -826.981 468.407Q-826.963 468.609 -826.926 468.806Q-826.888 469.003 -826.833 469.193Q-826.778 469.384 -826.705 469.567Q-826.632 469.749 -826.542 469.923Q-826.451 470.096 -826.345 470.258Q-826.238 470.42 -826.116 470.57Q-825.994 470.721 -825.857 470.857Q-825.721 470.994 -825.57 471.116Q-825.42 471.238 -825.258 471.345Q-825.096 471.451 -824.923 471.542Q-824.749 471.632 -824.567 471.705Q-824.384 471.778 -824.194 471.833Q-824.003 471.888 -823.806 471.926Q-823.609 471.963 -823.407 471.981Q-823.205 472 -823 472L73 472Q73.205 472 73.4069 471.981Q73.6087 471.963 73.8058 471.926Q74.0028 471.888 74.1934 471.833Q74.384 471.778 74.5667 471.705Q74.7493 471.632 74.9225 471.542Q75.0957 471.451 75.258 471.345Q75.4203 471.238 75.5704 471.116Q75.7205 470.994 75.8571 470.857Q75.9938 470.721 76.116 470.57Q76.2381 470.42 76.3447 470.258Q76.4513 470.096 76.5415 469.923Q76.6317 469.749 76.7048 469.567Q76.7778 469.384 76.8331 469.193Q76.8885 469.003 76.9256 468.806Q76.9627 468.609 76.9814 468.407Q77 468.205 77 468L77 -354Q77 -354.205 76.9814 -354.407Q76.9627 -354.609 76.9256 -354.806Q76.8885 -355.003 76.8331 -355.193Q76.7778 -355.384 76.7048 -355.567Q76.6317 -355.749 76.5415 -355.923Q76.4513 -356.096 76.3447 -356.258Q76.2381 -356.42 76.116 -356.57Q75.9938 -356.72 75.8571 -356.857Q75.7205 -356.994 75.5704 -357.116Q75.4203 -357.238 75.258 -357.345Q75.0957 -357.451 74.9225 -357.542Q74.7493 -357.632 74.5667 -357.705Q74.384 -357.778 74.1934 -357.833Q74.0028 -357.888 73.8058 -357.926Q73.6087 -357.963 73.4069 -357.981Q73.205 -358 73 -358Z" clip-rule="evenodd"/>
		</clipPath>
	</defs>
	<g clip-path="url(#clip_1)">
		<path fill="rgb(128,128,128)" stroke="none" transform="translate(6 7)" d="M0 0L2 0L2 2L0 2L0 0Z"/>
	</g>
	<defs>
		<clipPath id="clip_2">
			<path d="M73 -358L-823 -358Q-823.205 -358 -823.407 -357.981Q-823.609 -357.963 -823.806 -357.926Q-824.003 -357.888 -824.193 -357.833Q-824.384 -357.778 -824.567 -357.705Q-824.749 -357.632 -824.923 -357.542Q-825.096 -357.451 -825.258 -357.345Q-825.42 -357.238 -825.57 -357.116Q-825.721 -356.994 -825.857 -356.857Q-825.994 -356.72 -826.116 -356.57Q-826.238 -356.42 -826.345 -356.258Q-826.451 -356.096 -826.542 -355.923Q-826.632 -355.749 -826.705 -355.567Q-826.778 -355.384 -826.833 -355.193Q-826.889 -355.003 -826.926 -354.806Q-826.963 -354.609 -826.981 -354.407Q-827 -354.205 -827 -354L-827 468Q-827 468.205 -826.981 468.407Q-826.963 468.609 -826.926 468.806Q-826.888 469.003 -826.833 469.193Q-826.778 469.384 -826.705 469.567Q-826.632 469.749 -826.542 469.923Q-826.451 470.096 -826.345 470.258Q-826.238 470.42 -826.116 470.57Q-825.994 470.721 -825.857 470.857Q-825.721 470.994 -825.57 471.116Q-825.42 471.238 -825.258 471.345Q-825.096 471.451 -824.923 471.542Q-824.749 471.632 -824.567 471.705Q-824.384 471.778 -824.194 471.833Q-824.003 471.888 -823.806 471.926Q-823.609 471.963 -823.407 471.981Q-823.205 472 -823 472L73 472Q73.205 472 73.4069 471.981Q73.6087 471.963 73.8058 471.926Q74.0028 471.888 74.1934 471.833Q74.384 471.778 74.5667 471.705Q74.7493 471.632 74.9225 471.542Q75.0957 471.451 75.258 471.345Q75.4203 471.238 75.5704 471.116Q75.7205 470.994 75.8571 470.857Q75.9938 470.721 76.116 470.57Q76.2381 470.42 76.3447 470.258Q76.4513 470.096 76.5415 469.923Q76.6317 469.749 76.7048 469.567Q76.7778 469.384 76.8331 469.193Q76.8885 469.003 76.9256 468.806Q76.9627 468.609 76.9814 468.407Q77 468.205 77 468L77 -354Q77 -354.205 76.9814 -354.407Q76.9627 -354.609 76.9256 -354.806Q76.8885 -355.003 76.8331 -355.193Q76.7778 -355.384 76.7048 -355.567Q76.6317 -355.749 76.5415 -355.923Q76.4513 -356.096 76.3447 -356.258Q76.2381 -356.42 76.116 -356.57Q75.9938 -356.72 75.8571 -356.857Q75.7205 -356.994 75.5704 -357.116Q75.4203 -357.238 75.258 -357.345Q75.0957 -357.451 74.9225 -357.542Q74.7493 -357.632 74.5667 -357.705Q74.384 -357.778 74.1934 -357.833Q74.0028 -357.888 73.8058 -357.926Q73.6087 -357.963 73.4069 -357.981Q73.205 -358 73 -358Z" clip-rule="evenodd"/>
		</clipPath>
	</defs>
	<g clip-path="url(#clip_2)">
		<path fill="rgb(128,128,128)" stroke="none" transform="translate(9 7)" d="M0 0L2 0L2 2L0 2L0 0Z"/>
	</g>
	<defs>
		<clipPath id="clip_3">
			<path d="M73 -358L-823 -358Q-823.205 -358 -823.407 -357.981Q-823.609 -357.963 -823.806 -357.926Q-824.003 -357.888 -824.193 -357.833Q-824.384 -357.778 -824.567 -357.705Q-824.749 -357.632 -824.923 -357.542Q-825.096 -357.451 -825.258 -357.345Q-825.42 -357.238 -825.57 -357.116Q-825.721 -356.994 -825.857 -356.857Q-825.994 -356.72 -826.116 -356.57Q-826.238 -356.42 -826.345 -356.258Q-826.451 -356.096 -826.542 -355.923Q-826.632 -355.749 -826.705 -355.567Q-826.778 -355.384 -826.833 -355.193Q-826.889 -355.003 -826.926 -354.806Q-826.963 -354.609 -826.981 -354.407Q-827 -354.205 -827 -354L-827 468Q-827 468.205 -826.981 468.407Q-826.963 468.609 -826.926 468.806Q-826.888 469.003 -826.833 469.193Q-826.778 469.384 -826.705 469.567Q-826.632 469.749 -826.542 469.923Q-826.451 470.096 -826.345 470.258Q-826.238 470.42 -826.116 470.57Q-825.994 470.721 -825.857 470.857Q-825.721 470.994 -825.57 471.116Q-825.42 471.238 -825.258 471.345Q-825.096 471.451 -824.923 471.542Q-824.749 471.632 -824.567 471.705Q-824.384 471.778 -824.194 471.833Q-824.003 471.888 -823.806 471.926Q-823.609 471.963 -823.407 471.981Q-823.205 472 -823 472L73 472Q73.205 472 73.4069 471.981Q73.6087 471.963 73.8058 471.926Q74.0028 471.888 74.1934 471.833Q74.384 471.778 74.5667 471.705Q74.7493 471.632 74.9225 471.542Q75.0957 471.451 75.258 471.345Q75.4203 471.238 75.5704 471.116Q75.7205 470.994 75.8571 470.857Q75.9938 470.721 76.116 470.57Q76.2381 470.42 76.3447 470.258Q76.4513 470.096 76.5415 469.923Q76.6317 469.749 76.7048 469.567Q76.7778 469.384 76.8331 469.193Q76.8885 469.003 76.9256 468.806Q76.9627 468.609 76.9814 468.407Q77 468.205 77 468L77 -354Q77 -354.205 76.9814 -354.407Q76.9627 -354.609 76.9256 -354.806Q76.8885 -355.003 76.8331 -355.193Q76.7778 -355.384 76.7048 -355.567Q76.6317 -355.749 76.5415 -355.923Q76.4513 -356.096 76.3447 -356.258Q76.2381 -356.42 76.116 -356.57Q75.9938 -356.72 75.8571 -356.857Q75.7205 -356.994 75.5704 -357.116Q75.4203 -357.238 75.258 -357.345Q75.0957 -357.451 74.9225 -357.542Q74.7493 -357.632 74.5667 -357.705Q74.384 -357.778 74.1934 -357.833Q74.0028 -357.888 73.8058 -357.926Q73.6087 -357.963 73.4069 -357.981Q73.205 -358 73 -358Z" clip-rule="evenodd"/>
		</clipPath>
	</defs>
	<g clip-path="url(#clip_3)">
		<path fill="rgb(128,128,128)" stroke="none" transform="translate(12 7)" d="M0 0L2 0L2 2L0 2L0 0Z"/>
	</g>
</svg>
