<svg width="18" height="24" viewBox="0 0 18 24" fill="none" xmlns="http://www.w3.org/2000/svg">
<path d="M17.2498 9.75035H9.94255L11.9811 0.919105C12.0591 0.579355 11.894 0.231355 11.5813 0.0776047C11.2685 -0.0768953 10.8921 0.00485466 10.6708 0.273355L0.170801 13.0234C-0.0136986 13.2476 -0.0519486 13.5574 0.0718014 13.8199C0.195551 14.0824 0.459551 14.2504 0.749801 14.2504H8.05705L6.01855 23.0816C5.94055 23.4214 6.10555 23.7694 6.4183 23.9231C6.52405 23.9749 6.6373 24.0004 6.7498 24.0004C6.9688 24.0004 7.1833 23.9051 7.3288 23.7274L17.8288 10.9774C18.0133 10.7531 18.0515 10.4434 17.9278 10.1809C17.804 9.91835 17.5401 9.75035 17.2498 9.75035Z" fill="#A965FF"/>
</svg>
