<svg width="8" height="16" viewBox="0 0 8 16" fill="none" xmlns="http://www.w3.org/2000/svg">
<path d="M7.01649 7.50074C7.01649 9.10913 7.01649 10.7113 7.01649 12.3196C7.01649 14.3098 5.77734 15.7617 3.80597 15.9808C2.18507 16.1623 0.432742 15.0483 0.0697592 13.1207C0.025951 12.8766 0.00717601 12.6263 0.00717601 12.376C0.000917689 9.96652 0.00717601 7.55707 0.00717601 5.14761C0.00717601 5.05374 0.00717581 4.95986 0.0196924 4.86599C0.0822756 4.50927 0.395192 4.25893 0.758174 4.27771C1.10864 4.29022 1.39026 4.54682 1.43407 4.89728C1.44659 5.00993 1.44659 5.12884 1.44659 5.24149C1.44659 7.63842 1.44659 10.0416 1.44659 12.4386C1.44659 13.49 2.14752 14.3411 3.13008 14.5163C4.40051 14.7416 5.54579 13.8091 5.57082 12.5137C5.58334 11.6813 5.57708 10.8427 5.57708 10.0103C5.57708 7.56958 5.57708 5.12884 5.57708 2.6881C5.57708 2.5817 5.57708 2.48157 5.57708 2.37518C5.54579 1.84322 5.13899 1.43643 4.63207 1.44269C4.11263 1.44895 3.70584 1.84948 3.69958 2.3877C3.68707 3.06359 3.69332 3.74575 3.69332 4.42165C3.69332 6.03629 3.69332 7.6572 3.69332 9.27184C3.69332 9.40327 3.68707 9.54721 3.65577 9.67238C3.5619 10.0166 3.24898 10.2231 2.89852 10.1918C2.56683 10.1605 2.30398 9.89768 2.26017 9.55973C2.25391 9.49714 2.25391 9.43456 2.25391 9.37198C2.25391 7.04388 2.24765 4.72205 2.25391 2.39395C2.26017 1.23617 3.0362 0.291161 4.13766 0.0533446C5.60837 -0.259571 6.99146 0.841892 7.01023 2.36892C7.02901 4.07744 7.01649 5.79222 7.01649 7.50074Z" fill="#FF2200"/>
</svg>
