<?xml version="1.0" encoding="utf-8" ?>
<svg xmlns="http://www.w3.org/2000/svg" xmlns:xlink="http://www.w3.org/1999/xlink" width="15" height="17">
	<defs>
		<clipPath id="clip_0">
			<path d="M33 -356L-863 -356Q-863.205 -356 -863.407 -355.981Q-863.609 -355.963 -863.806 -355.926Q-864.003 -355.888 -864.193 -355.833Q-864.384 -355.778 -864.567 -355.705Q-864.749 -355.632 -864.923 -355.542Q-865.096 -355.451 -865.258 -355.345Q-865.42 -355.238 -865.57 -355.116Q-865.721 -354.994 -865.857 -354.857Q-865.994 -354.72 -866.116 -354.57Q-866.238 -354.42 -866.345 -354.258Q-866.451 -354.096 -866.542 -353.923Q-866.632 -353.749 -866.705 -353.567Q-866.778 -353.384 -866.833 -353.193Q-866.889 -353.003 -866.926 -352.806Q-866.963 -352.609 -866.981 -352.407Q-867 -352.205 -867 -352L-867 470Q-867 470.205 -866.981 470.407Q-866.963 470.609 -866.926 470.806Q-866.889 471.003 -866.833 471.193Q-866.778 471.384 -866.705 471.567Q-866.632 471.749 -866.542 471.922Q-866.451 472.096 -866.345 472.258Q-866.238 472.42 -866.116 472.57Q-865.994 472.721 -865.857 472.857Q-865.721 472.994 -865.57 473.116Q-865.42 473.238 -865.258 473.345Q-865.096 473.451 -864.923 473.542Q-864.749 473.632 -864.567 473.705Q-864.384 473.778 -864.193 473.833Q-864.003 473.888 -863.806 473.926Q-863.609 473.963 -863.407 473.981Q-863.205 474 -863 474L33 474Q33.205 474 33.4069 473.981Q33.6087 473.963 33.8058 473.926Q34.0028 473.888 34.1934 473.833Q34.384 473.778 34.5667 473.705Q34.7493 473.632 34.9225 473.542Q35.0957 473.451 35.258 473.345Q35.4203 473.238 35.5704 473.116Q35.7205 472.994 35.8571 472.857Q35.9938 472.721 36.116 472.57Q36.2381 472.42 36.3447 472.258Q36.4513 472.096 36.5415 471.922Q36.6317 471.749 36.7048 471.567Q36.7778 471.384 36.8331 471.193Q36.8885 471.003 36.9256 470.806Q36.9627 470.609 36.9814 470.407Q37 470.205 37 470L37 -352Q37 -352.205 36.9814 -352.407Q36.9627 -352.609 36.9256 -352.806Q36.8885 -353.003 36.8331 -353.193Q36.7778 -353.384 36.7048 -353.567Q36.6317 -353.749 36.5415 -353.923Q36.4513 -354.096 36.3447 -354.258Q36.2381 -354.42 36.116 -354.57Q35.9938 -354.72 35.8571 -354.857Q35.7205 -354.994 35.5704 -355.116Q35.4203 -355.238 35.258 -355.345Q35.0957 -355.451 34.9225 -355.542Q34.7493 -355.632 34.5667 -355.705Q34.384 -355.778 34.1934 -355.833Q34.0028 -355.888 33.8058 -355.926Q33.6087 -355.963 33.4069 -355.981Q33.205 -356 33 -356Z" clip-rule="evenodd"/>
		</clipPath>
	</defs>
	<g clip-path="url(#clip_0)">
		<path fill="none" stroke="rgb(128,128,128)" stroke-width="1" stroke-miterlimit="4" transform="translate(0.5 0.5)" d="M4.9 12.4L0.1 14.3C0.1 14.3 0 14.3 0 14.2L2 9.5C2 9.4 2.1 9.3 2.2 9.3L11.5 0L14.5 3L5.2 12.3C5.1 12.3 5 12.4 4.9 12.4Z"/>
	</g>
	<defs>
		<clipPath id="clip_1">
			<path d="M33 -356L-863 -356Q-863.205 -356 -863.407 -355.981Q-863.609 -355.963 -863.806 -355.926Q-864.003 -355.888 -864.193 -355.833Q-864.384 -355.778 -864.567 -355.705Q-864.749 -355.632 -864.923 -355.542Q-865.096 -355.451 -865.258 -355.345Q-865.42 -355.238 -865.57 -355.116Q-865.721 -354.994 -865.857 -354.857Q-865.994 -354.72 -866.116 -354.57Q-866.238 -354.42 -866.345 -354.258Q-866.451 -354.096 -866.542 -353.923Q-866.632 -353.749 -866.705 -353.567Q-866.778 -353.384 -866.833 -353.193Q-866.889 -353.003 -866.926 -352.806Q-866.963 -352.609 -866.981 -352.407Q-867 -352.205 -867 -352L-867 470Q-867 470.205 -866.981 470.407Q-866.963 470.609 -866.926 470.806Q-866.889 471.003 -866.833 471.193Q-866.778 471.384 -866.705 471.567Q-866.632 471.749 -866.542 471.922Q-866.451 472.096 -866.345 472.258Q-866.238 472.42 -866.116 472.57Q-865.994 472.721 -865.857 472.857Q-865.721 472.994 -865.57 473.116Q-865.42 473.238 -865.258 473.345Q-865.096 473.451 -864.923 473.542Q-864.749 473.632 -864.567 473.705Q-864.384 473.778 -864.193 473.833Q-864.003 473.888 -863.806 473.926Q-863.609 473.963 -863.407 473.981Q-863.205 474 -863 474L33 474Q33.205 474 33.4069 473.981Q33.6087 473.963 33.8058 473.926Q34.0028 473.888 34.1934 473.833Q34.384 473.778 34.5667 473.705Q34.7493 473.632 34.9225 473.542Q35.0957 473.451 35.258 473.345Q35.4203 473.238 35.5704 473.116Q35.7205 472.994 35.8571 472.857Q35.9938 472.721 36.116 472.57Q36.2381 472.42 36.3447 472.258Q36.4513 472.096 36.5415 471.922Q36.6317 471.749 36.7048 471.567Q36.7778 471.384 36.8331 471.193Q36.8885 471.003 36.9256 470.806Q36.9627 470.609 36.9814 470.407Q37 470.205 37 470L37 -352Q37 -352.205 36.9814 -352.407Q36.9627 -352.609 36.9256 -352.806Q36.8885 -353.003 36.8331 -353.193Q36.7778 -353.384 36.7048 -353.567Q36.6317 -353.749 36.5415 -353.923Q36.4513 -354.096 36.3447 -354.258Q36.2381 -354.42 36.116 -354.57Q35.9938 -354.72 35.8571 -354.857Q35.7205 -354.994 35.5704 -355.116Q35.4203 -355.238 35.258 -355.345Q35.0957 -355.451 34.9225 -355.542Q34.7493 -355.632 34.5667 -355.705Q34.384 -355.778 34.1934 -355.833Q34.0028 -355.888 33.8058 -355.926Q33.6087 -355.963 33.4069 -355.981Q33.205 -356 33 -356Z" clip-rule="evenodd"/>
		</clipPath>
	</defs>
	<g clip-path="url(#clip_1)">
		<path fill="none" stroke="rgb(128,128,128)" stroke-width="0.5" stroke-miterlimit="4" transform="translate(4.5 2.09998)" d="M9.2 0L0 9.3"/>
	</g>
	<defs>
		<clipPath id="clip_2">
			<path d="M33 -356L-863 -356Q-863.205 -356 -863.407 -355.981Q-863.609 -355.963 -863.806 -355.926Q-864.003 -355.888 -864.193 -355.833Q-864.384 -355.778 -864.567 -355.705Q-864.749 -355.632 -864.923 -355.542Q-865.096 -355.451 -865.258 -355.345Q-865.42 -355.238 -865.57 -355.116Q-865.721 -354.994 -865.857 -354.857Q-865.994 -354.72 -866.116 -354.57Q-866.238 -354.42 -866.345 -354.258Q-866.451 -354.096 -866.542 -353.923Q-866.632 -353.749 -866.705 -353.567Q-866.778 -353.384 -866.833 -353.193Q-866.889 -353.003 -866.926 -352.806Q-866.963 -352.609 -866.981 -352.407Q-867 -352.205 -867 -352L-867 470Q-867 470.205 -866.981 470.407Q-866.963 470.609 -866.926 470.806Q-866.889 471.003 -866.833 471.193Q-866.778 471.384 -866.705 471.567Q-866.632 471.749 -866.542 471.922Q-866.451 472.096 -866.345 472.258Q-866.238 472.42 -866.116 472.57Q-865.994 472.721 -865.857 472.857Q-865.721 472.994 -865.57 473.116Q-865.42 473.238 -865.258 473.345Q-865.096 473.451 -864.923 473.542Q-864.749 473.632 -864.567 473.705Q-864.384 473.778 -864.193 473.833Q-864.003 473.888 -863.806 473.926Q-863.609 473.963 -863.407 473.981Q-863.205 474 -863 474L33 474Q33.205 474 33.4069 473.981Q33.6087 473.963 33.8058 473.926Q34.0028 473.888 34.1934 473.833Q34.384 473.778 34.5667 473.705Q34.7493 473.632 34.9225 473.542Q35.0957 473.451 35.258 473.345Q35.4203 473.238 35.5704 473.116Q35.7205 472.994 35.8571 472.857Q35.9938 472.721 36.116 472.57Q36.2381 472.42 36.3447 472.258Q36.4513 472.096 36.5415 471.922Q36.6317 471.749 36.7048 471.567Q36.7778 471.384 36.8331 471.193Q36.8885 471.003 36.9256 470.806Q36.9627 470.609 36.9814 470.407Q37 470.205 37 470L37 -352Q37 -352.205 36.9814 -352.407Q36.9627 -352.609 36.9256 -352.806Q36.8885 -353.003 36.8331 -353.193Q36.7778 -353.384 36.7048 -353.567Q36.6317 -353.749 36.5415 -353.923Q36.4513 -354.096 36.3447 -354.258Q36.2381 -354.42 36.116 -354.57Q35.9938 -354.72 35.8571 -354.857Q35.7205 -354.994 35.5704 -355.116Q35.4203 -355.238 35.258 -355.345Q35.0957 -355.451 34.9225 -355.542Q34.7493 -355.632 34.5667 -355.705Q34.384 -355.778 34.1934 -355.833Q34.0028 -355.888 33.8058 -355.926Q33.6087 -355.963 33.4069 -355.981Q33.205 -356 33 -356Z" clip-rule="evenodd"/>
		</clipPath>
	</defs>
	<g clip-path="url(#clip_2)">
		<path fill="none" stroke="rgb(128,128,128)" stroke-width="1" stroke-miterlimit="4" transform="translate(1.20001 13.1)" d="M0 0L1 1"/>
	</g>
	<defs>
		<clipPath id="clip_3">
			<path d="M33 -356L-863 -356Q-863.205 -356 -863.407 -355.981Q-863.609 -355.963 -863.806 -355.926Q-864.003 -355.888 -864.193 -355.833Q-864.384 -355.778 -864.567 -355.705Q-864.749 -355.632 -864.923 -355.542Q-865.096 -355.451 -865.258 -355.345Q-865.42 -355.238 -865.57 -355.116Q-865.721 -354.994 -865.857 -354.857Q-865.994 -354.72 -866.116 -354.57Q-866.238 -354.42 -866.345 -354.258Q-866.451 -354.096 -866.542 -353.923Q-866.632 -353.749 -866.705 -353.567Q-866.778 -353.384 -866.833 -353.193Q-866.889 -353.003 -866.926 -352.806Q-866.963 -352.609 -866.981 -352.407Q-867 -352.205 -867 -352L-867 470Q-867 470.205 -866.981 470.407Q-866.963 470.609 -866.926 470.806Q-866.889 471.003 -866.833 471.193Q-866.778 471.384 -866.705 471.567Q-866.632 471.749 -866.542 471.922Q-866.451 472.096 -866.345 472.258Q-866.238 472.42 -866.116 472.57Q-865.994 472.721 -865.857 472.857Q-865.721 472.994 -865.57 473.116Q-865.42 473.238 -865.258 473.345Q-865.096 473.451 -864.923 473.542Q-864.749 473.632 -864.567 473.705Q-864.384 473.778 -864.193 473.833Q-864.003 473.888 -863.806 473.926Q-863.609 473.963 -863.407 473.981Q-863.205 474 -863 474L33 474Q33.205 474 33.4069 473.981Q33.6087 473.963 33.8058 473.926Q34.0028 473.888 34.1934 473.833Q34.384 473.778 34.5667 473.705Q34.7493 473.632 34.9225 473.542Q35.0957 473.451 35.258 473.345Q35.4203 473.238 35.5704 473.116Q35.7205 472.994 35.8571 472.857Q35.9938 472.721 36.116 472.57Q36.2381 472.42 36.3447 472.258Q36.4513 472.096 36.5415 471.922Q36.6317 471.749 36.7048 471.567Q36.7778 471.384 36.8331 471.193Q36.8885 471.003 36.9256 470.806Q36.9627 470.609 36.9814 470.407Q37 470.205 37 470L37 -352Q37 -352.205 36.9814 -352.407Q36.9627 -352.609 36.9256 -352.806Q36.8885 -353.003 36.8331 -353.193Q36.7778 -353.384 36.7048 -353.567Q36.6317 -353.749 36.5415 -353.923Q36.4513 -354.096 36.3447 -354.258Q36.2381 -354.42 36.116 -354.57Q35.9938 -354.72 35.8571 -354.857Q35.7205 -354.994 35.5704 -355.116Q35.4203 -355.238 35.258 -355.345Q35.0957 -355.451 34.9225 -355.542Q34.7493 -355.632 34.5667 -355.705Q34.384 -355.778 34.1934 -355.833Q34.0028 -355.888 33.8058 -355.926Q33.6087 -355.963 33.4069 -355.981Q33.205 -356 33 -356Z" clip-rule="evenodd"/>
		</clipPath>
	</defs>
	<g clip-path="url(#clip_3)">
		<path fill="none" stroke="rgb(128,128,128)" stroke-width="1" stroke-miterlimit="4" transform="translate(13.2 15.1)" d="M0 0L1.3 0"/>
	</g>
	<defs>
		<clipPath id="clip_4">
			<path d="M33 -356L-863 -356Q-863.205 -356 -863.407 -355.981Q-863.609 -355.963 -863.806 -355.926Q-864.003 -355.888 -864.193 -355.833Q-864.384 -355.778 -864.567 -355.705Q-864.749 -355.632 -864.923 -355.542Q-865.096 -355.451 -865.258 -355.345Q-865.42 -355.238 -865.57 -355.116Q-865.721 -354.994 -865.857 -354.857Q-865.994 -354.72 -866.116 -354.57Q-866.238 -354.42 -866.345 -354.258Q-866.451 -354.096 -866.542 -353.923Q-866.632 -353.749 -866.705 -353.567Q-866.778 -353.384 -866.833 -353.193Q-866.889 -353.003 -866.926 -352.806Q-866.963 -352.609 -866.981 -352.407Q-867 -352.205 -867 -352L-867 470Q-867 470.205 -866.981 470.407Q-866.963 470.609 -866.926 470.806Q-866.889 471.003 -866.833 471.193Q-866.778 471.384 -866.705 471.567Q-866.632 471.749 -866.542 471.922Q-866.451 472.096 -866.345 472.258Q-866.238 472.42 -866.116 472.57Q-865.994 472.721 -865.857 472.857Q-865.721 472.994 -865.57 473.116Q-865.42 473.238 -865.258 473.345Q-865.096 473.451 -864.923 473.542Q-864.749 473.632 -864.567 473.705Q-864.384 473.778 -864.193 473.833Q-864.003 473.888 -863.806 473.926Q-863.609 473.963 -863.407 473.981Q-863.205 474 -863 474L33 474Q33.205 474 33.4069 473.981Q33.6087 473.963 33.8058 473.926Q34.0028 473.888 34.1934 473.833Q34.384 473.778 34.5667 473.705Q34.7493 473.632 34.9225 473.542Q35.0957 473.451 35.258 473.345Q35.4203 473.238 35.5704 473.116Q35.7205 472.994 35.8571 472.857Q35.9938 472.721 36.116 472.57Q36.2381 472.42 36.3447 472.258Q36.4513 472.096 36.5415 471.922Q36.6317 471.749 36.7048 471.567Q36.7778 471.384 36.8331 471.193Q36.8885 471.003 36.9256 470.806Q36.9627 470.609 36.9814 470.407Q37 470.205 37 470L37 -352Q37 -352.205 36.9814 -352.407Q36.9627 -352.609 36.9256 -352.806Q36.8885 -353.003 36.8331 -353.193Q36.7778 -353.384 36.7048 -353.567Q36.6317 -353.749 36.5415 -353.923Q36.4513 -354.096 36.3447 -354.258Q36.2381 -354.42 36.116 -354.57Q35.9938 -354.72 35.8571 -354.857Q35.7205 -354.994 35.5704 -355.116Q35.4203 -355.238 35.258 -355.345Q35.0957 -355.451 34.9225 -355.542Q34.7493 -355.632 34.5667 -355.705Q34.384 -355.778 34.1934 -355.833Q34.0028 -355.888 33.8058 -355.926Q33.6087 -355.963 33.4069 -355.981Q33.205 -356 33 -356Z" clip-rule="evenodd"/>
		</clipPath>
	</defs>
	<g clip-path="url(#clip_4)">
		<path fill="none" stroke="rgb(128,128,128)" stroke-width="1" stroke-miterlimit="4" transform="translate(9.60001 15.1)" d="M0 0L1.3 0"/>
	</g>
	<defs>
		<clipPath id="clip_5">
			<path d="M33 -356L-863 -356Q-863.205 -356 -863.407 -355.981Q-863.609 -355.963 -863.806 -355.926Q-864.003 -355.888 -864.193 -355.833Q-864.384 -355.778 -864.567 -355.705Q-864.749 -355.632 -864.923 -355.542Q-865.096 -355.451 -865.258 -355.345Q-865.42 -355.238 -865.57 -355.116Q-865.721 -354.994 -865.857 -354.857Q-865.994 -354.72 -866.116 -354.57Q-866.238 -354.42 -866.345 -354.258Q-866.451 -354.096 -866.542 -353.923Q-866.632 -353.749 -866.705 -353.567Q-866.778 -353.384 -866.833 -353.193Q-866.889 -353.003 -866.926 -352.806Q-866.963 -352.609 -866.981 -352.407Q-867 -352.205 -867 -352L-867 470Q-867 470.205 -866.981 470.407Q-866.963 470.609 -866.926 470.806Q-866.889 471.003 -866.833 471.193Q-866.778 471.384 -866.705 471.567Q-866.632 471.749 -866.542 471.922Q-866.451 472.096 -866.345 472.258Q-866.238 472.42 -866.116 472.57Q-865.994 472.721 -865.857 472.857Q-865.721 472.994 -865.57 473.116Q-865.42 473.238 -865.258 473.345Q-865.096 473.451 -864.923 473.542Q-864.749 473.632 -864.567 473.705Q-864.384 473.778 -864.193 473.833Q-864.003 473.888 -863.806 473.926Q-863.609 473.963 -863.407 473.981Q-863.205 474 -863 474L33 474Q33.205 474 33.4069 473.981Q33.6087 473.963 33.8058 473.926Q34.0028 473.888 34.1934 473.833Q34.384 473.778 34.5667 473.705Q34.7493 473.632 34.9225 473.542Q35.0957 473.451 35.258 473.345Q35.4203 473.238 35.5704 473.116Q35.7205 472.994 35.8571 472.857Q35.9938 472.721 36.116 472.57Q36.2381 472.42 36.3447 472.258Q36.4513 472.096 36.5415 471.922Q36.6317 471.749 36.7048 471.567Q36.7778 471.384 36.8331 471.193Q36.8885 471.003 36.9256 470.806Q36.9627 470.609 36.9814 470.407Q37 470.205 37 470L37 -352Q37 -352.205 36.9814 -352.407Q36.9627 -352.609 36.9256 -352.806Q36.8885 -353.003 36.8331 -353.193Q36.7778 -353.384 36.7048 -353.567Q36.6317 -353.749 36.5415 -353.923Q36.4513 -354.096 36.3447 -354.258Q36.2381 -354.42 36.116 -354.57Q35.9938 -354.72 35.8571 -354.857Q35.7205 -354.994 35.5704 -355.116Q35.4203 -355.238 35.258 -355.345Q35.0957 -355.451 34.9225 -355.542Q34.7493 -355.632 34.5667 -355.705Q34.384 -355.778 34.1934 -355.833Q34.0028 -355.888 33.8058 -355.926Q33.6087 -355.963 33.4069 -355.981Q33.205 -356 33 -356Z" clip-rule="evenodd"/>
		</clipPath>
	</defs>
	<g clip-path="url(#clip_5)">
		<path fill="none" stroke="rgb(128,128,128)" stroke-width="1" stroke-miterlimit="4" transform="translate(6 15.1)" d="M0 0L1.3 0"/>
	</g>
</svg>
