<?xml version="1.0" encoding="UTF-8"?>
<svg width="18px" height="18px" viewBox="0 0 18 18" version="1.1" xmlns="http://www.w3.org/2000/svg" xmlns:xlink="http://www.w3.org/1999/xlink">
    <!-- Generator: Sketch 53.1 (72631) - https://sketchapp.com -->
    <title>Group 16 Copy 4</title>
    <desc>Created with Sketch.</desc>
    <g id="Page-1" stroke="none" stroke-width="1" fill="none" fill-rule="evenodd">
        <g id="Guides_LK_Tablet-&amp;-Mobile" transform="translate(-3905.000000, -497.000000)" stroke="#FD6262">
            <g id="Group-16-Copy-4" transform="translate(3905.000000, 497.000000)">
                <path d="M2.5638852,0.5 C1.82655093,0.5 1.54701959,0.553979991 1.25895373,0.708039303 C1.02016204,0.835746496 0.835746496,1.02016204 0.708039303,1.25895373 C0.553979991,1.54701959 0.5,1.82655093 0.5,2.5638852 L0.5,15.4361148 C0.5,16.1734491 0.553979991,16.4529804 0.708039303,16.7410463 C0.835746496,16.979838 1.02016204,17.1642535 1.25895373,17.2919607 C1.54701959,17.44602 1.82655093,17.5 2.5638852,17.5 L15.4361148,17.5 C16.1734491,17.5 16.4529804,17.44602 16.7410463,17.2919607 C16.979838,17.1642535 17.1642535,16.979838 17.2919607,16.7410463 C17.44602,16.4529804 17.5,16.1734491 17.5,15.4361148 L17.5,2.5638852 C17.5,1.82655093 17.44602,1.54701959 17.2919607,1.25895373 C17.1642535,1.02016204 16.979838,0.835746496 16.7410463,0.708039303 C16.4529804,0.553979991 16.1734491,0.5 15.4361148,0.5 L2.5638852,0.5 Z" id="Rectangle-21-Copy-2" fill="#FFFFFF"></path>
                <polygon id="Path-Copy-2" stroke-width="0.3" fill="#FD6262" points="7.5 12.119403 4.875 9.29850746 4 10.238806 7.5 14 15 5.94029851 14.125 5"></polygon>
            </g>
        </g>
    </g>
</svg>