<?xml version="1.0" encoding="UTF-8"?>
<svg width="16px" height="9px" viewBox="0 0 16 9" version="1.1" xmlns="http://www.w3.org/2000/svg" xmlns:xlink="http://www.w3.org/1999/xlink">
    <!-- Generator: Sketch 51.2 (57519) - http://www.bohemiancoding.com/sketch -->
    <title>Shape</title>
    <desc>Created with Sketch.</desc>
    <defs></defs>
    <g id="Final" stroke="none" stroke-width="1" fill="none" fill-rule="evenodd">
        <g id="Card_take_ordered" transform="translate(-40.000000, -429.000000)" fill="#808080" fill-rule="nonzero">
            <g id="Group-17" transform="translate(40.000000, 423.000000)">
                <path d="M5,10 C6.11,10 7,9.1 7,8 C7,6.9 6.11,6 5,6 C3.9,6 3,6.9 3,8 C3,9.1 3.9,10 5,10 Z M11,10 C12.11,10 13,9.1 13,8 C13,6.9 12.11,6 11,6 C9.89,6 9,6.9 9,8 C9,9.1 9.9,10 11,10 Z M5,11.2 C3.33,11.2 0,12.03 0,13.7 L0,15 L10,15 L10,13.7 C10,12.03 6.67,11.2 5,11.2 Z M11,11.2 C10.75,11.2 10.46,11.22 10.16,11.26 C10.95,11.86 11.5,12.66 11.5,13.7 L11.5,15 L16,15 L16,13.7 C16,12.03 12.67,11.2 11,11.2 Z" id="Shape"></path>
            </g>
        </g>
    </g>
</svg>