<?xml version="1.0" encoding="UTF-8"?>
<svg width="15px" height="15px" viewBox="0 0 15 15" version="1.1" xmlns="http://www.w3.org/2000/svg" xmlns:xlink="http://www.w3.org/1999/xlink">
    <!-- Generator: Sketch 53.1 (72631) - https://sketchapp.com -->
    <title>Rectangle 21 Copy</title>
    <desc>Created with Sketch.</desc>
    <g id="Final" stroke="none" stroke-width="1" fill="none" fill-rule="evenodd">
        <g id="Form_general" transform="translate(-324.000000, -6028.000000)" fill="#FFFFFF" stroke="#D9D9D9">
            <path d="M326.563885,6028.5 C325.826551,6028.5 325.54702,6028.55398 325.258954,6028.70804 C325.020162,6028.83575 324.835746,6029.02016 324.708039,6029.25895 C324.55398,6029.54702 324.5,6029.82655 324.5,6030.56389 L324.5,6040.43611 C324.5,6041.17345 324.55398,6041.45298 324.708039,6041.74105 C324.835746,6041.97984 325.020162,6042.16425 325.258954,6042.29196 C325.54702,6042.44602 325.826551,6042.5 326.563885,6042.5 L336.436115,6042.5 C337.173449,6042.5 337.45298,6042.44602 337.741046,6042.29196 C337.979838,6042.16425 338.164254,6041.97984 338.291961,6041.74105 C338.44602,6041.45298 338.5,6041.17345 338.5,6040.43611 L338.5,6030.56389 C338.5,6029.82655 338.44602,6029.54702 338.291961,6029.25895 C338.164254,6029.02016 337.979838,6028.83575 337.741046,6028.70804 C337.45298,6028.55398 337.173449,6028.5 336.436115,6028.5 L326.563885,6028.5 Z" id="Rectangle-21-Copy"></path>
        </g>
    </g>
</svg>