<?xml version="1.0" encoding="UTF-8"?>
<svg width="14px" height="14px" viewBox="0 0 14 14" version="1.1" xmlns="http://www.w3.org/2000/svg" xmlns:xlink="http://www.w3.org/1999/xlink">
    <!-- Generator: Sketch 50.2 (55047) - http://www.bohemiancoding.com/sketch -->
    <title>favourite-31</title>
    <desc>Created with Sketch.</desc>
    <defs></defs>
    <g id="Page-1" stroke="none" stroke-width="1" fill="none" fill-rule="evenodd">
        <g id="favourite-31" fill="#FCC745" fill-rule="nonzero">
            <path d="M13.9718948,4.74433307 C13.9165754,4.61404946 13.7887027,4.52943253 13.6470477,4.52943253 L9.34217468,4.52943253 L7.31967738,0.203525349 C7.26160153,0.0792734515 7.13700403,0 7.00000078,0 C6.86299754,0 6.73840004,0.0792734515 6.68032419,0.203525349 L4.65782689,4.52943253 L0.352953873,4.52943253 C0.211295381,4.52943253 0.0834261532,4.61404946 0.0281067419,4.74433307 C-0.0272126694,4.87461668 0.000535270641,5.02540953 0.0989342235,5.12742985 L3.28674618,8.43346913 L2.00476453,13.5614143 C1.9704696,13.6985908 2.02131024,13.843006 2.13401374,13.9283112 C2.24671725,14.0136164 2.39957798,14.0234386 2.5222802,13.9534722 L7.00000078,11.3946666 L11.4777214,13.9534686 C11.5321796,13.9846613 11.5924966,14 11.6528101,14 C11.7281199,14 11.8032567,13.9758731 11.8659843,13.9283112 C11.9786913,13.843006 12.0295284,13.6985908 11.9952335,13.5614143 L10.7132554,8.4334656 L13.9010673,5.12742632 C13.9994663,5.025406 14.0272107,4.87461668 13.9718948,4.74433307 Z" id="Shape"></path>
        </g>
    </g>
</svg>