<?xml version="1.0" encoding="UTF-8"?>
<svg width="40px" height="40px" viewBox="0 0 40 40" version="1.1" xmlns="http://www.w3.org/2000/svg" xmlns:xlink="http://www.w3.org/1999/xlink">
    <!-- Generator: Sketch 48.1 (47250) - http://www.bohemiancoding.com/sketch -->
    <title>Page 1</title>
    <desc>Created with Sketch.</desc>
    <defs></defs>
    <g id="3.-my-address" stroke="none" stroke-width="1" fill="none" fill-rule="evenodd" transform="translate(-633.000000, -400.000000)">
        <g id="TABLE" transform="translate(41.000000, 177.000000)" stroke="#808080">
            <g id="Card" transform="translate(0.000000, 149.000000)">
                <g id="5" transform="translate(591.000000, 0.000000)">
                    <g id="Page-1" transform="translate(1.000000, 75.000000)">
                        <polyline id="Stroke-1" points="28.5327 36.0596 19.5827 38.4236 10.6327 36.0596"></polyline>
                        <path d="M19.5826,26.0908 C19.5826,26.0908 28.4406,18.0198 28.4406,9.3588 C28.4406,4.4658 24.4756,0.4998 19.5826,0.4998 C14.6896,0.4998 10.7246,4.4658 10.7246,9.3588 C10.7246,18.0198 19.5826,26.0908 19.5826,26.0908 Z" id="Stroke-3"></path>
                        <path d="M23.5025,10.4097 C23.5025,12.5747 21.7475,14.3297 19.5825,14.3297 C17.4175,14.3297 15.6625,12.5747 15.6625,10.4097 C15.6625,8.2447 17.4175,6.4897 19.5825,6.4897 C21.7475,6.4897 23.5025,8.2447 23.5025,10.4097 Z" id="Stroke-5"></path>
                        <polyline id="Stroke-7" points="10.6324 36.0103 10.6324 16.3063 0.4994 18.5723 0.4994 38.3743 10.6324 36.0103"></polyline>
                        <polyline id="Stroke-9" points="28.5327 36.0103 28.5327 16.3563 38.6657 18.6213 38.6657 38.4243 28.5327 36.0593"></polyline>
                    </g>
                </g>
            </g>
        </g>
    </g>
</svg>