<?xml version="1.0" encoding="UTF-8"?>
<svg width="40px" height="35px" viewBox="0 0 40 35" version="1.1" xmlns="http://www.w3.org/2000/svg" xmlns:xlink="http://www.w3.org/1999/xlink">
    <!-- Generator: Sketch 48.1 (47250) - http://www.bohemiancoding.com/sketch -->
    <title>1494872847_icon-129-cloud-download</title>
    <desc>Created with Sketch.</desc>
    <defs></defs>
    <g id="3.1-my-address" stroke="none" stroke-width="1" fill="none" fill-rule="evenodd" transform="translate(-311.000000, -548.000000)">
        <g id="form" transform="translate(227.000000, 145.000000)" fill="#D9D9D9" fill-rule="nonzero">
            <g id="Group-34">
                <g id="Rectangle-19">
                    <g id="Group-13" transform="translate(22.000000, 86.000000)">
                        <g id="Group-7" transform="translate(41.000000, 299.000000)">
                            <g id="1494872847_icon-129-cloud-download" transform="translate(21.000000, 18.000000)">
                                <g id="Group">
                                    <g id="Page-1">
                                        <g id="icon-129-cloud-download">
                                            <path d="M19.1505376,31.3037634 L14.3629032,26.516129 L13.2580645,27.6209677 L19.8870968,34.25 L26.516129,27.6209677 L25.4112903,26.516129 L20.6236559,31.3037634 L20.6236559,14.7311828 L19.1505376,14.7311828 L19.1505376,31.3037634 L19.1505376,31.3037634 Z M17.6774194,23.5698925 L7.36974039,23.5698925 C4.12169413,23.5698925 1.47311828,20.9317424 1.47311828,17.6774194 C1.47311828,14.8852853 3.42442535,12.5387937 6.0412716,11.9354318 L6.0412716,11.9354318 C5.94355535,11.4091268 5.89247312,10.8664428 5.89247312,10.311828 C5.89247312,5.43034316 9.849698,1.47311828 14.7311828,1.47311828 C18.5840376,1.47311828 21.8611139,3.93831816 23.0711304,7.37743689 C24.2118421,6.44903547 25.6672691,5.89247312 27.2526882,5.89247312 C30.7268059,5.89247312 33.5767318,8.56495422 33.8587956,11.966246 L33.8587956,11.966246 C36.4073695,12.614455 38.3010753,14.9256583 38.3010753,17.6774194 C38.3010753,20.9251204 35.6610676,23.5698925 32.4044531,23.5698925 L22.0967742,23.5698925 L22.0967742,25.0430108 L32.4094272,25.0430108 C36.4768753,25.0430108 39.7741935,21.7370458 39.7741935,17.6774194 C39.7741935,14.5891461 37.8787186,11.9447906 35.1822825,10.8502676 L35.1822825,10.8502676 C34.412075,7.17739965 31.1544697,4.41935484 27.2526882,4.41935484 C25.9815369,4.41935484 24.7787568,4.71208664 23.7080832,5.2338149 C21.9364718,2.10869332 18.5800833,0 14.7311828,0 C9.03611719,0 4.41935484,4.61676235 4.41935484,10.311828 C4.41935484,10.5153406 4.42525036,10.7174761 4.43687995,10.9180733 L4.43687995,10.9180733 C1.82616398,12.052477 0,14.6562469 0,17.6774194 C0,21.7453231 3.28872799,25.0430108 7.36476633,25.0430108 L17.6774194,25.0430108 L17.6774194,23.5698925 L17.6774194,23.5698925 L17.6774194,23.5698925 Z" id="cloud-download"></path>
                                        </g>
                                    </g>
                                </g>
                            </g>
                        </g>
                    </g>
                </g>
            </g>
        </g>
    </g>
</svg>