<?xml version="1.0" encoding="UTF-8"?>
<svg width="46px" height="46px" viewBox="0 0 46 46" version="1.1" xmlns="http://www.w3.org/2000/svg" xmlns:xlink="http://www.w3.org/1999/xlink">
    <!-- Generator: Sketch 53.1 (72631) - https://sketchapp.com -->
    <title>Shape</title>
    <desc>Created with Sketch.</desc>
    <g id="Rates" stroke="none" stroke-width="1" fill="none" fill-rule="evenodd">
        <g id="Rates_Large_Mobile_3" transform="translate(-184.000000, -160.000000)" fill="#FD6262" fill-rule="nonzero">
            <path d="M205.317073,190.292683 L208.682927,190.292683 L208.682927,193.658537 L205.317073,193.658537 L205.317073,190.292683 Z M205.317073,172.341463 L208.682927,172.341463 L208.682927,186.926829 L205.317073,186.926829 L205.317073,172.341463 Z M206.9885,160 C194.281,160 184,170.2925 184,183 C184,195.7075 194.281,206 206.9885,206 C219.696,206 230,195.7075 230,183 C230,170.2925 219.696,160 206.9885,160 Z M207,203.756098 C195.532256,203.756098 186.243902,194.467744 186.243902,183 C186.243902,171.532256 195.532256,162.243902 207,162.243902 C218.467744,162.243902 227.756098,171.532256 227.756098,183 C227.756098,194.467744 218.467744,203.756098 207,203.756098 Z" id="Shape"></path>
        </g>
    </g>
</svg>