<svg width="16" height="16" viewBox="0 0 16 16" fill="none" xmlns="http://www.w3.org/2000/svg">
<path d="M15.5 8C15.5 12.1421 12.1421 15.5 8 15.5C3.85786 15.5 0.5 12.1421 0.5 8C0.5 3.85786 3.85786 0.5 8 0.5C12.1421 0.5 15.5 3.85786 15.5 8Z" stroke="#808080"/>
<path d="M11.0695 5.8236L12.395 4.50286C12.4539 4.44392 12.4539 4.35552 12.395 4.29658L11.1426 3.0442C11.0837 2.98527 10.9953 2.98527 10.9363 3.0442L9.63326 4.34582L11.0695 5.8236Z" fill="#808080"/>
<path d="M9.05039 4.93018L3.65779 10.3228L3.0095 12.2382C2.9653 12.3561 3.08317 12.4592 3.20104 12.4297L5.11645 11.7814L10.509 6.38883L9.05039 4.93018Z" fill="#808080"/>
</svg>