<?xml version="1.0" encoding="UTF-8"?>
<svg width="18px" height="18px" viewBox="0 0 18 18" version="1.1" xmlns="http://www.w3.org/2000/svg" xmlns:xlink="http://www.w3.org/1999/xlink">
    <!-- Generator: Sketch 48.1 (47250) - http://www.bohemiancoding.com/sketch -->
    <title>Group 24</title>
    <desc>Created with Sketch.</desc>
    <defs></defs>
    <g id="6.3-profile" stroke="none" stroke-width="1" fill="none" fill-rule="evenodd" transform="translate(-61.000000, -508.000000)">
        <g id="TABLE" transform="translate(41.000000, 177.000000)">
            <g id="Group-3" transform="translate(1.000000, 279.000000)">
                <g id="Group-2" transform="translate(20.000000, 52.000000)">
                    <g id="Group-24" transform="translate(0.000000, 1.000000)">
                        <circle id="Oval-4" stroke="#909090" cx="8" cy="8" r="8"></circle>
                        <path d="M6.6,12.8 C6.2,12.8 6,12.5 6.3,11.1 L7.3,7.8 C7.4,7.4 7.4,7.2 7.3,7.2 C7.2,7.2 6.7,7.5 6.2,7.9 L6,7.5 C7,6.6 8.1,5.9 8.6,5.9 C9,5.9 9,6.5 8.8,7.3 L7.7,10.9 C7.6,11.3 7.6,11.5 7.7,11.5 C7.9,11.5 8.5,11.1 8.9,10.7 L9.1,11.1 C8.5,11.9 7.2,12.8 6.6,12.8 Z" id="Path" fill="#909090"></path>
                        <path d="M8.6,4.8 C8.2,4.8 7.9,4.5 7.9,4 C7.9,3.5 8.3,3 8.9,3 C9.4,3 9.6,3.4 9.6,3.8 C9.6,4.3 9.2,4.8 8.6,4.8 Z" id="Path" fill="#909090"></path>
                    </g>
                </g>
            </g>
        </g>
    </g>
</svg>