<svg width="16" height="16" viewBox="0 0 16 16" fill="none" xmlns="http://www.w3.org/2000/svg">
<path opacity="0.4" d="M15.9679 5.42209C15.9047 5.2732 15.7585 5.17649 15.5966 5.17649H10.6768L8.36535 0.2326C8.29897 0.0905982 8.15658 0 8 0C7.84343 0 7.70103 0.0905982 7.63466 0.2326L5.32323 5.17649H0.403376C0.24148 5.17649 0.0953442 5.2732 0.032122 5.42209C-0.0311002 5.57099 0.000611738 5.74333 0.113068 5.85992L3.75628 9.63825L2.29116 15.4988C2.25197 15.6555 2.31007 15.8206 2.43887 15.9181C2.56768 16.0156 2.74237 16.0268 2.88261 15.9468L8 13.0225L13.1174 15.9468C13.1796 15.9825 13.2486 16 13.3175 16C13.4036 16 13.4894 15.9724 13.5611 15.9181C13.6899 15.8206 13.748 15.6555 13.7088 15.4988L12.2437 9.63825L15.8869 5.85992C15.9994 5.74332 16.0311 5.57099 15.9679 5.42209Z" fill="#B3B3B3"/>
</svg>
