<?xml version="1.0" encoding="UTF-8"?>
<svg width="15px" height="15px" viewBox="0 0 15 15" version="1.1" xmlns="http://www.w3.org/2000/svg" xmlns:xlink="http://www.w3.org/1999/xlink">
    <!-- Generator: Sketch 53.1 (72631) - https://sketchapp.com -->
    <title>Group 16</title>
    <desc>Created with Sketch.</desc>
    <g id="Final" stroke="none" stroke-width="1" fill="none" fill-rule="evenodd">
        <g id="Form_general" transform="translate(-735.000000, -6028.000000)">
            <g id="Group-16" transform="translate(735.000000, 6028.000000)">
                <path d="M2.5638852,0.5 C1.82655093,0.5 1.54701959,0.553979991 1.25895373,0.708039303 C1.02016204,0.835746496 0.835746496,1.02016204 0.708039303,1.25895373 C0.553979991,1.54701959 0.5,1.82655093 0.5,2.5638852 L0.5,12.4361148 C0.5,13.1734491 0.553979991,13.4529804 0.708039303,13.7410463 C0.835746496,13.979838 1.02016204,14.1642535 1.25895373,14.2919607 C1.54701959,14.44602 1.82655093,14.5 2.5638852,14.5 L12.4361148,14.5 C13.1734491,14.5 13.4529804,14.44602 13.7410463,14.2919607 C13.979838,14.1642535 14.1642535,13.979838 14.2919607,13.7410463 C14.44602,13.4529804 14.5,13.1734491 14.5,12.4361148 L14.5,2.5638852 C14.5,1.82655093 14.44602,1.54701959 14.2919607,1.25895373 C14.1642535,1.02016204 13.979838,0.835746496 13.7410463,0.708039303 C13.4529804,0.553979991 13.1734491,0.5 12.4361148,0.5 L2.5638852,0.5 Z" id="Rectangle-21-Copy-2" stroke="#FD6262" fill="#FFFFFF"></path>
                <polygon id="Path-Copy-2" fill="#FD6262" points="5.5 10.119403 2.875 7.29850746 2 8.23880597 5.5 12 13 3.94029851 12.125 3"></polygon>
            </g>
        </g>
    </g>
</svg>