<?xml version="1.0" encoding="UTF-8"?>
<svg width="15px" height="15px" viewBox="0 0 15 15" version="1.1" xmlns="http://www.w3.org/2000/svg" xmlns:xlink="http://www.w3.org/1999/xlink">
    <!-- Generator: Sketch 53.1 (72631) - https://sketchapp.com -->
    <title>Rectangle 21 Copy</title>
    <desc>Created with Sketch.</desc>
    <g id="Final" stroke="none" stroke-width="1" fill="none" fill-rule="evenodd" opacity="0.3">
        <g id="Form_general" transform="translate(-143.000000, -6028.000000)" fill="#FFFFFF" stroke="#D9D9D9">
            <path d="M145.563885,6028.5 C144.826551,6028.5 144.54702,6028.55398 144.258954,6028.70804 C144.020162,6028.83575 143.835746,6029.02016 143.708039,6029.25895 C143.55398,6029.54702 143.5,6029.82655 143.5,6030.56389 L143.5,6040.43611 C143.5,6041.17345 143.55398,6041.45298 143.708039,6041.74105 C143.835746,6041.97984 144.020162,6042.16425 144.258954,6042.29196 C144.54702,6042.44602 144.826551,6042.5 145.563885,6042.5 L155.436115,6042.5 C156.173449,6042.5 156.45298,6042.44602 156.741046,6042.29196 C156.979838,6042.16425 157.164254,6041.97984 157.291961,6041.74105 C157.44602,6041.45298 157.5,6041.17345 157.5,6040.43611 L157.5,6030.56389 C157.5,6029.82655 157.44602,6029.54702 157.291961,6029.25895 C157.164254,6029.02016 156.979838,6028.83575 156.741046,6028.70804 C156.45298,6028.55398 156.173449,6028.5 155.436115,6028.5 L145.563885,6028.5 Z" id="Rectangle-21-Copy"></path>
        </g>
    </g>
</svg>