<?xml version="1.0" encoding="UTF-8"?>
<svg width="14px" height="17px" viewBox="0 0 14 17" version="1.1" xmlns="http://www.w3.org/2000/svg" xmlns:xlink="http://www.w3.org/1999/xlink">
    <!-- Generator: Sketch 48.1 (47250) - http://www.bohemiancoding.com/sketch -->
    <title>favorite</title>
    <desc>Created with Sketch.</desc>
    <defs></defs>
    <g id="2.18-new-order" stroke="none" stroke-width="1" fill="none" fill-rule="evenodd" transform="translate(-404.000000, -420.000000)">
        <g id="form" transform="translate(49.000000, 178.000000)" fill="#8E908F">
            <g id="Group-6" transform="translate(0.000000, 125.000000)">
                <g id="A" transform="translate(20.000000, 107.000000)">
                    <path d="M341.806287,10.002353 C338.206287,10.102353 335.206287,12.902353 335.006287,16.502353 C334.906287,18.902353 336.006287,21.102353 337.806287,22.402353 C339.306287,23.502353 340.506287,24.802353 341.606287,26.302353 L341.906287,26.802353 L342.206287,26.302353 C343.306287,24.802353 344.606287,23.502353 346.106287,22.302353 C347.706287,21.002353 348.806287,19.102353 348.806287,16.902353 C348.806287,13.002353 345.606287,9.90235299 341.806287,10.002353 L341.806287,10.002353 Z M346,15.8792632 L343.1236,15.6411228 L342,13.0833333 L340.8764,15.6411228 L338,15.8792632 L340.182,17.7037193 L339.528,20.4166667 L342,18.9777895 L344.472,20.4166667 L343.818,17.7037193 L346,15.8792632 L346,15.8792632 Z" id="favorite"></path>
                </g>
            </g>
        </g>
    </g>
</svg>