<svg width="20" height="20" viewBox="0 0 20 20" fill="none" xmlns="http://www.w3.org/2000/svg">
<g id="WhatsUp 2" clip-path="url(#clip0_15_59)">
<path id="Vector" d="M5.03113 9.60516C5.2812 7.02153 7.48056 5 10.1389 5C12.8394 5 15.0598 7.07373 15.2677 9.69951C15.2778 9.83501 15.2778 9.96951 15.2778 10.095C15.2778 12.9085 12.9739 15.2 10.1389 15.2C9.09644 15.2 8.12731 14.8868 7.31385 14.3559L5.34346 14.9812L5.97917 13.0851C5.36455 12.252 5 11.2101 5 10.095C5 9.92836 5.01004 9.77178 5.03113 9.60516Z" stroke="#FF2200" stroke-width="1.2"/>
<path id="Vector_2" d="M4.40303 0.5H15.597C17.7489 0.5 19.5 2.2596 19.5 4.40068V15.5896C19.5 17.7411 17.7482 19.5 15.597 19.5H4.40303C2.25184 19.5 0.5 17.7412 0.5 15.5886V4.40068C0.5 2.2596 2.25105 0.5 4.40303 0.5Z" stroke="#FF2200"/>
<path id="Vector_3" d="M11.8985 12.9485C12.1656 12.926 12.771 12.5704 12.8947 12.1923L12.8937 12.1891C13.0163 11.8218 13.0163 11.4994 12.9758 11.433C12.9451 11.3773 12.8432 11.3334 12.6988 11.2552C12.5445 11.177 11.8263 10.7882 11.6928 10.7325C11.5494 10.6875 11.4574 10.6543 11.3545 10.8214C11.2625 10.9778 10.9746 11.3334 10.8925 11.433C10.7995 11.5444 10.7174 11.5561 10.574 11.478L9.383 10.6886C8.94082 10.2666 8.64307 9.75468 8.56097 9.59938C8.47787 9.43337 8.55009 9.35518 8.6223 9.26629C8.69451 9.19881 8.77661 9.08743 8.84784 8.98782C8.86861 8.9664 8.88938 8.94391 8.89927 8.92142C8.94082 8.85502 8.96159 8.79932 8.99226 8.73292C9.0437 8.6226 9.02293 8.53371 8.98237 8.45552C8.95071 8.37841 8.65395 7.58906 8.5303 7.2774C8.40764 6.95502 8.28399 7.01071 8.20188 7.01071C8.10989 7.01071 8.01888 7 7.91502 7C7.81115 7 7.65782 7.0332 7.52428 7.20028C7.37985 7.35558 7 7.73365 7 8.523C7 8.70079 7.03165 8.88929 7.08309 9.05637C7.22653 9.62401 7.55494 10.0792 7.60638 10.1574C7.67859 10.2688 8.62329 11.9139 10.1219 12.5479C11.6315 13.182 11.6315 12.971 11.8985 12.9485Z" fill="#FF2200"/>
</g>
<defs>
<clipPath id="clip0_15_59">
<rect width="20" height="20" fill="white"/>
</clipPath>
</defs>
</svg>
