<svg width="20" height="20" viewBox="0 0 20 20" fill="none" xmlns="http://www.w3.org/2000/svg">
<g id="Men" clip-path="url(#clip0_15_188)">
<rect width="20" height="20" fill="white"/>
<g id="Man">
<g id="Group">
<path id="Path" d="M14.1875 6.53125C14.1875 9.1875 12.2812 11.3437 9.90625 11.3437C7.53125 11.3437 5.625 9.1875 5.625 6.53125" stroke="#FF2200"/>
<path id="Path_2" d="M5.53125 8.3125C5.09115 8.3125 4.71875 7.09375 4.71875 6.6875C4.71875 6.28125 5.09115 5.9375 5.53125 5.9375" stroke="#FF2200" stroke-linecap="round" stroke-linejoin="round"/>
<path id="Path_3" d="M14.3125 8.3125C14.7526 8.3125 15.125 7.09375 15.125 6.6875C15.125 6.28125 14.7526 5.9375 14.3125 5.9375" stroke="#FF2200" stroke-linecap="round" stroke-linejoin="round"/>
<path id="Path_4" d="M5.625 5.09375V6.53125" stroke="#FF2200"/>
<path id="Path_5" d="M14.1875 5.09375V6.53125" stroke="#FF2200"/>
<path id="Path_6" fill-rule="evenodd" clip-rule="evenodd" d="M10.6562 12.9186L12.4375 11.5937C13.4687 11.9551 15.0937 12.2562 16.125 12.5874C17 12.8583 17.7812 13.852 17.7812 14.5445V19.8437H2V14.5445C2 13.852 2.78125 12.8583 3.65625 12.5874C4.65625 12.2863 6.28125 11.9551 7.28125 11.5937L9.15625 12.9186C9.59375 13.2498 10.2187 13.2498 10.6562 12.9186Z" stroke="#FF2200" stroke-linecap="round" stroke-linejoin="round"/>
<path id="Path_7" d="M11.0312 9.15625C10.8125 9.5625 10.375 9.8125 9.875 9.8125C9.375 9.8125 8.96875 9.53125 8.71875 9.15625" stroke="#FF2200" stroke-linecap="round" stroke-linejoin="round"/>
<path id="Path_8" d="M3.65625 12.4062V19.875" stroke="#FF2200"/>
<path id="Path_9" d="M16.1562 12.4062V19.875" stroke="#FF2200"/>
</g>
<path id="Oval" fill-rule="evenodd" clip-rule="evenodd" d="M8.3125 7.8125C8.57138 7.8125 8.78125 7.60263 8.78125 7.34375C8.78125 7.08487 8.57138 6.875 8.3125 6.875C8.05362 6.875 7.84375 7.08487 7.84375 7.34375C7.84375 7.60263 8.05362 7.8125 8.3125 7.8125Z" fill="#FF2200"/>
<path id="Oval_2" fill-rule="evenodd" clip-rule="evenodd" d="M11.4375 7.8125C11.6964 7.8125 11.9063 7.60263 11.9063 7.34375C11.9063 7.08487 11.6964 6.875 11.4375 6.875C11.1786 6.875 10.9688 7.08487 10.9688 7.34375C10.9688 7.60263 11.1786 7.8125 11.4375 7.8125Z" fill="#FF2200"/>
</g>
<g id="Subtract">
<mask id="path-12-inside-1_15_188" fill="white">
<path fill-rule="evenodd" clip-rule="evenodd" d="M9.90625 0C14.9062 0 14.9062 3.11657 14.9062 6H13.874C13.4299 4.27477 11.8638 3 10 3C8.13616 3 6.57006 4.27477 6.12602 6H4.90625C4.90625 3.11657 4.90625 0 9.90625 0Z"/>
</mask>
<path d="M14.9062 6V7H15.9062V6H14.9062ZM13.874 6L12.9055 6.24926L13.0988 7H13.874V6ZM6.12602 6V7H6.90123L7.09445 6.24926L6.12602 6ZM4.90625 6H3.90625V7H4.90625V6ZM15.9062 6C15.9062 4.63336 15.9308 2.84675 15.158 1.43784C14.2972 -0.13165 12.6262 -1 9.90625 -1V1C12.1863 1 13.0153 1.68994 13.4045 2.39959C13.8817 3.26983 13.9062 4.48322 13.9062 6H15.9062ZM13.874 7H14.9062V5H13.874V7ZM10 4C11.3965 4 12.5725 4.95512 12.9055 6.24926L14.8424 5.75074C14.2874 3.59442 12.3312 2 10 2V4ZM7.09445 6.24926C7.42754 4.95512 8.60349 4 10 4V2C7.66883 2 5.71258 3.59442 5.15758 5.75074L7.09445 6.24926ZM4.90625 7H6.12602V5H4.90625V7ZM9.90625 -1C7.18631 -1 5.51525 -0.131651 4.65446 1.43784C3.88174 2.84674 3.90625 4.63335 3.90625 6H5.90625C5.90625 4.48321 5.93076 3.26983 6.40804 2.39959C6.79725 1.68994 7.62619 1 9.90625 1V-1Z" fill="#FF2200" mask="url(#path-12-inside-1_15_188)"/>
</g>
</g>
<defs>
<clipPath id="clip0_15_188">
<rect width="20" height="20" fill="white"/>
</clipPath>
</defs>
</svg>
