<?xml version="1.0" encoding="UTF-8"?>
<svg width="20px" height="19px" viewBox="0 0 20 19" version="1.1" xmlns="http://www.w3.org/2000/svg" xmlns:xlink="http://www.w3.org/1999/xlink">
    <!-- Generator: Sketch 48.1 (47250) - http://www.bohemiancoding.com/sketch -->
    <title>Group 2</title>
    <desc>Created with Sketch.</desc>
    <defs></defs>
    <g id="0.1-menu" stroke="none" stroke-width="1" fill="none" fill-rule="evenodd" transform="translate(-67.000000, -504.000000)">
        <g id="Group-10" transform="translate(0.000000, 51.000000)" fill="#000000">
            <g id="Group" transform="translate(67.000000, 451.000000)">
                <g id="Group-22">
                    <g id="Group-32">
                        <g id="Group-13" transform="translate(0.000000, 1.000000)">
                            <g id="Group-2" transform="translate(0.000000, 1.000000)">
                                <path d="M5,8.12612613 L0.666666667,8.12612613 C0,8.15412613 0,8.79279279 0,8.79279279 L0,10.7927928 C0,10.7927928 0,11.4594595 0.666666667,11.4594595 L3.33333333,11.4594595 L5,8.12612613 L5,8.12612613 Z" id="Shape"></path>
                                <path d="M3.312,16.5847928 L2.10733333,15.8941261 C1.88666667,15.7674595 1.68333333,15.8714595 1.654,16.1227928 L1.44533333,17.9367928 C1.41666667,18.1907928 1.56466667,18.2807928 1.77533333,18.1367928 L3.33066667,17.0787928 C3.542,16.9334595 3.53333333,16.7114595 3.312,16.5847928 L3.312,16.5847928 Z" id="Shape"></path>
                                <path d="M9.916,6.16479279 C10.0433333,5.94545946 9.96733333,5.66145946 9.746,5.53345946 L8.54266667,4.84412613 C8.322,4.71612613 8.03666667,4.79412613 7.91133333,5.01345946 L6.06466667,8.23079279 L4.02933333,11.7747928 L2.33133333,14.7321261 C2.20466667,14.9527928 2.282,15.2374595 2.50133333,15.3627928 L3.706,16.0541261 C3.92666667,16.1814595 4.21066667,16.1047928 4.338,15.8854595 L6.69933333,11.7747928 L8.224,9.11545946 L9.916,6.16479279 L9.916,6.16479279 Z" id="Shape"></path>
                                <polygon id="Shape" points="9.66666667 8.12612613 8 11.4594595 13 11.4594595 11.3333333 8.12612613"></polygon>
                                <path d="M16.4646667,11.8194595 C16.458,11.8081261 16.45,11.7914595 16.4406667,11.7754595 C16.3293333,11.5674595 16.048,11.0294595 15.6806667,10.3314595 C15.676,10.3207928 15.6706667,10.3134595 15.6666667,10.3021261 C15.6373333,10.2487928 15.6086667,10.1954595 15.5793333,10.1407928 C15.5586667,10.1021261 15.5366667,10.0594595 15.516,10.0181261 C15.4973333,9.98479279 15.478,9.95012613 15.46,9.91412613 C15.4273333,9.85212613 15.3953333,9.78945946 15.3613333,9.72612613 C15.3513333,9.70745946 15.3413333,9.68745946 15.33,9.66679279 C15.292,9.59679279 15.254,9.52345946 15.216,9.45212613 C15.204,9.43079279 15.194,9.40945946 15.1833333,9.38812613 C14.334,7.78412613 13.268,5.80945946 12.6113333,4.76945946 C11.4606667,2.94945946 9.92333333,-0.0818738739 9.49333333,0.131459459 C8.89333333,0.432126126 10.7526667,4.28212613 11.3686667,5.72945946 C11.9846667,7.17545946 14.3873333,12.7201261 14.8686667,12.9634595 C15.3513333,13.2027928 15.5373333,13.0687928 15.86,12.9361261 C16.1826667,12.8041261 16.7606667,12.3554595 16.4646667,11.8194595 L16.4646667,11.8194595 Z" id="Shape"></path>
                                <path d="M17.838,14.6767928 L17.2646667,13.5747928 C17.134,13.3261261 16.8293333,13.2247928 16.5846667,13.3487928 L15.894,13.7041261 C15.65,13.8307928 15.574,14.1247928 15.7233333,14.3641261 L16.4486667,15.5114595 C16.598,15.7474595 16.9153333,15.8254595 17.15,15.6814595 L17.644,15.3867928 C17.8786667,15.2467928 17.9673333,14.9254595 17.838,14.6767928 L17.838,14.6767928 Z" id="Shape"></path>
                                <path d="M17.6593333,16.2701261 C17.4786667,16.4447928 17.05,16.8174595 17.5686667,17.5481261 C18.088,18.2801261 19.246,18.3114595 19.398,18.7987928 C19.3986667,18.7987928 19.7633333,15.0847928 17.6593333,16.2701261 L17.6593333,16.2701261 Z" id="Shape"></path>
                                <path d="M15.6666667,8.12612613 L19.3333333,8.12612613 C20,8.15412613 20,8.79279279 20,8.79279279 L20,10.7927928 C20,10.7927928 20,11.4594595 19.3333333,11.4594595 L17.3333333,11.4594595 L15.6666667,8.12612613 L15.6666667,8.12612613 Z" id="Shape"></path>
                            </g>
                        </g>
                    </g>
                </g>
            </g>
        </g>
    </g>
</svg>