<?xml version="1.0" encoding="utf-8" ?>
<svg xmlns="http://www.w3.org/2000/svg" xmlns:xlink="http://www.w3.org/1999/xlink" width="15" height="16">
	<defs>
		<clipPath id="clip_0">
			<path d="M34 -156L-862 -156Q-862.205 -156 -862.407 -155.981Q-862.609 -155.963 -862.806 -155.926Q-863.003 -155.888 -863.193 -155.833Q-863.384 -155.778 -863.567 -155.705Q-863.749 -155.632 -863.923 -155.542Q-864.096 -155.451 -864.258 -155.345Q-864.42 -155.238 -864.57 -155.116Q-864.721 -154.994 -864.857 -154.857Q-864.994 -154.72 -865.116 -154.57Q-865.238 -154.42 -865.345 -154.258Q-865.451 -154.096 -865.542 -153.923Q-865.632 -153.749 -865.705 -153.567Q-865.778 -153.384 -865.833 -153.193Q-865.889 -153.003 -865.926 -152.806Q-865.963 -152.609 -865.981 -152.407Q-866 -152.205 -866 -152L-866 670Q-866 670.205 -865.982 670.407Q-865.963 670.609 -865.926 670.806Q-865.889 671.003 -865.833 671.193Q-865.778 671.384 -865.705 671.567Q-865.632 671.749 -865.542 671.923Q-865.451 672.096 -865.345 672.258Q-865.238 672.42 -865.116 672.57Q-864.994 672.72 -864.857 672.857Q-864.721 672.994 -864.57 673.116Q-864.42 673.238 -864.258 673.345Q-864.096 673.451 -863.923 673.542Q-863.749 673.632 -863.567 673.705Q-863.384 673.778 -863.193 673.833Q-863.003 673.888 -862.806 673.926Q-862.609 673.963 -862.407 673.981Q-862.205 674 -862 674L34 674Q34.205 674 34.4069 673.981Q34.6087 673.963 34.8057 673.926Q35.0028 673.888 35.1934 673.833Q35.384 673.778 35.5667 673.705Q35.7493 673.632 35.9225 673.542Q36.0957 673.451 36.258 673.345Q36.4203 673.238 36.5704 673.116Q36.7205 672.994 36.8571 672.857Q36.9938 672.72 37.116 672.57Q37.2381 672.42 37.3447 672.258Q37.4513 672.096 37.5415 671.923Q37.6317 671.749 37.7048 671.567Q37.7778 671.384 37.8331 671.193Q37.8885 671.003 37.9256 670.806Q37.9627 670.609 37.9814 670.407Q38 670.205 38 670L38 -152Q38 -152.205 37.9814 -152.407Q37.9627 -152.609 37.9256 -152.806Q37.8885 -153.003 37.8331 -153.193Q37.7778 -153.384 37.7048 -153.567Q37.6317 -153.749 37.5415 -153.923Q37.4513 -154.096 37.3447 -154.258Q37.2381 -154.42 37.116 -154.57Q36.9938 -154.72 36.8571 -154.857Q36.7205 -154.994 36.5704 -155.116Q36.4203 -155.238 36.258 -155.345Q36.0957 -155.451 35.9225 -155.542Q35.7493 -155.632 35.5667 -155.705Q35.384 -155.778 35.1934 -155.833Q35.0028 -155.888 34.8057 -155.926Q34.6087 -155.963 34.4069 -155.981Q34.205 -156 34 -156Z" clip-rule="evenodd"/>
		</clipPath>
	</defs>
	<g clip-path="url(#clip_0)">
		<path fill="none" stroke="rgb(128,128,128)" stroke-width="1" stroke-miterlimit="4" transform="translate(0.355743 0.0600586)" d="M4.81314 15.51L6.54927 15.51L8.90975 13.7949L8.90975 8.05411L13.6624 0.809924C13.6624 0.809924 13.8787 0 13.2736 0C12.6684 0 1.05132 0 0.382616 0C-0.285671 0 0.124644 0.782435 0.124644 0.782435L4.81923 7.96344L4.81314 15.51Z"/>
	</g>
	<defs>
		<clipPath id="clip_1">
			<path d="M34 -156L-862 -156Q-862.205 -156 -862.407 -155.981Q-862.609 -155.963 -862.806 -155.926Q-863.003 -155.888 -863.193 -155.833Q-863.384 -155.778 -863.567 -155.705Q-863.749 -155.632 -863.923 -155.542Q-864.096 -155.451 -864.258 -155.345Q-864.42 -155.238 -864.57 -155.116Q-864.721 -154.994 -864.857 -154.857Q-864.994 -154.72 -865.116 -154.57Q-865.238 -154.42 -865.345 -154.258Q-865.451 -154.096 -865.542 -153.923Q-865.632 -153.749 -865.705 -153.567Q-865.778 -153.384 -865.833 -153.193Q-865.889 -153.003 -865.926 -152.806Q-865.963 -152.609 -865.981 -152.407Q-866 -152.205 -866 -152L-866 670Q-866 670.205 -865.982 670.407Q-865.963 670.609 -865.926 670.806Q-865.889 671.003 -865.833 671.193Q-865.778 671.384 -865.705 671.567Q-865.632 671.749 -865.542 671.923Q-865.451 672.096 -865.345 672.258Q-865.238 672.42 -865.116 672.57Q-864.994 672.72 -864.857 672.857Q-864.721 672.994 -864.57 673.116Q-864.42 673.238 -864.258 673.345Q-864.096 673.451 -863.923 673.542Q-863.749 673.632 -863.567 673.705Q-863.384 673.778 -863.193 673.833Q-863.003 673.888 -862.806 673.926Q-862.609 673.963 -862.407 673.981Q-862.205 674 -862 674L34 674Q34.205 674 34.4069 673.981Q34.6087 673.963 34.8057 673.926Q35.0028 673.888 35.1934 673.833Q35.384 673.778 35.5667 673.705Q35.7493 673.632 35.9225 673.542Q36.0957 673.451 36.258 673.345Q36.4203 673.238 36.5704 673.116Q36.7205 672.994 36.8571 672.857Q36.9938 672.72 37.116 672.57Q37.2381 672.42 37.3447 672.258Q37.4513 672.096 37.5415 671.923Q37.6317 671.749 37.7048 671.567Q37.7778 671.384 37.8331 671.193Q37.8885 671.003 37.9256 670.806Q37.9627 670.609 37.9814 670.407Q38 670.205 38 670L38 -152Q38 -152.205 37.9814 -152.407Q37.9627 -152.609 37.9256 -152.806Q37.8885 -153.003 37.8331 -153.193Q37.7778 -153.384 37.7048 -153.567Q37.6317 -153.749 37.5415 -153.923Q37.4513 -154.096 37.3447 -154.258Q37.2381 -154.42 37.116 -154.57Q36.9938 -154.72 36.8571 -154.857Q36.7205 -154.994 36.5704 -155.116Q36.4203 -155.238 36.258 -155.345Q36.0957 -155.451 35.9225 -155.542Q35.7493 -155.632 35.5667 -155.705Q35.384 -155.778 35.1934 -155.833Q35.0028 -155.888 34.8057 -155.926Q34.6087 -155.963 34.4069 -155.981Q34.205 -156 34 -156Z" clip-rule="evenodd"/>
		</clipPath>
	</defs>
	<g clip-path="url(#clip_1)">
		<path fill="none" stroke="rgb(128,128,128)" stroke-width="1" stroke-miterlimit="4" transform="translate(5.17422 8)" d="M0 0L4.13532 0"/>
	</g>
	<defs>
		<clipPath id="clip_2">
			<path d="M34 -156L-862 -156Q-862.205 -156 -862.407 -155.981Q-862.609 -155.963 -862.806 -155.926Q-863.003 -155.888 -863.193 -155.833Q-863.384 -155.778 -863.567 -155.705Q-863.749 -155.632 -863.923 -155.542Q-864.096 -155.451 -864.258 -155.345Q-864.42 -155.238 -864.57 -155.116Q-864.721 -154.994 -864.857 -154.857Q-864.994 -154.72 -865.116 -154.57Q-865.238 -154.42 -865.345 -154.258Q-865.451 -154.096 -865.542 -153.923Q-865.632 -153.749 -865.705 -153.567Q-865.778 -153.384 -865.833 -153.193Q-865.889 -153.003 -865.926 -152.806Q-865.963 -152.609 -865.981 -152.407Q-866 -152.205 -866 -152L-866 670Q-866 670.205 -865.982 670.407Q-865.963 670.609 -865.926 670.806Q-865.889 671.003 -865.833 671.193Q-865.778 671.384 -865.705 671.567Q-865.632 671.749 -865.542 671.923Q-865.451 672.096 -865.345 672.258Q-865.238 672.42 -865.116 672.57Q-864.994 672.72 -864.857 672.857Q-864.721 672.994 -864.57 673.116Q-864.42 673.238 -864.258 673.345Q-864.096 673.451 -863.923 673.542Q-863.749 673.632 -863.567 673.705Q-863.384 673.778 -863.193 673.833Q-863.003 673.888 -862.806 673.926Q-862.609 673.963 -862.407 673.981Q-862.205 674 -862 674L34 674Q34.205 674 34.4069 673.981Q34.6087 673.963 34.8057 673.926Q35.0028 673.888 35.1934 673.833Q35.384 673.778 35.5667 673.705Q35.7493 673.632 35.9225 673.542Q36.0957 673.451 36.258 673.345Q36.4203 673.238 36.5704 673.116Q36.7205 672.994 36.8571 672.857Q36.9938 672.72 37.116 672.57Q37.2381 672.42 37.3447 672.258Q37.4513 672.096 37.5415 671.923Q37.6317 671.749 37.7048 671.567Q37.7778 671.384 37.8331 671.193Q37.8885 671.003 37.9256 670.806Q37.9627 670.609 37.9814 670.407Q38 670.205 38 670L38 -152Q38 -152.205 37.9814 -152.407Q37.9627 -152.609 37.9256 -152.806Q37.8885 -153.003 37.8331 -153.193Q37.7778 -153.384 37.7048 -153.567Q37.6317 -153.749 37.5415 -153.923Q37.4513 -154.096 37.3447 -154.258Q37.2381 -154.42 37.116 -154.57Q36.9938 -154.72 36.8571 -154.857Q36.7205 -154.994 36.5704 -155.116Q36.4203 -155.238 36.258 -155.345Q36.0957 -155.451 35.9225 -155.542Q35.7493 -155.632 35.5667 -155.705Q35.384 -155.778 35.1934 -155.833Q35.0028 -155.888 34.8057 -155.926Q34.6087 -155.963 34.4069 -155.981Q34.205 -156 34 -156Z" clip-rule="evenodd"/>
		</clipPath>
	</defs>
	<g clip-path="url(#clip_2)">
		<path fill="none" stroke="rgb(128,128,128)" stroke-width="0.5" stroke-miterlimit="4" transform="translate(8.50394 0.110718)" d="M0 5.51914L3.66637 0"/>
	</g>
</svg>
