<svg width="17" height="19" viewBox="0 0 17 19" fill="none" xmlns="http://www.w3.org/2000/svg">
<path d="M7.83447 11.4419V11.0991C7.83447 10.604 7.91064 10.1978 8.06299 9.88037C8.21533 9.55876 8.49886 9.22021 8.91357 8.86475C9.4891 8.37809 9.85091 8.01204 9.99902 7.7666C10.1514 7.52116 10.2275 7.22493 10.2275 6.87793C10.2275 6.44629 10.0879 6.1141 9.80859 5.88135C9.53353 5.64437 9.13574 5.52588 8.61523 5.52588C8.28092 5.52588 7.95508 5.56608 7.6377 5.64648C7.32031 5.72266 6.95638 5.86442 6.5459 6.07178L6.17139 5.21484C6.97119 4.7959 7.80697 4.58643 8.67871 4.58643C9.48698 4.58643 10.1154 4.78532 10.564 5.18311C11.0125 5.58089 11.2368 6.1416 11.2368 6.86523C11.2368 7.17415 11.1945 7.4471 11.1099 7.68408C11.0295 7.91683 10.9089 8.139 10.748 8.35059C10.5872 8.55794 10.2402 8.89437 9.70703 9.35986C9.27962 9.7238 8.99609 10.0264 8.85645 10.2676C8.72103 10.5088 8.65332 10.8304 8.65332 11.2324V11.4419H7.83447ZM7.52344 13.3271C7.52344 12.7516 7.77734 12.4639 8.28516 12.4639C8.5306 12.4639 8.71891 12.5379 8.8501 12.686C8.98551 12.8341 9.05322 13.0479 9.05322 13.3271C9.05322 13.598 8.98551 13.8096 8.8501 13.9619C8.71468 14.11 8.52637 14.1841 8.28516 14.1841C8.0651 14.1841 7.88314 14.1185 7.73926 13.9873C7.59538 13.8519 7.52344 13.6318 7.52344 13.3271Z" fill="#808080"/>
<path fill-rule="evenodd" clip-rule="evenodd" d="M8.5 17C12.6421 17 16 13.6421 16 9.5C16 5.35786 12.6421 2 8.5 2C4.35786 2 1 5.35786 1 9.5C1 13.6421 4.35786 17 8.5 17Z" stroke="#808080" stroke-width="0.8"/>
</svg>
