<?xml version="1.0" encoding="UTF-8"?>
<svg width="21px" height="23px" viewBox="0 0 21 23" version="1.1" xmlns="http://www.w3.org/2000/svg" xmlns:xlink="http://www.w3.org/1999/xlink">
    <!-- Generator: Sketch 48.1 (47250) - http://www.bohemiancoding.com/sketch -->
    <title>Group 3</title>
    <desc>Created with Sketch.</desc>
    <defs></defs>
    <g id="0.1-menu" stroke="none" stroke-width="1" fill="none" fill-rule="evenodd" transform="translate(-198.000000, -502.000000)">
        <g id="Group-10" transform="translate(0.000000, 51.000000)" fill="#000000">
            <g id="Group" transform="translate(67.000000, 451.000000)">
                <g id="Group-22">
                    <g id="Group-32">
                        <g id="Group-12" transform="translate(131.000000, 0.000000)">
                            <g id="Group-Copy-2">
                                <g id="Group-3">
                                    <path d="M0.436625,21.6222375 L10.9171125,11.1875052 L0.436625,0.732644909 C0.1785,1.14839252 0,1.82170105 0,2.79164781 L0,11.1874616 L0,19.5627979 C0,20.5328757 0.1785,21.2060969 0.436625,21.6222375 L0.436625,21.6222375 L0.436625,21.6222375 Z" id="Shape"></path>
                                    <path d="M1.70681875,0 L11.9093188,10.1970374 L15.343475,6.75185988 L4.6445,0.970034085 C3.43380625,0.316853642 2.67955625,0 1.80630625,0 L1.70681875,0 L1.70681875,0 L1.70681875,0 Z" id="Shape"></path>
                                    <path d="M16.6331375,7.44490354 L12.9015687,11.1874616 L16.6331375,14.9099352 L18.8959312,13.6820782 C19.7294562,13.2264237 21,12.3948848 21,11.1874616 C21,9.95960459 19.7294562,9.12806571 18.8958875,8.67241123 L16.6331375,7.44490354 L16.6331375,7.44490354 Z" id="Shape"></path>
                                    <path d="M15.343475,15.6023239 L11.9093188,12.1575393 L1.70681875,22.3548387 L1.80630625,22.3548387 C2.6795125,22.3548387 3.43380625,22.0376358 4.6445,21.3841934 L15.343475,15.6023239 L15.343475,15.6023239 Z" id="Shape"></path>
                                </g>
                            </g>
                        </g>
                    </g>
                </g>
            </g>
        </g>
    </g>
</svg>