<?xml version="1.0" encoding="UTF-8"?>
<svg width="20px" height="13px" viewBox="0 0 20 13" version="1.1" xmlns="http://www.w3.org/2000/svg" xmlns:xlink="http://www.w3.org/1999/xlink">
    <!-- Generator: Sketch 48.1 (47250) - http://www.bohemiancoding.com/sketch -->
    <title>Group</title>
    <desc>Created with Sketch.</desc>
    <defs></defs>
    <g id="5.2-money" stroke="none" stroke-width="1" fill="none" fill-rule="evenodd" transform="translate(-249.000000, -349.000000)">
        <g id="form" transform="translate(227.000000, 170.000000)" fill="#000000">
            <g id="Group-34">
                <g id="Rectangle-19">
                    <g id="Group-13" transform="translate(22.000000, 87.000000)">
                        <g id="Group-17" transform="translate(0.000000, 87.000000)">
                            <g id="Group" transform="translate(0.000000, 5.000000)">
                                <path d="M10.5,7 C10.2,7.1 10,7.2 9.7,7.2 C9.4,7.2 9.1,7.1 8.9,7 L0,2.5 L0,11.7 C0,12.3 0.4,12.7 1,12.7 L18.5,12.7 C19.1,12.7 19.5,12.3 19.5,11.7 L19.5,2.5 L10.5,7 L10.5,7 Z" id="Shape"></path>
                                <path d="M9.5,5.7 L9.8,5.7 L19.2,1 C19,0.7 18.7,0.5 18.4,0.5 L0.9,0.5 C0.5,0.5 0.2,0.7 0.1,1 L9.5,5.7 L9.5,5.7 Z" id="Shape"></path>
                            </g>
                        </g>
                    </g>
                </g>
            </g>
        </g>
    </g>
</svg>