<svg width="20" height="20" viewBox="0 0 20 20" fill="none" xmlns="http://www.w3.org/2000/svg">
<g id="Truck" clip-path="url(#clip0_15_703)">
<g id="Vector">
<mask id="path-1-inside-1_15_703" fill="white">
<path d="M17.21 0.5V14.7H2.78998V0.5H17.21ZM17.35 0H2.78998C2.50998 0 2.28998 0.22 2.28998 0.5V14.7C2.28998 14.98 2.50998 15.2 2.78998 15.2H17.35C17.55 15.2 17.71 15.04 17.71 14.84V0.36C17.71 0.16 17.55 0 17.35 0Z"/>
</mask>
<path d="M17.21 0.5V14.7H2.78998V0.5H17.21ZM17.35 0H2.78998C2.50998 0 2.28998 0.22 2.28998 0.5V14.7C2.28998 14.98 2.50998 15.2 2.78998 15.2H17.35C17.55 15.2 17.71 15.04 17.71 14.84V0.36C17.71 0.16 17.55 0 17.35 0Z" fill="#ED1C24"/>
<path d="M17.21 0.5H18.21V-0.5H17.21V0.5ZM17.21 14.7V15.7H18.21V14.7H17.21ZM2.78998 14.7H1.78998V15.7H2.78998V14.7ZM2.78998 0.5V-0.5H1.78998V0.5H2.78998ZM16.21 0.5V14.7H18.21V0.5H16.21ZM17.21 13.7H2.78998V15.7H17.21V13.7ZM3.78998 14.7V0.5H1.78998V14.7H3.78998ZM2.78998 1.5H17.21V-0.5H2.78998V1.5ZM17.35 -1H2.78998V1H17.35V-1ZM2.78998 -1C1.95769 -1 1.28998 -0.332285 1.28998 0.5H3.28998C3.28998 0.772285 3.06226 1 2.78998 1V-1ZM1.28998 0.5V14.7H3.28998V0.5H1.28998ZM1.28998 14.7C1.28998 15.5323 1.95769 16.2 2.78998 16.2V14.2C3.06226 14.2 3.28998 14.4277 3.28998 14.7H1.28998ZM2.78998 16.2H17.35V14.2H2.78998V16.2ZM17.35 16.2C18.1023 16.2 18.71 15.5923 18.71 14.84H16.71C16.71 14.4877 16.9977 14.2 17.35 14.2V16.2ZM18.71 14.84V0.36H16.71V14.84H18.71ZM18.71 0.36C18.71 -0.39228 18.1023 -1 17.35 -1V1C16.9977 1 16.71 0.71228 16.71 0.36H18.71Z" fill="#FF2200" mask="url(#path-1-inside-1_15_703)"/>
</g>
<g id="Vector_2">
<mask id="path-3-inside-2_15_703" fill="white">
<path d="M2.24002 7.48V10.55H1.08002V7.48H2.24002ZM2.34002 6.98H0.980017C0.760017 6.98 0.580017 7.16 0.580017 7.38V10.65C0.580017 10.87 0.760017 11.05 0.980017 11.05H2.35002C2.57002 11.05 2.75002 10.87 2.75002 10.65V7.38C2.75002 7.16 2.57002 6.98 2.35002 6.98H2.34002Z"/>
</mask>
<path d="M2.24002 7.48V10.55H1.08002V7.48H2.24002ZM2.34002 6.98H0.980017C0.760017 6.98 0.580017 7.16 0.580017 7.38V10.65C0.580017 10.87 0.760017 11.05 0.980017 11.05H2.35002C2.57002 11.05 2.75002 10.87 2.75002 10.65V7.38C2.75002 7.16 2.57002 6.98 2.35002 6.98H2.34002Z" fill="#FF2200"/>
<path d="M2.24002 7.48H3.24002V6.48H2.24002V7.48ZM2.24002 10.55V11.55H3.24002V10.55H2.24002ZM1.08002 10.55H0.0800171V11.55H1.08002V10.55ZM1.08002 7.48V6.48H0.0800171V7.48H1.08002ZM1.24002 7.48V10.55H3.24002V7.48H1.24002ZM2.24002 9.55H1.08002V11.55H2.24002V9.55ZM2.08002 10.55V7.48H0.0800171V10.55H2.08002ZM1.08002 8.48H2.24002V6.48H1.08002V8.48ZM2.34002 5.98H0.980017V7.98H2.34002V5.98ZM0.980017 5.98C0.207732 5.98 -0.419983 6.60772 -0.419983 7.38H1.58002C1.58002 7.71229 1.3123 7.98 0.980017 7.98V5.98ZM-0.419983 7.38V10.65H1.58002V7.38H-0.419983ZM-0.419983 10.65C-0.419983 11.4223 0.207731 12.05 0.980017 12.05V10.05C1.3123 10.05 1.58002 10.3177 1.58002 10.65H-0.419983ZM0.980017 12.05H2.35002V10.05H0.980017V12.05ZM2.35002 12.05C3.1223 12.05 3.75002 11.4223 3.75002 10.65H1.75002C1.75002 10.3177 2.01773 10.05 2.35002 10.05V12.05ZM3.75002 10.65V7.38H1.75002V10.65H3.75002ZM3.75002 7.38C3.75002 6.60772 3.1223 5.98 2.35002 5.98V7.98C2.01773 7.98 1.75002 7.71229 1.75002 7.38H3.75002ZM2.35002 5.98H2.34002V7.98H2.35002V5.98Z" fill="#FF2200" mask="url(#path-3-inside-2_15_703)"/>
</g>
<g id="Vector_3">
<mask id="path-5-inside-3_15_703" fill="white">
<path d="M18.89 7.48V10.55H17.73V7.48H18.89ZM18.99 6.98H17.62C17.4 6.98 17.22 7.16 17.22 7.38V10.65C17.22 10.87 17.4 11.05 17.62 11.05H18.99C19.21 11.05 19.39 10.87 19.39 10.65V7.38C19.39 7.16 19.21 6.98 18.99 6.98Z"/>
</mask>
<path d="M18.89 7.48V10.55H17.73V7.48H18.89ZM18.99 6.98H17.62C17.4 6.98 17.22 7.16 17.22 7.38V10.65C17.22 10.87 17.4 11.05 17.62 11.05H18.99C19.21 11.05 19.39 10.87 19.39 10.65V7.38C19.39 7.16 19.21 6.98 18.99 6.98Z" fill="#FF2200"/>
<path d="M18.89 7.48H19.89V6.48H18.89V7.48ZM18.89 10.55V11.55H19.89V10.55H18.89ZM17.73 10.55H16.73V11.55H17.73V10.55ZM17.73 7.48V6.48H16.73V7.48H17.73ZM17.89 7.48V10.55H19.89V7.48H17.89ZM18.89 9.55H17.73V11.55H18.89V9.55ZM18.73 10.55V7.48H16.73V10.55H18.73ZM17.73 8.48H18.89V6.48H17.73V8.48ZM18.99 5.98H17.62V7.98H18.99V5.98ZM17.62 5.98C16.8477 5.98 16.22 6.60771 16.22 7.38H18.22C18.22 7.71229 17.9523 7.98 17.62 7.98V5.98ZM16.22 7.38V10.65H18.22V7.38H16.22ZM16.22 10.65C16.22 11.4223 16.8477 12.05 17.62 12.05V10.05C17.9523 10.05 18.22 10.3177 18.22 10.65H16.22ZM17.62 12.05H18.99V10.05H17.62V12.05ZM18.99 12.05C19.7623 12.05 20.39 11.4223 20.39 10.65H18.39C18.39 10.3177 18.6577 10.05 18.99 10.05V12.05ZM20.39 10.65V7.38H18.39V10.65H20.39ZM20.39 7.38C20.39 6.60772 19.7623 5.98 18.99 5.98V7.98C18.6577 7.98 18.39 7.71229 18.39 7.38H20.39Z" fill="#FF2200" mask="url(#path-5-inside-3_15_703)"/>
</g>
<path id="Vector_4" d="M5.66055 3H14.3394C15.2569 3 16 3.8 16 4.78765V15H4V4.78765C4 3.8 4.74312 3 5.66055 3Z" stroke="#FF2200" stroke-miterlimit="10"/>
<path id="Vector_5" d="M5.48288 5H14.5083C14.7805 5 15 5.22971 15 5.51455V9.17152C15 10.1822 13.1738 11 12.2081 11H7.79192C6.82616 11 5 10.1822 5 9.17152V5.51455C5 5.22971 5.21949 5 5.49166 5H5.48288Z" stroke="#FF2200" stroke-width="0.5" stroke-miterlimit="10"/>
<path id="Vector_6" d="M16.67 17.14H3.34002C2.76002 17.14 2.30002 16.67 2.30002 16.1V15.29C2.30002 15.29 2.34002 15.21 2.38002 15.21L17.63 15.21C17.63 15.21 17.71 15.25 17.71 15.29V16.1C17.71 16.68 17.24 17.14 16.67 17.14Z" stroke="#FF2200" stroke-width="0.5" stroke-miterlimit="10"/>
<path id="Vector_7" d="M6.28002 17.64V19.19C6.28002 19.36 6.14002 19.5 5.97002 19.5H4.15002C3.98002 19.5 3.84002 19.36 3.84002 19.19V17.64H6.28002ZM6.78002 17.14H3.33002V19.19C3.33002 19.64 3.69002 20 4.14002 20H5.96002C6.41002 20 6.77002 19.64 6.77002 19.19V17.14H6.78002Z" fill="#FF2200" stroke="#FF2200" stroke-width="0.5"/>
<path id="Vector_8" d="M16 15H14V13.1441C14 12.5135 14.6786 12 15.5119 12H16V15Z" stroke="#FF2200" stroke-miterlimit="10"/>
<path id="Vector_9" d="M4 12H4.4881C5.32143 12 6 12.5135 6 13.1441V15H4V12Z" stroke="#FF2200" stroke-miterlimit="10"/>
<path id="Vector_10" d="M16.12 17.64V19.19C16.12 19.36 15.98 19.5 15.81 19.5H13.99C13.82 19.5 13.68 19.36 13.68 19.19V17.64H16.12ZM16.62 17.14H13.18V19.19C13.18 19.64 13.54 20 13.99 20H15.81C16.26 20 16.62 19.64 16.62 19.19V17.14Z" fill="#FF2200" stroke="#FF2200" stroke-width="0.5"/>
<path id="Vector_11" d="M13.32 12.18H6.74002C6.74002 12.18 6.65002 12.22 6.65002 12.27V12.55C6.65002 12.55 6.69002 12.64 6.74002 12.64H13.32C13.32 12.64 13.41 12.6 13.41 12.55V12.27C13.41 12.27 13.37 12.18 13.32 12.18Z" fill="#FF2200"/>
<path id="Vector_12" d="M13.32 13.65H6.74002C6.74002 13.65 6.65002 13.69 6.65002 13.74V14.02C6.65002 14.02 6.69002 14.11 6.74002 14.11H13.32C13.32 14.11 13.41 14.07 13.41 14.02V13.74C13.41 13.74 13.37 13.65 13.32 13.65Z" fill="#FF2200"/>
</g>
<defs>
<clipPath id="clip0_15_703">
<rect width="20" height="20" fill="white"/>
</clipPath>
</defs>
</svg>
