<?xml version="1.0" encoding="UTF-8"?>
<svg width="15px" height="15px" viewBox="0 0 15 15" version="1.1" xmlns="http://www.w3.org/2000/svg" xmlns:xlink="http://www.w3.org/1999/xlink">
    <!-- Generator: Sketch 53.1 (72631) - https://sketchapp.com -->
    <title>Rectangle 21 Copy</title>
    <desc>Created with Sketch.</desc>
    <g id="Final" stroke="none" stroke-width="1" fill="none" fill-rule="evenodd">
        <g id="Form_general" transform="translate(-484.000000, -6028.000000)" fill="#FCFCFC" stroke="#B3B3B3">
            <path d="M486.563885,6028.5 C485.826551,6028.5 485.54702,6028.55398 485.258954,6028.70804 C485.020162,6028.83575 484.835746,6029.02016 484.708039,6029.25895 C484.55398,6029.54702 484.5,6029.82655 484.5,6030.56389 L484.5,6040.43611 C484.5,6041.17345 484.55398,6041.45298 484.708039,6041.74105 C484.835746,6041.97984 485.020162,6042.16425 485.258954,6042.29196 C485.54702,6042.44602 485.826551,6042.5 486.563885,6042.5 L496.436115,6042.5 C497.173449,6042.5 497.45298,6042.44602 497.741046,6042.29196 C497.979838,6042.16425 498.164254,6041.97984 498.291961,6041.74105 C498.44602,6041.45298 498.5,6041.17345 498.5,6040.43611 L498.5,6030.56389 C498.5,6029.82655 498.44602,6029.54702 498.291961,6029.25895 C498.164254,6029.02016 497.979838,6028.83575 497.741046,6028.70804 C497.45298,6028.55398 497.173449,6028.5 496.436115,6028.5 L486.563885,6028.5 Z" id="Rectangle-21-Copy"></path>
        </g>
    </g>
</svg>