<svg width="28" height="27" viewBox="0 0 28 27" fill="none" xmlns="http://www.w3.org/2000/svg">
<path d="M27.4458 9.14979C27.3391 8.89852 27.0925 8.73533 26.8193 8.73533H18.5171L14.6165 0.392513C14.5045 0.152885 14.2642 0 14 0C13.7358 0 13.4955 0.152885 13.3835 0.392513L9.48295 8.73533H1.1807C0.907498 8.73533 0.660893 8.89852 0.554206 9.14979C0.447518 9.40105 0.501032 9.69186 0.690802 9.88861L6.83872 16.2645L4.36633 26.1542C4.30019 26.4187 4.39824 26.6972 4.6156 26.8617C4.83295 27.0263 5.12776 27.0452 5.3644 26.9103L14 21.9754L22.6356 26.9103C22.7406 26.9704 22.857 27 22.9733 27C23.1185 27 23.2634 26.9535 23.3844 26.8617C23.6018 26.6972 23.6998 26.4187 23.6337 26.1542L21.1613 16.2645L27.3092 9.88861C27.499 9.69185 27.5525 9.40105 27.4458 9.14979Z" fill="#D9D9D9"/>
</svg>
