<?xml version="1.0" encoding="UTF-8"?>
<svg width="21px" height="21px" viewBox="0 0 21 21" version="1.1" xmlns="http://www.w3.org/2000/svg" xmlns:xlink="http://www.w3.org/1999/xlink">
    <!-- Generator: Sketch 48.1 (47250) - http://www.bohemiancoding.com/sketch -->
    <title>1498227514__Skype</title>
    <desc>Created with Sketch.</desc>
    <defs></defs>
    <g id="7.0-help" stroke="none" stroke-width="1" fill="none" fill-rule="evenodd" transform="translate(-60.000000, -423.000000)">
        <g id="TABLE" transform="translate(41.000000, 177.000000)" stroke="#FC261C">
            <g id="Group-9" transform="translate(20.000000, 185.000000)">
                <g id="Group-10" transform="translate(0.000000, 60.000000)">
                    <g id="1498227514__Skype" transform="translate(0.000000, 2.000000)">
                        <g id="Group">
                            <path d="M8.71346606,1.0359069 C8.97245707,1.01214423 9.23481032,1 9.5,1 C14.1944204,1 18,4.80557963 18,9.5 C18,9.76518968 17.9878558,10.0275429 17.9640931,10.2865339 C18.6159491,11.1904921 19,12.3003961 19,13.5 C19,16.5375661 16.5375661,19 13.5,19 C12.3003961,19 11.1904921,18.6159491 10.2865339,17.9640931 C10.0275429,17.9878558 9.76518968,18 9.5,18 C4.80557963,18 1,14.1944204 1,9.5 C1,9.23481032 1.01214423,8.97245707 1.0359069,8.71346606 C0.384050938,7.80950789 0,6.69960389 0,5.5 C0,2.46243388 2.46243388,0 5.5,0 C6.69960389,0 7.80950789,0.384050938 8.71346606,1.0359069 Z" id="Combined-Shape"></path>
                        </g>
                        <g id="Group" transform="translate(6.000000, 4.000000)" stroke-linecap="round">
                            <g id="Oval-5">
                                <path d="M6.9754205,2.7978329 C6.99165114,2.70017053 7,2.60078168 7,2.5 C7,1.11928813 5.43299662,0 3.5,0 C1.56700338,0 0,1.11928813 0,2.5 C0,3.88071187 1.56700338,5 3.5,5"></path>
                                <path d="M6.9754205,7.7978329 C6.99165114,7.70017053 7,7.60078168 7,7.5 C7,6.11928813 5.43299662,5 3.5,5 C1.56700338,5 0,6.11928813 0,7.5 C0,8.88071187 1.56700338,10 3.5,10" transform="translate(3.500000, 7.500000) rotate(-180.000000) translate(-3.500000, -7.500000) "></path>
                            </g>
                        </g>
                    </g>
                </g>
            </g>
        </g>
    </g>
</svg>