<svg width="62" height="62" viewBox="0 0 62 62" fill="none" xmlns="http://www.w3.org/2000/svg">
<path d="M20.427 26.439C19.464 24.41 17.395 23 15 23H7C3.686 23 1 25.686 1 29V37L5 39L6 53H17" stroke="#808080" stroke-width="2" stroke-miterlimit="10" stroke-linecap="round" stroke-linejoin="round"/>
<path d="M11 17C14.3137 17 17 14.3137 17 11C17 7.68629 14.3137 5 11 5C7.68629 5 5 7.68629 5 11C5 14.3137 7.68629 17 11 17Z" stroke="#808080" stroke-width="2" stroke-miterlimit="10" stroke-linecap="round" stroke-linejoin="round"/>
<path d="M41.5723 26.439C42.5353 24.41 44.6043 23 46.9993 23H54.9993C58.3133 23 60.9993 25.686 60.9993 29V37L56.9993 39L55.9993 53H44.9993" stroke="#808080" stroke-width="2" stroke-miterlimit="10" stroke-linecap="round" stroke-linejoin="round"/>
<path d="M51 17C54.3137 17 57 14.3137 57 11C57 7.68629 54.3137 5 51 5C47.6863 5 45 7.68629 45 11C45 14.3137 47.6863 17 51 17Z" stroke="#808080" stroke-width="2" stroke-miterlimit="10" stroke-linecap="round" stroke-linejoin="round"/>
<path d="M37 61H25L24 45L19 44V31C19 26.582 22.582 23 27 23H35C39.418 23 43 26.582 43 31V44L38 45L37 61Z" stroke="#808080" stroke-width="2" stroke-miterlimit="10" stroke-linecap="round" stroke-linejoin="round"/>
<path d="M31 17C35.4183 17 39 13.4183 39 9C39 4.58172 35.4183 1 31 1C26.5817 1 23 4.58172 23 9C23 13.4183 26.5817 17 31 17Z" stroke="#808080" stroke-width="2" stroke-miterlimit="10" stroke-linecap="round" stroke-linejoin="round"/>
</svg>
