<?xml version="1.0" encoding="UTF-8"?>
<svg width="19px" height="17px" viewBox="0 0 19 17" version="1.1" xmlns="http://www.w3.org/2000/svg" xmlns:xlink="http://www.w3.org/1999/xlink">
    <!-- Generator: Sketch 48.1 (47250) - http://www.bohemiancoding.com/sketch -->
    <title>add info</title>
    <desc>Created with Sketch.</desc>
    <defs></defs>
    <g id="1.20-Look-order" stroke="none" stroke-width="1" fill="none" fill-rule="evenodd" transform="translate(-155.000000, -880.000000)">
        <g id="form" transform="translate(49.000000, 178.000000)" fill="#8E908F">
            <g id="map-info" transform="translate(20.000000, 649.000000)">
                <g id="A" transform="translate(0.000000, 30.000000)">
                    <path d="M86,25.0058587 C86,23.8980535 86.8909254,23 87.9974219,23 L103.002578,23 C104.105724,23 105,23.8970601 105,25.0058587 L105,34.9941413 C105,36.1019465 104.112798,37 102.998021,37 L90.8171231,37 L86.8390788,39.6521222 C86.3756684,39.9610733 86,39.7649785 86,39.2129845 L86,38.9973867 C86,37.8942605 86,36.1029399 86,34.9941413 L86,25.0058587 Z M96.6,30.6 L98.7,30.6 L98.7,29.1 L96.6,29.1 L96.6,27 L95.1,27 L95.1,29.1 L93,29.1 L93,30.6 L95.1,30.6 L95.1,32.7 L96.6,32.7 L96.6,30.6 Z" id="add-info"></path>
                </g>
            </g>
        </g>
    </g>
</svg>