<svg width="34" height="34" viewBox="0 0 34 34" fill="none" xmlns="http://www.w3.org/2000/svg">
<path fill-rule="evenodd" clip-rule="evenodd" d="M7.07107 21.2215C3.16784 17.3182 3.16784 10.9826 7.07107 7.07932C10.9743 3.17609 17.31 3.17609 21.2132 7.07932C25.1164 10.9826 25.1164 17.3182 21.2132 21.2215C17.31 25.1247 10.9743 25.1247 7.07107 21.2215ZM8.48528 19.8072C11.6036 22.9256 16.6806 22.9256 19.799 19.8072C22.9173 16.6889 22.9173 11.6119 19.799 8.49354C16.6806 5.3752 11.6036 5.3752 8.48528 8.49354C5.36694 11.6119 5.36694 16.6889 8.48528 19.8072Z" fill="#808080"/>
<path d="M19.7988 21.2214L21.213 19.8072L26.8699 25.4641C27.2604 25.8546 27.2604 26.4878 26.8699 26.8783C26.4794 27.2688 25.8462 27.2688 25.4557 26.8783L19.7988 21.2214Z" fill="#808080"/>
</svg>
