<?xml version="1.0" encoding="UTF-8"?>
<svg width="14px" height="14px" viewBox="0 0 14 14" version="1.1" xmlns="http://www.w3.org/2000/svg" xmlns:xlink="http://www.w3.org/1999/xlink">
    <!-- Generator: sketchtool 51.1 (57501) - http://www.bohemiancoding.com/sketch -->
    <title>5391D7A8-3FEB-4563-8399-1656F2926FD5</title>
    <desc>Created with sketchtool.</desc>
    <defs></defs>
    <g id="Finel" stroke="none" stroke-width="1" fill="none" fill-rule="evenodd">
        <g id="--Reviews_Sorting-by-date" transform="translate(-39.000000, -367.000000)">
            <rect fill="#FFFFFF" x="0" y="0" width="1000" height="3107"></rect>
            <g id="Order-1" transform="translate(40.000000, 362.000000)" fill="#000000" fill-rule="nonzero" stroke="#000000" stroke-width="0.1">
                <g transform="translate(0.000000, 1.000000)" id="Shape">
                    <path d="M10.6666667,15.6666667 L1.33333333,15.6666667 L1.33333333,6.33333333 L6,6.33333333 L6,5 L1.33333333,5 C0.593333333,5 0,5.6 0,6.33333333 L0,15.6666667 C0,16.4 0.593333333,17 1.33333333,17 L10.6666667,17 C11.4,17 12,16.4 12,15.6666667 L12,11 L10.6666667,11 L10.6666667,15.6666667 Z M7.33333333,5 L7.33333333,6.33333333 L9.72666667,6.33333333 L3.17333333,12.8866667 L4.11333333,13.8266667 L10.6666667,7.27333333 L10.6666667,9.66666667 L12,9.66666667 L12,5 L7.33333333,5 Z"></path>
                </g>
            </g>
        </g>
    </g>
</svg>