<svg width="24" height="24" viewBox="0 0 24 24" fill="none" xmlns="http://www.w3.org/2000/svg">
<path fill-rule="evenodd" clip-rule="evenodd" d="M18.25 9H20.5L22.75 12V15.75H21.25C21.25 16.995 20.245 18 19 18C17.755 18 16.75 16.995 16.75 15.75H12.25C12.25 16.995 11.245 18 10 18C8.755 18 7.75 16.995 7.75 15.75H6.25V14.25H7.75H8.335C8.7475 13.7925 9.3325 13.5 10 13.5C10.6675 13.5 11.2525 13.7925 11.665 14.25H16.75V7.5H7.75V6H18.25V9ZM21.595 12L20.125 10.125H18.25V12H21.595ZM9.25 15.75C9.25 16.1625 9.5875 16.5 10 16.5C10.4125 16.5 10.75 16.1625 10.75 15.75C10.75 15.3375 10.4125 15 10 15C9.5875 15 9.25 15.3375 9.25 15.75ZM18.25 15.75C18.25 16.1625 18.5875 16.5 19 16.5C19.4125 16.5 19.75 16.1625 19.75 15.75C19.75 15.3375 19.4125 15 19 15C18.5875 15 18.25 15.3375 18.25 15.75Z" fill="black"/>
<path fill-rule="evenodd" clip-rule="evenodd" d="M5.125 7.5H3.625V10.125H1V11.625H3.625V14.25H5.125V11.625H7.75V10.125H5.125V7.5Z" fill="black"/>
</svg>
