<?xml version="1.0" encoding="UTF-8"?>
<svg width="13px" height="13px" viewBox="0 0 13 13" version="1.1" xmlns="http://www.w3.org/2000/svg" xmlns:xlink="http://www.w3.org/1999/xlink">
    <!-- Generator: Sketch 50 (54983) - http://www.bohemiancoding.com/sketch -->
    <title>Group 6</title>
    <desc>Created with Sketch.</desc>
    <defs></defs>
    <g id="Final" stroke="none" stroke-width="1" fill="none" fill-rule="evenodd">
        <g id="Driver_requisites" transform="translate(-838.000000, -1175.000000)" fill="#FD6262">
            <g id="Group-3" transform="translate(40.000000, 1161.000000)">
                <g id="Group-13">
                    <g id="Group-4-Copy">
                        <g id="Group-6" transform="translate(798.000000, 11.000000)">
                            <path d="M8.04375,3.20625 C7.76875,2.93125 7.35625,2.93125 7.08125,3.20625 L0.20625,10.08125 C0.06875,10.21875 0,10.35625 0,10.5625 L0,13.3125 C0,13.725 0.275,14 0.6875,14 L3.4375,14 C3.64375,14 3.78125,13.93125 3.91875,13.79375 L10.79375,6.91875 C11.06875,6.64375 11.06875,6.23125 10.79375,5.95625 L8.04375,3.20625 Z M3.1625,12.625 L1.375,12.625 L1.375,10.8375 L5.5,6.7125 L7.2875,8.5 L3.1625,12.625 Z M8.25,7.5375 L6.4625,5.75 L7.5625,4.65 L9.35,6.4375 L8.25,7.5375 Z" id="Shape" fill-rule="nonzero"></path>
                        </g>
                    </g>
                </g>
            </g>
        </g>
    </g>
</svg>