<?xml version="1.0" encoding="UTF-8"?>
<svg width="110px" height="56px" viewBox="0 0 110 56" version="1.1" xmlns="http://www.w3.org/2000/svg" xmlns:xlink="http://www.w3.org/1999/xlink">
    <!-- Generator: sketchtool 54.1 (76490) - https://sketchapp.com -->
    <title>710EF9A7-694A-4592-909E-4D9119913BEB</title>
    <desc>Created with sketchtool.</desc>
    <g id="Finel" stroke="none" stroke-width="1" fill="none" fill-rule="evenodd" stroke-linecap="round" stroke-linejoin="round">
        <g id="Landing-b2c_Desktop_1" transform="translate(-445.000000, -731.000000)" stroke="#FD6262" stroke-width="2">
            <g id="Group-2" transform="translate(446.000000, 732.000000)">
                <polygon id="Path" points="54.0823045 0 60.1728395 13.1601732 74 15.2380952 63.9588477 25.4545455 66.4279835 40 54.0823045 33.0735931 41.7366255 40 44.0411523 25.4545455 34 15.2380952 47.8271605 13.1601732"></polygon>
                <polygon id="Path" points="15 24 19.7014925 33.9212598 30 35.3385827 22.3880597 43.1338583 24.1791045 54 15 48.8031496 5.82089552 54 7.6119403 43.1338583 0 35.3385827 10.2985075 33.9212598"></polygon>
                <polygon id="Path" points="92.887218 22 97.6240602 31.9212598 108 33.3385827 100.556391 41.1338583 102.135338 52 92.887218 46.8031496 83.6390977 52 85.443609 41.1338583 78 33.3385827 88.3759398 31.9212598"></polygon>
            </g>
        </g>
    </g>
</svg>