<?xml version="1.0" encoding="UTF-8"?>
<svg width="64px" height="80px" viewBox="0 0 64 80" version="1.1" xmlns="http://www.w3.org/2000/svg" xmlns:xlink="http://www.w3.org/1999/xlink">
    <!-- Generator: sketchtool 54.1 (76490) - https://sketchapp.com -->
    <title>FFA9075F-B2D0-4E45-A093-20A61B8FAE32</title>
    <desc>Created with sketchtool.</desc>
    <g id="Finel" stroke="none" stroke-width="1" fill="none" fill-rule="evenodd">
        <g id="Landing-b2c_Desktop_1" transform="translate(-44.000000, -2542.000000)">
            <rect id="Rectangle-Copy-21" fill="#FFF3E2" fill-rule="nonzero" x="10" y="2449" width="485" height="260"></rect>
            <g id="Group-Copy-2" opacity="0.900000036" transform="translate(45.000000, 2543.000000)">
                <path d="M49,24 C49,35.0389627 41.2080292,44 31.5,44 C21.7919708,44 14,35.0389627 14,24" id="Path" stroke="#FFC66D" stroke-width="2"></path>
                <path d="M14,17 L14,8.3513456 C14,6.18918807 15.6485636,4.24323415 18.0579636,3.59458689 L29.5977818,0.243242722 C30.8659273,-0.0810809073 32.1340727,-0.0810809073 33.4022182,0.243242722 L44.9420364,3.59458689 C47.3514364,4.24323415 49,6.18918807 49,8.3513456 L48.7463455,17 C37.4601818,13.7567637 25.2862909,13.7567637 14,17 Z" id="Path" stroke="#FFC66D" stroke-width="2"></path>
                <path d="M48,18 L44.649635,22 L44.649635,22 C35.5912409,20.2221574 26.4087591,20.2221574 17.350365,22 L17.350365,22 L14,18" id="Path" stroke="#FFC66D" stroke-width="2" stroke-linecap="round" stroke-linejoin="round"></path>
                <path d="M13,31 C11.3750385,31 10,26.3815928 10,24.8421237 C10,23.3026546 11.3750385,22 13,22" id="Path" stroke="#FFC66D" stroke-width="2" stroke-linecap="round" stroke-linejoin="round"></path>
                <path d="M49,31 C51.1666154,31 53,26.3815928 53,24.8421237 C53,23.3026546 51.1666154,22 49,22" id="Path" stroke="#FFC66D" stroke-width="2" stroke-linecap="round" stroke-linejoin="round"></path>
                <path d="M14,18 L14,25" id="Path" stroke="#FFC66D" stroke-width="2"></path>
                <path d="M49,17 L49,25" id="Path" stroke="#FFC66D" stroke-width="2"></path>
                <path d="M34.0079208,50.2993231 L41.0059406,45 C45.0574257,46.4452923 51.4415842,47.6497231 55.4930693,48.9745231 C58.9306931,50.0584615 62,54.0328615 62,56.8029538 L62,78 L0,78 L0,56.8029538 C0,54.0328615 3.06930693,50.0584615 6.50693069,48.9745231 C10.4356436,47.7700923 16.819802,46.4452923 20.7485149,45 L28.1148515,50.2993231 C29.8336634,51.6241231 32.2891089,51.6241231 34.0079208,50.2993231 Z" id="Path" stroke="#FFC66D" stroke-width="2" stroke-linecap="round" stroke-linejoin="round"></path>
                <path d="M36,35 C35.1486486,36.8571362 33.4459459,38 31.5,38 C29.5540541,38 27.972973,36.7143661 27,35" id="Path" stroke="#FFC66D" stroke-width="2" stroke-linecap="round" stroke-linejoin="round"></path>
                <path d="M10.5,48 L10.5,78" id="Path" stroke="#FFC66D" stroke-width="2"></path>
                <path d="M51.4881271,47 L51.5118729,78" id="Path" stroke="#FFC66D" stroke-width="2"></path>
                <path d="M25,30 C26.1045333,30 27,29.1046638 27,28.0000656 C27,26.8954675 26.1045333,26 25,26 C23.8954667,26 23,26.8954675 23,28.0000656 C23,29.1046638 23.8954667,30 25,30 Z" id="Path" fill="#FFCA79"></path>
                <path d="M38,30 C39.1045333,30 40,29.1046638 40,28.0000656 C40,26.8954675 39.1045333,26 38,26 C36.8954667,26 36,26.8954675 36,28.0000656 C36,29.1046638 36.8954667,30 38,30 Z" id="Path" fill="#FFCA79"></path>
            </g>
        </g>
    </g>
</svg>