<?xml version="1.0" encoding="UTF-8"?>
<svg width="73px" height="75px" viewBox="0 0 73 75" version="1.1" xmlns="http://www.w3.org/2000/svg" xmlns:xlink="http://www.w3.org/1999/xlink">
    <!-- Generator: sketchtool 54.1 (76490) - https://sketchapp.com -->
    <title>A3C69251-C969-4076-8CF7-A2E5C7CD39B3</title>
    <desc>Created with sketchtool.</desc>
    <g id="Finel" stroke="none" stroke-width="1" fill="none" fill-rule="evenodd">
        <g id="Landing-b2c_Desktop_1" transform="translate(-540.000000, -2545.000000)">
            <rect id="Rectangle-Copy-23" fill="#E1F0ED" fill-rule="nonzero" x="505" y="2449" width="485" height="260"></rect>
            <g id="Group-2-Copy-2" opacity="0.900000036" transform="translate(540.000000, 2546.000000)" stroke-width="2">
                <path d="M12.6533333,25.6153846 C12.8730583,8.53846154 20.9723488,9.34545136e-16 36.9512048,0 C52.9300608,0 61.0529926,8.53846154 61.32,25.6153846" id="Path-8" stroke="#71C3B2"></path>
                <path d="M36.0133333,44.5897436 C53.9173147,44.5897436 62.3212535,53.1282051 61.2251496,70.2051282" id="Path-8-Copy" stroke="#7DC7B8" transform="translate(48.666667, 57.397436) scale(1, -1) translate(-48.666667, -57.397436) "></path>
                <path d="M7.73122,26.6153846 C4.01366985,26.6153846 1,29.6290545 1,33.3466046 L1,43.4995492 C1,47.2170994 4.01366985,50.2307692 7.73122,50.2307692 L15.4422067,50.2307692 C15.4998983,50.2307692 15.5466667,50.1840009 15.5466667,50.1263092 L15.5466667,26.7198446 C15.5466667,26.662153 15.4998983,26.6153846 15.4422067,26.6153846 L7.73122,26.6153846 Z" id="Rectangle" stroke="#71C3B2" fill="#E1F0ED"></path>
                <path d="M64.1845533,26.6153846 C60.4670032,26.6153846 57.4533333,29.6290545 57.4533333,33.3466046 L57.4533333,43.4995492 C57.4533333,47.2170994 60.4670032,50.2307692 64.1845533,50.2307692 L71.89554,50.2307692 C71.9532317,50.2307692 72,50.1840009 72,50.1263092 L72,26.7198446 C72,26.662153 71.9532317,26.6153846 71.89554,26.6153846 L64.1845533,26.6153846 Z" id="Rectangle-Copy-25" stroke="#71C3B2" fill="#E1F0ED" transform="translate(64.726667, 38.423077) scale(-1, 1) translate(-64.726667, -38.423077) "></path>
                <rect id="Rectangle" stroke="#71C3B2" fill="#E1F0ED" x="29.2266667" y="65.5128205" width="15.52" height="7.48717949" rx="3.74358974"></rect>
            </g>
        </g>
    </g>
</svg>