<svg xmlns="http://www.w3.org/2000/svg" width="60" height="60" viewBox="0 0 60 60"><defs><style>.cls-1{fill:#fff;}.cls-2,.cls-4{fill:none;stroke-miterlimit:10;stroke-width:1.5px;}.cls-2{stroke:#000;}.cls-3{fill:#fd6262;}.cls-4{stroke:#fd6262;}</style></defs><title>Ресурс 2</title><g id="Слой_2" data-name="Слой 2"><g id="Слой_1-2" data-name="Слой 1"><circle class="cls-1" cx="15" cy="45" r="14.5"/><path d="M15,31A14,14,0,1,1,1,45,14,14,0,0,1,15,31m0-1A15,15,0,1,0,30,45,15,15,0,0,0,15,30Z"/><line class="cls-2" x1="9" y1="45" x2="21" y2="45"/><circle class="cls-1" cx="15" cy="15" r="14.5"/><path d="M15,1A14,14,0,1,1,1,15,14,14,0,0,1,15,1m0-1A15,15,0,1,0,30,15,15,15,0,0,0,15,0Z"/><line class="cls-2" x1="9" y1="15" x2="21" y2="15"/><line class="cls-2" x1="15" y1="9" x2="15" y2="21"/><circle class="cls-1" cx="45" cy="45" r="14.5"/><path class="cls-3" d="M45,31A14,14,0,1,1,31,45,14,14,0,0,1,45,31m0-1A15,15,0,1,0,60,45,15,15,0,0,0,45,30Z"/><line class="cls-4" x1="39" y1="45" x2="51" y2="45"/><circle class="cls-1" cx="45" cy="15" r="14.5"/><path class="cls-3" d="M45,1A14,14,0,1,1,31,15,14,14,0,0,1,45,1m0-1A15,15,0,1,0,60,15,15,15,0,0,0,45,0Z"/><line class="cls-4" x1="39" y1="15" x2="51" y2="15"/><line class="cls-4" x1="45" y1="9" x2="45" y2="21"/></g></g></svg>