<svg width="123" height="66" viewBox="0 0 123 66" fill="none" xmlns="http://www.w3.org/2000/svg">
<path fill-rule="evenodd" clip-rule="evenodd" d="M78.3027 3.14463V56.9199C78.3027 57.3457 77.9972 57.6733 77.6001 57.6733H55.7868C55.3896 57.6733 55.0841 57.3457 55.0841 56.9199C55.0841 51.3836 50.8987 46.8956 45.7357 46.8956C40.5728 46.8956 36.3874 51.3836 36.3874 56.9199C36.3874 57.3457 36.0819 57.6733 35.6847 57.6733H20.3185C19.9213 57.6733 19.6158 57.3457 19.6158 56.9199V1.75346C19.6158 1.32759 19.9213 1 20.3185 1H76.6172L78.3027 3.14463Z" fill="white" stroke="black"/>
<ellipse cx="7.57645" cy="8.12427" rx="7.57645" ry="8.12427" transform="matrix(-1 0 0 1 53.25 49.0901)" fill="#D9D9D9" stroke="black"/>
<ellipse cx="3.94098" cy="4.22593" rx="3.94098" ry="4.22593" transform="matrix(-1 0 0 1 49.6133 52.9883)" fill="white" stroke="black"/>
<ellipse cx="7.57645" cy="8.12427" rx="7.57645" ry="8.12427" transform="matrix(-1 0 0 1 109.16 49.0901)" fill="#D9D9D9" stroke="black"/>
<ellipse cx="3.94098" cy="4.22593" rx="3.94098" ry="4.22593" transform="matrix(-1 0 0 1 105.523 52.9883)" fill="white" stroke="black"/>
<path fill-rule="evenodd" clip-rule="evenodd" d="M110.931 56.9199C110.931 51.3836 106.746 46.8956 101.583 46.8956C96.4196 46.8956 92.2342 51.3836 92.2342 56.9199C92.2342 57.3458 91.9287 57.6734 91.5315 57.6734H83.2524C82.397 57.6734 81.6944 56.9199 81.6944 56.0027V21.8021C81.6944 21.3107 82.061 20.9176 82.5192 20.9176H92.2953C92.9368 20.9176 93.5479 21.1469 94.0367 21.6055L108.395 34.3489C108.426 34.3816 108.426 34.3816 108.456 34.4144L118.019 41.3921C119.393 42.1783 120.249 43.7507 120.249 45.4214V48.9267C120.249 49.4181 120.615 49.8112 121.074 49.8112C121.532 49.8112 121.898 50.2043 121.898 50.6957V54.8888C121.898 56.2647 120.982 57.4113 119.76 57.6406C119.699 57.6406 119.638 57.6406 119.607 57.6406H111.695C111.236 57.6734 110.931 57.3458 110.931 56.9199Z" fill="white"/>
<path d="M119.76 57.6406C120.982 57.4113 121.898 56.2647 121.898 54.8888V50.6957C121.898 50.2043 121.532 49.8112 121.074 49.8112C120.615 49.8112 120.249 49.4181 120.249 48.9267V45.4214C120.249 43.7507 119.393 42.1783 118.019 41.3921L108.456 34.4144C108.426 34.3816 108.426 34.3816 108.395 34.3489L94.0367 21.6055C93.5479 21.1469 92.9368 20.9176 92.2953 20.9176H82.5192C82.061 20.9176 81.6944 21.3107 81.6944 21.8021V56.0027C81.6944 56.9199 82.397 57.6734 83.2524 57.6734H91.5315C91.9287 57.6734 92.2342 57.3458 92.2342 56.9199C92.2342 51.3836 96.4196 46.8956 101.583 46.8956C106.746 46.8956 110.931 51.3836 110.931 56.9199C110.931 57.3458 111.236 57.6734 111.695 57.6406H119.607M119.76 57.6406C119.699 57.6406 119.638 57.6406 119.607 57.6406M119.76 57.6406H119.607M121.898 50.6958V54.8889M111.695 57.6407C111.236 57.6735 110.931 57.3459 110.931 56.92" stroke="black"/>
<path d="M121.898 50.6956C121.898 50.2042 121.074 49.8111 121.074 49.8111L108.284 49.9305C109.922 51.7362 110.931 54.2017 110.931 56.9198C110.931 57.3457 111.236 57.6733 111.695 57.6405H119.607H119.76C120.982 57.4112 121.898 56.2647 121.898 54.8888V50.6956Z" fill="#D9D9D9"/>
<path d="M119.76 57.6405C120.982 57.4112 121.898 56.2647 121.898 54.8888V50.6956C121.898 50.2042 121.074 49.8111 121.074 49.8111L108.284 49.9305C109.922 51.7362 110.931 54.2017 110.931 56.9198C110.931 57.3457 111.236 57.6733 111.695 57.6405H119.607M119.76 57.6405C119.699 57.6405 119.638 57.6405 119.607 57.6405M119.76 57.6405H119.607" stroke="black"/>
<path fill-rule="evenodd" clip-rule="evenodd" d="M118.617 46.781V46.0807C118.617 45.0301 118.617 44.4286 117.254 43.4981L114.816 41.8786C113.617 41.2117 113.617 41.9223 113.617 42.5789V46.3871C113.617 47.3938 113.667 48.1817 114.617 48.1817H118.117C118.616 48.1817 118.617 47.5689 118.617 46.781Z" stroke="black"/>
<path fill-rule="evenodd" clip-rule="evenodd" d="M85.9727 23.7676H91.5634C91.93 23.7676 92.2966 23.8986 92.6021 24.1607L103.906 34.1522C104.364 34.5126 104.12 35.2988 103.539 35.2988H85.9422C84.9951 35.2988 84.2314 34.4798 84.2619 33.4643C84.2925 31.3022 84.2925 27.7642 84.2619 25.6021C84.2619 24.5866 85.0257 23.7676 85.9727 23.7676Z" stroke="black"/>
<ellipse cx="20.2501" cy="26.1169" rx="20.2501" ry="21.7143" fill="#F7F7F7"/>
<path d="M35.5002 26.1169C35.5002 35.2017 28.6402 42.5058 20.2501 42.5058C11.86 42.5058 5 35.2017 5 26.1169C5 17.0321 11.86 9.72797 20.2501 9.72797C28.6402 9.72797 35.5002 17.0321 35.5002 26.1169Z" fill="white" stroke="black"/>
<path d="M12.75 24.9105L19.2507 31.8813C19.731 32.3964 20.5791 32.2668 20.8837 31.6317L27.0001 18.8788" stroke="#FF2200" stroke-width="4"/>
</svg>
