<svg width="217" height="287" viewBox="0 0 217 287" fill="none" xmlns="http://www.w3.org/2000/svg">
<path d="M127.876 287C123.803 285.227 122.176 282.186 122.228 277.702C122.402 264.911 122.289 252.111 122.289 239.311C122.289 238.398 122.289 237.486 122.289 236.104C121.306 236.86 120.662 237.303 120.07 237.825C110.358 246.314 100.671 254.839 90.9241 263.286C87.3995 266.344 83.4919 266.24 80.707 263.216C77.6523 259.905 77.9308 255.891 81.6034 252.667C91.368 244.099 101.193 235.591 110.993 227.058C114.169 224.295 117.433 221.627 120.462 218.724C121.393 217.829 122.176 216.291 122.211 215.023C122.385 208.584 122.237 202.136 122.324 195.688C122.35 194.019 121.932 193.003 120.383 192.125C110.723 186.624 101.159 180.967 91.4811 175.484C90.5934 174.98 88.9399 174.954 88.0435 175.441C82.1343 178.647 76.3034 182.01 70.5334 185.46C69.6283 185.999 68.7232 187.155 68.523 188.163C65.216 204.525 62.0307 220.923 58.802 237.303C58.567 238.485 58.3059 239.684 57.8882 240.805C56.5131 244.464 53.1364 246.358 49.7162 245.454C45.826 244.438 43.6242 240.962 44.3988 236.86C45.7216 229.891 47.1315 222.948 48.4891 215.987C49.751 209.505 50.9955 203.013 52.3706 195.879C50.9868 196.652 50.134 197.113 49.2985 197.591C38.2894 203.934 27.2977 210.304 16.2712 216.604C14.9223 217.378 13.3906 218.09 11.885 218.264C8.5605 218.655 5.52321 216.639 4.5572 213.789C3.44324 210.495 4.82699 206.863 8.14277 204.934C19.4478 198.364 30.7963 191.856 42.1186 185.312C42.9889 184.808 43.8331 184.252 45.0341 183.505C34.669 179.977 24.7043 176.588 14.7308 173.199C11.6413 172.147 8.5344 171.131 5.4623 170.01C1.35456 168.515 -0.647096 164.657 0.675735 160.929C2.00727 157.166 5.91484 155.376 10.0922 156.801C26.3491 162.345 42.5973 167.915 58.8281 173.555C60.5425 174.155 61.9089 174.137 63.5189 173.181C68.9756 169.931 74.4932 166.786 80.0543 163.71C81.4903 162.919 81.9515 162.006 81.9428 160.407C81.8732 149.102 81.8732 137.805 81.9428 126.5C81.9515 124.91 81.4903 123.997 80.0543 123.206C74.3278 120.052 68.7319 116.663 62.9706 113.561C61.848 112.953 60.0726 112.814 58.8542 113.222C42.6582 118.662 26.497 124.206 10.362 129.819C7.3247 130.88 4.70515 130.697 2.32057 128.499C-1.03002 125.405 -0.725422 120.469 3.06031 117.914C4.27871 117.098 5.70597 116.533 7.10713 116.055C18.6732 112.092 30.2654 108.173 41.8401 104.237C42.6147 103.976 43.3631 103.663 44.5989 103.185C43.4241 102.447 42.6234 101.899 41.7879 101.421C30.7875 95.069 19.7698 88.7429 8.79548 82.3385C7.45524 81.5564 6.07149 80.5745 5.1838 79.3405C3.16475 76.5337 3.53897 72.8753 5.74079 70.5725C8.08185 68.122 11.6587 67.6441 15.0093 69.5558C26.2795 76.0036 37.5148 82.521 48.7589 89.0035C49.7249 89.5597 50.7083 90.0811 52.0834 90.8458C50.6387 83.39 49.2637 76.3078 47.8973 69.2256C46.6267 62.6301 45.2952 56.0432 44.129 49.4303C43.5285 46.0587 44.9732 43.3822 47.7755 41.9832C52.4228 39.6543 56.9918 42.1135 58.1754 47.6576C59.0195 51.5767 59.7245 55.5305 60.499 59.467C63.0403 72.3713 65.5467 85.2843 68.2097 98.1626C68.4621 99.3965 69.5152 100.822 70.603 101.482C76.1902 104.88 81.9428 107.999 87.5648 111.336C88.9747 112.17 89.9929 112.11 91.368 111.284C100.845 105.653 110.358 100.083 119.905 94.5737C121.323 93.7569 121.767 92.827 121.75 91.2542C121.671 84.7195 121.802 78.1761 121.645 71.6414C121.619 70.4509 120.914 68.9389 120.018 68.1481C107.329 56.9644 94.5619 45.8588 81.7688 34.7794C79.7584 33.0327 78.3485 31.121 78.3921 28.3489C78.4704 23.1872 83.2656 19.9894 88 22.0662C89.2532 22.6137 90.402 23.5 91.455 24.4125C101.368 32.9545 111.245 41.5313 121.723 50.6034C121.723 49.1001 121.723 48.1616 121.723 47.2231C121.723 34.3362 121.75 21.4406 121.697 8.55364C121.689 5.88588 122.289 3.52226 124.395 1.80168C126.58 0.0115895 129.095 -0.579315 131.732 0.645943C134.717 2.02762 136.249 4.45206 136.249 7.77156C136.257 18.9814 136.257 30.1912 136.257 41.401C136.257 44.4424 136.257 47.4838 136.257 51.0292C137.389 50.0994 138.102 49.5607 138.772 48.9698C148.415 40.5407 158.032 32.0769 167.709 23.6912C171.208 20.6585 175.141 20.8323 177.918 23.9172C180.833 27.1584 180.572 31.1731 177.056 34.2754C168.78 41.5661 160.442 48.7873 152.122 56.0259C147.397 60.1361 142.619 64.1856 137.989 68.4088C137.101 69.2256 136.362 70.6942 136.336 71.876C136.179 78.5063 136.188 85.1366 136.344 91.7669C136.37 92.7923 137.206 94.2087 138.094 94.7475C147.536 100.431 157.083 105.949 166.561 111.571C167.883 112.353 168.893 112.544 170.338 111.684C176.038 108.286 181.869 105.123 187.543 101.699C188.561 101.082 189.51 99.7267 189.754 98.5536C193.156 81.8258 196.42 65.0719 199.736 48.3267C200.884 42.5393 205.419 39.9063 210.153 42.2265C213.025 43.6342 214.478 46.3976 213.817 49.943C211.894 60.3099 209.848 70.6507 207.847 81.0003C207.229 84.1894 206.62 87.3786 205.889 91.1586C207.185 90.4461 208.038 89.9942 208.874 89.5162C219.961 83.1206 231.031 76.6988 242.145 70.3466C243.415 69.6167 244.86 68.9562 246.278 68.7824C249.777 68.3653 252.684 70.3118 253.728 73.4228C254.738 76.4381 253.58 79.9749 250.717 81.7215C246.174 84.4936 241.518 87.0918 236.906 89.7509C229.151 94.2261 221.397 98.7013 213.155 103.463C217.481 104.949 221.301 106.279 225.131 107.582C234.495 110.78 243.885 113.9 253.223 117.176C257.044 118.514 258.845 122.381 257.618 125.935C256.322 129.706 252.579 131.557 248.576 130.393C248.036 130.237 247.514 130.045 246.983 129.863C231.179 124.432 215.366 119.035 199.588 113.526C197.76 112.892 196.35 112.892 194.645 113.908C189.118 117.219 183.444 120.287 177.926 123.624C177.039 124.162 176.177 125.57 176.168 126.578C176.047 137.97 176.047 149.371 176.168 160.764C176.177 161.772 177.074 163.162 177.97 163.701C183.566 167.081 189.231 170.349 194.993 173.451C196.124 174.059 197.891 174.233 199.1 173.824C215.296 168.385 231.458 162.849 247.593 157.227C250.621 156.175 253.249 156.315 255.643 158.504C259.011 161.589 258.741 166.525 254.964 169.089C253.754 169.914 252.327 170.479 250.926 170.957C239.36 174.919 227.768 178.838 216.193 182.775C215.418 183.036 214.652 183.348 213.39 183.818C214.548 184.556 215.34 185.095 216.167 185.582C227.245 191.986 238.35 198.347 249.403 204.803C250.734 205.577 252.075 206.628 252.919 207.88C254.807 210.686 254.398 214.162 252.275 216.413C249.942 218.881 246.357 219.385 243.015 217.473C231.745 211.025 220.509 204.508 209.265 198.025C208.299 197.469 207.316 196.939 205.906 196.157C207.168 202.692 208.369 208.844 209.553 214.997C210.997 222.505 212.503 230.012 213.852 237.538C214.461 240.918 213.034 243.603 210.249 245.02C205.61 247.375 200.998 244.941 199.814 239.397C198.761 234.47 197.882 229.508 196.907 224.573C194.566 212.676 192.26 200.771 189.788 188.901C189.527 187.659 188.509 186.225 187.421 185.564C181.834 182.167 176.081 179.047 170.459 175.719C169.076 174.902 168.049 174.885 166.656 175.719C157.179 181.35 147.667 186.92 138.12 192.429C136.727 193.229 136.214 194.132 136.231 195.731C136.318 202.179 136.336 208.618 136.222 215.066C136.196 216.83 136.745 217.968 138.076 219.116C151.122 230.325 164.089 241.631 177.126 252.84C179.571 254.943 180.589 257.446 179.998 260.54C179.197 264.754 174.315 267.1 170.346 265.119C168.867 264.381 167.527 263.294 166.273 262.199C156.622 253.796 147.014 245.35 136.823 236.417C136.823 237.955 136.823 238.911 136.823 239.867C136.823 252.38 136.701 264.902 136.884 277.415C136.953 281.969 135.448 285.166 131.236 286.991C130.122 287 128.999 287 127.876 287ZM161.017 143.558C161.017 137.953 161.104 132.348 160.938 126.752C160.912 125.7 160.181 124.241 159.32 123.719C149.721 117.949 140.052 112.292 130.322 106.722C129.495 106.253 127.937 106.253 127.111 106.722C117.389 112.292 107.721 117.949 98.104 123.711C97.2859 124.197 96.5114 125.535 96.5027 126.483C96.3895 137.684 96.3895 148.893 96.5027 160.095C96.5114 161.129 97.312 162.58 98.191 163.101C107.816 168.828 117.511 174.45 127.267 179.968C128.155 180.472 129.808 180.481 130.687 179.977C140.2 174.598 149.599 169.045 159.085 163.623C160.59 162.762 161.078 161.772 161.043 160.077C160.947 154.577 161.017 149.067 161.017 143.558Z" fill="white"/>
</svg>
