<svg width="258" height="306" viewBox="0 0 258 306" fill="none" xmlns="http://www.w3.org/2000/svg">
<path d="M118.798 306C114.441 304.11 112.7 300.867 112.756 296.086C112.942 282.448 112.821 268.801 112.821 255.153C112.821 254.181 112.821 253.208 112.821 251.735C111.769 252.541 111.08 253.013 110.447 253.569C100.057 262.621 89.6949 271.71 79.2677 280.716C75.4971 283.977 71.3169 283.866 68.3377 280.642C65.0699 277.112 65.3678 272.831 69.2967 269.394C79.7425 260.258 90.2535 251.188 100.737 242.09C104.135 239.143 107.626 236.299 110.866 233.204C111.862 232.25 112.7 230.61 112.737 229.258C112.923 222.392 112.765 215.518 112.858 208.643C112.886 206.864 112.439 205.78 110.782 204.844C100.448 198.979 90.2163 192.948 79.8635 187.102C78.9139 186.564 77.145 186.536 76.1861 187.055C69.8646 190.474 63.6269 194.06 57.4543 197.738C56.4861 198.312 55.5178 199.545 55.3037 200.619C51.7659 218.065 48.3585 235.549 44.9044 253.013C44.6531 254.273 44.3738 255.552 43.9269 256.747C42.4559 260.648 38.8436 262.667 35.1848 261.704C31.0232 260.62 28.6678 256.914 29.4964 252.541C30.9115 245.11 32.4197 237.707 33.8721 230.286C35.222 223.374 36.5534 216.453 38.0243 208.847C36.544 209.671 35.6317 210.162 34.7379 210.672C22.9607 217.435 11.2022 224.227 -0.593582 230.944C-2.03663 231.768 -3.6752 232.528 -5.28583 232.713C-8.84225 233.13 -12.0914 230.981 -13.1249 227.942C-14.3165 224.431 -12.8362 220.558 -9.28913 218.501C2.80457 211.496 14.9448 204.557 27.0572 197.58C27.9882 197.043 28.8912 196.45 30.176 195.653C19.0878 191.892 8.42782 188.278 -2.24145 184.665C-5.54651 183.544 -8.87018 182.46 -12.1566 181.265C-16.5509 179.671 -18.6922 175.557 -17.2771 171.583C-15.8527 167.571 -11.6725 165.662 -7.20369 167.182C10.1874 173.093 27.5692 179.032 44.9324 185.045C46.7664 185.684 48.2281 185.665 49.9505 184.646C55.7878 181.181 61.6904 177.827 67.6395 174.547C69.1756 173.704 69.6691 172.731 69.6598 171.027C69.5853 158.973 69.5853 146.928 69.6598 134.874C69.6691 133.179 69.1756 132.206 67.6395 131.363C61.5135 128 55.5272 124.386 49.3639 121.079C48.1629 120.43 46.2637 120.282 44.9603 120.717C27.6344 126.517 10.3457 132.429 -6.91508 138.414C-10.1643 139.544 -12.9666 139.35 -15.5175 137.005C-19.1019 133.707 -18.776 128.445 -14.7262 125.721C-13.4228 124.85 -11.8959 124.247 -10.397 123.738C1.97598 119.513 14.3769 115.334 26.7592 111.137C27.5878 110.859 28.3885 110.526 29.7105 110.016C28.4536 109.229 27.5971 108.645 26.7034 108.136C14.9355 101.363 3.14904 94.6178 -8.59088 87.7895C-10.0246 86.9556 -11.5049 85.9087 -12.4545 84.593C-14.6145 81.6004 -14.2141 77.6998 -11.8587 75.2446C-9.3543 72.6318 -5.52789 72.1223 -1.94353 74.1606C10.1129 81.0352 22.1321 87.984 34.1607 94.8958C35.1941 95.4887 36.2461 96.0446 37.7171 96.86C36.1716 88.9105 34.7007 81.3595 33.239 73.8085C31.8797 66.7763 30.4553 59.7534 29.2078 52.7027C28.5654 49.1079 30.1108 46.2542 33.1087 44.7626C38.0802 42.2795 42.968 44.9015 44.2341 50.8126C45.1372 54.9912 45.8913 59.2068 46.7199 63.4039C49.4384 77.1625 52.1197 90.9303 54.9686 104.661C55.2385 105.977 56.3651 107.496 57.5288 108.2C63.5058 111.823 69.6598 115.149 75.674 118.707C77.1823 119.596 78.2715 119.532 79.7425 118.651C89.8811 112.648 100.057 106.709 110.27 100.835C111.788 99.9638 112.262 98.9724 112.244 97.2954C112.16 90.3281 112.3 83.3515 112.132 76.3842C112.104 75.1149 111.35 73.5028 110.391 72.6596C96.8171 60.7355 83.1593 48.8948 69.4736 37.0818C67.3229 35.2196 65.8147 33.1812 65.8613 30.2257C65.9451 24.7223 71.0749 21.3127 76.1395 23.5271C77.4802 24.1108 78.7091 25.0558 79.8356 26.0286C90.4397 35.1362 101.007 44.2808 112.216 53.9535C112.216 52.3506 112.216 51.35 112.216 50.3494C112.216 36.6093 112.244 22.86 112.188 9.1199C112.179 6.27553 112.821 3.75544 115.074 1.92096C117.411 0.0123566 120.101 -0.617667 122.922 0.688706C126.116 2.16185 127.754 4.7468 127.754 8.28605C127.764 20.238 127.764 32.1899 127.764 44.1418C127.764 47.3846 127.764 50.6273 127.764 54.4075C128.974 53.4161 129.737 52.8417 130.454 52.2117C140.77 43.2246 151.057 34.2004 161.41 25.2596C165.153 22.0261 169.361 22.2114 172.331 25.5005C175.449 28.9564 175.17 33.2368 171.409 36.5445C162.555 44.3178 153.636 52.0171 144.736 59.7349C139.68 64.1173 134.569 68.4348 129.616 72.9376C128.667 73.8085 127.875 75.3743 127.847 76.6343C127.68 83.7036 127.689 90.7728 127.857 97.8421C127.885 98.9353 128.778 100.446 129.728 101.02C139.829 107.079 150.042 112.963 160.181 118.957C161.596 119.791 162.676 119.995 164.222 119.078C170.32 115.455 176.557 112.082 182.627 108.432C183.717 107.774 184.731 106.329 184.992 105.078C188.632 87.2428 192.124 69.3798 195.671 51.5261C196.9 45.3555 201.75 42.5482 206.815 45.022C209.887 46.5229 211.442 49.4692 210.734 53.2494C208.677 64.3026 206.489 75.328 204.348 86.3627C203.687 89.7629 203.035 93.1632 202.253 97.1935C203.64 96.4338 204.552 95.952 205.446 95.4424C217.307 88.6233 229.15 81.7765 241.038 75.0037C242.398 74.2254 243.943 73.5213 245.461 73.336C249.203 72.8913 252.313 74.9666 253.43 78.2835C254.51 81.4985 253.272 85.2694 250.209 87.1317C245.349 90.0872 240.368 92.8575 235.434 95.6926C227.139 100.464 218.843 105.236 210.027 110.313C214.654 111.897 218.741 113.315 222.837 114.704C232.855 118.114 242.9 121.44 252.89 124.933C256.977 126.36 258.904 130.483 257.592 134.272C256.204 138.293 252.201 140.267 247.919 139.025C247.341 138.858 246.783 138.655 246.215 138.46C229.308 132.669 212.392 126.916 195.512 121.042C193.557 120.365 192.049 120.365 190.224 121.449C184.313 124.979 178.242 128.25 172.34 131.808C171.39 132.382 170.469 133.883 170.459 134.958C170.329 147.104 170.329 159.26 170.459 171.407C170.469 172.481 171.427 173.964 172.386 174.538C178.373 178.142 184.434 181.626 190.597 184.934C191.807 185.582 193.697 185.767 194.991 185.332C212.317 179.532 229.606 173.63 246.866 167.636C250.106 166.515 252.918 166.663 255.478 168.998C259.081 172.287 258.793 177.549 254.752 180.283C253.458 181.163 251.931 181.765 250.432 182.275C238.059 186.499 225.658 190.678 213.276 194.875C212.447 195.153 211.628 195.486 210.278 195.987C211.516 196.774 212.364 197.349 213.248 197.868C225.1 204.696 236.979 211.478 248.803 218.362C250.227 219.186 251.661 220.308 252.564 221.642C254.585 224.634 254.147 228.34 251.875 230.74C249.38 233.371 245.544 233.909 241.969 231.87C229.913 224.996 217.894 218.047 205.865 211.135C204.832 210.542 203.78 209.977 202.272 209.143C203.622 216.11 204.906 222.67 206.172 229.23C207.718 237.235 209.329 245.24 210.772 253.263C211.423 256.867 209.896 259.73 206.917 261.241C201.955 263.751 197.021 261.157 195.755 255.246C194.628 249.993 193.688 244.702 192.645 239.44C190.141 226.756 187.673 214.063 185.029 201.407C184.75 200.082 183.661 198.553 182.497 197.849C176.52 194.226 170.366 190.9 164.352 187.352C162.872 186.481 161.773 186.462 160.283 187.352C150.145 193.355 139.969 199.294 129.756 205.168C128.266 206.021 127.717 206.984 127.736 208.689C127.829 215.564 127.847 222.429 127.726 229.304C127.698 231.185 128.285 232.398 129.709 233.621C143.665 245.573 157.537 257.627 171.483 269.579C174.099 271.821 175.189 274.49 174.556 277.788C173.699 282.281 168.476 284.783 164.231 282.671C162.648 281.883 161.214 280.725 159.874 279.558C149.549 270.598 139.271 261.593 128.369 252.068C128.369 253.708 128.369 254.727 128.369 255.746C128.369 269.088 128.238 282.439 128.434 295.781C128.508 300.636 126.898 304.045 122.392 305.991C121.2 306 119.999 306 118.798 306ZM154.251 153.062C154.251 147.086 154.344 141.11 154.167 135.143C154.139 134.022 153.357 132.466 152.435 131.91C142.166 125.758 131.823 119.726 121.414 113.787C120.53 113.287 118.863 113.287 117.979 113.787C107.579 119.726 97.236 125.758 86.9484 131.9C86.0733 132.419 85.2447 133.846 85.2354 134.856C85.1144 146.799 85.1144 158.751 85.2354 170.693C85.2447 171.796 86.1012 173.343 87.0415 173.899C97.3384 180.005 107.71 185.999 118.146 191.882C119.096 192.42 120.865 192.429 121.805 191.892C131.981 186.157 142.036 180.236 152.184 174.455C153.794 173.538 154.316 172.481 154.278 170.675C154.176 164.81 154.251 158.936 154.251 153.062Z" fill="white"/>
</svg>
