<?xml version="1.0" encoding="utf-8"?>
<!-- Generator: Adobe Illustrator 27.0.0, SVG Export Plug-In . SVG Version: 6.00 Build 0)  -->
<svg version="1.1" id="Layer_1" xmlns="http://www.w3.org/2000/svg" xmlns:xlink="http://www.w3.org/1999/xlink" x="0px" y="0px"
	 viewBox="0 0 42 87" style="enable-background:new 0 0 42 87;" xml:space="preserve">
<style type="text/css">
	.st0{fill:#FFFFFF;stroke:#231F20;}
	.st1{fill:#FF2200;}
	.st2{fill:#808080;}
</style>
<path class="st0" d="M14.1,1h25.4c1.1,0,2,0.9,2,2v81c0,1.1-0.9,2-2,2h-37c-1.1,0-2-0.9-2-2V3c0-1.1,0.9-2,2-2"/>
<path class="st0" d="M2.5,1h11.6"/>
<g>
	<path d="M20.6,70.6c-8,0-14.5-6.5-14.5-14.6c0-5.5,3-10.4,7.9-13V18.2c0-3.6,2.9-6.5,6.5-6.5s6.5,2.9,6.5,6.5v24.8
		c5,2.4,8.1,7.5,8.1,13.1C35.1,64.1,28.6,70.6,20.6,70.6z M20.5,12.6c-3,0-5.5,2.5-5.5,5.5v25.5l-0.3,0.1c-4.7,2.3-7.6,7-7.6,12.2
		c0,7.5,6.1,13.6,13.5,13.6S34.1,63.5,34.1,56c0-5.3-3.1-10.1-7.8-12.3L26,43.6V18.2C26,15.1,23.5,12.6,20.5,12.6z"/>
</g>
<path class="st1" d="M19.5,47.5h2c0.3,0,0.5-0.2,0.5-0.5V27c0-0.8-0.7-1.5-1.5-1.5h0c-0.8,0-1.5,0.7-1.5,1.5v20
	C19,47.3,19.2,47.5,19.5,47.5z"/>
<g>
	<g>
		<path class="st1" d="M20.6,45c-6.1,0-11,4.9-11,11c0,6.1,4.9,11,11,11c6.1,0,11-4.9,11-11C31.6,49.9,26.7,45,20.6,45z M20.6,64
			c-4.4,0-8-3.6-8-8c0-4.4,3.6-8,8-8c4.4,0,8,3.6,8,8C28.6,60.4,25,64,20.6,64z"/>
	</g>
</g>
<rect x="29" y="19" class="st2" width="7" height="2"/>
<rect x="29" y="24" class="st2" width="4" height="2"/>
<rect x="29" y="29" class="st2" width="7" height="2"/>
<rect x="29" y="34" class="st2" width="4" height="2"/>
<rect x="29" y="39" class="st2" width="7" height="2"/>
</svg>
