<svg width="91" height="66" viewBox="0 0 91 66" fill="none" xmlns="http://www.w3.org/2000/svg">
<path d="M0.5 3.006C0.5 1.62399 1.62059 0.5 3 0.5H43C44.3807 0.5 45.5 1.61929 45.5 3V62.4107C45.5 63.7914 44.3807 64.9107 43 64.9107H3C1.62059 64.9107 0.5 63.7867 0.5 62.4047V62.2717V62.1389V62.0063V61.8739V61.7417V61.6097V61.4779V61.3463V61.2148V61.0836V60.9526V60.8217V60.6911V60.5606V60.4304V60.3003V60.1704V60.0407V59.9111V59.7818V59.6527V59.5237V59.3949V59.2663V59.1379V59.0096V58.8816V58.7537V58.626V58.4985V58.3711V58.2439V58.1169V57.9901V57.8634V57.737V57.6107V57.4845V57.3586V57.2328V57.1071V56.9817V56.8564V56.7313V56.6063V56.4815V56.3569V56.2324V56.1081V55.984V55.86V55.7362V55.6125V55.489V55.3656V55.2425V55.1194V54.9966V54.8738V54.7513V54.6288V54.5066V54.3845V54.2625V54.1407V54.0191V53.8975V53.7762V53.655V53.5339V53.413V53.2922V53.1716V53.0511V52.9307V52.8105V52.6904V52.5705V52.4507V52.3311V52.2115V52.0922V51.9729V51.8538V51.7349V51.616V51.4973V51.3787V51.2603V51.142V51.0238V50.9058V50.7878V50.67V50.5524V50.4348V50.3174V50.2001V50.0829V49.9659V49.849V49.7322V49.6155V49.4989V49.3825V49.2661V49.1499V49.0338V48.9179V48.802V48.6862V48.5706V48.4551V48.3397V48.2244V48.1092V47.9941V47.8791V47.7643V47.6495V47.5349V47.4203V47.3059V47.1915V47.0773V46.9632V46.8491V46.7352V46.6214V46.5077V46.394V46.2805V46.1671V46.0537V45.9405V45.8273V45.7143V45.6013V45.4884V45.3757V45.263V45.1504V45.0379V44.9254V44.8131V44.7009V44.5887V44.4766V44.3646V44.2527V44.1409V44.0292V43.9175V43.8059V43.6944V43.583V43.4716V43.3604V43.2492V43.1381V43.027V42.9161V42.8052V42.6944V42.5836V42.4729V42.3623V42.2518V42.1413V42.0309V41.9206V41.8103V41.7001V41.59V41.4799V41.3699V41.26V41.1501V41.0403V40.9305V40.8208V40.7112V40.6016V40.4921V40.3826V40.2732V40.1638V40.0545V39.9453V39.836V39.7269V39.6178V39.5088V39.3997V39.2908V39.1819V39.073V38.9642V38.8555V38.7467V38.6381V38.5294V38.4208V38.3123V38.2038V38.0953V37.9869V37.8785V37.7701V37.6618V37.5535V37.4453V37.3371V37.2289V37.1207V37.0126V36.9045V36.7965V36.6885V36.5805V36.4725V36.3646V36.2566V36.1488V36.0409V35.9331V35.8252V35.7174V35.6097V35.5019V35.3942V35.2865V35.1788V35.0711V34.9635V34.8558V34.7482V34.6406V34.533V34.4254V34.3179V34.2103V34.1028V33.9952V33.8877V33.7802V33.6727V33.5652V33.4577V33.3502V33.2427V33.1352V33.0278V32.9203V32.8128V32.7053V32.5979V32.4904V32.3829V32.2754V32.1679V32.0605V31.953V31.8455V31.738V31.6305V31.5229V31.4154V31.3079V31.2003V31.0928V30.9852V30.8776V30.77V30.6624V30.5548V30.4472V30.3395V30.2318V30.1242V30.0165V29.9087V29.801V29.6932V29.5854V29.4776V29.3698V29.2619V29.154V29.0461V28.9382V28.8302V28.7222V28.6142V28.5061V28.398V28.2899V28.1818V28.0736V27.9654V27.8571V27.7489V27.6405V27.5322V27.4238V27.3154V27.2069V27.0984V26.9898V26.8812V26.7726V26.6639V26.5552V26.4464V26.3376V26.2288V26.1199V26.0109V25.9019V25.7929V25.6838V25.5746V25.4654V25.3561V25.2468V25.1375V25.0281V24.9186V24.8091V24.6995V24.5898V24.4801V24.3704V24.2605V24.1507V24.0407V23.9307V23.8206V23.7105V23.6003V23.49V23.3797V23.2693V23.1588V23.0483V22.9377V22.827V22.7163V22.6055V22.4946V22.3836V22.2726V22.1615V22.0503V21.939V21.8277V21.7162V21.6047V21.4932V21.3815V21.2698V21.1579V21.046V20.934V20.822V20.7098V20.5975V20.4852V20.3728V20.2603V20.1477V20.035V19.9222V19.8093V19.6964V19.5833V19.4702V19.3569V19.2436V19.1302V19.0166V18.903V18.7893V18.6754V18.5615V18.4475V18.3334V18.2191V18.1048V17.9903V17.8758V17.7611V17.6464V17.5315V17.4166V17.3015V17.1863V17.071V16.9556V16.84V16.7244V16.6087V16.4928V16.3768V16.2607V16.1445V16.0282V15.9117V15.7952V15.6785V15.5617V15.4448V15.3277V15.2105V15.0933V14.9758V14.8583V14.7406V14.6228V14.5049V14.3869V14.2687V14.1504V14.0319V13.9133V13.7946V13.6758V13.5568V13.4377V13.3185V13.1991V13.0796V12.9599V12.8402V12.7202V12.6002V12.4799V12.3596V12.2391V12.1185V11.9977V11.8768V11.7557V11.6345V11.5131V11.3916V11.2699V11.1481V11.0262V10.9041V10.7818V10.6594V10.5368V10.4141V10.2912V10.1682V10.045V9.92166V9.79816V9.6745V9.55068V9.4267V9.30255V9.17825V9.05378V8.92915V8.80436V8.6794V8.55427V8.42898V8.30352V8.17789V8.0521V7.92613V7.8V7.67369V7.54721V7.42056V7.29373V7.16673V7.03956V6.91221V6.78468V6.65697V6.52909V6.40103V6.27278V6.14436V6.01576V5.88697V5.758V5.62885V5.49951V5.36999V5.24028V5.11038V4.9803V4.85003V4.71957V4.58891V4.45807V4.32704V4.19581V4.0644V3.93278V3.80098V3.66897V3.53677V3.40438V3.27178V3.13899V3.006Z" fill="#F5F5F5" stroke="black"/>
<path d="M45.5 3.006C45.5 1.62399 46.6206 0.5 48 0.5H88C89.3807 0.5 90.5 1.61929 90.5 3V62.4107C90.5 63.7914 89.3807 64.9107 88 64.9107H48C46.6206 64.9107 45.5 63.7867 45.5 62.4047V62.2717V62.1389V62.0063V61.8739V61.7417V61.6097V61.4779V61.3463V61.2148V61.0836V60.9526V60.8217V60.6911V60.5606V60.4304V60.3003V60.1704V60.0407V59.9111V59.7818V59.6527V59.5237V59.3949V59.2663V59.1379V59.0096V58.8816V58.7537V58.626V58.4985V58.3711V58.2439V58.1169V57.9901V57.8634V57.737V57.6107V57.4845V57.3586V57.2328V57.1071V56.9817V56.8564V56.7313V56.6063V56.4815V56.3569V56.2324V56.1081V55.984V55.86V55.7362V55.6125V55.489V55.3656V55.2425V55.1194V54.9966V54.8738V54.7513V54.6288V54.5066V54.3845V54.2625V54.1407V54.0191V53.8975V53.7762V53.655V53.5339V53.413V53.2922V53.1716V53.0511V52.9307V52.8105V52.6904V52.5705V52.4507V52.3311V52.2115V52.0922V51.9729V51.8538V51.7349V51.616V51.4973V51.3787V51.2603V51.142V51.0238V50.9058V50.7878V50.67V50.5524V50.4348V50.3174V50.2001V50.0829V49.9659V49.849V49.7322V49.6155V49.4989V49.3825V49.2661V49.1499V49.0338V48.9179V48.802V48.6862V48.5706V48.4551V48.3397V48.2244V48.1092V47.9941V47.8791V47.7643V47.6495V47.5349V47.4203V47.3059V47.1915V47.0773V46.9632V46.8491V46.7352V46.6214V46.5077V46.394V46.2805V46.1671V46.0537V45.9405V45.8273V45.7143V45.6013V45.4884V45.3757V45.263V45.1504V45.0379V44.9254V44.8131V44.7009V44.5887V44.4766V44.3646V44.2527V44.1409V44.0292V43.9175V43.8059V43.6944V43.583V43.4716V43.3604V43.2492V43.1381V43.027V42.9161V42.8052V42.6944V42.5836V42.4729V42.3623V42.2518V42.1413V42.0309V41.9206V41.8103V41.7001V41.59V41.4799V41.3699V41.26V41.1501V41.0403V40.9305V40.8208V40.7112V40.6016V40.4921V40.3826V40.2732V40.1638V40.0545V39.9453V39.836V39.7269V39.6178V39.5088V39.3997V39.2908V39.1819V39.073V38.9642V38.8555V38.7467V38.6381V38.5294V38.4208V38.3123V38.2038V38.0953V37.9869V37.8785V37.7701V37.6618V37.5535V37.4453V37.3371V37.2289V37.1207V37.0126V36.9045V36.7965V36.6885V36.5805V36.4725V36.3646V36.2566V36.1488V36.0409V35.9331V35.8252V35.7174V35.6097V35.5019V35.3942V35.2865V35.1788V35.0711V34.9635V34.8558V34.7482V34.6406V34.533V34.4254V34.3179V34.2103V34.1028V33.9952V33.8877V33.7802V33.6727V33.5652V33.4577V33.3502V33.2427V33.1352V33.0278V32.9203V32.8128V32.7053V32.5979V32.4904V32.3829V32.2754V32.1679V32.0605V31.953V31.8455V31.738V31.6305V31.5229V31.4154V31.3079V31.2003V31.0928V30.9852V30.8776V30.77V30.6624V30.5548V30.4472V30.3395V30.2318V30.1242V30.0165V29.9087V29.801V29.6932V29.5854V29.4776V29.3698V29.2619V29.154V29.0461V28.9382V28.8302V28.7222V28.6142V28.5061V28.398V28.2899V28.1818V28.0736V27.9654V27.8571V27.7489V27.6405V27.5322V27.4238V27.3154V27.2069V27.0984V26.9898V26.8812V26.7726V26.6639V26.5552V26.4464V26.3376V26.2288V26.1199V26.0109V25.9019V25.7929V25.6838V25.5746V25.4654V25.3561V25.2468V25.1375V25.0281V24.9186V24.8091V24.6995V24.5898V24.4801V24.3704V24.2605V24.1507V24.0407V23.9307V23.8206V23.7105V23.6003V23.49V23.3797V23.2693V23.1588V23.0483V22.9377V22.827V22.7163V22.6055V22.4946V22.3836V22.2726V22.1615V22.0503V21.939V21.8277V21.7162V21.6047V21.4932V21.3815V21.2698V21.1579V21.046V20.934V20.822V20.7098V20.5975V20.4852V20.3728V20.2603V20.1477V20.035V19.9222V19.8093V19.6964V19.5833V19.4702V19.3569V19.2436V19.1302V19.0166V18.903V18.7893V18.6754V18.5615V18.4475V18.3334V18.2191V18.1048V17.9903V17.8758V17.7611V17.6464V17.5315V17.4166V17.3015V17.1863V17.071V16.9556V16.84V16.7244V16.6087V16.4928V16.3768V16.2607V16.1445V16.0282V15.9117V15.7952V15.6785V15.5617V15.4448V15.3277V15.2105V15.0933V14.9758V14.8583V14.7406V14.6228V14.5049V14.3869V14.2687V14.1504V14.0319V13.9133V13.7946V13.6758V13.5568V13.4377V13.3185V13.1991V13.0796V12.9599V12.8402V12.7202V12.6002V12.4799V12.3596V12.2391V12.1185V11.9977V11.8768V11.7557V11.6345V11.5131V11.3916V11.2699V11.1481V11.0262V10.9041V10.7818V10.6594V10.5368V10.4141V10.2912V10.1682V10.045V9.92166V9.79816V9.6745V9.55068V9.4267V9.30255V9.17825V9.05378V8.92915V8.80436V8.6794V8.55427V8.42898V8.30352V8.17789V8.0521V7.92613V7.8V7.67369V7.54721V7.42056V7.29373V7.16673V7.03956V6.91221V6.78468V6.65697V6.52909V6.40103V6.27278V6.14436V6.01576V5.88697V5.758V5.62885V5.49951V5.36999V5.24028V5.11038V4.9803V4.85003V4.71957V4.58891V4.45807V4.32704V4.19581V4.0644V3.93278V3.80098V3.66897V3.53677V3.40438V3.27178V3.13899V3.006Z" fill="white" stroke="black"/>
<ellipse cx="16.53" cy="17.7258" rx="16.53" ry="17.7258" transform="matrix(1 0 0 -1 51.4199 49.2831)" fill="white"/>
<path d="M81.6992 31.5572C81.6992 23.3605 75.5108 16.7763 67.9492 16.7763C60.3876 16.7763 54.1992 23.3605 54.1992 31.5572C54.1992 39.754 60.3876 46.3381 67.9492 46.3381C75.5108 46.3381 81.6992 39.754 81.6992 31.5572Z" fill="white" stroke="black"/>
<rect x="-0.5" y="0.5" width="2.9" height="19.3371" rx="1.45" transform="matrix(1 0 0 -1 67 41.7258)" fill="#FF2200" stroke="#FF2200"/>
<rect x="-0.5" y="-0.5" width="3.03745" height="18.1" rx="1.51873" transform="matrix(-4.07625e-08 1 1 4.68736e-08 59.4004 30.5385)" fill="#FF2200" stroke="#FF2200"/>
</svg>
