<svg width="20" height="21" viewBox="0 0 20 21" fill="none" xmlns="http://www.w3.org/2000/svg">
<path d="M20 9.50729H15.83L19.07 6.21061L17.66 4.76577L13 9.50729H11V7.4723L15.66 2.73079L14.24 1.29612L11 4.5928V0.349854H9V4.5928L5.76 1.29612L4.34 2.73079L9 7.4723V9.50729H7L2.34 4.76577L0.93 6.21061L4.17 9.50729H0V11.5423H4.17L0.93 14.8389L2.34 16.2838L7 11.5423H9V13.5773L4.34 18.3188L5.76 19.7534L9 16.4568V20.6997H11V16.4568L14.24 19.7534L15.66 18.3188L11 13.5773V11.5423H13L17.66 16.2838L19.07 14.8389L15.83 11.5423H20V9.50729Z" fill="#7EB3FF"/>
</svg>
