<?xml version="1.0" encoding="utf-8"?><svg width="304" height="527" viewBox="0 0 304 527" xmlns="http://www.w3.org/2000/svg" xmlns:xlink="http://www.w3.org/1999/xlink"><svg width="15" height="17" viewBox="0 0 15 17" id="icon-addrout" x="253" y="331"><title>Shape</title><path d="M7.7 0C4.1.1 1.1 2.9.9 6.5c-.1 2.4 1 4.6 2.8 5.9 1.5 1.1 2.7 2.4 3.8 3.9l.3.5.3-.5c1.08-1.5 2.38-2.8 3.88-4 1.6-1.3 2.7-3.2 2.7-5.4 0-3.9-3.2-7-7-6.9zm2.88 7.7h-2.1v2.1H7V7.7H4.9V6.2H7V4.1h1.5v2.1h2.08v1.5z"/></svg><svg width="15" height="17" viewBox="0 0 15 17" id="icon-addrout-hover" x="268" y="331"><title>Shape</title><path d="M7.7 0C4.1.1 1.1 2.9.9 6.5c-.1 2.4 1 4.6 2.8 5.9 1.5 1.1 2.7 2.4 3.8 3.9l.3.5.3-.5c1.08-1.5 2.38-2.8 3.88-4 1.6-1.3 2.7-3.2 2.7-5.4 0-3.9-3.2-7-7-6.9zm2.88 7.7h-2.1v2.1H7V7.7H4.9V6.2H7V4.1h1.5v2.1h2.08v1.5z" fill="#FC261C"/></svg><svg width="7" height="10" viewBox="0 0 7 10" id="icon-breadcrumbs" x="295" y="71"><title>icon-breadcrumbs</title><path d="M1.04.96l4.2 4.2-4.1 4.07" stroke="#8E908F" stroke-width="2" fill="none"/></svg><svg width="21" height="18" viewBox="0 0 21 18" id="icon-call-shape" x="271" y="165"><title>Group 2</title><path d="M5.7 5.3c0-.4.4-.8.8-.8h8.2c.4 0 .8.4.8.8v.3c0 .4.4.8.8.8h3.2c.5 0 .9-.4.8-.9-.4-2.6-1.9-4.6-4.6-4.6H5.4C2.7.9 1.2 2.9.8 5.5c-.1.5.3.9.8.9h3.2c.4 0 .8-.4.8-.8v-.3h.1zM19.4 15l-1.3-4.4c-.3-.9-.9-1.6-1.7-2.1-.4-.3-1-.1-1.3.3-1 1.4-2.6 2.3-4.5 2.3s-3.5-.9-4.5-2.3c-.3-.4-.9-.5-1.3-.3-.8.5-1.4 1.2-1.7 2.1L1.8 15c-.3 1.2.5 2.3 1.7 2.3h14c1.3 0 2.2-1.2 1.9-2.3z" stroke="#FC261C" fill="none"/></svg><svg width="9" height="9" viewBox="0 0 9 9" id="icon-close" x="293" y="293"><title>Combined Shape</title><path d="M4.24 5.66L7.07 8.5 8.5 7.06 5.65 4.24 8.5 1.4 7.06 0 4.24 2.83 1.4 0 0 1.4l2.83 2.84L0 7.07 1.4 8.5l2.84-2.84z" fill="#8E908F"/></svg><svg width="9" height="9" viewBox="0 0 9 9" id="icon-close-hover" x="295" y="90"><title>Combined Shape</title><path d="M4.24 5.66L7.07 8.5 8.5 7.06 5.65 4.24 8.5 1.4 7.06 0 4.24 2.83 1.4 0 0 1.4l2.83 2.84L0 7.07 1.4 8.5l2.84-2.84z" fill="#FC261C"/></svg><svg width="9" height="9" viewBox="0 0 9 9" id="icon-close-popup-hover" x="295" y="81"><title>Combined Shape</title><path d="M4.24 5.66L7.07 8.5 8.5 7.06 5.65 4.24 8.5 1.4 7.06 0 4.24 2.83 1.4 0 0 1.4l2.83 2.84L0 7.07 1.4 8.5l2.84-2.84z" fill="#fff"/></svg><svg width="16" height="16" viewBox="0 0 16 16" id="icon-day" x="253" y="364"><title>icon-day</title><path d="M7.82 12.42c-2.5 0-4.5-2-4.5-4.5s2-4.5 4.5-4.5 4.5 2 4.5 4.5-2 4.5-4.5 4.5zm0-8c-2 0-3.5 1.6-3.5 3.5s1.6 3.5 3.5 3.5 3.5-1.6 3.5-3.5-1.6-3.5-3.5-3.5zm-1.2 11.4c-.5-.1-.9-.6-.8-1.1.1-.5.6-.9 1.1-.9.5.1.9.6.8 1.1-.1.5-.5.9-1 .9h-.1zm3.2-1.1c-.2-.5 0-1.1.5-1.3.5-.2 1.1 0 1.3.5.2.5 0 1.1-.5 1.3-.1.1-.3.1-.4.1-.4 0-.8-.2-.9-.6zm-7.3-.7c-.4-.4-.5-1-.1-1.4.4-.4 1-.5 1.4-.1.4.4.5 1 .1 1.4-.1.2-.4.3-.7.3-.2 0-.5-.1-.7-.2zm10.6-1.5c-.5-.3-.6-.9-.3-1.3.3-.5.9-.6 1.4-.3.5.3.6.9.3 1.4-.2.3-.5.5-.8.5l-.6-.3zm-13-2.3c-.2-.5.1-1.1.7-1.2.5-.2 1.1.1 1.2.7.1.5-.1 1.1-.7 1.2h-.3c-.4 0-.8-.3-.9-.7zm13.7-2.3s0-.1 0 0c0-.6.4-1.1 1-1.1.5 0 1 .4 1 1 0 .5-.5 1-1 1-.6.1-1-.3-1-.9zm-13.1-1c-.5-.2-.8-.7-.7-1.2.2-.5.7-.8 1.2-.7.5.2.8.7.7 1.2-.1.4-.5.7-1 .7 0 .1-.1.1-.2 0zm12.1-2.3c-.3-.5-.2-1.1.3-1.4.5-.3 1.1-.2 1.4.3.3.5.2 1.1-.3 1.4-.2.1-.4.2-.6.2-.3 0-.6-.2-.8-.5zm-10.4-1.3c-.4-.4-.3-1 .1-1.4.4-.4 1-.3 1.4.1.4.4.3 1-.1 1.4-.2.2-.4.2-.7.2-.2 0-.5-.1-.7-.3zm7.8-.9c-.5-.2-.7-.8-.5-1.3.2-.5.8-.7 1.3-.5.5.2.7.8.5 1.3-.2.4-.5.6-.9.6-.1 0-.3 0-.4-.1zm-4.5-1.3c-.1-.6.3-1.1.8-1.1.5-.1 1.1.3 1.1.8.1.6-.3 1.1-.8 1.1h-.1c-.5.1-.9-.3-1-.8z" fill="#FC261C"/></svg><svg width="15" height="11" viewBox="0 0 15 11" id="icon-direction" x="287" y="129"><title>icon-direction</title><g fill="none"><path stroke="#8E908F" d="M7.27 6l-3.2 4.2L1 6.1m13.27-.9L11.07 1 8 5.08"/><path fill="#8E908F" d="M10.5 1h1v10h-1zm-7-1h1v10h-1z"/></g></svg><svg width="20" height="20" viewBox="0 0 20 20" id="icon-discount" x="253" y="240"><title>icon-discount</title><defs><circle id="aja" cx="10" cy="10" r="10"/></defs><g fill="none"><use fill="#fff" xlink:href="#aja"/><circle cx="10" cy="10" r="9.5" stroke="#FC261C"/><path fill="#FC261C" d="M5.96 8c0 .58.06 1.02.17 1.3.12.3.3.43.56.43.5 0 .76-.58.76-1.73S7.2 6.27 6.7 6.27c-.27 0-.45.14-.57.43-.1.28-.17.72-.17 1.3zM8.6 8c0 .9-.16 1.56-.48 2-.33.46-.8.7-1.43.7-.6 0-1.06-.24-1.4-.7-.32-.48-.48-1.14-.48-2 0-1.8.62-2.7 1.87-2.7.6 0 1.08.24 1.4.7.34.47.5 1.13.5 2zm2.94 3.42c0 .58.06 1.02.17 1.3.13.3.32.44.57.44.52 0 .77-.58.77-1.74 0-1.14-.25-1.7-.77-1.7-.25 0-.44.13-.56.4-.1.3-.16.72-.16 1.3zm2.64 0c0 .9-.16 1.57-.5 2.02-.3.45-.78.68-1.4.68-.6 0-1.06-.23-1.4-.7-.32-.46-.48-1.13-.48-2 0-1.78.62-2.68 1.87-2.68.6 0 1.07.23 1.4.7.34.46.5 1.12.5 1.98zm-1.74-6L7.7 14H6.54l4.75-8.57h1.14z"/></g></svg><svg width="20" height="14" viewBox="0 0 20 14" id="icon-doc-shape" x="274" y="222"><title>icon-doc-shape</title><rect width="18" height="12" y="2" rx="2" transform="translate(1 -1)" stroke="#FC261C" fill="none"/></svg><svg width="17" height="22" viewBox="0 0 17 22" id="icon-download" x="287" y="107"><title>icon-download</title><path d="M17 7.94h-4.86V.6H4.86v7.34H0l8.5 8.56L17 7.94zm-17 11v2.45h17v-2.46H0z" fill="#FC261C"/></svg><svg width="16" height="16" viewBox="0 0 16 16" id="icon-hideopt" x="283" y="331"><title>Combined Shape</title><path d="M8 16c-4.42 0-8-3.58-8-8s3.58-8 8-8 8 3.58 8 8-3.58 8-8 8zm4-8.75H4v1.5h8v-1.5z"/></svg><svg width="20" height="13" viewBox="0 0 20 13" id="icon-input-mail" x="274" y="208"><title>icon mail</title><path d="M10.5 7c-.3.1-.5.2-.8.2-.3 0-.6-.1-.8-.2L0 2.5v9.2c0 .6.4 1 1 1h17.5c.6 0 1-.4 1-1V2.5l-9 4.5zm-1-1.3h.3L19.2 1c-.2-.3-.5-.5-.8-.5H.9C.5.5.2.7.1 1l9.4 4.7z" fill="#D9D9D9"/></svg><svg width="20" height="13" viewBox="0 0 20 13" id="icon-input-mail-hover" x="269" y="260"><title>Group 17</title><path d="M10.5 7c-.3.1-.5.2-.8.2-.3 0-.6-.1-.8-.2L0 2.5v9.2c0 .6.4 1 1 1h17.5c.6 0 1-.4 1-1V2.5l-9 4.5zm-1-1.3h.3L19.2 1c-.2-.3-.5-.5-.8-.5H.9C.5.5.2.7.1 1l9.4 4.7z" fill="#FC261C"/></svg><svg width="20" height="18" viewBox="0 0 20 18" id="icon-input-message" x="253" y="293"><title>icon-input-message</title><g fill="none" fill-rule="evenodd"><path d="M8.167 14h9.842A2.003 2.003 0 0 0 20 11.994V2.006A1.998 1.998 0 0 0 18.01 0H1.99C.899 0 0 .898 0 2.006v9.988C0 13.103.891 14 1.99 14H4v2.49c0 1.381.714 1.653 1.596.595L8.166 14z" fill="#D9D9D9"/><path d="M5.191 7.517c0-.344.093-.605.277-.78.185-.177.453-.265.806-.265.34 0 .604.09.79.27.187.18.28.439.28.775 0 .324-.094.58-.283.766-.189.186-.45.28-.787.28-.345 0-.611-.091-.8-.274-.188-.182-.283-.44-.283-.772zm3.78 0c0-.344.091-.605.276-.78.184-.177.453-.265.806-.265.34 0 .603.09.79.27.186.18.28.439.28.775 0 .324-.095.58-.283.766-.189.186-.451.28-.787.28-.345 0-.611-.091-.8-.274-.189-.182-.283-.44-.283-.772zm3.778 0c0-.344.092-.605.277-.78.184-.177.453-.265.805-.265.34 0 .604.09.79.27.187.18.28.439.28.775 0 .324-.094.58-.283.766-.188.186-.45.28-.787.28-.344 0-.61-.091-.8-.274-.188-.182-.282-.44-.282-.772z" fill="#FFF"/></g></svg><svg width="20" height="18" viewBox="0 0 20 18" id="icon-input-message-hover" x="273" y="293"><title>icon-input-message</title><g fill="none" fill-rule="evenodd"><path d="M8.167 14h9.842A2.003 2.003 0 0 0 20 11.994V2.006A1.998 1.998 0 0 0 18.01 0H1.99C.899 0 0 .898 0 2.006v9.988C0 13.103.891 14 1.99 14H4v2.49c0 1.381.714 1.653 1.596.595L8.166 14z" fill="#F00"/><path d="M5.191 7.517c0-.344.093-.605.277-.78.185-.177.453-.265.806-.265.34 0 .604.09.79.27.187.18.28.439.28.775 0 .324-.094.58-.283.766-.189.186-.45.28-.787.28-.345 0-.611-.091-.8-.274-.188-.182-.283-.44-.283-.772zm3.78 0c0-.344.091-.605.276-.78.184-.177.453-.265.806-.265.34 0 .603.09.79.27.186.18.28.439.28.775 0 .324-.095.58-.283.766-.189.186-.451.28-.787.28-.345 0-.611-.091-.8-.274-.189-.182-.283-.44-.283-.772zm3.778 0c0-.344.092-.605.277-.78.184-.177.453-.265.805-.265.34 0 .604.09.79.27.187.18.28.439.28.775 0 .324-.094.58-.283.766-.188.186-.45.28-.787.28-.344 0-.61-.091-.8-.274-.188-.182-.282-.44-.282-.772z" fill="#FFF"/></g></svg><svg width="12" height="13" viewBox="0 0 12 13" id="icon-input-number" x="292" y="141"><title>Shape</title><path d="M12 4.88V3.25H9.86L10.28 0h-1.7l-.44 3.25H4.7L5.15 0h-1.7L3 3.25H0v1.63h2.78l-.42 3.25H0v1.62h2.14L1.7 13h1.73l.43-3.25H7.3L6.85 13h1.7L9 9.75h3V8.12H9.2l.44-3.24H12zM7.5 8.13H4.07l.43-3.26h3.43L7.5 8.13z" fill="#D9D9D9"/></svg><svg width="12" height="13" viewBox="0 0 12 13" id="icon-input-number-hover" x="292" y="165"><title>Shape</title><path d="M12 4.88V3.25H9.86L10.28 0h-1.7l-.44 3.25H4.7L5.15 0h-1.7L3 3.25H0v1.63h2.78l-.42 3.25H0v1.62h2.14L1.7 13h1.73l.43-3.25H7.3L6.85 13h1.7L9 9.75h3V8.12H9.2l.44-3.24H12zM7.5 8.13H4.07l.43-3.26h3.43L7.5 8.13z" fill="#FC261C"/></svg><svg width="15" height="19" viewBox="0 0 15 19" id="icon-input-user" x="285" y="311"><title>icon-input-user</title><g fill="#D9D9D9"><path d="M6.3 10.25l3.9.05c2 0 3.9 1.46 3.9 3.2v4.9H0v-4.9c0-1.74 1.8-3.2 3.8-3.2l2.5-.05z"/><circle cx="7" cy="4.8" r="4.5"/></g></svg><svg width="15" height="19" viewBox="0 0 15 19" id="icon-input-user-hover" x="289" y="240"><title>icon-input-user</title><g fill="#F00" fill-rule="evenodd"><path d="M6.295 10.248l3.905.052c2 0 3.9 1.465 3.9 3.188V18.4H0v-4.912C0 11.765 1.8 10.3 3.8 10.3l2.495-.052z"/><circle cx="7" cy="4.8" r="4.5"/></g></svg><svg width="13" height="13" viewBox="0 0 13 13" id="icon-location" x="283" y="364"><title>icon-location</title><path d="M0 4.43l6.5 2.05L8.57 13 13 0z"/></svg><svg width="20" height="13" viewBox="0 0 20 13" id="icon-mail" x="253" y="280"><title>icon-mail</title><path d="M10.5 7c-.3.1-.5.2-.8.2-.3 0-.6-.1-.8-.2L0 2.5v9.2c0 .6.4 1 1 1h17.5c.6 0 1-.4 1-1V2.5l-9 4.5zm-1-1.3h.3L19.2 1c-.2-.3-.5-.5-.8-.5H.9C.5.5.2.7.1 1l9.4 4.7z" fill="#FC261C"/></svg><svg width="21" height="14" viewBox="0 0 21 14" id="icon-mail-shape" x="253" y="208"><title>Group 10 Copy</title><path d="M10.7 8.2c-.3 0-.6-.1-.8-.2L1 3.5v8.2c0 .6.4 1 1 1h17.5c.6 0 1-.4 1-1V3.5l-9 4.5c-.3.1-.5.2-.8.2zm-.2-2.5h.3L20.2 1c-.2-.3-.5-.5-.8-.5H1.9c-.4 0-.7.2-.8.5l9.4 4.7z" stroke="#FC261C" fill="none"/></svg><svg width="10" height="7" viewBox="0 0 10 7" id="icon-menu-arrow" x="294" y="222"><title>menu-arrow</title><path d="M9.27 1l-4.2 4.2L1 1.1" stroke="#fff" stroke-width="2" fill="none"/></svg><svg width="10" height="7" viewBox="0 0 10 7" id="icon-menu-arrow-hover" x="294" y="208"><title>icon-menu-arrow-hover</title><path d="M9.27 6.2L5.07 2 1 6.08" stroke="#FC261C" stroke-width="2" fill="none"/></svg><svg width="16" height="16" viewBox="0 0 16 16" id="icon-moreopt" x="253" y="348"><title>Combined Shape</title><path d="M8.75 7.25V4h-1.5v3.25H4v1.5h3.25V12h1.5V8.75H12v-1.5H8.75zM8 16c-4.42 0-8-3.58-8-8s3.58-8 8-8 8 3.58 8 8-3.58 8-8 8z"/></svg><svg width="14" height="15" viewBox="0 0 14 15" id="icon-night" x="269" y="364"><title>icon-night</title><path d="M4.2 1.63c-.13.52-.2 1.05-.2 1.6 0 4.13 3.36 7.5 7.5 7.5a7.5 7.5 0 0 0 1.58-.18 6.495 6.495 0 0 1-5.58 3.17c-3.6 0-6.5-2.9-6.5-6.5 0-2.34 1.24-4.43 3.17-5.6z" stroke="#FC261C" fill="none"/></svg><svg width="20" height="24" viewBox="0 0 20 24" id="icon-order-truck" x="253" y="141"><title>icon-truck</title><g transform="translate(.5 1)" fill="none"><path stroke="#FC261C" d="M17.2 19.7v-3.3l-1.1-9.5c0-.6-.5-1.1-1.1-1.1H4c-.6 0-1.1.5-1.1 1.1l-1.1 9.5v3.3h15.4z"/><path stroke="#FC261C" d="M2.5 13.5h14" stroke-linecap="square"/><path stroke="#FC261C" d="M18.3 17.3L18.4.2H.7v17.1"/><circle cx="4.5" cy="16.3" r="1" fill="#FC261C"/><circle cx="14.5" cy="16.3" r="1" fill="#FC261C"/><path stroke="#FC261C" d="M5.5 19.7v2.1h-2v-2.1m12 0v2.1h-2v-2.1m-6.5-4h5v2.1H7z"/></g></svg><svg width="19" height="24" viewBox="0 0 19 24" id="icon-order-truck-white" x="273" y="141"><title>icon-order-truck-white</title><g transform="translate(0 1)" fill="none"><path stroke="#fff" d="M17.2 19.7v-3.3l-1.1-9.5c0-.6-.5-1.1-1.1-1.1H4c-.6 0-1.1.5-1.1 1.1l-1.1 9.5v3.3h15.4z"/><path stroke="#fff" d="M2.5 13.5h14" stroke-linecap="square"/><path stroke="#fff" d="M18.3 17.3L18.4.2H.7v17.1"/><circle cx="4.5" cy="16.3" r="1" fill="#fff"/><circle cx="14.5" cy="16.3" r="1" fill="#fff"/><path stroke="#fff" d="M5.5 19.7v2.1h-2v-2.1m12 0v2.1h-2v-2.1m-6.5-4h5v2.1H7z"/></g></svg><svg width="16" height="20" viewBox="0 0 16 20" id="icon-password" x="253" y="260"><title>Shape</title><path d="M14.4 19.5H1.6c-.87 0-1.6-.7-1.6-1.57V10.1c0-.87.73-1.57 1.6-1.57h.8V6.18C2.4 3.15 4.93.68 8 .68c3.1 0 5.6 2.47 5.6 5.5v2.35h.8c.9 0 1.6.7 1.6 1.57v7.83c0 .87-.7 1.57-1.6 1.57zM11.2 6.18c0-1.73-1.43-3.14-3.2-3.14-1.76 0-3.2 1.4-3.2 3.14v2.35h6.4V6.18z" fill="#D9D9D9"/></svg><svg width="16" height="20" viewBox="0 0 16 20" id="icon-password-hover" x="253" y="311"><title>Shape</title><path d="M14.4 19.5H1.6c-.87 0-1.6-.7-1.6-1.57V10.1c0-.87.73-1.57 1.6-1.57h.8V6.18C2.4 3.15 4.93.68 8 .68c3.1 0 5.6 2.47 5.6 5.5v2.35h.8c.9 0 1.6.7 1.6 1.57v7.83c0 .87-.7 1.57-1.6 1.57zM11.2 6.18c0-1.73-1.43-3.14-3.2-3.14-1.76 0-3.2 1.4-3.2 3.14v2.35h6.4V6.18z" fill="#FC261C"/></svg><svg width="21" height="18" viewBox="0 0 21 18" id="icon-phone" x="253" y="222"><title>icon-phone</title><path d="M5.7 5.3c0-.4.4-.8.8-.8h8.2c.4 0 .8.4.8.8v.3c0 .4.4.8.8.8h3.2c.5 0 .9-.4.8-.9-.4-2.6-1.9-4.6-4.6-4.6H5.4C2.7.9 1.2 2.9.8 5.5c-.1.5.3.9.8.9h3.2c.4 0 .8-.4.8-.8v-.3h.1zm12.4 5.3c-.3-.9-.9-1.6-1.7-2.1-.4-.3-1-.1-1.3.3-1 1.4-2.6 2.3-4.5 2.3s-3.5-.9-4.5-2.3c-.3-.4-.9-.5-1.3-.3-.8.5-1.4 1.2-1.7 2.1L1.8 15c-.3 1.2.5 2.3 1.7 2.3h14c1.3 0 2.2-1.2 1.9-2.3l-1.3-4.4z" fill="#FC261C"/></svg><svg width="21" height="18" viewBox="0 0 21 18" id="icon-phone-input" x="270" y="187"><title>icon-phone-input</title><path d="M5.7 5.46c0-.4.4-.82.8-.82h8.2c.4 0 .8.4.8.82v.3c0 .42.4.84.8.84h3.2c.5 0 .9-.42.8-.93C19.9 3 18.4.94 15.7.94H5.4C2.7.94 1.2 3 .8 5.67c-.1.5.3.93.8.93h3.2c.4 0 .8-.42.8-.83v-.3h.1zm13.7 9.98l-1.3-4.52c-.3-.93-.9-1.65-1.7-2.16-.4-.3-1-.1-1.3.3-1 1.45-2.6 2.37-4.5 2.37s-3.5-.92-4.5-2.36c-.3-.42-.9-.52-1.3-.3-.8.5-1.4 1.22-1.7 2.15l-1.3 4.52c-.3 1.24.5 2.37 1.7 2.37h14c1.3 0 2.2-1.22 1.9-2.36z" fill="#D9D9D9"/></svg><svg width="17" height="21" viewBox="0 0 17 21" id="icon-pin" x="253" y="187"><title>icon-pin</title><path d="M8 0h-.2C3.5.1 0 3.7 0 8.1c0 2.1.8 4 2.2 5.5 1.8 1.9 3.7 4 5.3 6.3l.6.9 1.3-2c1.3-2 2.9-3.7 4.4-5.1 1.5-1.5 2.4-3.6 2.4-5.7-.1-4.4-3.7-8-8.2-8zm0 10.9c-1.8 0-3.2-1.4-3.2-3.2 0-1.8 1.4-3.2 3.2-3.2 1.8 0 3.2 1.4 3.2 3.2 0 1.8-1.4 3.2-3.2 3.2z" fill="#FC261C"/></svg><svg width="18" height="22" viewBox="0 0 18 22" id="icon-pin-shape" x="253" y="165"><title>icon-pin-shape</title><path d="M9 1h-.2C4.5 1.1 1 4.7 1 9.1c0 2.1.8 4 2.2 5.5 1.8 1.9 3.7 4 5.3 6.3l.6.9 1.3-2c1.3-2 2.9-3.7 4.4-5.1 1.5-1.5 2.4-3.6 2.4-5.7-.1-4.4-3.7-8-8.2-8zm0 10.9c-1.8 0-3.2-1.4-3.2-3.2 0-1.8 1.4-3.2 3.2-3.2 1.8 0 3.2 1.4 3.2 3.2 0 1.8-1.4 3.2-3.2 3.2z" stroke="#FC261C" fill="none"/></svg><svg width="12" height="12" viewBox="0 0 12 12" id="icon-reset" x="266" y="380"><title>icon-reset</title><path d="M6 .5C2.96.5.5 2.96.5 6s2.46 5.5 5.5 5.5c1.47.02 2.88-.54 3.93-1.57L8.85 8.75C8.1 9.52 7.07 9.95 6 9.93a3.93 3.93 0 0 1 0-7.86 4 4 0 0 1 2.85 1.18L7.18 4.82h4.32V.5L9.93 2.07A5.491 5.491 0 0 0 6 .5" fill="#fff"/></svg><svg width="12" height="12" viewBox="0 0 12 12" id="icon-reset-red" x="278" y="380"><title>Shape</title><path d="M.5 6c0 3.04 2.46 5.5 5.5 5.5 1.47.02 2.88-.54 3.93-1.57L8.85 8.75C8.1 9.52 7.07 9.95 6 9.93a3.93 3.93 0 0 1 0-7.86 4 4 0 0 1 2.85 1.18L7.18 4.82h4.32V.5L9.93 2.07A5.491 5.491 0 0 0 6 .5C2.96.5.5 2.96.5 6z" fill="#FC261C"/></svg><svg width="13" height="13" viewBox="0 0 13 13" id="icon-rout-arrow" x="253" y="380"><title>icon-rout-arrow</title><path d="M0 4.43l6.5 2.05L8.57 13 13 0z"/></svg><svg width="13" height="13" viewBox="0 0 13 13" id="icon-rout-arrow-hover" x="291" y="187"><title>icon-rout-arrow</title><path d="M0 4.43l6.5 2.05L8.57 13 13 0z" fill="#FC261C"/></svg><svg width="15" height="11" viewBox="0 0 15 11" id="icon-rout-direction" x="273" y="280"><title>Group 18</title><g fill="none"><path stroke="#8E908F" d="M7.15 6l-3.18 4.2L.9 6.1m13.24-.92L10.94 1 7.88 5.1"/><path fill="#8E908F" d="M10.37 1h1v10h-1zM3.4 0h1v10h-1z"/></g></svg><svg width="15" height="11" viewBox="0 0 15 11" id="icon-rout-direction-hover" x="289" y="260"><title>Group 21</title><g fill="none" fill-rule="evenodd"><path stroke="#FC261C" d="M7.269 6l-3.187 4.187L1 6.105m13.269-.918L11.082 1 8 5.082"/><path fill="#FC261C" d="M10.5 1h1v10h-1zm-7-1h1v10h-1z"/></g></svg><svg width="51" height="30" viewBox="0 0 51 30" id="icon-serve" x="253"><title>Group 16</title><g fill="none"><rect width="30" height="30" x="21" fill="#FC261C" rx="6"/><path d="M30.4 9H11.2m19.9 5.3H16.6m-.8 6.1H0m12.2-6.1H5.3" fill="#F1F2F2" stroke="#FC261C"/></g></svg><svg width="13" height="9" viewBox="0 0 13 9" id="icon-show-filter" x="288" y="280"><title>Path 2 Copy 3</title><path d="M1.47 1.53l5.19 5.19 5.06-5.06" stroke-width="2" stroke="#FC261C" fill="none"/></svg><svg width="34" height="34" viewBox="0 0 34 34" id="icon-slider-arrow" x="253" y="107"><title>icon-slider-arrow</title><path d="M14.14 17.5l7.07 7.07c.4.4.4 1.02 0 1.42-.4.38-1.02.38-1.4 0L12 18.2c-.18-.2-.28-.44-.28-.7 0-.26.1-.5.3-.7L19.78 9c.38-.38 1.02-.38 1.4 0 .4.4.4 1.04 0 1.43l-7.06 7.07zM34 2c0-1.1-.9-2-2-2H2C.9 0 0 .9 0 2v30c0 1.1.9 2 2 2h30c1.1 0 2-.9 2-2V2z" fill="#D9D9D9"/></svg><svg width="47" height="41" viewBox="0 0 47 41" id="icon-step-arrow" x="253" y="30"><title>Group 13</title><path d="M7.7 10.93h18.5V0l20.14 20.5L26.18 41V29.72H7.7zM1 34.17V8.54" stroke="#D1D1D2" fill="none"/></svg><svg width="11" height="9" viewBox="0 0 11 9" id="icon-success" x="292" y="154"><title>Path 2</title><path d="M10.27 1l-6.2 6.2L1 4.1" stroke="#1DD653" stroke-width="2" fill="none"/></svg><svg width="16" height="20" viewBox="0 0 16 20" id="icon-tel" x="273" y="240"><title>icon-tel</title><path d="M11.34 14.6c-.4.25-.9.12-1.14-.3L5.78 6.66c-.24-.42-.1-.9.3-1.14l.52-.38c.4-.24.45-.76.2-1.18L5.1.94c-.24-.4-.9-.6-1.25-.25C1.6 2.53.4 5.2 1.9 7.8l5.54 9.62c1.5 2.58 4.47 2.38 7.2 1.36.47-.14.64-.8.4-1.2l-1.73-3a.787.787 0 0 0-1.13-.3l-.4.14-.43.2z" stroke="#FC261C" fill="none"/></svg><svg width="16" height="16" viewBox="0 0 16 16" id="icon-time" x="285" y="348"><title>icon-time</title><g fill="none"><path fill="#000" stroke="#000" d="M8 15c-3.9 0-7-3.1-7-7s3.1-7 7-7 7 3.1 7 7-3.1 7-7 7z"/><path stroke="#fff" d="M8 2.47V8h4.24"/></g></svg><svg width="16" height="16" viewBox="0 0 16 16" id="icon-time-hover" x="269" y="348"><title>icon-time</title><g fill="none"><path fill="#FC261C" stroke="#FC261C" d="M8 15c-3.9 0-7-3.1-7-7s3.1-7 7-7 7 3.1 7 7-3.1 7-7 7z"/><path stroke="#fff" d="M8 2.47V8h4.24"/></g></svg><svg width="16" height="19" viewBox="0 0 16 19" id="icon-user" x="269" y="311"><title>icon-user</title><g transform="translate(1 1)" stroke="#FC261C" fill="none"><path d="M6.3 9l3.9.05c2 0 3.9 1.47 3.9 3.2v4.9H0v-4.9c0-1.73 1.8-3.2 3.8-3.2L6.3 9z"/><circle cx="7.5" cy="4.5" r="4.5"/></g></svg><svg width="21" height="36" viewBox="0 0 21 36" id="icon-worker" x="253" y="71"><title>worker copy 2</title><g stroke="#D9D9D9" fill="none"><path d="M7.3 3.4v1.2c0 1.7 1.4 3.1 3.1 3.1 1.7 0 3.1-1.4 3.1-3.1V3.4m2.4 29.8V13.5M7.4 33.1l2.2-8.8c.3-.8 1.4-.8 1.7 0l2.1 8.8M4.9 13.5v19.6m1.3-20.3l-2.6 1.3m10.9-1.3l2.7 1.3M4.9 21L.7 15.1l4.2-6.3h3.2v.9c0 1.2 1 2.2 2.2 2.2 1.2 0 2.2-1 2.2-2.2v-.9h3.3l4.2 6.3-4.2 5.9M12.1.6H8.7c-.7 0-1.3.6-1.3 1.3v1.4h6.1V2c0-.8-.6-1.4-1.4-1.4zm1.4 2.8h1.6"/><path d="M7.4 34.8H3.9l1-1.7h2.5zm9.4 0h-3.5v-1.7h2.5zM8 14.8h4.8v2.9H8z"/></g></svg><svg width="21" height="36" viewBox="0 0 21 36" id="icon-worker-active" x="274" y="71"><title>Group</title><g stroke="#FC261C" fill="none"><path d="M7.3 3.4v1.2c0 1.7 1.4 3.1 3.1 3.1 1.7 0 3.1-1.4 3.1-3.1V3.4m2.4 29.8V13.5M7.4 33.1l2.2-8.8c.3-.8 1.4-.8 1.7 0l2.1 8.8M4.9 13.5v19.6m1.3-20.3l-2.6 1.3m10.9-1.3l2.7 1.3M4.9 21L.7 15.1l4.2-6.3h3.2v.9c0 1.2 1 2.2 2.2 2.2 1.2 0 2.2-1 2.2-2.2v-.9h3.3l4.2 6.3-4.2 5.9M12.1.6H8.7c-.7 0-1.3.6-1.3 1.3v1.4h6.1V2c0-.8-.6-1.4-1.4-1.4zm1.4 2.8h1.6"/><path d="M7.4 34.8H3.9l1-1.7h2.5zm9.4 0h-3.5v-1.7h2.5zM8 14.8h4.8v2.9H8z"/></g></svg><svg width="253" height="527" viewBox="0 0 253 527" id="mobile-shape"><title>mobile-shape</title><defs><linearGradient id="cba" x1="50.01%" x2="50.01%" y1="152.713%" y2="-6.142%"><stop stop-color="#F3F3F3" offset="0%"/><stop stop-color="#EDEDED" offset="100%"/></linearGradient><path id="cbb" d="M0 0h220v390H0z"/></defs><g transform="translate(0 1)" fill="none"><path stroke="#8E908F" d="M225.86 525H30.06c-14.74 0-26.6-13.1-26.6-29.4V31.98C3.45 15.7 15.3 2.6 30.05 2.6h195.8c14.75 0 26.6 13.1 26.6 29.37V495.6c0 16.17-11.85 29.4-26.6 29.4z"/><path fill="url(#cba)" stroke="#8E908F" d="M219.76 5.18H192c-1.6 0-3.03-1.13-3.03-2.6C188.97 1.22 190.3 0 192 0h27.76c1.6 0 3.03 1.13 3.03 2.6 0 1.45-1.33 2.58-3.04 2.58z"/><path fill="url(#cba)" stroke="#8E908F" d="M10.1 83.26H-4.1c-.83 0-1.56-.94-1.56-2.16 0-1.14.68-2.16 1.56-2.16h14.2c.84 0 1.57.95 1.57 2.16 0 1.22-.68 2.16-1.56 2.16z" transform="rotate(-270 2.994 81.102)"/><path fill="url(#cba)" stroke="#8E908F" d="M8 119.96H-2c-.58 0-1.1-.95-1.1-2.16 0-1.15.5-2.16 1.1-2.16H8c.57 0 1.08.94 1.08 2.16 0 1.2-.48 2.16-1.1 2.16z" transform="rotate(-270 2.994 117.799)"/><path fill="url(#cba)" stroke="#8E908F" d="M8 145.86H-2c-.58 0-1.1-.94-1.1-2.16 0-1.14.5-2.16 1.1-2.16H8c.57 0 1.08.95 1.08 2.16 0 1.22-.48 2.16-1.1 2.16z" transform="rotate(-270 2.994 143.703)"/><ellipse cx="128.148" cy="490.979" stroke="#8E908F" rx="16.993" ry="16.939"/><g transform="translate(18.823 72.417)"><use fill="#fff" xlink:href="#cbb"/><path stroke="#979797" d="M-.5-.5h221v391H-.5z"/></g><g stroke="#8E908F" transform="translate(98.207 37.256)"><path d="M56.28 8.43H18c-2.22 0-4.18-1.82-4.18-4.16C13.82 2.05 15.65.1 18 .1h38.28c2.22 0 4.18 1.82 4.18 4.17 0 2.34-1.83 4.16-4.18 4.16z"/><ellipse cx="4.281" cy="4.395" rx="4.181" ry="4.168"/></g></g></svg></svg>