<svg width="165" height="126" viewBox="0 0 165 126" fill="none" xmlns="http://www.w3.org/2000/svg">
<rect opacity="0.3" y="32" width="165" height="23" rx="4" fill="#C4C4C4"/>
<rect opacity="0.3" width="78" height="24" rx="4" fill="#C4C4C4"/>
<rect opacity="0.3" x="86" width="79" height="24" rx="4" fill="#C4C4C4"/>
<path d="M104.746 8.82227C104.062 8.82227 103.533 9.08008 103.158 9.5957C102.783 10.1074 102.596 10.8223 102.596 11.7402C102.596 13.6504 103.312 14.6055 104.746 14.6055C105.348 14.6055 106.076 14.4551 106.932 14.1543V15.6777C106.229 15.9707 105.443 16.1172 104.576 16.1172C103.33 16.1172 102.377 15.7402 101.717 14.9863C101.057 14.2285 100.727 13.1426 100.727 11.7285C100.727 10.8379 100.889 10.0586 101.213 9.39062C101.537 8.71875 102.002 8.20508 102.607 7.84961C103.217 7.49023 103.93 7.31055 104.746 7.31055C105.578 7.31055 106.414 7.51172 107.254 7.91406L106.668 9.39062C106.348 9.23828 106.025 9.10547 105.701 8.99219C105.377 8.87891 105.059 8.82227 104.746 8.82227ZM111.332 10.5977C110.953 10.5977 110.656 10.7188 110.441 10.9609C110.227 11.1992 110.104 11.5391 110.072 11.9805H112.58C112.572 11.5391 112.457 11.1992 112.234 10.9609C112.012 10.7188 111.711 10.5977 111.332 10.5977ZM111.584 16.1172C110.529 16.1172 109.705 15.8262 109.111 15.2441C108.518 14.6621 108.221 13.8379 108.221 12.7715C108.221 11.6738 108.494 10.8262 109.041 10.2285C109.592 9.62695 110.352 9.32617 111.32 9.32617C112.246 9.32617 112.967 9.58984 113.482 10.1172C113.998 10.6445 114.256 11.373 114.256 12.3027V13.1699H110.031C110.051 13.6777 110.201 14.0742 110.482 14.3594C110.764 14.6445 111.158 14.7871 111.666 14.7871C112.061 14.7871 112.434 14.7461 112.785 14.6641C113.137 14.582 113.504 14.4512 113.887 14.2715V15.6543C113.574 15.8105 113.24 15.9258 112.885 16C112.529 16.0781 112.096 16.1172 111.584 16.1172ZM120.232 9.44922V10.791H117.496V16H115.709V9.44922H120.232ZM122.875 12.7129C122.875 13.3613 122.98 13.8516 123.191 14.1836C123.406 14.5156 123.754 14.6816 124.234 14.6816C124.711 14.6816 125.053 14.5176 125.26 14.1895C125.471 13.8574 125.576 13.3652 125.576 12.7129C125.576 12.0645 125.471 11.5781 125.26 11.2539C125.049 10.9297 124.703 10.7676 124.223 10.7676C123.746 10.7676 123.402 10.9297 123.191 11.2539C122.98 11.5742 122.875 12.0605 122.875 12.7129ZM127.404 12.7129C127.404 13.7793 127.123 14.6133 126.561 15.2148C125.998 15.8164 125.215 16.1172 124.211 16.1172C123.582 16.1172 123.027 15.9805 122.547 15.707C122.066 15.4297 121.697 15.0332 121.439 14.5176C121.182 14.002 121.053 13.4004 121.053 12.7129C121.053 11.6426 121.332 10.8105 121.891 10.2168C122.449 9.62305 123.234 9.32617 124.246 9.32617C124.875 9.32617 125.43 9.46289 125.91 9.73633C126.391 10.0098 126.76 10.4023 127.018 10.9141C127.275 11.4258 127.404 12.0254 127.404 12.7129ZM132.982 14.6934V10.791H131.641C131.543 11.5176 131.408 12.207 131.236 12.8594C131.068 13.5117 130.834 14.123 130.533 14.6934H132.982ZM135.73 18.3496H134.125V16H129.719V18.3496H128.113V14.6934H128.664C129.039 14.1113 129.354 13.377 129.607 12.4902C129.861 11.6035 130.039 10.5898 130.141 9.44922H134.77V14.6934H135.73V18.3496ZM138.637 9.44922V11.9688H141.133V9.44922H142.92V16H141.133V13.2988H138.637V16H136.85V9.44922H138.637ZM145.791 16H143.857L145.621 13.4102C145.199 13.2344 144.879 12.9805 144.66 12.6484C144.445 12.3164 144.338 11.9258 144.338 11.4766C144.338 10.8438 144.574 10.3477 145.047 9.98828C145.523 9.62891 146.172 9.44922 146.992 9.44922H150.039V16H148.252V13.5625H147.268L145.791 16ZM146.09 11.4883C146.09 11.7617 146.197 11.9766 146.412 12.1328C146.627 12.2852 146.908 12.3613 147.256 12.3613H148.252V10.709H147.027C146.734 10.709 146.504 10.7812 146.336 10.9258C146.172 11.0664 146.09 11.2539 146.09 11.4883Z" fill="white"/>
<path d="M30.5 12.7168C30.5 14.2129 30.2539 15.3203 29.7617 16.0391C29.2734 16.7578 28.5195 17.1172 27.5 17.1172C26.5117 17.1172 25.7656 16.7461 25.2617 16.0039C24.7617 15.2617 24.5117 14.166 24.5117 12.7168C24.5117 11.2051 24.7559 10.0918 25.2441 9.37695C25.7324 8.6582 26.4844 8.29883 27.5 8.29883C28.4883 8.29883 29.2344 8.67383 29.7383 9.42383C30.2461 10.1738 30.5 11.2715 30.5 12.7168ZM26.3105 12.7168C26.3105 13.7676 26.4004 14.5215 26.5801 14.9785C26.7637 15.4316 27.0703 15.6582 27.5 15.6582C27.9219 15.6582 28.2266 15.4277 28.4141 14.9668C28.6016 14.5059 28.6953 13.7559 28.6953 12.7168C28.6953 11.666 28.5996 10.9121 28.4082 10.4551C28.2207 9.99414 27.918 9.76367 27.5 9.76367C27.0742 9.76367 26.7695 9.99414 26.5859 10.4551C26.4023 10.9121 26.3105 11.666 26.3105 12.7168ZM32.2637 17L35.4805 9.96875H31.2559V8.44531H37.4023V9.58203L34.1621 17H32.2637ZM38.4746 16.1621C38.4746 15.834 38.5625 15.5859 38.7383 15.418C38.9141 15.25 39.1699 15.166 39.5059 15.166C39.8301 15.166 40.0801 15.252 40.2559 15.4238C40.4355 15.5957 40.5254 15.8418 40.5254 16.1621C40.5254 16.4707 40.4355 16.7148 40.2559 16.8945C40.0762 17.0703 39.8262 17.1582 39.5059 17.1582C39.1777 17.1582 38.9238 17.0723 38.7441 16.9004C38.5645 16.7246 38.4746 16.4785 38.4746 16.1621ZM38.4746 11.3223C38.4746 10.9941 38.5625 10.7461 38.7383 10.5781C38.9141 10.4102 39.1699 10.3262 39.5059 10.3262C39.8301 10.3262 40.0801 10.4121 40.2559 10.584C40.4355 10.7559 40.5254 11.002 40.5254 11.3223C40.5254 11.6387 40.4336 11.8848 40.25 12.0605C40.0703 12.2324 39.8223 12.3184 39.5059 12.3184C39.1777 12.3184 38.9238 12.2324 38.7441 12.0605C38.5645 11.8887 38.4746 11.6426 38.4746 11.3223ZM47.3457 10.3496C47.3457 10.8848 47.1836 11.3398 46.8594 11.7148C46.5352 12.0898 46.0801 12.3477 45.4941 12.4883V12.5234C46.1855 12.6094 46.709 12.8203 47.0645 13.1562C47.4199 13.4883 47.5977 13.9375 47.5977 14.5039C47.5977 15.3281 47.2988 15.9707 46.7012 16.4316C46.1035 16.8887 45.25 17.1172 44.1406 17.1172C43.2109 17.1172 42.3867 16.9629 41.668 16.6543V15.1133C42 15.2812 42.3652 15.418 42.7637 15.5234C43.1621 15.6289 43.5566 15.6816 43.9473 15.6816C44.5449 15.6816 44.9863 15.5801 45.2715 15.377C45.5566 15.1738 45.6992 14.8477 45.6992 14.3984C45.6992 13.9961 45.5352 13.7109 45.207 13.543C44.8789 13.375 44.3555 13.291 43.6367 13.291H42.9863V11.9023H43.6484C44.3125 11.9023 44.7969 11.8164 45.1016 11.6445C45.4102 11.4688 45.5645 11.1699 45.5645 10.748C45.5645 10.0996 45.1582 9.77539 44.3457 9.77539C44.0645 9.77539 43.7773 9.82227 43.4844 9.91602C43.1953 10.0098 42.873 10.1719 42.5176 10.4023L41.6797 9.1543C42.4609 8.5918 43.3926 8.31055 44.4746 8.31055C45.3613 8.31055 46.0605 8.49023 46.5723 8.84961C47.0879 9.20898 47.3457 9.70898 47.3457 10.3496ZM54.4883 12.7168C54.4883 14.2129 54.2422 15.3203 53.75 16.0391C53.2617 16.7578 52.5078 17.1172 51.4883 17.1172C50.5 17.1172 49.7539 16.7461 49.25 16.0039C48.75 15.2617 48.5 14.166 48.5 12.7168C48.5 11.2051 48.7441 10.0918 49.2324 9.37695C49.7207 8.6582 50.4727 8.29883 51.4883 8.29883C52.4766 8.29883 53.2227 8.67383 53.7266 9.42383C54.2344 10.1738 54.4883 11.2715 54.4883 12.7168ZM50.2988 12.7168C50.2988 13.7676 50.3887 14.5215 50.5684 14.9785C50.752 15.4316 51.0586 15.6582 51.4883 15.6582C51.9102 15.6582 52.2148 15.4277 52.4023 14.9668C52.5898 14.5059 52.6836 13.7559 52.6836 12.7168C52.6836 11.666 52.5879 10.9121 52.3965 10.4551C52.209 9.99414 51.9062 9.76367 51.4883 9.76367C51.0625 9.76367 50.7578 9.99414 50.5742 10.4551C50.3906 10.9121 50.2988 11.666 50.2988 12.7168Z" fill="white"/>
<rect opacity="0.3" y="63" width="165" height="23" rx="4" fill="#C4C4C4"/>
<path opacity="0.3" d="M14.7793 47L14.1582 44.9609H11.0352L10.4141 47H8.45703L11.4805 38.3984H13.7012L16.7363 47H14.7793ZM13.7246 43.4375C13.1504 41.5898 12.8262 40.5449 12.752 40.3027C12.6816 40.0605 12.6309 39.8691 12.5996 39.7285C12.4707 40.2285 12.1016 41.4648 11.4922 43.4375H13.7246ZM21.7812 45.6934V41.791H20.4395C20.3418 42.5176 20.207 43.207 20.0352 43.8594C19.8672 44.5117 19.6328 45.123 19.332 45.6934H21.7812ZM24.5293 49.3496H22.9238V47H18.5176V49.3496H16.9121V45.6934H17.4629C17.8379 45.1113 18.1523 44.377 18.4062 43.4902C18.6602 42.6035 18.8379 41.5898 18.9395 40.4492H23.5684V45.6934H24.5293V49.3496ZM29.2461 47.1172C28.4766 47.1172 27.873 46.8379 27.4355 46.2793H27.3418C27.4043 46.8262 27.4355 47.1426 27.4355 47.2285V49.8828H25.6484V40.4492H27.1016L27.3535 41.2988H27.4355C27.8535 40.6504 28.4727 40.3262 29.293 40.3262C30.0664 40.3262 30.6719 40.625 31.1094 41.2227C31.5469 41.8203 31.7656 42.6504 31.7656 43.7129C31.7656 44.4121 31.6621 45.0195 31.4551 45.5352C31.252 46.0508 30.9609 46.4434 30.582 46.7129C30.2031 46.9824 29.7578 47.1172 29.2461 47.1172ZM28.7188 41.7559C28.2773 41.7559 27.9551 41.8926 27.752 42.166C27.5488 42.4355 27.4434 42.8828 27.4355 43.5078V43.7012C27.4355 44.4043 27.5391 44.9082 27.7461 45.2129C27.957 45.5176 28.2891 45.6699 28.7422 45.6699C29.543 45.6699 29.9434 45.0098 29.9434 43.6895C29.9434 43.0449 29.8438 42.5625 29.6445 42.2422C29.4492 41.918 29.1406 41.7559 28.7188 41.7559ZM35.9551 41.5977C35.5762 41.5977 35.2793 41.7188 35.0645 41.9609C34.8496 42.1992 34.7266 42.5391 34.6953 42.9805H37.2031C37.1953 42.5391 37.0801 42.1992 36.8574 41.9609C36.6348 41.7188 36.334 41.5977 35.9551 41.5977ZM36.207 47.1172C35.1523 47.1172 34.3281 46.8262 33.7344 46.2441C33.1406 45.6621 32.8438 44.8379 32.8438 43.7715C32.8438 42.6738 33.1172 41.8262 33.6641 41.2285C34.2148 40.627 34.9746 40.3262 35.9434 40.3262C36.8691 40.3262 37.5898 40.5898 38.1055 41.1172C38.6211 41.6445 38.8789 42.373 38.8789 43.3027V44.1699H34.6543C34.6738 44.6777 34.8242 45.0742 35.1055 45.3594C35.3867 45.6445 35.7812 45.7871 36.2891 45.7871C36.6836 45.7871 37.0566 45.7461 37.4082 45.6641C37.7598 45.582 38.127 45.4512 38.5098 45.2715V46.6543C38.1973 46.8105 37.8633 46.9258 37.5078 47C37.1523 47.0781 36.7188 47.1172 36.207 47.1172ZM42.9922 47.1172C40.9531 47.1172 39.9336 45.998 39.9336 43.7598C39.9336 42.6465 40.2109 41.7969 40.7656 41.2109C41.3203 40.6211 42.1152 40.3262 43.1504 40.3262C43.9082 40.3262 44.5879 40.4746 45.1895 40.7715L44.6621 42.1543C44.3809 42.041 44.1191 41.9492 43.877 41.8789C43.6348 41.8047 43.3926 41.7676 43.1504 41.7676C42.2207 41.7676 41.7559 42.4277 41.7559 43.748C41.7559 45.0293 42.2207 45.6699 43.1504 45.6699C43.4941 45.6699 43.8125 45.625 44.1055 45.5352C44.3984 45.4414 44.6914 45.2969 44.9844 45.1016V46.6309C44.6953 46.8145 44.4023 46.9414 44.1055 47.0117C43.8125 47.082 43.4414 47.1172 42.9922 47.1172ZM53.6445 47H51.834V42.043L51.8516 41.2285L51.8809 40.3379C51.5801 40.6387 51.3711 40.8359 51.2539 40.9297L50.2695 41.7207L49.3965 40.6309L52.1562 38.4336H53.6445V47Z" fill="white"/>
<path opacity="0.3" d="M14.7793 79L14.1582 76.9609H11.0352L10.4141 79H8.45703L11.4805 70.3984H13.7012L16.7363 79H14.7793ZM13.7246 75.4375C13.1504 73.5898 12.8262 72.5449 12.752 72.3027C12.6816 72.0605 12.6309 71.8691 12.5996 71.7285C12.4707 72.2285 12.1016 73.4648 11.4922 75.4375H13.7246ZM21.7812 77.6934V73.791H20.4395C20.3418 74.5176 20.207 75.207 20.0352 75.8594C19.8672 76.5117 19.6328 77.123 19.332 77.6934H21.7812ZM24.5293 81.3496H22.9238V79H18.5176V81.3496H16.9121V77.6934H17.4629C17.8379 77.1113 18.1523 76.377 18.4062 75.4902C18.6602 74.6035 18.8379 73.5898 18.9395 72.4492H23.5684V77.6934H24.5293V81.3496ZM29.2461 79.1172C28.4766 79.1172 27.873 78.8379 27.4355 78.2793H27.3418C27.4043 78.8262 27.4355 79.1426 27.4355 79.2285V81.8828H25.6484V72.4492H27.1016L27.3535 73.2988H27.4355C27.8535 72.6504 28.4727 72.3262 29.293 72.3262C30.0664 72.3262 30.6719 72.625 31.1094 73.2227C31.5469 73.8203 31.7656 74.6504 31.7656 75.7129C31.7656 76.4121 31.6621 77.0195 31.4551 77.5352C31.252 78.0508 30.9609 78.4434 30.582 78.7129C30.2031 78.9824 29.7578 79.1172 29.2461 79.1172ZM28.7188 73.7559C28.2773 73.7559 27.9551 73.8926 27.752 74.166C27.5488 74.4355 27.4434 74.8828 27.4355 75.5078V75.7012C27.4355 76.4043 27.5391 76.9082 27.7461 77.2129C27.957 77.5176 28.2891 77.6699 28.7422 77.6699C29.543 77.6699 29.9434 77.0098 29.9434 75.6895C29.9434 75.0449 29.8438 74.5625 29.6445 74.2422C29.4492 73.918 29.1406 73.7559 28.7188 73.7559ZM35.9551 73.5977C35.5762 73.5977 35.2793 73.7188 35.0645 73.9609C34.8496 74.1992 34.7266 74.5391 34.6953 74.9805H37.2031C37.1953 74.5391 37.0801 74.1992 36.8574 73.9609C36.6348 73.7188 36.334 73.5977 35.9551 73.5977ZM36.207 79.1172C35.1523 79.1172 34.3281 78.8262 33.7344 78.2441C33.1406 77.6621 32.8438 76.8379 32.8438 75.7715C32.8438 74.6738 33.1172 73.8262 33.6641 73.2285C34.2148 72.627 34.9746 72.3262 35.9434 72.3262C36.8691 72.3262 37.5898 72.5898 38.1055 73.1172C38.6211 73.6445 38.8789 74.373 38.8789 75.3027V76.1699H34.6543C34.6738 76.6777 34.8242 77.0742 35.1055 77.3594C35.3867 77.6445 35.7812 77.7871 36.2891 77.7871C36.6836 77.7871 37.0566 77.7461 37.4082 77.6641C37.7598 77.582 38.127 77.4512 38.5098 77.2715V78.6543C38.1973 78.8105 37.8633 78.9258 37.5078 79C37.1523 79.0781 36.7188 79.1172 36.207 79.1172ZM42.9922 79.1172C40.9531 79.1172 39.9336 77.998 39.9336 75.7598C39.9336 74.6465 40.2109 73.7969 40.7656 73.2109C41.3203 72.6211 42.1152 72.3262 43.1504 72.3262C43.9082 72.3262 44.5879 72.4746 45.1895 72.7715L44.6621 74.1543C44.3809 74.041 44.1191 73.9492 43.877 73.8789C43.6348 73.8047 43.3926 73.7676 43.1504 73.7676C42.2207 73.7676 41.7559 74.4277 41.7559 75.748C41.7559 77.0293 42.2207 77.6699 43.1504 77.6699C43.4941 77.6699 43.8125 77.625 44.1055 77.5352C44.3984 77.4414 44.6914 77.2969 44.9844 77.1016V78.6309C44.6953 78.8145 44.4023 78.9414 44.1055 79.0117C43.8125 79.082 43.4414 79.1172 42.9922 79.1172ZM55.1562 79H49.168V77.7402L51.3184 75.5664C51.9551 74.9141 52.3711 74.4629 52.5664 74.2129C52.7617 73.959 52.9023 73.7246 52.9883 73.5098C53.0742 73.2949 53.1172 73.0723 53.1172 72.8418C53.1172 72.498 53.0215 72.2422 52.8301 72.0742C52.6426 71.9062 52.3906 71.8223 52.0742 71.8223C51.7422 71.8223 51.4199 71.8984 51.1074 72.0508C50.7949 72.2031 50.4688 72.4199 50.1289 72.7012L49.1445 71.5352C49.5664 71.1758 49.916 70.9219 50.1934 70.7734C50.4707 70.625 50.7734 70.5117 51.1016 70.4336C51.4297 70.3516 51.7969 70.3105 52.2031 70.3105C52.7383 70.3105 53.2109 70.4082 53.6211 70.6035C54.0312 70.7988 54.3496 71.0723 54.5762 71.4238C54.8027 71.7754 54.916 72.1777 54.916 72.6309C54.916 73.0254 54.8457 73.3965 54.7051 73.7441C54.5684 74.0879 54.3535 74.4414 54.0605 74.8047C53.7715 75.168 53.2598 75.6855 52.5254 76.3574L51.4238 77.3945V77.4766H55.1562V79Z" fill="white"/>
<rect y="96" width="165" height="30" rx="4" fill="#FF1D00"/>
<path d="M38.084 110.705C38.084 112.123 37.7324 113.213 37.0293 113.975C36.3262 114.736 35.3184 115.117 34.0059 115.117C32.6934 115.117 31.6855 114.736 30.9824 113.975C30.2793 113.213 29.9277 112.119 29.9277 110.693C29.9277 109.268 30.2793 108.18 30.9824 107.43C31.6895 106.676 32.7012 106.299 34.0176 106.299C35.334 106.299 36.3398 106.678 37.0352 107.436C37.7344 108.193 38.084 109.283 38.084 110.705ZM31.832 110.705C31.832 111.662 32.0137 112.383 32.377 112.867C32.7402 113.352 33.2832 113.594 34.0059 113.594C35.4551 113.594 36.1797 112.631 36.1797 110.705C36.1797 108.775 35.459 107.811 34.0176 107.811C33.2949 107.811 32.75 108.055 32.3828 108.543C32.0156 109.027 31.832 109.748 31.832 110.705ZM44.5059 108.414C45.5996 108.504 46.457 108.842 47.0781 109.428C47.6992 110.014 48.0098 110.779 48.0098 111.725C48.0098 112.689 47.7031 113.463 47.0898 114.045C46.4766 114.623 45.6152 114.957 44.5059 115.047V117.883H42.8477V115.047C41.7422 114.945 40.877 114.6 40.252 114.01C39.6309 113.416 39.3203 112.654 39.3203 111.725C39.3203 110.736 39.6211 109.957 40.2227 109.387C40.8242 108.812 41.6992 108.488 42.8477 108.414V105.883H44.5059V108.414ZM41.1602 111.725C41.1602 112.275 41.3105 112.725 41.6113 113.072C41.9121 113.416 42.3242 113.623 42.8477 113.693V109.756C42.3438 109.822 41.9355 110.035 41.623 110.395C41.3145 110.754 41.1602 111.197 41.1602 111.725ZM46.1758 111.725C46.1758 111.209 46.0293 110.775 45.7363 110.424C45.4434 110.068 45.0332 109.854 44.5059 109.779V113.693C45.0254 113.623 45.4336 113.414 45.7305 113.066C46.0273 112.719 46.1758 112.271 46.1758 111.725ZM50.916 111.713C50.916 112.361 51.0215 112.852 51.2324 113.184C51.4473 113.516 51.7949 113.682 52.2754 113.682C52.752 113.682 53.0938 113.518 53.3008 113.189C53.5117 112.857 53.6172 112.365 53.6172 111.713C53.6172 111.064 53.5117 110.578 53.3008 110.254C53.0898 109.93 52.7441 109.768 52.2637 109.768C51.7871 109.768 51.4434 109.93 51.2324 110.254C51.0215 110.574 50.916 111.061 50.916 111.713ZM55.4453 111.713C55.4453 112.779 55.1641 113.613 54.6016 114.215C54.0391 114.816 53.2559 115.117 52.252 115.117C51.623 115.117 51.0684 114.98 50.5879 114.707C50.1074 114.43 49.7383 114.033 49.4805 113.518C49.2227 113.002 49.0938 112.4 49.0938 111.713C49.0938 110.643 49.373 109.811 49.9316 109.217C50.4902 108.623 51.2754 108.326 52.2871 108.326C52.916 108.326 53.4707 108.463 53.9512 108.736C54.4316 109.01 54.8008 109.402 55.0586 109.914C55.3164 110.426 55.4453 111.025 55.4453 111.713ZM60.5195 115.117C59.75 115.117 59.1465 114.838 58.709 114.279H58.6152C58.6777 114.826 58.709 115.143 58.709 115.229V117.883H56.9219V108.449H58.375L58.627 109.299H58.709C59.127 108.65 59.7461 108.326 60.5664 108.326C61.3398 108.326 61.9453 108.625 62.3828 109.223C62.8203 109.82 63.0391 110.65 63.0391 111.713C63.0391 112.412 62.9355 113.02 62.7285 113.535C62.5254 114.051 62.2344 114.443 61.8555 114.713C61.4766 114.982 61.0312 115.117 60.5195 115.117ZM59.9922 109.756C59.5508 109.756 59.2285 109.893 59.0254 110.166C58.8223 110.436 58.7168 110.883 58.709 111.508V111.701C58.709 112.404 58.8125 112.908 59.0195 113.213C59.2305 113.518 59.5625 113.67 60.0156 113.67C60.8164 113.67 61.2168 113.01 61.2168 111.689C61.2168 111.045 61.1172 110.562 60.918 110.242C60.7227 109.918 60.4141 109.756 59.9922 109.756ZM72.7715 115H71.1016V109.838L71.0078 110.201C70.7969 111.025 70.6074 111.648 70.4395 112.07L69.2793 115H68.0078L66.8301 112.047C66.6621 111.617 66.4824 111.014 66.291 110.236L66.1797 109.838V115H64.5156V108.449H66.9766L68.1016 111.244C68.2188 111.545 68.3262 111.891 68.4238 112.281C68.5254 112.672 68.5938 113.006 68.6289 113.283C68.7578 112.697 68.8574 112.277 68.9277 112.023C69.002 111.766 69.082 111.529 69.168 111.314C69.2539 111.1 69.6426 110.145 70.334 108.449H72.7715V115ZM76.3809 108.449V111.039C76.3809 111.312 76.3359 111.98 76.2461 113.043L79.2695 108.449H81.4199V115H79.6914V112.387C79.6914 111.922 79.7305 111.266 79.8086 110.418L76.7969 115H74.6523V108.449H76.3809ZM88.7207 108.449V109.791H86.5762V115H84.7891V109.791H82.6387V108.449H88.7207ZM91.7324 110.98H92.9922C94 110.98 94.7461 111.141 95.2305 111.461C95.7148 111.781 95.957 112.266 95.957 112.914C95.957 114.305 94.9922 115 93.0625 115H89.9453V108.449H91.7324V110.98ZM94.1699 112.938C94.1699 112.684 94.0684 112.5 93.8652 112.387C93.6621 112.273 93.3594 112.217 92.957 112.217H91.7324V113.764H92.9805C93.7734 113.764 94.1699 113.488 94.1699 112.938ZM102.062 110.969C102.738 110.969 103.217 110.914 103.498 110.805C103.783 110.695 103.926 110.521 103.926 110.283C103.926 110.072 103.822 109.914 103.615 109.809C103.408 109.703 103.066 109.65 102.59 109.65C102.289 109.65 101.947 109.688 101.564 109.762C101.186 109.836 100.84 109.938 100.527 110.066L100 108.818C100.465 108.643 100.916 108.518 101.354 108.443C101.791 108.365 102.279 108.326 102.818 108.326C103.635 108.326 104.289 108.482 104.781 108.795C105.273 109.107 105.52 109.531 105.52 110.066C105.52 110.805 105.084 111.285 104.213 111.508V111.566C104.748 111.699 105.129 111.889 105.355 112.135C105.586 112.377 105.701 112.695 105.701 113.09C105.701 113.488 105.572 113.842 105.314 114.15C105.057 114.459 104.684 114.697 104.195 114.865C103.707 115.033 103.133 115.117 102.473 115.117C101.379 115.117 100.539 114.982 99.9531 114.713V113.236C100.289 113.393 100.656 113.516 101.055 113.605C101.457 113.695 101.846 113.74 102.221 113.74C102.803 113.74 103.238 113.676 103.527 113.547C103.816 113.414 103.961 113.227 103.961 112.984C103.961 112.719 103.809 112.523 103.504 112.398C103.199 112.27 102.73 112.205 102.098 112.205H101.406V110.969H102.062ZM111.262 115L110.916 114.109H110.869C110.568 114.488 110.258 114.752 109.938 114.9C109.621 115.045 109.207 115.117 108.695 115.117C108.066 115.117 107.57 114.938 107.207 114.578C106.848 114.219 106.668 113.707 106.668 113.043C106.668 112.348 106.91 111.836 107.395 111.508C107.883 111.176 108.617 110.992 109.598 110.957L110.734 110.922V110.635C110.734 109.971 110.395 109.639 109.715 109.639C109.191 109.639 108.576 109.797 107.869 110.113L107.277 108.906C108.031 108.512 108.867 108.314 109.785 108.314C110.664 108.314 111.338 108.506 111.807 108.889C112.275 109.271 112.51 109.854 112.51 110.635V115H111.262ZM110.734 111.965L110.043 111.988C109.523 112.004 109.137 112.098 108.883 112.27C108.629 112.441 108.502 112.703 108.502 113.055C108.502 113.559 108.791 113.811 109.369 113.811C109.783 113.811 110.113 113.691 110.359 113.453C110.609 113.215 110.734 112.898 110.734 112.504V111.965ZM118.65 108.449H120.619L118.023 111.59L120.848 115H118.82L116.143 111.678V115H114.355V108.449H116.143V111.631L118.65 108.449ZM125.945 115L125.6 114.109H125.553C125.252 114.488 124.941 114.752 124.621 114.9C124.305 115.045 123.891 115.117 123.379 115.117C122.75 115.117 122.254 114.938 121.891 114.578C121.531 114.219 121.352 113.707 121.352 113.043C121.352 112.348 121.594 111.836 122.078 111.508C122.566 111.176 123.301 110.992 124.281 110.957L125.418 110.922V110.635C125.418 109.971 125.078 109.639 124.398 109.639C123.875 109.639 123.26 109.797 122.553 110.113L121.961 108.906C122.715 108.512 123.551 108.314 124.469 108.314C125.348 108.314 126.021 108.506 126.49 108.889C126.959 109.271 127.193 109.854 127.193 110.635V115H125.945ZM125.418 111.965L124.727 111.988C124.207 112.004 123.82 112.098 123.566 112.27C123.312 112.441 123.186 112.703 123.186 113.055C123.186 113.559 123.475 113.811 124.053 113.811C124.467 113.811 124.797 113.691 125.043 113.453C125.293 113.215 125.418 112.898 125.418 112.504V111.965ZM130.668 110.969C131.344 110.969 131.822 110.914 132.104 110.805C132.389 110.695 132.531 110.521 132.531 110.283C132.531 110.072 132.428 109.914 132.221 109.809C132.014 109.703 131.672 109.65 131.195 109.65C130.895 109.65 130.553 109.688 130.17 109.762C129.791 109.836 129.445 109.938 129.133 110.066L128.605 108.818C129.07 108.643 129.521 108.518 129.959 108.443C130.396 108.365 130.885 108.326 131.424 108.326C132.24 108.326 132.895 108.482 133.387 108.795C133.879 109.107 134.125 109.531 134.125 110.066C134.125 110.805 133.689 111.285 132.818 111.508V111.566C133.354 111.699 133.734 111.889 133.961 112.135C134.191 112.377 134.307 112.695 134.307 113.09C134.307 113.488 134.178 113.842 133.92 114.15C133.662 114.459 133.289 114.697 132.801 114.865C132.312 115.033 131.738 115.117 131.078 115.117C129.984 115.117 129.145 114.982 128.559 114.713V113.236C128.895 113.393 129.262 113.516 129.66 113.605C130.062 113.695 130.451 113.74 130.826 113.74C131.408 113.74 131.844 113.676 132.133 113.547C132.422 113.414 132.566 113.227 132.566 112.984C132.566 112.719 132.414 112.523 132.109 112.398C131.805 112.27 131.336 112.205 130.703 112.205H130.012V110.969H130.668Z" fill="white"/>
</svg>
