<svg width="131" height="216" viewBox="0 0 131 216" fill="none" xmlns="http://www.w3.org/2000/svg">
<path fill-rule="evenodd" clip-rule="evenodd" d="M130 126.545L123.69 76.8657L74.0101 83.1758L80.3203 132.856L130 126.545Z" fill="white" stroke="#FF2200" stroke-width="0.99997"/>
<path d="M110.891 78.6968L111.749 84.8495L102.735 85.9942L101.876 79.4122" stroke="#FF2200"/>
<path d="M63.8149 113.037V164.119" stroke="#FF1D00" stroke-width="0.1996"/>
<path d="M89.2847 119.905V124.198" stroke="#FF1D00" stroke-width="0.25"/>
<path d="M72.1143 119.905V124.198" stroke="#FF1D00" stroke-width="0.25"/>
<path fill-rule="evenodd" clip-rule="evenodd" d="M66.2476 204.326C74.2604 204.04 80.8424 210.622 86.8521 215.487H51.0804V203.468L66.2476 204.326Z" fill="white" stroke="#FF2200"/>
<rect width="21.463" height="84.135" transform="matrix(-1 0 0 1 70.397 120.191)" fill="white" stroke="#FF2200"/>
<path fill-rule="evenodd" clip-rule="evenodd" d="M19.6011 190.59C25.4677 196.17 25.4677 205.328 26.3262 212.912L0.999815 187.585L9.44193 179.143L19.6011 190.59Z" fill="white" stroke="#FF2200"/>
<path fill-rule="evenodd" clip-rule="evenodd" d="M37.6302 150.812L46.3585 126.63C42.4951 123.339 40.0626 118.474 40.0626 113.037V65.6754C40.0626 55.6593 48.0755 47.6465 58.0916 47.6465H58.807C68.8231 47.6465 76.8359 55.6593 76.8359 65.6754V113.037C76.8359 119.476 73.5449 125.056 68.3938 128.491L55.3729 163.69L23.3215 195.741L8.01121 180.431L37.6302 150.812Z" fill="white" stroke="#FF2200"/>
<path fill-rule="evenodd" clip-rule="evenodd" d="M82.7025 136.789L90.1431 134.214C92.1463 133.498 92.8617 131.638 92.4324 129.635L91.717 127.775C90.2861 123.911 85.9935 121.908 82.1302 123.196V123.196C78.2669 124.627 76.2636 128.92 77.5514 132.783L78.2669 134.643C78.6961 136.503 80.8424 137.505 82.7025 136.789Z" fill="white" stroke="#FF2200"/>
<path fill-rule="evenodd" clip-rule="evenodd" d="M54.2285 41.9229L50.079 49.7926C57.6626 49.3634 64.96 50.0788 71.542 52.3682L69.3957 43.9261L54.2285 41.9229Z" fill="white" stroke="#FF2200"/>
<path fill-rule="evenodd" clip-rule="evenodd" d="M64.3872 1C72.6863 1 79.4114 7.72508 79.4114 16.0241V20.0305L84.7056 32.6222H79.2683C78.2667 39.9196 72.1139 45.7862 64.3872 45.7862C56.0882 45.7862 49.3631 39.0611 49.3631 30.762V15.881C49.5062 7.58199 55.9451 1 64.3872 1Z" fill="white" stroke="#FF2200"/>
<path d="M49.077 13.1621H91.0015" stroke="#FF2200"/>
<ellipse cx="0.715434" cy="2.00321" rx="0.715434" ry="2.00321" transform="matrix(-1 0 0 1 75.8345 17.0259)" fill="#FF2200"/>
<path d="M19.601 183.006L20.4595 182.291" stroke="#FF1D00" stroke-width="0.1996"/>
<path d="M22.0336 180.86L44.2121 159.254L56.6606 125.915" stroke="#FF1D00" stroke-width="0.1996" stroke-dasharray="2.01 2.01"/>
<path d="M57.0898 125.056L57.376 123.911" stroke="#FF1D00" stroke-width="0.1996"/>
<path fill-rule="evenodd" clip-rule="evenodd" d="M40.0628 100.159L57.8055 99.8726C62.5274 99.7295 66.5338 96.2955 67.1062 91.7167L69.1094 78.8389" fill="white"/>
<path d="M40.0628 100.159L57.8055 99.8726C62.5274 99.7295 66.5338 96.2955 67.1062 91.7167L69.1094 78.8389" stroke="#FF2200"/>
<path d="M40.6352 105.024L58.6641 104.737C64.1014 104.594 68.6802 101.16 69.5387 96.5814L71.8281 83.7036" stroke="#FF1D00" stroke-width="0.1996" stroke-dasharray="2 2"/>
<path fill-rule="evenodd" clip-rule="evenodd" d="M75.5482 126.916L90 121.908L67.9646 59.3788C66.5338 55.5155 62.2412 53.5123 58.3778 54.8L58.0917 54.9431C54.2283 56.374 52.2251 60.6666 53.5129 64.5299L75.5482 126.916Z" fill="white" stroke="#FF2200"/>
<path fill-rule="evenodd" clip-rule="evenodd" d="M62.0981 17.5981C59.8088 17.5981 57.9486 20.0306 57.9486 23.3216C57.9486 26.4695 59.9518 29.0451 62.0981 29.0451" fill="white"/>
<path d="M62.0981 17.5981C59.8088 17.5981 57.9486 20.0306 57.9486 23.3216C57.9486 26.4695 59.9518 29.0451 62.0981 29.0451" stroke="#FF2200"/>
<path d="M76.979 69.1094H71.3986" stroke="#FF2200"/>
<path d="M77.2651 71.8276H72.114" stroke="#FF1D00" stroke-width="0.1996" stroke-dasharray="2 2"/>
<path d="M70.1108 200.893H49.0771" stroke="#FF1D00" stroke-width="0.1996" stroke-dasharray="2 2"/>
<path d="M10.7298 177.855L25.7539 193.023" stroke="#FF1D00" stroke-width="0.1996" stroke-dasharray="2 2"/>
</svg>
