<svg width="1006" height="419" viewBox="0 0 1006 419" fill="none" xmlns="http://www.w3.org/2000/svg">
<path fill-rule="evenodd" clip-rule="evenodd" d="M0.000190973 337.875H1005.83Z" fill="white"/>
<path d="M0.000190973 337.875H1005.83" stroke="#FF1D00" stroke-width="0.1996"/>
<path fill-rule="evenodd" clip-rule="evenodd" d="M0.000190973 346.375H1005.83Z" fill="white"/>
<path d="M0.000190973 346.375H1005.83" stroke="#FF1D00" stroke-width="0.1996"/>
<path fill-rule="evenodd" clip-rule="evenodd" d="M533.233 338.158V0Z" fill="white"/>
<path d="M533.233 338.158V0" stroke="#FF1D00" stroke-width="0.1996"/>
<path fill-rule="evenodd" clip-rule="evenodd" d="M319.317 338.158V0Z" fill="white"/>
<path d="M319.317 338.158V0" stroke="#FF1D00" stroke-width="0.1996"/>
<path d="M711.875 0C711.875 1.98333 711.875 338.158 711.875 338.158" stroke="#FF1D00" stroke-width="0.1996"/>
<path d="M89.25 0V338.158" stroke="#FF1D00" stroke-width="0.1996"/>
<path fill-rule="evenodd" clip-rule="evenodd" d="M712.159 45.3335H88.9671Z" fill="white"/>
<path d="M712.159 45.3335H88.9671" stroke="#FF1D00" stroke-width="0.1996"/>
<path fill-rule="evenodd" clip-rule="evenodd" d="M712.159 39.6665H88.9671Z" fill="white"/>
<path d="M712.159 39.6665H88.9671" stroke="#FF1D00" stroke-width="0.1996"/>
<path fill-rule="evenodd" clip-rule="evenodd" d="M712.159 202.583H88.9671Z" fill="white"/>
<path d="M712.159 202.583H88.9671" stroke="#FF1D00" stroke-width="0.1996"/>
<path fill-rule="evenodd" clip-rule="evenodd" d="M712.159 196.917H88.9671Z" fill="white"/>
<path d="M712.159 196.917H88.9671" stroke="#FF1D00" stroke-width="0.1996"/>
<path fill-rule="evenodd" clip-rule="evenodd" d="M404.742 123.958H397.376V312.092H404.742V123.958Z" fill="white" stroke="#FF1D00" stroke-width="0.1996"/>
<circle cx="19.125" cy="19.125" r="19.125" transform="matrix(-1 0 0 1 420.184 72.8164)" fill="white" stroke="#FF1D00" stroke-width="0.1996"/>
<path fill-rule="evenodd" clip-rule="evenodd" d="M407.858 110.075H394.117V126.65H407.858V110.075Z" fill="white" stroke="#FF1D00" stroke-width="0.1996"/>
<path fill-rule="evenodd" clip-rule="evenodd" d="M407.253 295.99L393.654 296.187L394.575 359.93L408.173 359.734L407.253 295.99Z" fill="white" stroke="#FF1D00" stroke-width="0.5"/>
<path fill-rule="evenodd" clip-rule="evenodd" d="M386.042 370.883L417.208 370.458C413.808 366.633 411.967 361.816 411.4 356.433L391.567 356.716C391.283 362.1 389.158 366.775 386.042 370.883Z" fill="white" stroke="#FF1D00" stroke-width="0.1996"/>
<path fill-rule="evenodd" clip-rule="evenodd" d="M387.034 374.708L416.075 374.283C417.35 374.283 418.342 373.292 418.2 372.017V370.458L384.625 370.883V372.442C384.909 373.717 385.9 374.708 387.034 374.708Z" fill="white" stroke="#FF1D00" stroke-width="0.1996"/>
<path fill-rule="evenodd" clip-rule="evenodd" d="M404.742 298.35L405.592 355.017Z" fill="white"/>
<path d="M404.742 298.35L405.592 355.017" stroke="#FF1D00" stroke-width="0.1996"/>
<path fill-rule="evenodd" clip-rule="evenodd" d="M400.492 298.492L401.342 355.158Z" fill="white"/>
<path d="M400.492 298.492L401.342 355.158" stroke="#FF1D00" stroke-width="0.1996"/>
<path fill-rule="evenodd" clip-rule="evenodd" d="M396.242 298.492L397.092 355.158Z" fill="white"/>
<path d="M396.242 298.492L397.092 355.158" stroke="#FF1D00" stroke-width="0.1996"/>
<rect width="7.36667" height="188.133" transform="matrix(-1 0 0 1 885.983 123.109)" fill="white" stroke="#FF1D00" stroke-width="0.1996"/>
<circle cx="19.125" cy="19.125" r="19.125" transform="matrix(-1 0 0 1 901.425 71.8252)" fill="white" stroke="#FF1D00" stroke-width="0.1996"/>
<rect width="13.7417" height="16.575" transform="matrix(-1 0 0 1 889.1 109.083)" fill="white" stroke="#FF1D00" stroke-width="0.1996"/>
<path fill-rule="evenodd" clip-rule="evenodd" d="M888.498 295.141L874.899 295.337L875.82 359.081L889.418 358.884L888.498 295.141Z" fill="white" stroke="#FF1D00" stroke-width="0.5"/>
<path fill-rule="evenodd" clip-rule="evenodd" d="M867.142 370.033L898.309 369.608C894.909 365.783 893.067 360.967 892.5 355.583L872.667 355.867C872.525 361.108 870.4 365.783 867.142 370.033Z" fill="white" stroke="#FF1D00" stroke-width="0.1996"/>
<path fill-rule="evenodd" clip-rule="evenodd" d="M868.275 373.717L897.317 373.292C898.592 373.292 899.584 372.301 899.442 371.026V369.467L865.867 369.892V371.451C866.009 372.867 867 373.717 868.275 373.717Z" fill="white" stroke="#FF1D00" stroke-width="0.1996"/>
<path fill-rule="evenodd" clip-rule="evenodd" d="M885.983 297.5L886.833 354.167Z" fill="white"/>
<path d="M885.983 297.5L886.833 354.167" stroke="#FF1D00" stroke-width="0.1996"/>
<path fill-rule="evenodd" clip-rule="evenodd" d="M881.733 297.5L882.583 354.167Z" fill="white"/>
<path d="M881.733 297.5L882.583 354.167" stroke="#FF1D00" stroke-width="0.1996"/>
<path fill-rule="evenodd" clip-rule="evenodd" d="M877.483 297.642L878.333 354.308Z" fill="white"/>
<path d="M877.483 297.642L878.333 354.308" stroke="#FF1D00" stroke-width="0.1996"/>
<path fill-rule="evenodd" clip-rule="evenodd" d="M27.4834 125.942H20.1167V314.076H27.4834V125.942Z" fill="white" stroke="#FF1D00" stroke-width="0.1996"/>
<circle cx="19.125" cy="19.125" r="19.125" transform="matrix(-1 0 0 1 42.9253 74.6587)" fill="white" stroke="#FF1D00" stroke-width="0.1996"/>
<rect width="13.7417" height="16.575" transform="matrix(-1 0 0 1 30.6001 111.917)" fill="white" stroke="#FF1D00" stroke-width="0.1996"/>
<path fill-rule="evenodd" clip-rule="evenodd" d="M29.9946 297.974L16.396 298.17L17.3163 361.914L30.915 361.717L29.9946 297.974Z" fill="white" stroke="#FF1D00" stroke-width="0.5"/>
<path fill-rule="evenodd" clip-rule="evenodd" d="M8.64193 372.867L39.8086 372.442C36.4086 368.617 34.5669 363.8 34.0003 358.417L14.1669 358.7C14.0253 363.942 11.9003 368.617 8.64193 372.867Z" fill="white" stroke="#FF1D00" stroke-width="0.1996"/>
<path fill-rule="evenodd" clip-rule="evenodd" d="M9.7754 376.55L38.8171 376.125C40.0921 376.125 41.0837 375.134 40.9421 373.859V372.3L7.36707 372.725V374.284C7.50874 375.7 8.5004 376.55 9.7754 376.55Z" fill="white" stroke="#FF1D00" stroke-width="0.1996"/>
<path fill-rule="evenodd" clip-rule="evenodd" d="M27.4835 300.333L28.3335 357Z" fill="white"/>
<path d="M27.4835 300.333L28.3335 357" stroke="#FF1D00" stroke-width="0.1996"/>
<path fill-rule="evenodd" clip-rule="evenodd" d="M23.2335 300.333L24.0835 357Z" fill="white"/>
<path d="M23.2335 300.333L24.0835 357" stroke="#FF1D00" stroke-width="0.1996"/>
<path fill-rule="evenodd" clip-rule="evenodd" d="M18.9835 300.475L19.8335 357.142Z" fill="white"/>
<path d="M18.9835 300.475L19.8335 357.142" stroke="#FF1D00" stroke-width="0.1996"/>
<ellipse cx="184.308" cy="11.3333" rx="184.308" ry="11.3333" transform="matrix(-1 0 0 1 384.909 395.534)" fill="#FFE4E3"/>
<ellipse cx="123.958" cy="8.35833" rx="123.958" ry="8.35833" transform="matrix(-1 0 0 1 344.675 383.492)" fill="#FFE4E3"/>
<path d="M966.875 339.149H907.092" stroke="#FF1D00" stroke-width="0.1996"/>
<path fill-rule="evenodd" clip-rule="evenodd" d="M312.517 158.242H122.825V390.859H312.517V158.242Z" fill="white" stroke="#FF2200"/>
<path fill-rule="evenodd" clip-rule="evenodd" d="M227.659 158.242V390.859Z" fill="white"/>
<path d="M227.659 158.242V390.859" stroke="#FF2200"/>
<path fill-rule="evenodd" clip-rule="evenodd" d="M174.25 158.242V390.859Z" fill="white"/>
<path d="M174.25 158.242V390.859" stroke="#FF1D00" stroke-width="0.25"/>
<path fill-rule="evenodd" clip-rule="evenodd" d="M309.684 297.642H231.484V324.417H309.684V297.642Z" fill="white" stroke="#FF1D00" stroke-width="0.25"/>
<path fill-rule="evenodd" clip-rule="evenodd" d="M309.684 328.384H231.484V355.159H309.684V328.384Z" fill="white" stroke="#FF1D00" stroke-width="0.25"/>
<rect width="78.2" height="26.775" transform="matrix(-1 0 0 1 309.684 360.542)" fill="white" stroke="#FF1D00" stroke-width="0.25"/>
<rect width="20.1167" height="1.55833" transform="matrix(-1 0 0 1 281.35 303.875)" fill="white" stroke="#FF1D00" stroke-width="0.25"/>
<rect width="20.1167" height="1.55833" transform="matrix(-1 0 0 1 281.35 334.333)" fill="white" stroke="#FF1D00" stroke-width="0.25"/>
<rect width="20.1167" height="1.55833" transform="matrix(-1 0 0 1 281.35 367.2)" fill="white" stroke="#FF1D00" stroke-width="0.25"/>
<path fill-rule="evenodd" clip-rule="evenodd" d="M313.083 293.392H228.225Z" fill="white"/>
<path d="M313.083 293.392H228.225" stroke="#FF1D00" stroke-width="0.25"/>
<path fill-rule="evenodd" clip-rule="evenodd" d="M313.083 253.3H228.225Z" fill="white"/>
<path d="M313.083 253.3H228.225" stroke="#FF1D00" stroke-width="0.25"/>
<path fill-rule="evenodd" clip-rule="evenodd" d="M313.083 250.608H228.225Z" fill="white"/>
<path d="M313.083 250.608H228.225" stroke="#FF1D00" stroke-width="0.25"/>
<path fill-rule="evenodd" clip-rule="evenodd" d="M313.083 210.659H228.225Z" fill="white"/>
<path d="M313.083 210.659H228.225" stroke="#FF1D00" stroke-width="0.25"/>
<path fill-rule="evenodd" clip-rule="evenodd" d="M313.083 207.967H228.225Z" fill="white"/>
<path d="M313.083 207.967H228.225" stroke="#FF1D00" stroke-width="0.25"/>
<path fill-rule="evenodd" clip-rule="evenodd" d="M169.613 271.413L169.613 291.53L171.172 291.53L171.172 271.413L169.613 271.413Z" fill="white" stroke="#FF1D00" stroke-width="0.25"/>
<path fill-rule="evenodd" clip-rule="evenodd" d="M177.37 271.377L177.37 291.494L178.928 291.494L178.928 271.377L177.37 271.377Z" fill="white" stroke="#FF1D00" stroke-width="0.25"/>
<path fill-rule="evenodd" clip-rule="evenodd" d="M57.7939 314.143L57.7939 330.435L199.036 330.435L199.036 314.143L57.7939 314.143Z" fill="white" stroke="#FF1D00" stroke-width="0.25"/>
<path fill-rule="evenodd" clip-rule="evenodd" d="M50.0259 314.176L50.0259 404.985L91.9592 404.985L91.9592 314.176L50.0259 314.176Z" fill="white" stroke="#FF2200"/>
<path fill-rule="evenodd" clip-rule="evenodd" d="M198.557 314.099L198.557 404.907L203.373 404.907L203.373 314.099L198.557 314.099Z" fill="white" stroke="#FF2200"/>
<path fill-rule="evenodd" clip-rule="evenodd" d="M36.9072 307.513L36.9072 314.029L218.241 314.029L218.241 307.513L36.9072 307.513Z" fill="white" stroke="#FF2200"/>
<path fill-rule="evenodd" clip-rule="evenodd" d="M91.6587 334.191H50.292Z" fill="white"/>
<path d="M91.6587 334.191H50.292" stroke="#FF1D00" stroke-width="0.25"/>
<path fill-rule="evenodd" clip-rule="evenodd" d="M91.6587 354.591H50.292Z" fill="white"/>
<path d="M91.6587 354.591H50.292" stroke="#FF1D00" stroke-width="0.25"/>
<path fill-rule="evenodd" clip-rule="evenodd" d="M91.6587 374.991H50.292Z" fill="white"/>
<path d="M91.6587 374.991H50.292" stroke="#FF1D00" stroke-width="0.25"/>
<path fill-rule="evenodd" clip-rule="evenodd" d="M78.2007 320.025H65.0257V321.017H78.2007V320.025Z" fill="white" stroke="#FF1D00" stroke-width="0.25"/>
<path fill-rule="evenodd" clip-rule="evenodd" d="M78.2007 338.583H65.0257V339.575H78.2007V338.583Z" fill="white" stroke="#FF1D00" stroke-width="0.25"/>
<path fill-rule="evenodd" clip-rule="evenodd" d="M78.2007 358.983H65.0257V359.975H78.2007V358.983Z" fill="white" stroke="#FF1D00" stroke-width="0.25"/>
<path fill-rule="evenodd" clip-rule="evenodd" d="M78.2007 379.383H65.0257V380.374H78.2007V379.383Z" fill="white" stroke="#FF1D00" stroke-width="0.25"/>
<path fill-rule="evenodd" clip-rule="evenodd" d="M355.017 320.45L358.133 323.283C358.983 323.991 359.408 325.125 359.267 326.258L357.425 349.066C357.283 351.05 355.725 352.466 353.742 352.466H337.733L335.892 350.625V349.633H352.467C353.742 349.633 354.875 348.641 355.017 347.366L356.858 328.95C357 327.391 356.292 325.975 355.017 325.125L354.733 324.983L355.017 320.45Z" fill="white" stroke="#FF1D00" stroke-width="0.25"/>
<rect width="4.53333" height="45.475" transform="matrix(-1 0 0 1 329.517 354.024)" fill="white" stroke="#FF1D00" stroke-width="0.25"/>
<path fill-rule="evenodd" clip-rule="evenodd" d="M323.567 361.958H331.359L333.059 355.158H321.867L323.567 361.958Z" fill="white" stroke="#FF2200"/>
<path fill-rule="evenodd" clip-rule="evenodd" d="M355.583 341.699L360.683 342.408L369.608 282.341L364.508 281.633C361.675 281.208 358.983 283.191 358.558 286.024L351.192 335.891C350.767 338.724 352.75 341.274 355.583 341.699Z" fill="white" stroke="#FF2200"/>
<path fill-rule="evenodd" clip-rule="evenodd" d="M303.45 349.35V355.442H349.492V349.35C349.492 346.8 347.508 344.817 344.958 344.817H307.983C305.433 344.817 303.45 346.8 303.45 349.35Z" fill="white" stroke="#FF2200"/>
<circle cx="2.83333" cy="2.83333" r="2.83333" transform="matrix(-1 0 0 1 350.909 402.333)" fill="white" stroke="#FF1D00" stroke-width="0.25"/>
<circle cx="2.83333" cy="2.83333" r="2.83333" transform="matrix(-1 0 0 1 352.184 402.333)" fill="white" stroke="#FF1D00" stroke-width="0.25"/>
<circle cx="2.83333" cy="2.83333" r="2.83333" transform="matrix(-1 0 0 1 329.517 402.333)" fill="white" stroke="#FF1D00" stroke-width="0.25"/>
<circle cx="2.83333" cy="2.83333" r="2.83333" transform="matrix(-1 0 0 1 330.792 402.333)" fill="white" stroke="#FF1D00" stroke-width="0.25"/>
<circle cx="2.83333" cy="2.83333" r="2.83333" transform="matrix(-1 0 0 1 308.125 402.333)" fill="white" stroke="#FF1D00" stroke-width="0.25"/>
<circle cx="2.83333" cy="2.83333" r="2.83333" transform="matrix(-1 0 0 1 309.4 402.333)" fill="white" stroke="#FF1D00" stroke-width="0.25"/>
<rect width="6.65833" height="6.23333" transform="matrix(-1 0 0 1 330.65 392.699)" fill="white" stroke="#FF2200"/>
<rect width="49.725" height="3.4" transform="matrix(-1 0 0 1 352.042 397.8)" fill="white" stroke="#FF2200"/>
<path fill-rule="evenodd" clip-rule="evenodd" d="M59.7837 296.934V296.934C62.192 296.934 64.0337 296.509 64.0337 294.1V286.309C64.0337 283.9 62.192 282.059 59.7837 282.059V282.059C57.3754 282.059 55.5337 283.9 55.5337 286.309V294.1C55.5337 296.509 57.3754 296.934 59.7837 296.934Z" fill="white" stroke="#FF2200"/>
<path d="M61.0586 283.759C60.4919 282.909 59.5003 282.342 58.5086 282.342V282.342" stroke="#FF1D00" stroke-width="0.25"/>
<path d="M61.7671 287.725V286.025C61.7671 285.6 61.7671 285.175 61.6254 284.892" stroke="#FF1D00" stroke-width="0.25"/>
<path d="M61.7671 295.658V290.417" stroke="#FF1D00" stroke-width="0.25"/>
<path d="M58.5088 283.758C58.7921 283.333 59.2171 282.908 59.6421 282.625" stroke="#FF1D00" stroke-width="0.25"/>
<path d="M57.8002 289V286.025C57.8002 285.458 57.9418 285.033 58.0835 284.608" stroke="#FF1D00" stroke-width="0.25"/>
<path d="M57.8003 295.658V290.983" stroke="#FF1D00" stroke-width="0.25"/>
<path fill-rule="evenodd" clip-rule="evenodd" d="M53.5503 307.558H65.8753L67.292 294.1H52.1337L53.5503 307.558Z" fill="white" stroke="#FF2200"/>
<rect width="15.1583" height="35.8417" transform="matrix(-1 0 0 1 301.892 171.133)" fill="white" stroke="#FF2200"/>
<circle cx="3.4" cy="3.4" r="3.4" transform="matrix(-1 0 0 1 297.783 195.641)" fill="white" stroke="#FF1D00" stroke-width="0.25"/>
<path fill-rule="evenodd" clip-rule="evenodd" d="M298.492 177.225H290.275V179.775H298.492V177.225Z" fill="white" stroke="#FF1D00" stroke-width="0.25"/>
<rect width="15.1583" height="35.8417" transform="matrix(-1 0 0 1 281.917 171.133)" fill="white" stroke="#FF2200"/>
<circle cx="3.4" cy="3.4" r="3.4" transform="matrix(-1 0 0 1 277.809 195.641)" fill="white" stroke="#FF1D00" stroke-width="0.25"/>
<path fill-rule="evenodd" clip-rule="evenodd" d="M278.517 177.225H270.3V179.775H278.517V177.225Z" fill="white" stroke="#FF1D00" stroke-width="0.25"/>
<rect width="15.1583" height="35.8417" transform="matrix(-1 0 0 1 255.85 213.633)" fill="white" stroke="#FF2200"/>
<circle cx="3.4" cy="3.4" r="3.4" transform="matrix(-1 0 0 1 251.6 238.141)" fill="white" stroke="#FF1D00" stroke-width="0.25"/>
<path fill-rule="evenodd" clip-rule="evenodd" d="M252.309 219.725H244.092V222.275H252.309V219.725Z" fill="white" stroke="#FF1D00" stroke-width="0.25"/>
<path fill-rule="evenodd" clip-rule="evenodd" d="M287.112 256.292L273.458 259.497L281.065 291.91L294.719 288.705L287.112 256.292Z" fill="white" stroke="#FF2200" stroke-width="1.00005"/>
<circle cx="3.11684" cy="3.11684" r="3.11684" transform="matrix(-0.228488 -0.973547 -0.973547 0.228488 290.04 285.407)" fill="white" stroke="#FF1D00" stroke-width="0.5"/>
<path fill-rule="evenodd" clip-rule="evenodd" d="M285.336 262.557L278.026 264.272L278.544 266.479L285.854 264.763L285.336 262.557Z" fill="white" stroke="#FF1D00" stroke-width="0.5"/>
<rect width="14.025" height="33.2917" transform="matrix(-1 0 0 1 272.284 258.683)" fill="white" stroke="#FF2200"/>
<circle cx="3.11667" cy="3.11667" r="3.11667" transform="matrix(-1 0 0 1 268.458 281.492)" fill="white" stroke="#FF1D00" stroke-width="0.25"/>
<path fill-rule="evenodd" clip-rule="evenodd" d="M269.025 264.492H261.517V266.758H269.025V264.492Z" fill="white" stroke="#FF1D00" stroke-width="0.25"/>
<rect width="17.1417" height="7.08333" transform="matrix(-1 0 0 1 131.042 300.05)" fill="white" stroke="#FF1D00" stroke-width="0.25"/>
<path fill-rule="evenodd" clip-rule="evenodd" d="M136.708 306.142H108.233V306.85H136.708V306.142Z" fill="white" stroke="#FF1D00" stroke-width="0.25"/>
<path fill-rule="evenodd" clip-rule="evenodd" d="M91.9422 302.033H152.859C154.701 302.033 156.117 300.617 156.117 298.775V258.967C156.117 257.125 154.701 255.708 152.859 255.708H91.9422C90.1005 255.708 88.6839 257.125 88.6839 258.967V298.775C88.6839 300.475 90.1005 302.033 91.9422 302.033Z" fill="white" stroke="#FF2200"/>
<path fill-rule="evenodd" clip-rule="evenodd" d="M88.6839 293.392H156.117Z" fill="white"/>
<path d="M88.6839 293.392H156.117" stroke="#FF1D00" stroke-width="0.25"/>
<circle cx="1.84167" cy="1.84167" r="1.84167" transform="matrix(-1 0 0 1 123.817 296.225)" fill="white" stroke="#FF1D00" stroke-width="0.25"/>
</svg>
