<?xml version="1.0"?>
<!--Icons from directory ""-->
<svg xmlns="http://www.w3.org/2000/svg" width="24" height="319" viewBox="0 0 24 319"><svg xmlns:xlink="http://www.w3.org/1999/xlink" height="18" width="18" version="1.1" viewBox="0 0 18 18" id="icon-add-money-active" y="0"><title>Group</title><desc>Created with Sketch.</desc><g id="icon-add-money-active-BUTTONS" fill-rule="evenodd" transform="translate(-736 -1351)" fill="none"><g id="icon-add-money-active-Group-22" fill-rule="nonzero" fill="#FC261C" transform="translate(736 1347)"><g id="icon-add-money-active-Group" transform="translate(0 4)"><path id="icon-add-money-active-Shape" d="m14 1.4c0-0.6-0.4-1-1-1h-8c-0.6 0-1 0.4-1 1v2.2h10v-2.2z"/><path id="icon-add-money-active-Shape" d="m14 5.1h-10v4.5l-3.3-0.6s4.3 3.3 8.3 8.3c4-5 8.3-8.3 8.3-8.3l-3.3 0.6v-4.5z"/></g></g></g></svg><svg xmlns:xlink="http://www.w3.org/1999/xlink" height="16" width="16" version="1.1" viewBox="0 0 16 16" id="icon-apply-active" y="18"><title>Group 20</title><desc>Created with Sketch.</desc><g id="icon-apply-active-BUTTONS" fill-rule="evenodd" transform="translate(-736 -2044)" fill="none"><g id="icon-apply-active-2" transform="translate(736 2040)"><g id="icon-apply-active-Group-20" transform="translate(0 4)"><circle id="icon-apply-active-Oval-2" cy="8" cx="8" r="8" fill="#FC261C"/><polyline id="icon-apply-active-Path-2" stroke="#fff" stroke-linecap="round" points="5.2521 4.2579 11.141 9.5693 8.0593 12.651" transform="translate(8.1967 8.4546) rotate(90) translate(-8.1967 -8.4546)"/></g></g></g></svg><svg xmlns:xlink="http://www.w3.org/1999/xlink" height="18" width="22" version="1.1" viewBox="0 0 22 18" id="icon-auto-active" y="34"><title>icon auto</title><desc>Created with Sketch.</desc><g id="icon-auto-active-BUTTONS" fill-rule="evenodd" transform="translate(-734 -1837)" fill="none"><g id="icon-auto-active-Group-3" transform="translate(734 1834)"><g id="icon-auto-active-icon-auto" transform="translate(0 3)"><polygon id="icon-auto-active-Path-7" points="21.314 0.70015 21.314 14.67 0.57784 14.67 0.57784 13.264 1.2114 13.264 1.2114 8.191 5.1679 3.4719 7.4902 3.4719 7.4902 0.70015" fill="#FC261C"/><g fill="#fff"><polygon id="icon-auto-active-Path" points="7.4712 5.0077 7.4712 8.0312 3.0105 8.0312 5.4718 5.0077"/><circle id="icon-auto-active-Oval-5" cx="6" cy="15" stroke="#FC261C" r="2"/><circle id="icon-auto-active-Oval-5" cx="17" cy="15" stroke="#FC261C" r="2"/></g></g></g></g></svg><svg xmlns:xlink="http://www.w3.org/1999/xlink" height="20" width="24" version="1.1" viewBox="0 0 24 20" id="icon-bills-active" y="52"><title>Group</title><desc>Created with Sketch.</desc><g id="icon-bills-active-5-money" stroke-linejoin="round" fill-rule="evenodd" transform="translate(-723 -113)" fill="none"><g id="icon-bills-active-services" stroke="#FC261C" transform="translate(276 112)"><g id="icon-bills-active-service_3-copy" transform="translate(447.12 1)"><g id="icon-bills-active-Group-14"><g id="icon-bills-active-Group" transform="translate(0.375)"><polyline id="icon-bills-active-Shape" points="3.8 3.8 18.2 0.6 19 3.8"/><polyline id="icon-bills-active-Shape" points="21.2 14.4 21.2 19 0.2 19 0.2 3.8 21.2 3.8 21.2 8.4"/><rect id="icon-bills-active-Rectangle-path" transform="translate(18.281 11.47) rotate(90) translate(-18.281 -11.47)" height="8.4" width="6" stroke-linecap="round" y="7.2698" x="15.281"/><path id="icon-bills-active-Shape" fill-rule="nonzero" fill="#fff" stroke-linecap="round" d="m18.7 11.4h-2"/></g></g></g></g></g></svg><svg xmlns:xlink="http://www.w3.org/1999/xlink" height="17" width="17" version="1.1" viewBox="0 0 17 17" id="icon-cancel-active" y="72"><title>Combined Shape</title><desc>Created with Sketch.</desc><g id="icon-cancel-active-BUTTONS" fill-rule="evenodd" transform="translate(-736 -1036)" fill="none"><g id="icon-cancel-active-1" fill-rule="nonzero" fill="#FC261C" transform="translate(736 1033)"><g id="icon-cancel-active-if_Compose_2190985" transform="translate(0 3)"><path id="icon-cancel-active-Combined-Shape" d="m8.5 17c-4.6944 0-8.5-3.806-8.5-8.5 0-4.6944 3.8056-8.5 8.5-8.5 4.694 0 8.5 3.8056 8.5 8.5 0 4.694-3.806 8.5-8.5 8.5zm4-5.658l-2.8421-2.842 2.8421-2.8421-1.158-1.1579-2.842 2.8421-2.8421-2.8421-1.1579 1.1579 2.8421 2.8421-2.8421 2.842 1.1579 1.158 2.8421-2.8421 2.842 2.8421 1.158-1.158z"/></g></g></g></svg><svg xmlns:xlink="http://www.w3.org/1999/xlink" height="17" width="19" version="1.1" viewBox="0 0 19 17" id="icon-chat-active" y="89"><title>Shape</title><desc>Created with Sketch.</desc><g id="icon-chat-active-BUTTONS" fill-rule="evenodd" transform="translate(-736 -1735)" fill="none"><g id="icon-chat-active-Group-11" fill-rule="nonzero" fill="#FC261C" transform="translate(736 1732)"><path id="icon-chat-active-Shape" d="m15.8 15.9c0.8-1.3 1.2-2.8 1.2-4.4 0-4.7-3.8-8.5-8.5-8.5s-8.5 3.8-8.5 8.5 3.8 8.5 8.5 8.5c1.7 0 3.3-0.5 4.7-1.4 1.6 0.9 3.5 1.4 5.7 1.4-1.6-1.1-2.6-2.5-3.1-4.1zm-5.2-4.2h1.7v1.5h-1.7v-1.5zm-4.2 1.5h-1.7v-1.5h1.7v1.5zm3 0h-1.7v-1.5h1.7v1.5z"/></g></g></svg><svg xmlns:xlink="http://www.w3.org/1999/xlink" height="17" width="20" version="1.1" viewBox="0 0 20 17" id="icon-claim-active" y="106"><title>Shape</title><desc>Created with Sketch.</desc><g id="icon-claim-active-BUTTONS" fill-rule="evenodd" transform="translate(-736 -1174)" fill="none"><g id="icon-claim-active-2" fill-rule="nonzero" fill="#FC261C" transform="translate(736 1171)"><path id="icon-claim-active-Shape" d="m16.4 15.9c0.8-1.3 1.2-2.8 1.2-4.4 0-4.7-3.8-8.5-8.5-8.5s-8.5 3.8-8.5 8.5 3.8 8.5 8.5 8.5c1.7 0 3.3-0.5 4.7-1.4 1.6 0.9 3.5 1.4 5.7 1.4-1.6-1.1-2.6-2.5-3.1-4.1zm-6.7 0.5h-1.5v-1.7h1.5v1.7zm0-2.8h-1.5v-6.6h1.5v6.6z"/></g></g></svg><svg xmlns:xlink="http://www.w3.org/1999/xlink" height="15" width="24" version="1.1" viewBox="0 0 24 15" id="icon-clear-active" y="123"><title>Shape</title><desc>Created with Sketch.</desc><g id="icon-clear-active-BUTTONS" fill-rule="evenodd" transform="translate(-736 -876)" fill="none"><g id="icon-clear-active-clear" fill-rule="nonzero" fill="#FC261C" transform="translate(736 871)"><path id="icon-clear-active-Shape" d="m19.5 5h-9.9c-1.2 0-2.4 0.4-3.2 1.2l-6.4 5.9 6.4 5.9c0.8 0.8 2 1.2 3.2 1.2h9.9c2.1 0 3.8-1.6 3.8-3.5v-7.1c0-2-1.7-3.6-3.8-3.6zm-1.8 9.8l-1.1 1.1-2.7-2.7-2.7 2.7-1.1-1.1 2.7-2.7-2.7-2.7 1.1-1.1 2.7 2.7 2.7-2.7 1.1 1.1-2.7 2.7 2.7 2.7z"/></g></g></svg><svg xmlns:xlink="http://www.w3.org/1999/xlink" height="17" width="19" version="1.1" viewBox="0 0 19 17" id="icon-comment-active" y="138"><title>comment</title><desc>Created with Sketch.</desc><g id="icon-comment-active-BUTTONS" fill-rule="evenodd" transform="translate(-735 -1885)" fill="none"><g id="icon-comment-active-Group-3" transform="translate(735 1880)"><g id="icon-comment-active-comment" transform="translate(0 5)"><path id="icon-comment-active-add-info" fill="#FC261C" d="m-1.4134e-15 1.9999c-5.1952e-14 -1.1045 0.89093-1.9999 1.9974-1.9999h15.006c1.103 0 1.997 0.88627 1.997 1.9999v10.168c0 1.105-0.887 2-2.002 2h-12.181l-3.9889 2.691c-0.45735 0.309-0.8281 0.107-0.8281-0.434l1.5014e-13 -0.254c2.3239e-13 -1.106 3.791e-13 -2.889 3.2672e-13 -4.003l-4.7827e-13 -10.168z"/><g fill="#fff"><rect id="icon-comment-active-Rectangle-8" height="2" width="2" y="8" x="6"/><rect id="icon-comment-active-Rectangle-9" height="2" width="2" y="8" x="9"/><rect id="icon-comment-active-Rectangle-10" height="2" width="2" y="8" x="12"/></g></g></g></g></svg><svg xmlns:xlink="http://www.w3.org/1999/xlink" height="17" width="17" version="1.1" viewBox="0 0 17 17" id="icon-compose-active" y="155"><title>if_Compose_2190985</title><desc>Created with Sketch.</desc><g id="icon-compose-active-BUTTONS" fill-rule="evenodd" transform="translate(-735 -2004)" fill="none"><g id="icon-compose-active-1" fill-rule="nonzero" fill="#FC261C" transform="translate(735 2001)"><g id="icon-compose-active-if_Compose_2190985" transform="translate(0 3)"><path id="icon-compose-active-Combined-Shape" d="m8.5 17c-4.6944 0-8.5-3.806-8.5-8.5 0-4.6944 3.8056-8.5 8.5-8.5 4.694 0 8.5 3.8056 8.5 8.5 0 4.694-3.806 8.5-8.5 8.5zm1-3.6v-1.7h-1.5v1.7h1.5zm0-2.8v-6.6h-1.5v6.6h1.5z"/></g></g></g></svg><svg xmlns:xlink="http://www.w3.org/1999/xlink" height="17" width="17" version="1.1" viewBox="0 0 17 17" id="icon-edit-active" y="172"><title>if_Compose_2190985</title><desc>Created with Sketch.</desc><g id="icon-edit-active-BUTTONS" fill-rule="evenodd" transform="translate(-736 -990)" fill="none"><g id="icon-edit-active-1" fill-rule="nonzero" transform="translate(736 987)"><g id="icon-edit-active-if_Compose_2190985" transform="translate(0 3)"><circle id="icon-edit-active-Oval" cy="8.5" cx="8.5" r="8.5" fill="#FC261C"/><g id="icon-edit-active-Group" fill="#fff" transform="translate(3.8906 3.4922)"><path id="icon-edit-active-Shape" d="m8.1484 2.8825l1.3255-1.3207c0.0589-0.0589 0.0589-0.1473 0-0.2063l-1.2524-1.2524c-0.0589-0.058898-0.1473-0.058898-0.2063 0.00004l-1.303 1.3017 1.4362 1.4777z"/><path id="icon-edit-active-Shape" d="m6.1293 1.9891l-5.3926 5.3926-0.6483 1.9154c-0.044198 0.1179 0.07367 0.221 0.19154 0.1915l1.9154-0.6483 5.3927-5.3926-1.4587-1.4586z"/></g></g></g></g></svg><svg xmlns:xlink="http://www.w3.org/1999/xlink" height="17" width="14" version="1.1" viewBox="0 0 14 17" id="icon-hide-map-active" y="189"><title>Group 8</title><desc>Created with Sketch.</desc><g id="icon-hide-map-active-BUTTONS" fill-rule="evenodd" transform="translate(-737 -2106)" fill="none"><g id="icon-hide-map-active-Group-20" transform="translate(737 2102)"><g id="icon-hide-map-active-Group-8" transform="translate(0 4)"><path id="icon-hide-map-active-favorite" fill="#FC261C" d="m6.9018 0.0023807c-3.6505 0.10118-6.6926 2.9341-6.8954 6.5764-0.10143 2.4283 1.014 4.6542 2.8393 5.9692 1.521 1.113 2.7378 2.428 3.8533 3.946l0.3042 0.506 0.3042-0.506c1.1154-1.518 2.4337-2.833 3.9546-4.047 1.623-1.315 2.738-3.2376 2.738-5.4635 0-3.9458-3.245-7.0823-7.0982-6.9811v-0.0000193z"/><ellipse id="icon-hide-map-active-Oval" rx="1.9989" ry="1.9944" cy="6.9944" cx="7.0011" fill="#fff"/></g></g></g></svg><svg xmlns:xlink="http://www.w3.org/1999/xlink" height="17" width="17" version="1.1" viewBox="0 0 17 17" id="icon-instructions-active" y="206"><title>Shape</title><desc>Created with Sketch.</desc><g id="icon-instructions-active-BUTTONS" fill-rule="evenodd" transform="translate(-736 -1687)" fill="none"><g id="icon-instructions-active-Group-8" fill-rule="nonzero" fill="#FC261C" transform="translate(736 1684)"><path id="icon-instructions-active-Shape" d="m8.5 3c-4.7 0-8.5 3.8-8.5 8.5s3.8 8.5 8.5 8.5 8.5-3.8 8.5-8.5-3.8-8.5-8.5-8.5zm-0.9 13.4c-0.4 0-0.6-0.3-0.3-1.7l1-3.3c0.1-0.4 0.1-0.6 0-0.6s-0.6 0.3-1.1 0.7l-0.2-0.4c1-0.9 2.1-1.6 2.6-1.6 0.4 0 0.4 0.6 0.2 1.4l-1.1 3.6c-0.1 0.4-0.1 0.6 0 0.6 0.2 0 0.8-0.4 1.2-0.8l0.2 0.4c-0.6 0.8-1.9 1.7-2.5 1.7zm2-8c-0.4 0-0.7-0.3-0.7-0.8s0.4-1 1-1c0.5 0 0.7 0.4 0.7 0.8 0 0.5-0.4 1-1 1z"/></g></g></svg><svg xmlns:xlink="http://www.w3.org/1999/xlink" height="15" width="15" version="1.1" viewBox="0 0 15 15" id="icon-password-active" y="223"><title>if_lock_318582</title><desc>Created with Sketch.</desc><g id="icon-password-active-BUTTONS" fill-rule="evenodd" transform="translate(-736 -1572)" fill="none"><g id="icon-password-active-Group-22" fill-rule="nonzero" transform="translate(736 1568)"><g id="icon-password-active-if_lock_318582" transform="translate(0 4)"><circle id="icon-password-active-Oval" cy="7.4597" cx="7.4597" r="7.4597" fill="#FC261C"/><path id="icon-password-active-Shape" fill="#fff" d="m9.9861 5.8903h-0.4226v-1.6977c0.0005-0.2607-0.1422-0.4763-0.3151-0.6036-0.175-0.1306-0.389-0.1969-0.6178-0.198h-2.5322c-0.2287 0.0009-0.4429 0.0672-0.6178 0.198-0.1729 0.1273-0.3159 0.3429-0.3156 0.6036v1.6977h-0.4442c-0.2945 0-0.5334 0.1879-0.5334 0.4195v4.4042c0 0.232 0.2387 0.42 0.5334 0.42h5.2653c0.2939 0 0.5329-0.188 0.5329-0.42v-4.4042c0-0.2316-0.239-0.4195-0.5329-0.4195zm-4.0213-1.665c0.021-0.014 0.0707-0.0355 0.1334-0.0347h2.5323c0.0629-0.0003 0.1126 0.0202 0.133 0.0349v1.6648h-2.7988l0.0001-1.665zm1.4928 5.3737v0.961h-0.2641v-0.961c-0.3624-0.063-0.6385-0.3769-0.6385-0.7572 0-0.4257 0.3452-0.7705 0.7708-0.7705 0.4253 0 0.7707 0.345 0.7707 0.7705-0.0002 0.3803-0.2767 0.6942-0.6389 0.7572z"/></g></g></g></svg><svg xmlns:xlink="http://www.w3.org/1999/xlink" height="14" width="18" version="1.1" viewBox="0 0 18 14" id="icon-photo-active" y="238"><title>icon photo</title><desc>Created with Sketch.</desc><g id="icon-photo-active-BUTTONS" fill-rule="evenodd" transform="translate(-735 -1932)" fill="none"><g id="icon-photo-active-Group-3" transform="translate(735 1927)"><g id="icon-photo-active-icon-photo" transform="translate(0 5)"><rect id="icon-photo-active-Rectangle-2" rx="2" height="12" width="18" y="2" x="0" fill="#FC261C"/><rect id="icon-photo-active-Rectangle-4" rx="1" height="3" width="8" y="0" x="5" fill="#FC261C"/><circle id="icon-photo-active-Oval-6" r="3" stroke="#fff" cx="9" cy="8"/></g></g></g></svg><svg xmlns:xlink="http://www.w3.org/1999/xlink" height="18" width="18" version="1.1" viewBox="0 0 18 18" id="icon-refund-active" y="252"><title>Group</title><desc>Created with Sketch.</desc><g id="icon-refund-active-BUTTONS" fill-rule="evenodd" transform="translate(-736 -1400)" fill="none"><g id="icon-refund-active-Group-23" fill-rule="nonzero" fill="#FC261C" transform="translate(736 1396)"><g id="icon-refund-active-Group" transform="translate(0 4)"><path id="icon-refund-active-Shape" d="m4.1 16.4c0 0.6 0.4 1 1 1h8c0.6 0 1-0.4 1-1v-2.2h-10v2.2z"/><path id="icon-refund-active-Shape" d="m9.1 0.4c-4 5-8.3 8.3-8.3 8.3l3.3-0.6v4.5h10v-4.5l3.3 0.6s-4.3-3.3-8.3-8.3z"/></g></g></g></svg><svg xmlns:xlink="http://www.w3.org/1999/xlink" height="18" width="17" version="1.1" viewBox="0 0 17 18" id="icon-repeat-active" y="270"><title>Shape</title><desc>Created with Sketch.</desc><g id="icon-repeat-active-BUTTONS" fill-rule="evenodd" transform="translate(-736 -1128)" fill="none"><g id="icon-repeat-active-4" fill-rule="nonzero" fill="#FC261C" transform="translate(736 1125)"><path id="icon-repeat-active-Shape" d="m2.8 3.9v3.1h-2v13.4h12.4v-1.6h3.5v-14.9h-13.9zm1.5 12.4h5.5v1 0.5h-5.6v-1.5h0.1zm-0.1-1.5v-1.5h0.1 5.5v1.5h-5.5-0.1zm5.6-3h-5.5-0.1v-1.5h0.1 5.5v1.5zm5.4 5.5h-2v-10.3h-8.9v-1.6h10.9v11.9z"/></g></g></svg><svg xmlns:xlink="http://www.w3.org/1999/xlink" height="15" width="17" version="1.1" viewBox="0 0 17 15" id="icon-save-active" y="288"><title>Group 26</title><desc>Created with Sketch.</desc><g id="icon-save-active-BUTTONS" fill-rule="evenodd" transform="translate(-736 -1085)" fill="none"><g id="icon-save-active-3" fill-rule="nonzero" fill="#FC261C" transform="translate(736 1079)"><g id="icon-save-active-Group-26" transform="translate(0 6)"><path id="icon-save-active-Shape" d="m8.7 7.2l2.6-2.5c0.3-0.3 0.8-0.3 1.1 0s0.3 0.8 0 1.1l-4.3 4.2-4.3-4.2c-0.3-0.3-0.3-0.8 0-1.1s0.8-0.3 1.1 0l2.5 2.4v-6.8h-7v10.6h15.7v-10.6h-7.2l-0.2 6.9z"/><rect id="icon-save-active-Rectangle-path" y="12.5" x=".2" height="1.6" width="15.7"/></g></g></g></svg><svg xmlns:xlink="http://www.w3.org/1999/xlink" height="16" width="17" version="1.1" viewBox="0 0 17 16" id="icon-template-active" y="303"><title>Group</title><desc>Created with Sketch.</desc><g id="icon-template-active-BUTTONS" fill-rule="evenodd" transform="translate(-736 -916)" fill="none"><g id="icon-template-active-template" fill-rule="nonzero" fill="#FC261C" transform="translate(736 913)"><g id="icon-template-active-Group" transform="translate(0 3)"><path id="icon-template-active-Shape" d="m0.5 5.4h16.1v-3.5013c0-0.5516-0.447-0.9987-1.007-0.9987h-14.086c-0.55609 0-1.007 0.4479-1.007 0.9987v3.5013z"/><path id="icon-template-active-Rectangle-path" d="m0.5 7h6v8.9h-5.0092c-0.54721 0-0.9908-0.454-0.9908-1.004v-7.896z"/><path id="icon-template-active-Rectangle-path" d="m8 7h8.6v7.896c0 0.555-0.438 1.004-1.003 1.004h-7.597v-8.9z"/></g></g></g></svg></svg>
