<?xml version="1.0"?>
<!--Icons from directory ""-->
<svg xmlns="http://www.w3.org/2000/svg" width="24" height="890" viewBox="0 0 24 890"><svg xmlns:xlink="http://www.w3.org/1999/xlink" height="17" width="14" version="1.1" viewBox="0 0 14 17" id="icon-add-address-hover" y="0"><title>Shape</title><desc>Created with Sketch.</desc><g id="icon-add-address-hover-BUTTONS" fill-rule="evenodd" transform="translate(-376 -1254)" fill="none"><g id="icon-add-address-hover-Group-7" fill="#909090" transform="translate(376 1252)"><path id="icon-add-address-hover-Shape" d="m6.8063 2.0024c-3.6 0.1-6.6 2.9-6.8 6.5-0.10001 2.3996 1 4.5996 2.8 5.8996 1.5 1.1 2.7 2.4 3.8 3.9l0.3 0.5 0.3-0.5c1.1-1.5 2.4-2.8 3.8997-4 1.6-1.3 2.7-3.2 2.7-5.3996 0-3.9-3.2-7-6.9997-6.9zm0.8 7.7v2.0996h-1.5v-2.0996h-2.1v-1.5h2.1v-2.1h1.5v2.1h2.1v1.5h-2.1z"/></g></g></svg><svg xmlns:xlink="http://www.w3.org/1999/xlink" height="17" width="14" version="1.1" viewBox="0 0 14 17" id="icon-add-address" y="17"><title>Shape</title><desc>Created with Sketch.</desc><g id="icon-add-address-BUTTONS" fill-rule="evenodd" transform="translate(-56 -1254)" fill="none"><g id="icon-add-address-Group-7" fill="#000" transform="translate(56 1252)"><path id="icon-add-address-Shape" d="m6.8063 2.0024c-3.6 0.1-6.6 2.9-6.8 6.5-0.10001 2.3996 1 4.5996 2.8 5.8996 1.5 1.1 2.7 2.4 3.8 3.9l0.3 0.5 0.3-0.5c1.1-1.5 2.4-2.8 3.8997-4 1.6-1.3 2.7-3.2 2.7-5.3996 0-3.9-3.2-7-6.9997-6.9zm0.8 7.7v2.0996h-1.5v-2.0996h-2.1v-1.5h2.1v-2.1h1.5v2.1h2.1v1.5h-2.1z"/></g></g></svg><svg xmlns:xlink="http://www.w3.org/1999/xlink" height="16" width="16" version="1.1" viewBox="0 0 16 16" id="icon-add-hover" y="34"><title>Layer_1</title><desc>Created with Sketch.</desc><g id="icon-add-hover-BUTTONS" fill-rule="evenodd" transform="translate(-375 -1449)" fill="none"><g id="icon-add-hover-Group-19" transform="translate(376 1445)"><g id="icon-add-hover-Layer_1" transform="translate(0 5)"><path id="icon-add-hover-Shape" stroke="#909090" stroke-width="1.5" fill="#909090" d="m7 14c-3.8889 0-7-3.111-7-7 0-3.8889 3.1111-7 7-7 3.889 0 7 3.1111 7 7 0 3.889-3.111 7-7 7z"/><polygon id="icon-add-hover-Path" points="9.7063 7.7024 7.6063 7.7024 7.6063 9.8024 6.1063 9.8024 6.1063 7.7024 4.0063 7.7024 4.0063 6.2024 6.1063 6.2024 6.1063 4.1024 7.6063 4.1024 7.6063 6.2024 9.7063 6.2024" fill="#fff"/></g></g></g></svg><svg xmlns:xlink="http://www.w3.org/1999/xlink" height="18" width="18" version="1.1" viewBox="0 0 18 18" id="icon-add-money-hover" y="50"><title>Group</title><desc>Created with Sketch.</desc><g id="icon-add-money-hover-BUTTONS" fill-rule="evenodd" transform="translate(-376 -1351)" fill="none"><g id="icon-add-money-hover-Group-22" fill-rule="nonzero" fill="#909090" transform="translate(376 1347)"><g id="icon-add-money-hover-Group" transform="translate(0 4)"><path id="icon-add-money-hover-Shape" d="m14 1.4c0-0.6-0.4-1-1-1h-8c-0.6 0-1 0.4-1 1v2.2h10v-2.2z"/><path id="icon-add-money-hover-Shape" d="m14 5.1h-10v4.5l-3.3-0.6s4.3 3.3 8.3 8.3c4-5 8.3-8.3 8.3-8.3l-3.3 0.6v-4.5z"/></g></g></g></svg><svg xmlns:xlink="http://www.w3.org/1999/xlink" height="18" width="18" version="1.1" viewBox="0 0 18 18" id="icon-add-money" y="68"><title>Group</title><desc>Created with Sketch.</desc><g id="icon-add-money-BUTTONS" fill-rule="evenodd" transform="translate(-56 -1351)" fill="none"><g id="icon-add-money-Group-22" fill-rule="nonzero" fill="#000" transform="translate(56 1347)"><g id="icon-add-money-Group" transform="translate(0 4)"><path id="icon-add-money-Shape" d="m14 1.4c0-0.6-0.4-1-1-1h-8c-0.6 0-1 0.4-1 1v2.2h10v-2.2z"/><path id="icon-add-money-Shape" d="m14 5.1h-10v4.5l-3.3-0.6s4.3 3.3 8.3 8.3c4-5 8.3-8.3 8.3-8.3l-3.3 0.6v-4.5z"/></g></g></g></svg><svg xmlns:xlink="http://www.w3.org/1999/xlink" height="16" width="16" version="1.1" viewBox="0 0 16 16" id="icon-add" y="86"><title>Layer_1</title><desc>Created with Sketch.</desc><g id="icon-add-BUTTONS" fill-rule="evenodd" transform="translate(-55 -1449)" fill="none"><g id="icon-add-Group-19" transform="translate(56 1445)"><g id="icon-add-Layer_1" transform="translate(0 5)"><path id="icon-add-Shape" stroke="#000" stroke-width="1.5" fill="#000" d="m7 14c-3.8889 0-7-3.111-7-7 0-3.8889 3.1111-7 7-7 3.889 0 7 3.1111 7 7 0 3.889-3.111 7-7 7z"/><polygon id="icon-add-Path" points="9.7063 7.7024 7.6063 7.7024 7.6063 9.8024 6.1063 9.8024 6.1063 7.7024 4.0063 7.7024 4.0063 6.2024 6.1063 6.2024 6.1063 4.1024 7.6063 4.1024 7.6063 6.2024 9.7063 6.2024" fill="#fff"/></g></g></g></svg><svg xmlns:xlink="http://www.w3.org/1999/xlink" height="23" width="22" version="1.1" viewBox="0 0 22 23" id="icon-addresses-hover" y="102"><title>Group</title><desc>Created with Sketch.</desc><g id="icon-addresses-hover-BUTTONS" stroke-linejoin="round" fill-rule="evenodd" transform="translate(-416 -157)" fill="none"><g id="icon-addresses-hover-services" stroke="#909090" transform="translate(416 100)"><g id="icon-addresses-hover-service_2" transform="translate(0 58)"><g id="icon-addresses-hover-Group-12"><g id="icon-addresses-hover-Group" transform="translate(0.125)"><rect id="icon-addresses-hover-Rectangle-path" y="0" x="2.7" height="21" width="18.3"/><g id="icon-addresses-hover-Shape" fill-rule="nonzero" stroke-linecap="round" transform="translate(0 3)" fill="#fff"><path d="m0.9 0.6h3.7"/><path d="m0.9 7.5h3.7"/><path d="m0.9 14.5h3.7"/></g><circle id="icon-addresses-hover-Oval" cy="8" cx="12.1" r="2.5"/><path id="icon-addresses-hover-Shape" d="m16.3 10.5c0.5-0.7 0.7-1.6 0.7-2.5 0-2.7-2.2-4.9-4.9-4.9s-4.9 2.2-4.9 4.9c0 0.9 0.3 1.8 0.7 2.5l4.1 7.3 4.3-7.3z"/></g></g></g></g></g></svg><svg xmlns:xlink="http://www.w3.org/1999/xlink" height="16" width="16" version="1.1" viewBox="0 0 16 16" id="icon-apply-hover" y="125"><title>Group 20</title><desc>Created with Sketch.</desc><g id="icon-apply-hover-BUTTONS" fill-rule="evenodd" transform="translate(-370 -2044)" fill="none"><g id="icon-apply-hover-2" transform="translate(370 2040)"><g id="icon-apply-hover-Group-20" transform="translate(0 4)"><circle id="icon-apply-hover-Oval-2" cy="8" cx="8" r="8" fill="#000"/><polyline id="icon-apply-hover-Path-2" stroke="#fff" stroke-linecap="round" points="5.2521 4.2579 11.141 9.5693 8.0593 12.651" transform="translate(8.1967 8.4546) rotate(90) translate(-8.1967 -8.4546)"/></g></g></g></svg><svg xmlns:xlink="http://www.w3.org/1999/xlink" height="16" width="16" version="1.1" viewBox="0 0 16 16" id="icon-apply" y="141"><title>Group 20</title><desc>Created with Sketch.</desc><g id="icon-apply-BUTTONS" fill-rule="evenodd" transform="translate(-55 -2044)" fill="none"><g id="icon-apply-2" transform="translate(55 2040)"><g id="icon-apply-Group-20" transform="translate(0 4)"><circle id="icon-apply-Oval-2" cy="8" cx="8" r="8" fill="#909090"/><polyline id="icon-apply-Path-2" stroke="#fff" stroke-linecap="round" points="5.2521 4.2579 11.141 9.5693 8.0593 12.651" transform="translate(8.1967 8.4546) rotate(90) translate(-8.1967 -8.4546)"/></g></g></g></svg><svg xmlns:xlink="http://www.w3.org/1999/xlink" height="18" width="22" version="1.1" viewBox="0 0 22 18" id="icon-auto-hover" y="157"><title>icon auto</title><desc>Created with Sketch.</desc><g id="icon-auto-hover-BUTTONS" fill-rule="evenodd" transform="translate(-374 -1837)" fill="none"><g id="icon-auto-hover-Group-3" transform="translate(374 1834)"><g id="icon-auto-hover-icon-auto" transform="translate(0 3)"><polygon id="icon-auto-hover-Path-7" points="21.314 0.70015 21.314 14.67 0.57784 14.67 0.57784 13.264 1.2114 13.264 1.2114 8.191 5.1679 3.4719 7.4902 3.4719 7.4902 0.70015" fill="#909090"/><g fill="#fff"><polygon id="icon-auto-hover-Path" points="7.4712 5.0077 7.4712 8.0312 3.0105 8.0312 5.4718 5.0077"/><circle id="icon-auto-hover-Oval-5" cx="6" cy="15" stroke="#909090" r="2"/><circle id="icon-auto-hover-Oval-5" cx="17" cy="15" stroke="#909090" r="2"/></g></g></g></g></svg><svg xmlns:xlink="http://www.w3.org/1999/xlink" height="18" width="22" version="1.1" viewBox="0 0 22 18" id="icon-auto" y="175"><title>icon auto</title><desc>Created with Sketch.</desc><g id="icon-auto-BUTTONS" fill-rule="evenodd" transform="translate(-54 -1837)" fill="none"><g id="icon-auto-Group-3" transform="translate(54 1834)"><g id="icon-auto-icon-auto" transform="translate(0 3)"><polygon id="icon-auto-Path-7" points="21.314 0.70015 21.314 14.67 0.57784 14.67 0.57784 13.264 1.2114 13.264 1.2114 8.191 5.1679 3.4719 7.4902 3.4719 7.4902 0.70015" fill="#000"/><g fill="#fff"><polygon id="icon-auto-Path" points="7.4712 5.0077 7.4712 8.0312 3.0105 8.0312 5.4718 5.0077"/><circle id="icon-auto-Oval-5" cx="6" cy="15" stroke="#000" r="2"/><circle id="icon-auto-Oval-5" cx="17" cy="15" stroke="#000" r="2"/></g></g></g></g></svg><svg xmlns:xlink="http://www.w3.org/1999/xlink" height="20" width="24" version="1.1" viewBox="0 0 24 20" id="icon-bills-hover" y="193"><title>Group</title><desc>Created with Sketch.</desc><g id="icon-bills-hover-BUTTONS" stroke-linejoin="round" fill-rule="evenodd" transform="translate(-416 -300)" fill="none"><g id="icon-bills-hover-services" stroke="#909090" transform="translate(416 100)"><g id="icon-bills-hover-service_3-copy" transform="translate(0 200)"><g id="icon-bills-hover-Group-14"><g id="icon-bills-hover-Group" transform="translate(0.375)"><polyline id="icon-bills-hover-Shape" points="3.8 3.8 18.2 0.6 19 3.8"/><polyline id="icon-bills-hover-Shape" points="21.2 14.4 21.2 19 0.2 19 0.2 3.8 21.2 3.8 21.2 8.4"/><rect id="icon-bills-hover-Rectangle-path" transform="translate(18.281 11.47) rotate(90) translate(-18.281 -11.47)" height="8.4" width="6" stroke-linecap="round" y="7.2698" x="15.281"/><path id="icon-bills-hover-Shape" fill-rule="nonzero" fill="#fff" stroke-linecap="round" d="m18.7 11.4h-2"/></g></g></g></g></g></svg><svg xmlns:xlink="http://www.w3.org/1999/xlink" height="17" width="17" version="1.1" viewBox="0 0 17 17" id="icon-cancel-hover" y="213"><title>Combined Shape</title><desc>Created with Sketch.</desc><g id="icon-cancel-hover-BUTTONS" fill-rule="evenodd" transform="translate(-376 -1036)" fill="none"><g id="icon-cancel-hover-1" fill-rule="nonzero" fill="#909090" transform="translate(376 1033)"><g id="icon-cancel-hover-if_Compose_2190985" transform="translate(0 3)"><path id="icon-cancel-hover-Combined-Shape" d="m8.5 17c-4.6944 0-8.5-3.806-8.5-8.5 0-4.6944 3.8056-8.5 8.5-8.5 4.694 0 8.5 3.8056 8.5 8.5 0 4.694-3.806 8.5-8.5 8.5zm4-5.658l-2.8421-2.842 2.8421-2.8421-1.158-1.1579-2.842 2.8421-2.8421-2.8421-1.1579 1.1579 2.8421 2.8421-2.8421 2.842 1.1579 1.158 2.8421-2.8421 2.842 2.8421 1.158-1.158z"/></g></g></g></svg><svg xmlns:xlink="http://www.w3.org/1999/xlink" height="17" width="17" version="1.1" viewBox="0 0 17 17" id="icon-cancel" y="230"><title>Combined Shape</title><desc>Created with Sketch.</desc><g id="icon-cancel-BUTTONS" fill-rule="evenodd" transform="translate(-56 -1036)" fill="none"><g id="icon-cancel-1" fill-rule="nonzero" fill="#000" transform="translate(56 1033)"><g id="icon-cancel-if_Compose_2190985" transform="translate(0 3)"><path id="icon-cancel-Combined-Shape" d="m8.5 17c-4.6944 0-8.5-3.806-8.5-8.5 0-4.6944 3.8056-8.5 8.5-8.5 4.694 0 8.5 3.8056 8.5 8.5 0 4.694-3.806 8.5-8.5 8.5zm4-5.658l-2.8421-2.842 2.8421-2.8421-1.158-1.1579-2.842 2.8421-2.8421-2.8421-1.1579 1.1579 2.8421 2.8421-2.8421 2.842 1.1579 1.158 2.8421-2.8421 2.842 2.8421 1.158-1.158z"/></g></g></g></svg><svg xmlns:xlink="http://www.w3.org/1999/xlink" height="17" width="19" version="1.1" viewBox="0 0 19 17" id="icon-chat-hover" y="247"><title>Shape</title><desc>Created with Sketch.</desc><g id="icon-chat-hover-BUTTONS" fill-rule="evenodd" transform="translate(-376 -1735)" fill="none"><g id="icon-chat-hover-Group-11" fill-rule="nonzero" fill="#909090" transform="translate(376 1732)"><path id="icon-chat-hover-Shape" d="m15.8 15.9c0.8-1.3 1.2-2.8 1.2-4.4 0-4.7-3.8-8.5-8.5-8.5s-8.5 3.8-8.5 8.5 3.8 8.5 8.5 8.5c1.7 0 3.3-0.5 4.7-1.4 1.6 0.9 3.5 1.4 5.7 1.4-1.6-1.1-2.6-2.5-3.1-4.1zm-5.2-4.2h1.7v1.5h-1.7v-1.5zm-4.2 1.5h-1.7v-1.5h1.7v1.5zm3 0h-1.7v-1.5h1.7v1.5z"/></g></g></svg><svg xmlns:xlink="http://www.w3.org/1999/xlink" height="17" width="19" version="1.1" viewBox="0 0 19 17" id="icon-chat" y="264"><title>Shape</title><desc>Created with Sketch.</desc><g id="icon-chat-BUTTONS" fill-rule="evenodd" transform="translate(-56 -1735)" fill="none"><g id="icon-chat-Group-11" fill-rule="nonzero" fill="#000" transform="translate(56 1732)"><path id="icon-chat-Shape" d="m15.8 15.9c0.8-1.3 1.2-2.8 1.2-4.4 0-4.7-3.8-8.5-8.5-8.5s-8.5 3.8-8.5 8.5 3.8 8.5 8.5 8.5c1.7 0 3.3-0.5 4.7-1.4 1.6 0.9 3.5 1.4 5.7 1.4-1.6-1.1-2.6-2.5-3.1-4.1zm-5.2-4.2h1.7v1.5h-1.7v-1.5zm-4.2 1.5h-1.7v-1.5h1.7v1.5zm3 0h-1.7v-1.5h1.7v1.5z"/></g></g></svg><svg xmlns:xlink="http://www.w3.org/1999/xlink" height="17" width="20" version="1.1" viewBox="0 0 20 17" id="icon-claim-hover" y="281"><title>Shape</title><desc>Created with Sketch.</desc><g id="icon-claim-hover-BUTTONS" fill-rule="evenodd" transform="translate(-376 -1174)" fill="none"><g id="icon-claim-hover-2" fill-rule="nonzero" fill="#909090" transform="translate(376 1171)"><path id="icon-claim-hover-Shape" d="m16.4 15.9c0.8-1.3 1.2-2.8 1.2-4.4 0-4.7-3.8-8.5-8.5-8.5s-8.5 3.8-8.5 8.5 3.8 8.5 8.5 8.5c1.7 0 3.3-0.5 4.7-1.4 1.6 0.9 3.5 1.4 5.7 1.4-1.6-1.1-2.6-2.5-3.1-4.1zm-6.7 0.5h-1.5v-1.7h1.5v1.7zm0-2.8h-1.5v-6.6h1.5v6.6z"/></g></g></svg><svg xmlns:xlink="http://www.w3.org/1999/xlink" height="17" width="20" version="1.1" viewBox="0 0 20 17" id="icon-claim" y="298"><title>Shape</title><desc>Created with Sketch.</desc><g id="icon-claim-BUTTONS" fill-rule="evenodd" transform="translate(-56 -1174)" fill="none"><g id="icon-claim-2" fill-rule="nonzero" fill="#000" transform="translate(56 1171)"><path id="icon-claim-Shape" d="m16.4 15.9c0.8-1.3 1.2-2.8 1.2-4.4 0-4.7-3.8-8.5-8.5-8.5s-8.5 3.8-8.5 8.5 3.8 8.5 8.5 8.5c1.7 0 3.3-0.5 4.7-1.4 1.6 0.9 3.5 1.4 5.7 1.4-1.6-1.1-2.6-2.5-3.1-4.1zm-6.7 0.5h-1.5v-1.7h1.5v1.7zm0-2.8h-1.5v-6.6h1.5v6.6z"/></g></g></svg><svg xmlns:xlink="http://www.w3.org/1999/xlink" height="22" width="22" version="1.1" viewBox="0 0 22 22" id="icon-clear-filter-hover" y="315"><title>Combined Shape</title><desc>Created with Sketch.</desc><g id="icon-clear-filter-hover-BUTTONS" fill-rule="evenodd" transform="translate(-370 -2181)" fill="none"><g id="icon-clear-filter-hover-Group-9" fill="#909090" transform="translate(370 2181)"><path id="icon-clear-filter-hover-Combined-Shape" d="m11 22c-6.0751 0-11-4.925-11-11 0-6.0751 4.9249-11 11-11 6.075 0 11 4.9249 11 11 0 6.075-4.925 11-11 11zm0-16.499c-3.0376 0-5.5 2.4624-5.5 5.5004 0 3.037 2.4624 5.5 5.5 5.5 1.467 0.021 2.881-0.545 3.929-1.572l-1.081-1.178c-0.749 0.764-1.778 1.19-2.848 1.178-2.1697 0-3.9286-1.759-3.9286-3.928 0-2.1701 1.7589-3.929 3.9286-3.929 1.07-0.0116 2.099 0.4141 2.848 1.1786l-1.669 1.5714h4.321v-4.3214l-1.571 1.5714c-1.048-1.0267-2.462-1.5924-3.929-1.5714z"/></g></g></svg><svg xmlns:xlink="http://www.w3.org/1999/xlink" height="22" width="22" version="1.1" viewBox="0 0 22 22" id="icon-clear-filter" y="337"><title>Combined Shape</title><desc>Created with Sketch.</desc><g id="icon-clear-filter-BUTTONS" fill-rule="evenodd" transform="translate(-54 -2181)" fill="none"><g id="icon-clear-filter-Group-9" fill="#FC261C" transform="translate(54 2181)"><path id="icon-clear-filter-Combined-Shape" d="m11 22c-6.0751 0-11-4.925-11-11 0-6.0751 4.9249-11 11-11 6.075 0 11 4.9249 11 11 0 6.075-4.925 11-11 11zm0-16.499c-3.0376 0-5.5 2.4624-5.5 5.5004 0 3.037 2.4624 5.5 5.5 5.5 1.467 0.021 2.881-0.545 3.929-1.572l-1.081-1.178c-0.749 0.764-1.778 1.19-2.848 1.178-2.1697 0-3.9286-1.759-3.9286-3.928 0-2.1701 1.7589-3.929 3.9286-3.929 1.07-0.0116 2.099 0.4141 2.848 1.1786l-1.669 1.5714h4.321v-4.3214l-1.571 1.5714c-1.048-1.0267-2.462-1.5924-3.929-1.5714z"/></g></g></svg><svg xmlns:xlink="http://www.w3.org/1999/xlink" height="15" width="24" version="1.1" viewBox="0 0 24 15" id="icon-clear-hover" y="359"><title>Shape</title><desc>Created with Sketch.</desc><g id="icon-clear-hover-BUTTONS" fill-rule="evenodd" transform="translate(-376 -876)" fill="none"><g id="icon-clear-hover-clear" fill-rule="nonzero" fill="#000" transform="translate(376 871)"><path id="icon-clear-hover-Shape" d="m19.5 5h-9.9c-1.2 0-2.4 0.4-3.2 1.2l-6.4 5.9 6.4 5.9c0.8 0.8 2 1.2 3.2 1.2h9.9c2.1 0 3.8-1.6 3.8-3.5v-7.1c0-2-1.7-3.6-3.8-3.6zm-1.8 9.8l-1.1 1.1-2.7-2.7-2.7 2.7-1.1-1.1 2.7-2.7-2.7-2.7 1.1-1.1 2.7 2.7 2.7-2.7 1.1 1.1-2.7 2.7 2.7 2.7z"/></g></g></svg><svg xmlns:xlink="http://www.w3.org/1999/xlink" height="15" width="24" version="1.1" viewBox="0 0 24 15" id="icon-clear" y="374"><title>Shape</title><desc>Created with Sketch.</desc><g id="icon-clear-BUTTONS" fill-rule="evenodd" transform="translate(-56 -876)" fill="none"><g id="icon-clear-clear" fill-rule="nonzero" fill="#909090" transform="translate(56 871)"><path id="icon-clear-Shape" d="m19.5 5h-9.9c-1.2 0-2.4 0.4-3.2 1.2l-6.4 5.9 6.4 5.9c0.8 0.8 2 1.2 3.2 1.2h9.9c2.1 0 3.8-1.6 3.8-3.5v-7.1c0-2-1.7-3.6-3.8-3.6zm-1.8 9.8l-1.1 1.1-2.7-2.7-2.7 2.7-1.1-1.1 2.7-2.7-2.7-2.7 1.1-1.1 2.7 2.7 2.7-2.7 1.1 1.1-2.7 2.7 2.7 2.7z"/></g></g></svg><svg xmlns:xlink="http://www.w3.org/1999/xlink" height="17" width="19" version="1.1" viewBox="0 0 19 17" id="icon-comment-hover" y="389"><title>comment</title><desc>Created with Sketch.</desc><g id="icon-comment-hover-BUTTONS" fill-rule="evenodd" transform="translate(-375 -1885)" fill="none"><g id="icon-comment-hover-Group-3" transform="translate(375 1880)"><g id="icon-comment-hover-comment" transform="translate(0 5)"><path id="icon-comment-hover-add-info" fill="#909090" d="m-1.4134e-15 1.9999c-5.1952e-14 -1.1045 0.89093-1.9999 1.9974-1.9999h15.006c1.103 0 1.997 0.88627 1.997 1.9999v10.168c0 1.105-0.887 2-2.002 2h-12.181l-3.9889 2.691c-0.45735 0.309-0.8281 0.107-0.8281-0.434l1.5014e-13 -0.254c2.3239e-13 -1.106 3.791e-13 -2.889 3.2672e-13 -4.003l-4.7827e-13 -10.168z"/><g fill="#fff"><rect id="icon-comment-hover-Rectangle-8" height="2" width="2" y="8" x="6"/><rect id="icon-comment-hover-Rectangle-9" height="2" width="2" y="8" x="9"/><rect id="icon-comment-hover-Rectangle-10" height="2" width="2" y="8" x="12"/></g></g></g></g></svg><svg xmlns:xlink="http://www.w3.org/1999/xlink" height="17" width="19" version="1.1" viewBox="0 0 19 17" id="icon-comment" y="406"><title>comment</title><desc>Created with Sketch.</desc><g id="icon-comment-BUTTONS" fill-rule="evenodd" transform="translate(-55 -1885)" fill="none"><g id="icon-comment-Group-3" transform="translate(55 1880)"><g id="icon-comment-comment" transform="translate(0 5)"><path id="icon-comment-add-info" fill="#000" d="m0 2.0059c-5.2732e-14 -1.1078 0.89093-2.0059 1.9974-2.0059h15.006c1.103 0 1.997 0.89706 1.997 2.0059v9.9881c0 1.108-0.887 2.006-2.002 2.006h-12.181l-3.9779 2.652c-0.46343 0.309-0.8391 0.113-0.8391-0.439l1.4624e-13 -0.216c2.3455e-13 -1.103 3.8199e-13 -2.894 3.2921e-13 -4.003l-4.7545e-13 -9.9881z"/><g fill="#fff"><rect id="icon-comment-Rectangle-8" height="2" width="2" y="8" x="6"/><rect id="icon-comment-Rectangle-9" height="2" width="2" y="8" x="9"/><rect id="icon-comment-Rectangle-10" height="2" width="2" y="8" x="12"/></g></g></g></g></svg><svg xmlns:xlink="http://www.w3.org/1999/xlink" height="17" width="17" version="1.1" viewBox="0 0 17 17" id="icon-compose-hover" y="423"><title>if_Compose_2190985</title><desc>Created with Sketch.</desc><g id="icon-compose-hover-BUTTONS" fill-rule="evenodd" transform="translate(-369 -2004)" fill="none"><g id="icon-compose-hover-1" fill-rule="nonzero" fill="#000" transform="translate(369 2001)"><g id="icon-compose-hover-if_Compose_2190985" transform="translate(0 3)"><path id="icon-compose-hover-Combined-Shape" d="m8.5 17c-4.6944 0-8.5-3.806-8.5-8.5 0-4.6944 3.8056-8.5 8.5-8.5 4.694 0 8.5 3.8056 8.5 8.5 0 4.694-3.806 8.5-8.5 8.5zm1-3.6v-1.7h-1.5v1.7h1.5zm0-2.8v-6.6h-1.5v6.6h1.5z"/></g></g></g></svg><svg xmlns:xlink="http://www.w3.org/1999/xlink" height="17" width="17" version="1.1" viewBox="0 0 17 17" id="icon-compose" y="440"><title>if_Compose_2190985</title><desc>Created with Sketch.</desc><g id="icon-compose-BUTTONS" fill-rule="evenodd" transform="translate(-54 -2004)" fill="none"><g id="icon-compose-1" fill-rule="nonzero" fill="#909090" transform="translate(54 2001)"><g id="icon-compose-if_Compose_2190985" transform="translate(0 3)"><path id="icon-compose-Combined-Shape" d="m8.5 17c-4.6944 0-8.5-3.806-8.5-8.5 0-4.6944 3.8056-8.5 8.5-8.5 4.694 0 8.5 3.8056 8.5 8.5 0 4.694-3.806 8.5-8.5 8.5zm1-3.6v-1.7h-1.5v1.7h1.5zm0-2.8v-6.6h-1.5v6.6h1.5z"/></g></g></g></svg><svg xmlns:xlink="http://www.w3.org/1999/xlink" height="17" width="17" version="1.1" viewBox="0 0 17 17" id="icon-edit-hover" y="457"><title>if_Compose_2190985</title><desc>Created with Sketch.</desc><g id="icon-edit-hover-BUTTONS" fill-rule="evenodd" transform="translate(-376 -990)" fill="none"><g id="icon-edit-hover-1" fill-rule="nonzero" transform="translate(376 987)"><g id="icon-edit-hover-if_Compose_2190985" transform="translate(0 3)"><circle id="icon-edit-hover-Oval" cy="8.5" cx="8.5" r="8.5" fill="#909090"/><g id="icon-edit-hover-Group" fill="#fff" transform="translate(3.8906 3.4922)"><path id="icon-edit-hover-Shape" d="m8.1484 2.8825l1.3255-1.3207c0.0589-0.0589 0.0589-0.1473 0-0.2063l-1.2524-1.2524c-0.0589-0.058898-0.1473-0.058898-0.2063 0.00004l-1.303 1.3017 1.4362 1.4777z"/><path id="icon-edit-hover-Shape" d="m6.1293 1.9891l-5.3926 5.3926-0.6483 1.9154c-0.044198 0.1179 0.07367 0.221 0.19154 0.1915l1.9154-0.6483 5.3927-5.3926-1.4587-1.4586z"/></g></g></g></g></svg><svg xmlns:xlink="http://www.w3.org/1999/xlink" height="17" width="17" version="1.1" viewBox="0 0 17 17" id="icon-edit" y="474"><title>if_Compose_2190985</title><desc>Created with Sketch.</desc><g id="icon-edit-BUTTONS" fill-rule="evenodd" transform="translate(-56 -990)" fill="none"><g id="icon-edit-1" fill-rule="nonzero" transform="translate(56 987)"><g id="icon-edit-if_Compose_2190985" transform="translate(0 3)"><circle id="icon-edit-Oval" cy="8.5" cx="8.5" r="8.5" fill="#000"/><g id="icon-edit-Group" fill="#fff" transform="translate(3.8906 3.4922)"><path id="icon-edit-Shape" d="m8.1484 2.8825l1.3255-1.3207c0.0589-0.0589 0.0589-0.1473 0-0.2063l-1.2524-1.2524c-0.0589-0.058898-0.1473-0.058898-0.2063 0.00004l-1.303 1.3017 1.4362 1.4777z"/><path id="icon-edit-Shape" d="m6.1293 1.9891l-5.3926 5.3926-0.6483 1.9154c-0.044198 0.1179 0.07367 0.221 0.19154 0.1915l1.9154-0.6483 5.3927-5.3926-1.4587-1.4586z"/></g></g></g></g></svg><svg xmlns:xlink="http://www.w3.org/1999/xlink" height="18" width="16" version="1.1" viewBox="0 0 16 18" id="icon-filter-hover" y="491"><title>1496757375_filter</title><desc>Created with Sketch.</desc><g id="icon-filter-hover-BUTTONS" stroke-linejoin="round" fill-rule="evenodd" transform="translate(-512 -747)" stroke-linecap="round" fill="none"><g id="icon-filter-hover-1496757375_filter" stroke="#FC261C" transform="translate(513 748)"><path id="icon-filter-hover-Shape" d="m5.1681 15.568h1.7359l2.3601-1.715v-5.7398l4.7519-7.2434c0 0.00003 0.216-0.8098-0.389-0.8098h-12.889c-0.66788 0-0.25763 0.78235-0.25763 0.78235l4.6938 7.1802-0.0061 7.5454z"/><path id="icon-filter-hover-Shape" d="m5.1742 8h4.1353"/><path id="icon-filter-hover-Shape" stroke-width=".5" d="m8.5039 5.6299l3.6661-5.5191"/></g></g></svg><svg xmlns:xlink="http://www.w3.org/1999/xlink" height="21" width="21" version="1.1" viewBox="0 0 21 21" id="icon-help-hover" y="509"><title>Group 15</title><desc>Created with Sketch.</desc><g id="icon-help-hover-BUTTONS" fill-rule="evenodd" transform="translate(-415 -369)" fill="none"><g id="icon-help-hover-services" stroke="#909090" transform="translate(416 100)"><g id="icon-help-hover-service_4" transform="translate(0 270)"><g id="icon-help-hover-Group-15"><circle id="icon-help-hover-Oval-4" cy="9.5" cx="9.5" r="9.5"/><circle id="icon-help-hover-Oval-4" opacity="0.9" cy="9.5" cx="9.5" r="5.5"/><g stroke-linecap="square"><path id="icon-help-hover-Line" d="m15.5 8.5h3"/><path id="icon-help-hover-Line" d="m15.5 10.5h3"/><path id="icon-help-hover-Line" d="m0.5 8.5h3"/><path id="icon-help-hover-Line" d="m0.5 10.5h3"/><path id="icon-help-hover-Line" d="m8.5 0.5v3"/><path id="icon-help-hover-Line" d="m10.5 0.5v3"/><path id="icon-help-hover-Line" d="m8.5 15.5v3"/><path id="icon-help-hover-Line" d="m10.5 15.5v3"/></g></g></g></g></g></svg><svg xmlns:xlink="http://www.w3.org/1999/xlink" height="17" width="14" version="1.1" viewBox="0 0 14 17" id="icon-hide-map-hover" y="530"><title>Group 8</title><desc>Created with Sketch.</desc><g id="icon-hide-map-hover-BUTTONS" fill-rule="evenodd" transform="translate(-371 -2106)" fill="none"><g id="icon-hide-map-hover-Group-20" transform="translate(371 2102)"><g id="icon-hide-map-hover-Group-8" transform="translate(0 4)"><path id="icon-hide-map-hover-favorite" fill="#000" d="m6.9018 0.0023807c-3.6505 0.10118-6.6926 2.9341-6.8954 6.5764-0.10143 2.4283 1.014 4.6542 2.8393 5.9692 1.521 1.113 2.7378 2.428 3.8533 3.946l0.3042 0.506 0.3042-0.506c1.1154-1.518 2.4337-2.833 3.9546-4.047 1.623-1.315 2.738-3.2376 2.738-5.4635 0-3.9458-3.245-7.0823-7.0982-6.9811v-0.0000193z"/><ellipse id="icon-hide-map-hover-Oval" rx="1.9989" ry="1.9944" cy="6.9944" cx="7.0011" fill="#fff"/></g></g></g></svg><svg xmlns:xlink="http://www.w3.org/1999/xlink" height="17" width="14" version="1.1" viewBox="0 0 14 17" id="icon-hide-map" y="547"><title>Group 8</title><desc>Created with Sketch.</desc><g id="icon-hide-map-BUTTONS" fill-rule="evenodd" transform="translate(-57 -2106)" fill="none"><g id="icon-hide-map-Group-20" transform="translate(57 2102)"><g id="icon-hide-map-Group-8" transform="translate(0 4)"><path id="icon-hide-map-favorite" fill="#909090" d="m6.9018 0.0023807c-3.6505 0.10118-6.6926 2.9341-6.8954 6.5764-0.10143 2.4283 1.014 4.6542 2.8393 5.9692 1.521 1.113 2.7378 2.428 3.8533 3.946l0.3042 0.506 0.3042-0.506c1.1154-1.518 2.4337-2.833 3.9546-4.047 1.623-1.315 2.738-3.2376 2.738-5.4635 0-3.9458-3.245-7.0823-7.0982-6.9811v-0.0000193z"/><ellipse id="icon-hide-map-Oval" rx="1.9989" ry="1.9944" cy="6.9944" cx="7.0011" fill="#fff"/></g></g></g></svg><svg xmlns:xlink="http://www.w3.org/1999/xlink" height="19" width="16" version="1.1" viewBox="0 0 16 19" id="icon-history-hover" y="564"><title>Group 4</title><desc>Created with Sketch.</desc><g id="icon-history-hover-BUTTONS" fill-rule="evenodd" transform="translate(-444 -795)" fill="none"><g id="icon-history-hover-Group-4" stroke="#000" transform="translate(444 796)"><path id="icon-history-hover-Oval-2" d="m4.285 3.2709c-2.3206 1.3256-3.785 3.7927-3.785 6.5168 0 4.1423 3.3579 7.5003 7.5 7.5003 4.142 0 7.5-3.358 7.5-7.5003 0-4.1211-3.324-7.4659-7.437-7.4997l-3.778 0.9829z"/><polyline id="icon-history-hover-Line" opacity="0.9" stroke-width="1.3" stroke-linecap="square" points="7.9727 6.4935 7.9727 10.54 10.011 11.54"/><polyline id="icon-history-hover-Path-6" stroke-linecap="round" points="9.9154 5.1607 8.0099 2.3521 10.537 0.14418"/></g></g></svg><svg xmlns:xlink="http://www.w3.org/1999/xlink" height="17" width="16" version="1.1" viewBox="0 0 16 17" id="icon-info-hover" y="583"><title>Group 28</title><desc>Created with Sketch.</desc><g id="icon-info-hover-BUTTONS" opacity="0.9" fill-rule="evenodd" transform="translate(-488 -798)" fill="none"><g id="icon-info-hover-Group-28" transform="translate(488 798)"><circle id="icon-info-hover-Oval-2" r="7.5" stroke="#000" cx="8" cy="8.7877"/><path id="icon-info-hover-i" fill="#000" d="m8.8032 14h-1.6064v-7.5605h1.6064v7.5605zm-1.7021-9.5635c0-0.2871 0.0786-0.5081 0.2358-0.6631 0.1572-0.1549 0.3817-0.2324 0.6734-0.2324 0.2825 0 0.5024 0.0775 0.6596 0.2324 0.1572 0.155 0.2359 0.376 0.2359 0.6631 0 0.2735-0.0787 0.4888-0.2359 0.646s-0.3771 0.2359-0.6596 0.2359c-0.2917 0-0.5162-0.0787-0.6734-0.2359s-0.2358-0.3725-0.2358-0.646z"/></g></g></svg><svg xmlns:xlink="http://www.w3.org/1999/xlink" height="17" width="17" version="1.1" viewBox="0 0 17 17" id="icon-instructions-hover" y="600"><title>Shape</title><desc>Created with Sketch.</desc><g id="icon-instructions-hover-BUTTONS" fill-rule="evenodd" transform="translate(-376 -1687)" fill="none"><g id="icon-instructions-hover-Group-8" fill-rule="nonzero" fill="#909090" transform="translate(376 1684)"><path id="icon-instructions-hover-Shape" d="m8.5 3c-4.7 0-8.5 3.8-8.5 8.5s3.8 8.5 8.5 8.5 8.5-3.8 8.5-8.5-3.8-8.5-8.5-8.5zm-0.9 13.4c-0.4 0-0.6-0.3-0.3-1.7l1-3.3c0.1-0.4 0.1-0.6 0-0.6s-0.6 0.3-1.1 0.7l-0.2-0.4c1-0.9 2.1-1.6 2.6-1.6 0.4 0 0.4 0.6 0.2 1.4l-1.1 3.6c-0.1 0.4-0.1 0.6 0 0.6 0.2 0 0.8-0.4 1.2-0.8l0.2 0.4c-0.6 0.8-1.9 1.7-2.5 1.7zm2-8c-0.4 0-0.7-0.3-0.7-0.8s0.4-1 1-1c0.5 0 0.7 0.4 0.7 0.8 0 0.5-0.4 1-1 1z"/></g></g></svg><svg xmlns:xlink="http://www.w3.org/1999/xlink" height="17" width="17" version="1.1" viewBox="0 0 17 17" id="icon-instructions" y="617"><title>Shape</title><desc>Created with Sketch.</desc><g id="icon-instructions-BUTTONS" fill-rule="evenodd" transform="translate(-56 -1687)" fill="none"><g id="icon-instructions-Group-8" fill-rule="nonzero" fill="#000" transform="translate(56 1684)"><path id="icon-instructions-Shape" d="m8.5 3c-4.7 0-8.5 3.8-8.5 8.5s3.8 8.5 8.5 8.5 8.5-3.8 8.5-8.5-3.8-8.5-8.5-8.5zm-0.9 13.4c-0.4 0-0.6-0.3-0.3-1.7l1-3.3c0.1-0.4 0.1-0.6 0-0.6s-0.6 0.3-1.1 0.7l-0.2-0.4c1-0.9 2.1-1.6 2.6-1.6 0.4 0 0.4 0.6 0.2 1.4l-1.1 3.6c-0.1 0.4-0.1 0.6 0 0.6 0.2 0 0.8-0.4 1.2-0.8l0.2 0.4c-0.6 0.8-1.9 1.7-2.5 1.7zm2-8c-0.4 0-0.7-0.3-0.7-0.8s0.4-1 1-1c0.5 0 0.7 0.4 0.7 0.8 0 0.5-0.4 1-1 1z"/></g></g></svg><svg xmlns:xlink="http://www.w3.org/1999/xlink" height="24" width="21" version="1.1" viewBox="0 0 21 24" id="icon-order-hover" y="634"><title>Group</title><desc>Created with Sketch.</desc><g id="icon-order-hover-BUTTONS" fill-rule="evenodd" transform="translate(-416 -99)" fill="none"><g id="icon-order-hover-services" stroke="#909090" transform="translate(416 100)"><g id="icon-order-hover-Group-6"><g id="icon-order-hover-Group" transform="translate(0.5)"><path id="icon-order-hover-Shape" d="m12.9 2.1h5.2c0.6 0 1 0.4189 1 1.0474v17.806c0 0.628-0.4 1.047-1 1.047h-16.9c-0.6 0-1-0.419-1-1.047v-17.806c0-0.6281 0.4-1.047 1-1.047h5.2"/><path id="icon-order-hover-Shape" stroke-linejoin="round" d="m12.1 4.1h-4.8c-0.4 0-0.8-0.4-0.8-0.8v-1.4c0-0.4 0.4-0.8 0.8-0.8h1.2254s0.0265-0.99983 1.0625-0.99983c1.0361 0 1.0331 0.99983 1.0501 0.99983h1.462c0.4 0 0.8 0.4 0.8 0.8v1.4c0 0.4-0.4 0.8-0.8 0.8z"/><g id="icon-order-hover-Shape" stroke-linejoin="round" fill-rule="nonzero" transform="translate(2 7)" stroke-linecap="round" fill="#fff"><path d="m4.5 1.2h10.3"/><path d="m0.5 1.2h1.3"/><path d="m4.5 5.6h10.3"/><path d="m0.5 5.6h1.3"/><path d="m4.5 9.9h10.3"/><path d="m0.5 9.9h1.3"/></g></g></g></g></g></svg><svg xmlns:xlink="http://www.w3.org/1999/xlink" height="15" width="15" version="1.1" viewBox="0 0 15 15" id="icon-password-hover" y="658"><title>if_lock_318582</title><desc>Created with Sketch.</desc><g id="icon-password-hover-BUTTONS" fill-rule="evenodd" transform="translate(-376 -1572)" fill="none"><g id="icon-password-hover-Group-22" fill-rule="nonzero" transform="translate(376 1568)"><g id="icon-password-hover-if_lock_318582" transform="translate(0 4)"><circle id="icon-password-hover-Oval" cy="7.4597" cx="7.4597" r="7.4597" fill="#909090"/><path id="icon-password-hover-Shape" fill="#fff" d="m9.9861 5.8903h-0.4226v-1.6977c0.0005-0.2607-0.1422-0.4763-0.3151-0.6036-0.175-0.1306-0.389-0.1969-0.6178-0.198h-2.5322c-0.2287 0.0009-0.4429 0.0672-0.6178 0.198-0.1729 0.1273-0.3159 0.3429-0.3156 0.6036v1.6977h-0.4442c-0.2945 0-0.5334 0.1879-0.5334 0.4195v4.4042c0 0.232 0.2387 0.42 0.5334 0.42h5.2653c0.2939 0 0.5329-0.188 0.5329-0.42v-4.4042c0-0.2316-0.239-0.4195-0.5329-0.4195zm-4.0213-1.665c0.021-0.014 0.0707-0.0355 0.1334-0.0347h2.5323c0.0629-0.0003 0.1126 0.0202 0.133 0.0349v1.6648h-2.7988l0.0001-1.665zm1.4928 5.3737v0.961h-0.2641v-0.961c-0.3624-0.063-0.6385-0.3769-0.6385-0.7572 0-0.4257 0.3452-0.7705 0.7708-0.7705 0.4253 0 0.7707 0.345 0.7707 0.7705-0.0002 0.3803-0.2767 0.6942-0.6389 0.7572z"/></g></g></g></svg><svg xmlns:xlink="http://www.w3.org/1999/xlink" height="15" width="15" version="1.1" viewBox="0 0 15 15" id="icon-password" y="673"><title>if_lock_318582</title><desc>Created with Sketch.</desc><g id="icon-password-BUTTONS" fill-rule="evenodd" transform="translate(-56 -1572)" fill="none"><g id="icon-password-Group-22" fill-rule="nonzero" transform="translate(56 1568)"><g id="icon-password-if_lock_318582" transform="translate(0 4)"><circle id="icon-password-Oval" cy="7.4597" cx="7.4597" r="7.4597" fill="#000"/><path id="icon-password-Shape" fill="#fff" d="m9.9861 5.8903h-0.4226v-1.6977c0.0005-0.2607-0.1422-0.4763-0.3151-0.6036-0.175-0.1306-0.389-0.1969-0.6178-0.198h-2.5322c-0.2287 0.0009-0.4429 0.0672-0.6178 0.198-0.1729 0.1273-0.3159 0.3429-0.3156 0.6036v1.6977h-0.4442c-0.2945 0-0.5334 0.1879-0.5334 0.4195v4.4042c0 0.232 0.2387 0.42 0.5334 0.42h5.2653c0.2939 0 0.5329-0.188 0.5329-0.42v-4.4042c0-0.2316-0.239-0.4195-0.5329-0.4195zm-4.0213-1.665c0.021-0.014 0.0707-0.0355 0.1334-0.0347h2.5323c0.0629-0.0003 0.1126 0.0202 0.133 0.0349v1.6648h-2.7988l0.0001-1.665zm1.4928 5.3737v0.961h-0.2641v-0.961c-0.3624-0.063-0.6385-0.3769-0.6385-0.7572 0-0.4257 0.3452-0.7705 0.7708-0.7705 0.4253 0 0.7707 0.345 0.7707 0.7705-0.0002 0.3803-0.2767 0.6942-0.6389 0.7572z"/></g></g></g></svg><svg xmlns:xlink="http://www.w3.org/1999/xlink" height="14" width="18" version="1.1" viewBox="0 0 18 14" id="icon-photo-hover" y="688"><title>icon photo</title><desc>Created with Sketch.</desc><g id="icon-photo-hover-BUTTONS" fill-rule="evenodd" transform="translate(-375 -1932)" fill="none"><g id="icon-photo-hover-Group-3" transform="translate(375 1927)"><g id="icon-photo-hover-icon-photo" transform="translate(0 5)"><rect id="icon-photo-hover-Rectangle-2" rx="2" height="12" width="18" y="2" x="0" fill="#909090"/><rect id="icon-photo-hover-Rectangle-4" rx="1" height="3" width="8" y="0" x="5" fill="#909090"/><circle id="icon-photo-hover-Oval-6" r="3" stroke="#fff" cx="9" cy="8"/></g></g></g></svg><svg xmlns:xlink="http://www.w3.org/1999/xlink" height="14" width="18" version="1.1" viewBox="0 0 18 14" id="icon-photo" y="702"><title>icon photo</title><desc>Created with Sketch.</desc><g id="icon-photo-BUTTONS" fill-rule="evenodd" transform="translate(-55 -1932)" fill="none"><g id="icon-photo-Group-3" transform="translate(55 1927)"><g id="icon-photo-icon-photo" transform="translate(0 5)"><rect id="icon-photo-Rectangle-2" rx="2" height="12" width="18" y="2" x="0" fill="#000"/><rect id="icon-photo-Rectangle-4" rx="1" height="3" width="8" y="0" x="5" fill="#000"/><circle id="icon-photo-Oval-6" r="3" stroke="#fff" cx="9" cy="8"/></g></g></g></svg><svg xmlns:xlink="http://www.w3.org/1999/xlink" height="18" width="18" version="1.1" viewBox="0 0 18 18" id="icon-refund-hover" y="716"><title>Group</title><desc>Created with Sketch.</desc><g id="icon-refund-hover-BUTTONS" fill-rule="evenodd" transform="translate(-376 -1400)" fill="none"><g id="icon-refund-hover-Group-23" fill-rule="nonzero" fill="#909090" transform="translate(376 1396)"><g id="icon-refund-hover-Group" transform="translate(0 4)"><path id="icon-refund-hover-Shape" d="m4.1 16.4c0 0.6 0.4 1 1 1h8c0.6 0 1-0.4 1-1v-2.2h-10v2.2z"/><path id="icon-refund-hover-Shape" d="m9.1 0.4c-4 5-8.3 8.3-8.3 8.3l3.3-0.6v4.5h10v-4.5l3.3 0.6s-4.3-3.3-8.3-8.3z"/></g></g></g></svg><svg xmlns:xlink="http://www.w3.org/1999/xlink" height="18" width="18" version="1.1" viewBox="0 0 18 18" id="icon-refund" y="734"><title>Group</title><desc>Created with Sketch.</desc><g id="icon-refund-BUTTONS" fill-rule="evenodd" transform="translate(-56 -1400)" fill="none"><g id="icon-refund-Group-23" fill-rule="nonzero" fill="#000" transform="translate(56 1396)"><g id="icon-refund-Group" transform="translate(0 4)"><path id="icon-refund-Shape" d="m4.1 16.4c0 0.6 0.4 1 1 1h8c0.6 0 1-0.4 1-1v-2.2h-10v2.2z"/><path id="icon-refund-Shape" d="m9.1 0.4c-4 5-8.3 8.3-8.3 8.3l3.3-0.6v4.5h10v-4.5l3.3 0.6s-4.3-3.3-8.3-8.3z"/></g></g></g></svg><svg xmlns:xlink="http://www.w3.org/1999/xlink" height="18" width="17" version="1.1" viewBox="0 0 17 18" id="icon-repeat-hover" y="752"><title>Shape</title><desc>Created with Sketch.</desc><g id="icon-repeat-hover-BUTTONS" fill-rule="evenodd" transform="translate(-376 -1128)" fill="none"><g id="icon-repeat-hover-4" fill-rule="nonzero" fill="#909090" transform="translate(376 1125)"><path id="icon-repeat-hover-Shape" d="m2.8 3.9v3.1h-2v13.4h12.4v-1.6h3.5v-14.9h-13.9zm1.5 12.4h5.5v1 0.5h-5.6v-1.5h0.1zm-0.1-1.5v-1.5h0.1 5.5v1.5h-5.5-0.1zm5.6-3h-5.5-0.1v-1.5h0.1 5.5v1.5zm5.4 5.5h-2v-10.3h-8.9v-1.6h10.9v11.9z"/></g></g></svg><svg xmlns:xlink="http://www.w3.org/1999/xlink" height="18" width="17" version="1.1" viewBox="0 0 17 18" id="icon-repeat" y="770"><title>Shape</title><desc>Created with Sketch.</desc><g id="icon-repeat-BUTTONS" fill-rule="evenodd" transform="translate(-56 -1128)" fill="none"><g id="icon-repeat-4" fill-rule="nonzero" fill="#000" transform="translate(56 1125)"><path id="icon-repeat-Shape" d="m2.8 3.9v3.1h-2v13.4h12.4v-1.6h3.5v-14.9h-13.9zm1.5 12.4h5.5v1 0.5h-5.6v-1.5h0.1zm-0.1-1.5v-1.5h0.1 5.5v1.5h-5.5-0.1zm5.6-3h-5.5-0.1v-1.5h0.1 5.5v1.5zm5.4 5.5h-2v-10.3h-8.9v-1.6h10.9v11.9z"/></g></g></svg><svg xmlns:xlink="http://www.w3.org/1999/xlink" height="15" width="17" version="1.1" viewBox="0 0 17 15" id="icon-save-hover" y="788"><title>Group 26</title><desc>Created with Sketch.</desc><g id="icon-save-hover-BUTTONS" fill-rule="evenodd" transform="translate(-376 -1085)" fill="none"><g id="icon-save-hover-3" fill-rule="nonzero" fill="#909090" transform="translate(376 1079)"><g id="icon-save-hover-Group-26" transform="translate(0 6)"><path id="icon-save-hover-Shape" d="m8.7 7.2l2.6-2.5c0.3-0.3 0.8-0.3 1.1 0s0.3 0.8 0 1.1l-4.3 4.2-4.3-4.2c-0.3-0.3-0.3-0.8 0-1.1s0.8-0.3 1.1 0l2.5 2.4v-6.8h-7v10.6h15.7v-10.6h-7.2l-0.2 6.9z"/><rect id="icon-save-hover-Rectangle-path" y="12.5" x=".2" height="1.6" width="15.7"/></g></g></g></svg><svg xmlns:xlink="http://www.w3.org/1999/xlink" height="15" width="17" version="1.1" viewBox="0 0 17 15" id="icon-save" y="803"><title>Group 26</title><desc>Created with Sketch.</desc><g id="icon-save-BUTTONS" fill-rule="evenodd" transform="translate(-56 -1085)" fill="none"><g id="icon-save-3" fill-rule="nonzero" fill="#000" transform="translate(56 1079)"><g id="icon-save-Group-26" transform="translate(0 6)"><path id="icon-save-Shape" d="m8.7 7.2l2.6-2.5c0.3-0.3 0.8-0.3 1.1 0s0.3 0.8 0 1.1l-4.3 4.2-4.3-4.2c-0.3-0.3-0.3-0.8 0-1.1s0.8-0.3 1.1 0l2.5 2.4v-6.8h-7v10.6h15.7v-10.6h-7.2l-0.2 6.9z"/><rect id="icon-save-Rectangle-path" y="12.5" x=".2" height="1.6" width="15.7"/></g></g></g></svg><svg xmlns:xlink="http://www.w3.org/1999/xlink" height="17" width="20" version="1.1" viewBox="0 0 20 17" id="icon-talk-hover" y="818"><title>icon talk</title><desc>Created with Sketch.</desc><g id="icon-talk-hover-BUTTONS" fill-rule="evenodd" transform="translate(-428 -748)" fill="none"><g id="icon-talk-hover-icon-talk" transform="translate(428 748)"><path id="icon-talk-hover-Rectangle-3" stroke="#FC261C" d="m4.8941 16.122l4.7953-2.622h8.3106c0.823 0 1.5-0.677 1.5-1.506v-9.9881c0-0.8332-0.668-1.5059-1.491-1.5059h-16.018c-0.8185 0-1.491 0.676-1.491 1.5059v9.9881c0 0.833 0.6701 1.506 1.4964 1.506h3.5068l-0.6091 2.622z"/><g fill="#FC261C"><rect id="icon-talk-hover-Rectangle-8" height="2" width="2" y="7" x="6"/><rect id="icon-talk-hover-Rectangle-9" height="2" width="2" y="7" x="9"/><rect id="icon-talk-hover-Rectangle-10" height="2" width="2" y="7" x="12"/></g></g></g></svg><svg xmlns:xlink="http://www.w3.org/1999/xlink" height="23" width="21" version="1.1" viewBox="0 0 21 23" id="icon-tariffs-hover" y="835"><title>Group</title><desc>Created with Sketch.</desc><g id="icon-tariffs-hover-BUTTONS" stroke-linejoin="round" fill-rule="evenodd" transform="translate(-417 -228)" stroke-linecap="round" fill="none"><g id="icon-tariffs-hover-services" transform="translate(416 100)"><g id="icon-tariffs-hover-service_3" transform="translate(0 129)"><g id="icon-tariffs-hover-Group-13"><g id="icon-tariffs-hover-Group" transform="translate(0.75)"><g id="icon-tariffs-hover-Shape" stroke="#000" fill-rule="nonzero" transform="translate(3 3)" fill="#fff"><path d="m0.6 0.8h13.7"/><path d="m0.6 7.1h13.7"/><path d="m0.6 13.4h13.7"/></g><rect id="icon-tariffs-hover-Rectangle-path" height="21" width="2.6" stroke="#909090" y="0" x=".8"/><rect id="icon-tariffs-hover-Rectangle-path" height="21" width="2.6" stroke="#909090" y="0" x="17.5"/><g stroke="#909090" fill-rule="nonzero" fill="#fff"><path id="icon-tariffs-hover-Shape" d="m6.5 1.9v3.7"/><path id="icon-tariffs-hover-Shape" d="m6.5 8.2v3.7"/><path id="icon-tariffs-hover-Shape" d="m9.1 8.2v3.7"/><path id="icon-tariffs-hover-Shape" d="m9.1 14.6v3.7"/><path id="icon-tariffs-hover-Shape" d="m9.1 1.9v3.7"/><path id="icon-tariffs-hover-Shape" d="m11.7 1.9v3.7"/><path id="icon-tariffs-hover-Shape" d="m11.7 8.2v3.7"/><path id="icon-tariffs-hover-Shape" d="m14.3 1.9v3.7"/><path id="icon-tariffs-hover-Shape" d="m6.5 14.6v3.7"/></g></g></g></g></g></g></svg><svg xmlns:xlink="http://www.w3.org/1999/xlink" height="16" width="17" version="1.1" viewBox="0 0 17 16" id="icon-template-hover" y="858"><title>Group</title><desc>Created with Sketch.</desc><g id="icon-template-hover-BUTTONS" fill-rule="evenodd" transform="translate(-376 -916)" fill="none"><g id="icon-template-hover-template" fill-rule="nonzero" fill="#909090" transform="translate(376 913)"><g id="icon-template-hover-Group" transform="translate(0 3)"><path id="icon-template-hover-Shape" d="m0.5 5.4h16.1v-3.5013c0-0.5516-0.447-0.9987-1.007-0.9987h-14.086c-0.55609 0-1.007 0.4479-1.007 0.9987v3.5013z"/><path id="icon-template-hover-Rectangle-path" d="m0.5 7h6v8.9h-5.0092c-0.54721 0-0.9908-0.454-0.9908-1.004v-7.896z"/><path id="icon-template-hover-Rectangle-path" d="m8 7h8.6v7.896c0 0.555-0.438 1.004-1.003 1.004h-7.597v-8.9z"/></g></g></g></svg><svg xmlns:xlink="http://www.w3.org/1999/xlink" height="16" width="17" version="1.1" viewBox="0 0 17 16" id="icon-template" y="874"><title>Group</title><desc>Created with Sketch.</desc><g id="icon-template-BUTTONS" fill-rule="evenodd" transform="translate(-56 -916)" fill="none"><g id="icon-template-template" fill-rule="nonzero" fill="#000" transform="translate(56 913)"><g id="icon-template-Group" transform="translate(0 3)"><path id="icon-template-Shape" d="m0.5 5.4h16.1v-3.5013c0-0.5516-0.447-0.9987-1.007-0.9987h-14.086c-0.55609 0-1.007 0.4479-1.007 0.9987v3.5013z"/><path id="icon-template-Rectangle-path" d="m0.5 7h6v8.9h-5.0092c-0.54721 0-0.9908-0.454-0.9908-1.004v-7.896z"/><path id="icon-template-Rectangle-path" d="m8 7h8.6v7.896c0 0.555-0.438 1.004-1.003 1.004h-7.597v-8.9z"/></g></g></g></svg></svg>
