<?xml version="1.0"?>
<!--Icons from directory ""-->
<svg xmlns="http://www.w3.org/2000/svg" width="20" height="261" viewBox="0 0 20 261"><svg xmlns:xlink="http://www.w3.org/1999/xlink" height="16" width="16" version="1.1" viewBox="0 0 16 16" id="icon-edit-lk-active" y="0"><title>XMLID_13_</title><desc>Created with Sketch.</desc><g id="icon-edit-lk-active-BUTTONS" stroke-linejoin="round" fill-rule="evenodd" transform="translate(-817 -746)" stroke-linecap="round" fill="none"><g id="icon-edit-lk-active-XMLID_13_" stroke="#000" transform="translate(817 746)"><path id="icon-edit-lk-active-XMLID_35_" d="m5.4 12.9l-4.8 1.9s-0.1 0-0.1-0.1l2-4.7c0-0.1 0.1-0.2 0.2-0.2l9.3-9.3 3 3-9.3 9.3c-0.1 0-0.2 0.1-0.3 0.1z"/><path id="icon-edit-lk-active-XMLID_34_" stroke-width=".5" d="m13.7 2.1l-9.2 9.3"/><path id="icon-edit-lk-active-XMLID_33_" d="m1.2 13.1l1 1"/><path id="icon-edit-lk-active-XMLID_32_" d="m13.2 15.1h1.3"/><path id="icon-edit-lk-active-XMLID_31_" d="m9.6 15.1h1.3"/><path id="icon-edit-lk-active-XMLID_27_" d="m6 15.1h1.3"/></g></g></svg><svg xmlns:xlink="http://www.w3.org/1999/xlink" height="16" width="16" version="1.1" viewBox="0 0 16 16" id="icon-edit-lk-hover" y="16"><title>XMLID_13_</title><desc>Created with Sketch.</desc><g id="icon-edit-lk-hover-BUTTONS" stroke-linejoin="round" fill-rule="evenodd" transform="translate(-468 -746)" stroke-linecap="round" fill="none"><g id="icon-edit-lk-hover-XMLID_13_" stroke="#FC261C" transform="translate(468 746)"><path id="icon-edit-lk-hover-XMLID_35_" d="m5.4 12.9l-4.8 1.9s-0.1 0-0.1-0.1l2-4.7c0-0.1 0.1-0.2 0.2-0.2l9.3-9.3 3 3-9.3 9.3c-0.1 0-0.2 0.1-0.3 0.1z"/><path id="icon-edit-lk-hover-XMLID_34_" stroke-width=".5" d="m13.7 2.1l-9.2 9.3"/><path id="icon-edit-lk-hover-XMLID_33_" d="m1.2 13.1l1 1"/><path id="icon-edit-lk-hover-XMLID_32_" d="m13.2 15.1h1.3"/><path id="icon-edit-lk-hover-XMLID_31_" d="m9.6 15.1h1.3"/><path id="icon-edit-lk-hover-XMLID_27_" d="m6 15.1h1.3"/></g></g></svg><svg xmlns:xlink="http://www.w3.org/1999/xlink" height="16" width="16" version="1.1" viewBox="0 0 16 16" id="icon-edit-lk" y="32"><title>XMLID_13_</title><desc>Created with Sketch.</desc><g id="icon-edit-lk-BUTTONS" stroke-linejoin="round" fill-rule="evenodd" transform="translate(-137 -746)" stroke-linecap="round" fill="none"><g id="icon-edit-lk-XMLID_13_" stroke="#808080" transform="translate(137 746)"><path id="icon-edit-lk-XMLID_35_" d="m5.4 12.9l-4.8 1.9s-0.1 0-0.1-0.1l2-4.7c0-0.1 0.1-0.2 0.2-0.2l9.3-9.3 3 3-9.3 9.3c-0.1 0-0.2 0.1-0.3 0.1z"/><path id="icon-edit-lk-XMLID_34_" stroke-width=".5" d="m13.7 2.1l-9.2 9.3"/><path id="icon-edit-lk-XMLID_33_" d="m1.2 13.1l1 1"/><path id="icon-edit-lk-XMLID_32_" d="m13.2 15.1h1.3"/><path id="icon-edit-lk-XMLID_31_" d="m9.6 15.1h1.3"/><path id="icon-edit-lk-XMLID_27_" d="m6 15.1h1.3"/></g></g></svg><svg xmlns:xlink="http://www.w3.org/1999/xlink" height="18" width="16" version="1.1" viewBox="0 0 16 18" id="icon-lk-filter-active" y="48"><title>1496757375_filter</title><desc>Created with Sketch.</desc><g id="icon-lk-filter-active-BUTTONS" stroke-linejoin="round" fill-rule="evenodd" transform="translate(-861 -747)" stroke-linecap="round" fill="none"><g id="icon-lk-filter-active-1496757375_filter" stroke="#000" transform="translate(862 748)"><path id="icon-lk-filter-active-Shape" d="m5.1681 15.568h1.7359l2.3601-1.715v-5.7398l4.7519-7.2434c0 0.00003 0.216-0.8098-0.389-0.8098h-12.889c-0.66788 0-0.25763 0.78235-0.25763 0.78235l4.6938 7.1802-0.0061 7.5454z"/><path id="icon-lk-filter-active-Shape" d="m5.1742 8h4.1353"/><path id="icon-lk-filter-active-Shape" stroke-width=".5" d="m8.5039 5.6299l3.6661-5.5191"/></g></g></svg><svg xmlns:xlink="http://www.w3.org/1999/xlink" height="18" width="16" version="1.1" viewBox="0 0 16 18" id="icon-lk-filter-hover" y="66"><title>1496757375_filter</title><desc>Created with Sketch.</desc><g id="icon-lk-filter-hover-BUTTONS" stroke-linejoin="round" fill-rule="evenodd" transform="translate(-512 -747)" stroke-linecap="round" fill="none"><g id="icon-lk-filter-hover-1496757375_filter" stroke="#FC261C" transform="translate(513 748)"><path id="icon-lk-filter-hover-Shape" d="m5.1681 15.568h1.7359l2.3601-1.715v-5.7398l4.7519-7.2434c0 0.00003 0.216-0.8098-0.389-0.8098h-12.889c-0.66788 0-0.25763 0.78235-0.25763 0.78235l4.6938 7.1802-0.0061 7.5454z"/><path id="icon-lk-filter-hover-Shape" d="m5.1742 8h4.1353"/><path id="icon-lk-filter-hover-Shape" stroke-width=".5" d="m8.5039 5.6299l3.6661-5.5191"/></g></g></svg><svg xmlns:xlink="http://www.w3.org/1999/xlink" height="18" width="16" version="1.1" viewBox="0 0 16 18" id="icon-lk-filter" y="84"><title>1496757375_filter</title><desc>Created with Sketch.</desc><g id="icon-lk-filter-BUTTONS" stroke-linejoin="round" fill-rule="evenodd" transform="translate(-181 -747)" stroke-linecap="round" fill="none"><g id="icon-lk-filter-1496757375_filter" stroke="#808080" transform="translate(182 748)"><path id="icon-lk-filter-Shape" d="m5.1681 15.568h1.7359l2.3601-1.715v-5.7398l4.7519-7.2434c0 0.00003 0.216-0.8098-0.389-0.8098h-12.889c-0.66788 0-0.25763 0.78235-0.25763 0.78235l4.6938 7.1802-0.0061 7.5454z"/><path id="icon-lk-filter-Shape" d="m5.1742 8h4.1353"/><path id="icon-lk-filter-Shape" stroke-width=".5" d="m8.5039 5.6299l3.6661-5.5191"/></g></g></svg><svg xmlns:xlink="http://www.w3.org/1999/xlink" height="19" width="16" version="1.1" viewBox="0 0 16 19" id="icon-lk-history-active" y="102"><title>Group 4</title><desc>Created with Sketch.</desc><g id="icon-lk-history-active-BUTTONS" fill-rule="evenodd" transform="translate(-794 -795)" fill="none"><g id="icon-lk-history-active-Group-4" stroke="#FC261C" transform="translate(794 796)"><path id="icon-lk-history-active-Oval-2" d="m4.285 3.2709c-2.3206 1.3256-3.785 3.7927-3.785 6.5168 0 4.1423 3.3579 7.5003 7.5 7.5003 4.142 0 7.5-3.358 7.5-7.5003 0-4.1211-3.324-7.4659-7.437-7.4997l-3.778 0.9829z"/><polyline id="icon-lk-history-active-Line" opacity="0.9" stroke-width="1.3" stroke-linecap="square" points="7.9727 6.4935 7.9727 10.54 10.011 11.54"/><polyline id="icon-lk-history-active-Path-6" stroke-linecap="round" points="9.9154 5.1607 8.0099 2.3521 10.537 0.14418"/></g></g></svg><svg xmlns:xlink="http://www.w3.org/1999/xlink" height="19" width="16" version="1.1" viewBox="0 0 16 19" id="icon-lk-history-hover" y="121"><title>Group 4</title><desc>Created with Sketch.</desc><g id="icon-lk-history-hover-BUTTONS" fill-rule="evenodd" transform="translate(-444 -795)" fill="none"><g id="icon-lk-history-hover-Group-4" stroke="#000" transform="translate(444 796)"><path id="icon-lk-history-hover-Oval-2" d="m4.285 3.2709c-2.3206 1.3256-3.785 3.7927-3.785 6.5168 0 4.1423 3.3579 7.5003 7.5 7.5003 4.142 0 7.5-3.358 7.5-7.5003 0-4.1211-3.324-7.4659-7.437-7.4997l-3.778 0.9829z"/><polyline id="icon-lk-history-hover-Line" opacity="0.9" stroke-width="1.3" stroke-linecap="square" points="7.9727 6.4935 7.9727 10.54 10.011 11.54"/><polyline id="icon-lk-history-hover-Path-6" stroke-linecap="round" points="9.9154 5.1607 8.0099 2.3521 10.537 0.14418"/></g></g></svg><svg xmlns:xlink="http://www.w3.org/1999/xlink" height="19" width="16" version="1.1" viewBox="0 0 16 19" id="icon-lk-history" y="140"><title>Group 4</title><desc>Created with Sketch.</desc><g id="icon-lk-history-BUTTONS" fill-rule="evenodd" transform="translate(-114 -795)" fill="none"><g id="icon-lk-history-Group-4" stroke="#909090" transform="translate(114 796)"><path id="icon-lk-history-Oval-2" d="m4.285 3.2709c-2.3206 1.3256-3.785 3.7927-3.785 6.5168 0 4.1423 3.3579 7.5003 7.5 7.5003 4.142 0 7.5-3.358 7.5-7.5003 0-4.1211-3.324-7.4659-7.437-7.4997l-3.778 0.9829z"/><polyline id="icon-lk-history-Line" opacity="0.9" stroke-width="1.3" stroke-linecap="square" points="7.9727 6.4935 7.9727 10.54 10.011 11.54"/><polyline id="icon-lk-history-Path-6" stroke-linecap="round" points="9.9154 5.1607 8.0099 2.3521 10.537 0.14418"/></g></g></svg><svg xmlns:xlink="http://www.w3.org/1999/xlink" height="17" width="16" version="1.1" viewBox="0 0 16 17" id="icon-lk-info-active" y="159"><title>Group 28</title><desc>Created with Sketch.</desc><g id="icon-lk-info-active-BUTTONS" opacity="0.9" fill-rule="evenodd" transform="translate(-838 -798)" fill="none"><g id="icon-lk-info-active-Group-28" transform="translate(838 798)"><circle id="icon-lk-info-active-Oval-2" r="7.5" stroke="#FC261C" cx="8" cy="8.7877"/><path id="icon-lk-info-active-i" fill="#FC261C" d="m8.8032 14h-1.6064v-7.5605h1.6064v7.5605zm-1.7021-9.5635c0-0.2871 0.0786-0.5081 0.2358-0.6631 0.1572-0.1549 0.3817-0.2324 0.6734-0.2324 0.2825 0 0.5024 0.0775 0.6596 0.2324 0.1572 0.155 0.2359 0.376 0.2359 0.6631 0 0.2735-0.0787 0.4888-0.2359 0.646s-0.3771 0.2359-0.6596 0.2359c-0.2917 0-0.5162-0.0787-0.6734-0.2359s-0.2358-0.3725-0.2358-0.646z"/></g></g></svg><svg xmlns:xlink="http://www.w3.org/1999/xlink" height="17" width="16" version="1.1" viewBox="0 0 16 17" id="icon-lk-info-hover" y="176"><title>Group 28</title><desc>Created with Sketch.</desc><g id="icon-lk-info-hover-BUTTONS" opacity="0.9" fill-rule="evenodd" transform="translate(-488 -798)" fill="none"><g id="icon-lk-info-hover-Group-28" transform="translate(488 798)"><circle id="icon-lk-info-hover-Oval-2" r="7.5" stroke="#000" cx="8" cy="8.7877"/><path id="icon-lk-info-hover-i" fill="#000" d="m8.8032 14h-1.6064v-7.5605h1.6064v7.5605zm-1.7021-9.5635c0-0.2871 0.0786-0.5081 0.2358-0.6631 0.1572-0.1549 0.3817-0.2324 0.6734-0.2324 0.2825 0 0.5024 0.0775 0.6596 0.2324 0.1572 0.155 0.2359 0.376 0.2359 0.6631 0 0.2735-0.0787 0.4888-0.2359 0.646s-0.3771 0.2359-0.6596 0.2359c-0.2917 0-0.5162-0.0787-0.6734-0.2359s-0.2358-0.3725-0.2358-0.646z"/></g></g></svg><svg xmlns:xlink="http://www.w3.org/1999/xlink" height="17" width="16" version="1.1" viewBox="0 0 16 17" id="icon-lk-info" y="193"><title>Group 28</title><desc>Created with Sketch.</desc><g id="icon-lk-info-BUTTONS" opacity="0.9" fill-rule="evenodd" transform="translate(-158 -798)" fill="none"><g id="icon-lk-info-Group-28" transform="translate(158 798)"><circle id="icon-lk-info-Oval-2" r="7.5" stroke="#909090" cx="8" cy="8.7877"/><path id="icon-lk-info-i" fill="#909090" d="m8.8032 14h-1.6064v-7.5605h1.6064v7.5605zm-1.7021-9.5635c0-0.2871 0.0786-0.5081 0.2358-0.6631 0.1572-0.1549 0.3817-0.2324 0.6734-0.2324 0.2825 0 0.5024 0.0775 0.6596 0.2324 0.1572 0.155 0.2359 0.376 0.2359 0.6631 0 0.2735-0.0787 0.4888-0.2359 0.646s-0.3771 0.2359-0.6596 0.2359c-0.2917 0-0.5162-0.0787-0.6734-0.2359s-0.2358-0.3725-0.2358-0.646z"/></g></g></svg><svg xmlns:xlink="http://www.w3.org/1999/xlink" height="17" width="20" version="1.1" viewBox="0 0 20 17" id="icon-lk-talk-active" y="210"><title>icon talk</title><desc>Created with Sketch.</desc><g id="icon-lk-talk-active-BUTTONS" fill-rule="evenodd" transform="translate(-777 -748)" fill="none"><g id="icon-lk-talk-active-icon-talk" transform="translate(777 748)"><path id="icon-lk-talk-active-Rectangle-3" stroke="#000" d="m4.8941 16.122l4.7953-2.622h8.3106c0.823 0 1.5-0.677 1.5-1.506v-9.9881c0-0.8332-0.668-1.5059-1.491-1.5059h-16.018c-0.8185 0-1.491 0.676-1.491 1.5059v9.9881c0 0.833 0.6701 1.506 1.4964 1.506h3.5068l-0.6091 2.622z"/><g fill="#000"><rect id="icon-lk-talk-active-Rectangle-8" height="2" width="2" y="7" x="6"/><rect id="icon-lk-talk-active-Rectangle-9" height="2" width="2" y="7" x="9"/><rect id="icon-lk-talk-active-Rectangle-10" height="2" width="2" y="7" x="12"/></g></g></g></svg><svg xmlns:xlink="http://www.w3.org/1999/xlink" height="17" width="20" version="1.1" viewBox="0 0 20 17" id="icon-lk-talk-hover" y="227"><title>icon talk</title><desc>Created with Sketch.</desc><g id="icon-lk-talk-hover-BUTTONS" fill-rule="evenodd" transform="translate(-428 -748)" fill="none"><g id="icon-lk-talk-hover-icon-talk" transform="translate(428 748)"><path id="icon-lk-talk-hover-Rectangle-3" stroke="#FC261C" d="m4.8941 16.122l4.7953-2.622h8.3106c0.823 0 1.5-0.677 1.5-1.506v-9.9881c0-0.8332-0.668-1.5059-1.491-1.5059h-16.018c-0.8185 0-1.491 0.676-1.491 1.5059v9.9881c0 0.833 0.6701 1.506 1.4964 1.506h3.5068l-0.6091 2.622z"/><g fill="#FC261C"><rect id="icon-lk-talk-hover-Rectangle-8" height="2" width="2" y="7" x="6"/><rect id="icon-lk-talk-hover-Rectangle-9" height="2" width="2" y="7" x="9"/><rect id="icon-lk-talk-hover-Rectangle-10" height="2" width="2" y="7" x="12"/></g></g></g></svg><svg xmlns:xlink="http://www.w3.org/1999/xlink" height="17" width="20" version="1.1" viewBox="0 0 20 17" id="icon-lk-talk" y="244"><title>icon talk</title><desc>Created with Sketch.</desc><g id="icon-lk-talk-BUTTONS" fill-rule="evenodd" transform="translate(-97 -748)" fill="none"><g id="icon-lk-talk-icon-talk" transform="translate(97 748)"><path id="icon-lk-talk-Rectangle-3" stroke="#808080" d="m4.8941 16.122l4.7953-2.622h8.3106c0.823 0 1.5-0.677 1.5-1.506v-9.9881c0-0.8332-0.668-1.5059-1.491-1.5059h-16.018c-0.8185 0-1.491 0.676-1.491 1.5059v9.9881c0 0.833 0.6701 1.506 1.4964 1.506h3.5068l-0.6091 2.622z"/><g fill="#808080"><rect id="icon-lk-talk-Rectangle-8" height="2" width="2" y="7" x="6"/><rect id="icon-lk-talk-Rectangle-9" height="2" width="2" y="7" x="9"/><rect id="icon-lk-talk-Rectangle-10" height="2" width="2" y="7" x="12"/></g></g></g></svg></svg>
